<svg xmlns="http://www.w3.org/2000/svg" xmlns:xlink="http://www.w3.org/1999/xlink" viewBox="-691 2686 512 512"><defs><style>.a,.k,.l,.m,.n{fill:#fff;}.b{clip-path:url(#f);}.c{fill:#e8e8e8;}.d{clip-path:url(#a);}.e{fill:#ffdb77;}.f{fill:#ff905e;}.g{fill:#28d2e4;}.h{fill:#28c3e4;}.i{fill:#808285;}.j{fill:#6d6e71;}.k{opacity:0.9;}.l{opacity:0.65;}.m{opacity:0.35;}.n{opacity:0;}</style><clipPath id="a"><rect class="a" width="149.624" height="149.624" transform="translate(0 0)"/></clipPath><clipPath id="f"><rect x="-691" y="2686" width="512" height="512"/></clipPath></defs><g id="e" class="b"><g transform="translate(-1503 41)"><g transform="translate(1083.059 2735)"><rect class="c" width="240.941" height="240.941" rx="2" transform="translate(0 0)"/><g class="d" transform="translate(45.659 45.659)"><g transform="translate(0.001 0)"><path class="e" d="M53.186,68.686,20.567,36.067a5.755,5.755,0,0,1,8.138-8.138L61.325,60.547a5.755,5.755,0,1,1-8.138,8.138Z" transform="translate(25.261 35.109)"/><path class="f" d="M51.027,50.249,34.717,33.94l-8.138,8.138L42.888,58.387a5.755,5.755,0,1,0,8.138-8.138Z" transform="translate(35.559 45.407)"/><path class="e" d="M74.793,47.079,42.174,14.46a5.755,5.755,0,0,1,8.138-8.138L82.931,38.94a5.755,5.755,0,0,1-8.138,8.138Z" transform="translate(54.168 6.202)"/><path class="f" d="M72.633,28.642,56.324,12.333l-8.138,8.138L64.5,36.78a5.755,5.755,0,0,0,8.138-8.138Z" transform="translate(64.466 16.5)"/><path class="g" d="M38.939,82.93,6.321,50.313a5.755,5.755,0,0,1,8.138-8.138L47.077,74.792a5.755,5.755,0,0,1-8.138,8.139Z" transform="translate(6.201 54.169)"/><path class="h" d="M36.78,64.495,20.471,48.186l-8.138,8.138L28.641,72.633a5.755,5.755,0,0,0,8.138-8.138Z" transform="translate(16.499 64.466)"/><path class="g" d="M60.547,61.325,27.928,28.706a5.755,5.755,0,0,1,8.138-8.138L68.686,53.186a5.755,5.755,0,0,1-8.138,8.138Z" transform="translate(35.108 25.261)"/><path class="h" d="M58.388,42.888,42.078,26.579,33.94,34.717,50.249,51.026a5.755,5.755,0,0,0,8.138-8.138Z" transform="translate(45.407 35.559)"/><path class="i" d="M107.079,56.565c10.858,1.284,29.682,1.52,40.858-9.656a5.755,5.755,0,1,0-8.138-8.138c-7.884,7.884-23.841,7.674-34.853,5.867-1.551-9.243-2.414-26.493,5.907-34.813a5.755,5.755,0,0,0-8.138-8.138c-11.176,11.176-10.94,30-9.656,40.858C56.367,38.206,38.112,55.576,42.544,93.058c-10.858-1.284-29.683-1.52-40.858,9.656a5.755,5.755,0,0,0,8.138,8.138c7.868-7.868,23.783-7.679,34.819-5.872,1.805,11.031,2,26.949-5.872,34.819a5.755,5.755,0,0,0,8.138,8.138c11.176-11.176,10.94-30,9.656-40.858C93.256,111.417,111.51,94.047,107.079,56.565Zm-11.922-2.1c5.189,31.714-6.758,41.8-28.671,41.723a77.818,77.818,0,0,1-12.02-1.032,77.8,77.8,0,0,1-1.032-12.02C53.355,61.752,62.884,49.183,95.157,54.466Z" transform="translate(0 0)"/><path class="j" d="M35.343,85.857c36.692,4.338,54.946-13.032,50.514-50.514,10.858,1.284,29.682,1.52,40.858-9.656a5.755,5.755,0,0,0-8.138-8.138c-7.876,7.876-23.808,7.674-34.819,5.872l-9.823,9.823c5.189,31.714-6.758,41.8-28.671,41.723a77.816,77.816,0,0,1-12.02-1.032L23.42,83.758c1.805,11.031,2,26.949-5.872,34.819a5.755,5.755,0,1,0,8.138,8.138C36.863,115.539,36.627,96.715,35.343,85.857Z" transform="translate(21.221 21.222)"/></g></g><rect class="k" width="240.941" height="240.941" rx="2" transform="translate(0 0)"/></g><g transform="translate(992.706 2765.118)"><rect class="c" width="240.941" height="240.941" rx="2" transform="translate(0 0)"/><g class="d" transform="translate(45.659 45.659)"><g transform="translate(0.001 0)"><path class="e" d="M53.186,68.686,20.567,36.067a5.755,5.755,0,0,1,8.138-8.138L61.325,60.547a5.755,5.755,0,1,1-8.138,8.138Z" transform="translate(25.261 35.109)"/><path class="f" d="M51.027,50.249,34.717,33.94l-8.138,8.138L42.888,58.387a5.755,5.755,0,1,0,8.138-8.138Z" transform="translate(35.559 45.407)"/><path class="e" d="M74.793,47.079,42.174,14.46a5.755,5.755,0,0,1,8.138-8.138L82.931,38.94a5.755,5.755,0,0,1-8.138,8.138Z" transform="translate(54.168 6.202)"/><path class="f" d="M72.633,28.642,56.324,12.333l-8.138,8.138L64.5,36.78a5.755,5.755,0,0,0,8.138-8.138Z" transform="translate(64.466 16.5)"/><path class="g" d="M38.939,82.93,6.321,50.313a5.755,5.755,0,0,1,8.138-8.138L47.077,74.792a5.755,5.755,0,0,1-8.138,8.139Z" transform="translate(6.201 54.169)"/><path class="h" d="M36.78,64.495,20.471,48.186l-8.138,8.138L28.641,72.633a5.755,5.755,0,0,0,8.138-8.138Z" transform="translate(16.499 64.466)"/><path class="g" d="M60.547,61.325,27.928,28.706a5.755,5.755,0,0,1,8.138-8.138L68.686,53.186a5.755,5.755,0,0,1-8.138,8.138Z" transform="translate(35.108 25.261)"/><path class="h" d="M58.388,42.888,42.078,26.579,33.94,34.717,50.249,51.026a5.755,5.755,0,0,0,8.138-8.138Z" transform="translate(45.407 35.559)"/><path class="i" d="M107.079,56.565c10.858,1.284,29.682,1.52,40.858-9.656a5.755,5.755,0,1,0-8.138-8.138c-7.884,7.884-23.841,7.674-34.853,5.867-1.551-9.243-2.414-26.493,5.907-34.813a5.755,5.755,0,0,0-8.138-8.138c-11.176,11.176-10.94,30-9.656,40.858C56.367,38.206,38.112,55.576,42.544,93.058c-10.858-1.284-29.683-1.52-40.858,9.656a5.755,5.755,0,0,0,8.138,8.138c7.868-7.868,23.783-7.679,34.819-5.872,1.805,11.031,2,26.949-5.872,34.819a5.755,5.755,0,0,0,8.138,8.138c11.176-11.176,10.94-30,9.656-40.858C93.256,111.417,111.51,94.047,107.079,56.565Zm-11.922-2.1c5.189,31.714-6.758,41.8-28.671,41.723a77.818,77.818,0,0,1-12.02-1.032,77.8,77.8,0,0,1-1.032-12.02C53.355,61.752,62.884,49.183,95.157,54.466Z" transform="translate(0 0)"/><path class="j" d="M35.343,85.857c36.692,4.338,54.946-13.032,50.514-50.514,10.858,1.284,29.682,1.52,40.858-9.656a5.755,5.755,0,0,0-8.138-8.138c-7.876,7.876-23.808,7.674-34.819,5.872l-9.823,9.823c5.189,31.714-6.758,41.8-28.671,41.723a77.816,77.816,0,0,1-12.02-1.032L23.42,83.758c1.805,11.031,2,26.949-5.872,34.819a5.755,5.755,0,1,0,8.138,8.138C36.863,115.539,36.627,96.715,35.343,85.857Z" transform="translate(21.221 21.222)"/></g></g><rect class="l" width="240.941" height="240.941" rx="2" transform="translate(0 0)"/></g><g transform="translate(902.353 2795.235)"><rect class="c" width="240.941" height="240.941" rx="2" transform="translate(0 0)"/><g class="d" transform="translate(45.659 45.659)"><g transform="translate(0.001 0)"><path class="e" d="M53.186,68.686,20.567,36.067a5.755,5.755,0,0,1,8.138-8.138L61.325,60.547a5.755,5.755,0,1,1-8.138,8.138Z" transform="translate(25.261 35.109)"/><path class="f" d="M51.027,50.249,34.717,33.94l-8.138,8.138L42.888,58.387a5.755,5.755,0,1,0,8.138-8.138Z" transform="translate(35.559 45.407)"/><path class="e" d="M74.793,47.079,42.174,14.46a5.755,5.755,0,0,1,8.138-8.138L82.931,38.94a5.755,5.755,0,0,1-8.138,8.138Z" transform="translate(54.168 6.202)"/><path class="f" d="M72.633,28.642,56.324,12.333l-8.138,8.138L64.5,36.78a5.755,5.755,0,0,0,8.138-8.138Z" transform="translate(64.466 16.5)"/><path class="g" d="M38.939,82.93,6.321,50.313a5.755,5.755,0,0,1,8.138-8.138L47.077,74.792a5.755,5.755,0,0,1-8.138,8.139Z" transform="translate(6.201 54.169)"/><path class="h" d="M36.78,64.495,20.471,48.186l-8.138,8.138L28.641,72.633a5.755,5.755,0,0,0,8.138-8.138Z" transform="translate(16.499 64.466)"/><path class="g" d="M60.547,61.325,27.928,28.706a5.755,5.755,0,0,1,8.138-8.138L68.686,53.186a5.755,5.755,0,0,1-8.138,8.138Z" transform="translate(35.108 25.261)"/><path class="h" d="M58.388,42.888,42.078,26.579,33.94,34.717,50.249,51.026a5.755,5.755,0,0,0,8.138-8.138Z" transform="translate(45.407 35.559)"/><path class="i" d="M107.079,56.565c10.858,1.284,29.682,1.52,40.858-9.656a5.755,5.755,0,1,0-8.138-8.138c-7.884,7.884-23.841,7.674-34.853,5.867-1.551-9.243-2.414-26.493,5.907-34.813a5.755,5.755,0,0,0-8.138-8.138c-11.176,11.176-10.94,30-9.656,40.858C56.367,38.206,38.112,55.576,42.544,93.058c-10.858-1.284-29.683-1.52-40.858,9.656a5.755,5.755,0,0,0,8.138,8.138c7.868-7.868,23.783-7.679,34.819-5.872,1.805,11.031,2,26.949-5.872,34.819a5.755,5.755,0,0,0,8.138,8.138c11.176-11.176,10.94-30,9.656-40.858C93.256,111.417,111.51,94.047,107.079,56.565Zm-11.922-2.1c5.189,31.714-6.758,41.8-28.671,41.723a77.818,77.818,0,0,1-12.02-1.032,77.8,77.8,0,0,1-1.032-12.02C53.355,61.752,62.884,49.183,95.157,54.466Z" transform="translate(0 0)"/><path class="j" d="M35.343,85.857c36.692,4.338,54.946-13.032,50.514-50.514,10.858,1.284,29.682,1.52,40.858-9.656a5.755,5.755,0,0,0-8.138-8.138c-7.876,7.876-23.808,7.674-34.819,5.872l-9.823,9.823c5.189,31.714-6.758,41.8-28.671,41.723a77.816,77.816,0,0,1-12.02-1.032L23.42,83.758c1.805,11.031,2,26.949-5.872,34.819a5.755,5.755,0,1,0,8.138,8.138C36.863,115.539,36.627,96.715,35.343,85.857Z" transform="translate(21.221 21.222)"/></g></g><rect class="m" width="240.941" height="240.941" rx="2" transform="translate(0 0)"/></g><g transform="translate(812 2825.353)"><rect class="c" width="240.941" height="240.941" rx="2" transform="translate(0 0)"/><g class="d" transform="translate(45.659 45.659)"><g transform="translate(0.001 0)"><path class="e" d="M53.186,68.686,20.567,36.067a5.755,5.755,0,0,1,8.138-8.138L61.325,60.547a5.755,5.755,0,1,1-8.138,8.138Z" transform="translate(25.261 35.109)"/><path class="f" d="M51.027,50.249,34.717,33.94l-8.138,8.138L42.888,58.387a5.755,5.755,0,1,0,8.138-8.138Z" transform="translate(35.559 45.407)"/><path class="e" d="M74.793,47.079,42.174,14.46a5.755,5.755,0,0,1,8.138-8.138L82.931,38.94a5.755,5.755,0,0,1-8.138,8.138Z" transform="translate(54.168 6.202)"/><path class="f" d="M72.633,28.642,56.324,12.333l-8.138,8.138L64.5,36.78a5.755,5.755,0,0,0,8.138-8.138Z" transform="translate(64.466 16.5)"/><path class="g" d="M38.939,82.93,6.321,50.313a5.755,5.755,0,0,1,8.138-8.138L47.077,74.792a5.755,5.755,0,0,1-8.138,8.139Z" transform="translate(6.201 54.169)"/><path class="h" d="M36.78,64.495,20.471,48.186l-8.138,8.138L28.641,72.633a5.755,5.755,0,0,0,8.138-8.138Z" transform="translate(16.499 64.466)"/><path class="g" d="M60.547,61.325,27.928,28.706a5.755,5.755,0,0,1,8.138-8.138L68.686,53.186a5.755,5.755,0,0,1-8.138,8.138Z" transform="translate(35.108 25.261)"/><path class="h" d="M58.388,42.888,42.078,26.579,33.94,34.717,50.249,51.026a5.755,5.755,0,0,0,8.138-8.138Z" transform="translate(45.407 35.559)"/><path class="i" d="M107.079,56.565c10.858,1.284,29.682,1.52,40.858-9.656a5.755,5.755,0,1,0-8.138-8.138c-7.884,7.884-23.841,7.674-34.853,5.867-1.551-9.243-2.414-26.493,5.907-34.813a5.755,5.755,0,0,0-8.138-8.138c-11.176,11.176-10.94,30-9.656,40.858C56.367,38.206,38.112,55.576,42.544,93.058c-10.858-1.284-29.683-1.52-40.858,9.656a5.755,5.755,0,0,0,8.138,8.138c7.868-7.868,23.783-7.679,34.819-5.872,1.805,11.031,2,26.949-5.872,34.819a5.755,5.755,0,0,0,8.138,8.138c11.176-11.176,10.94-30,9.656-40.858C93.256,111.417,111.51,94.047,107.079,56.565Zm-11.922-2.1c5.189,31.714-6.758,41.8-28.671,41.723a77.818,77.818,0,0,1-12.02-1.032,77.8,77.8,0,0,1-1.032-12.02C53.355,61.752,62.884,49.183,95.157,54.466Z" transform="translate(0 0)"/><path class="j" d="M35.343,85.857c36.692,4.338,54.946-13.032,50.514-50.514,10.858,1.284,29.682,1.52,40.858-9.656a5.755,5.755,0,0,0-8.138-8.138c-7.876,7.876-23.808,7.674-34.819,5.872l-9.823,9.823c5.189,31.714-6.758,41.8-28.671,41.723a77.816,77.816,0,0,1-12.02-1.032L23.42,83.758c1.805,11.031,2,26.949-5.872,34.819a5.755,5.755,0,1,0,8.138,8.138C36.863,115.539,36.627,96.715,35.343,85.857Z" transform="translate(21.221 21.222)"/></g></g><rect class="n" width="240.941" height="240.941" rx="2" transform="translate(0 0)"/></g></g></g></svg>