<svg xmlns="http://www.w3.org/2000/svg" xmlns:xlink="http://www.w3.org/1999/xlink" viewBox="473 2686 512 512"><defs><style>.a{clip-path:url(#b);}.b{fill:#b5b5b5;}.c{fill:#555;font-size:246px;font-family:Roboto-Medium, Roboto;font-weight:500;letter-spacing:-0.05em;}.d{fill:#34aeff;}</style><clipPath id="b"><rect x="473" y="2686" width="512" height="512"/></clipPath></defs><g id="a" class="a"><g transform="translate(-35.715 1469.827)"><path class="b" d="M508.016,362.893v0H359.325V172.331C445.035,113.032,491.863,32.06,508.016,0V362.893Zm-179.667,0v0H179.664V250.332c59.249-16.573,109.272-36.281,148.685-58.572V362.893Zm-179.664,0v0H0V286.109A1289.514,1289.514,0,0,0,148.687,258.5V362.893Z" transform="translate(512.698 1365.599)"/><text class="c" transform="translate(614.918 1454.473)"><tspan x="0" y="0">+</tspan></text><path class="d" d="M524.113,282.472s-200.692-8.444-319.952-83.562S0,2.022,0,2.022L2.754,0s103.6,107.212,200.735,167.8S401.207,222.34,401.207,222.34l7.92-40.958Z" transform="translate(508.715 1620.507) rotate(-60)"/></g></g></svg>