<svg xmlns="http://www.w3.org/2000/svg" xmlns:xlink="http://www.w3.org/1999/xlink" viewBox="-1273 2686 512 512">
  <defs>
    <style>
      .cls-1 {
        clip-path: url(#clip-icon-price-elasticity);
      }

      .cls-2 {
        fill: #34aeff;
      }

      .cls-3 {
        fill: #b5b5b5;
      }

      .cls-4 {
        fill: #555;
        font-size: 155px;
        font-family: Arial-Black, Arial Black;
        font-weight: 800;
        letter-spacing: -0.05em;
      }
    </style>
    <clipPath id="clip-icon-price-elasticity">
      <rect x="-1273" y="2686" width="512" height="512"/>
    </clipPath>
  </defs>
  <g id="icon-price-elasticity" class="cls-1">
    <g id="Group_728" data-name="Group 728" transform="translate(-1783 1553)">
      <path id="Path_790" data-name="Path 790" class="cls-2" d="M510.464,299.638S305.085,280.6,186.694,206.032,0,1.355,0,1.355L2.734-.653S89.6,115,186.028,175.152s202.427,64.791,202.427,64.791l7.862-40.659Z" transform="translate(511.537 1226.708)"/>
      <path id="Subtraction_20" data-name="Subtraction 20" class="cls-3" d="M325.961,358.066v0H178.354V187.555c36.588,22.566,86.248,42.535,147.607,59.35V358.066Zm-178.357,0v0H0V0C23.393,38.387,73.67,111.064,147.6,166.516V358.066Zm356.709,0h-147.6V254.824a1346.659,1346.659,0,0,0,147.6,26.682v76.559Z" transform="translate(510 1286.671)"/>
      <text id="_" data-name="$" class="cls-4" transform="translate(725.255 1352)"><tspan x="0" y="0">$</tspan></text>
    </g>
  </g>
</svg>
