<svg xmlns="http://www.w3.org/2000/svg" xmlns:xlink="http://www.w3.org/1999/xlink" viewBox="-691 2686 512 512">
  <defs>
    <style>
      .cls-1, .cls-11, .cls-12, .cls-13 {
        fill: #fff;
      }

      .cls-2 {
        clip-path: url(#clip-icon-platform);
      }

      .cls-3 {
        fill: #e8e8e8;
      }

      .cls-4 {
        clip-path: url(#clip-path);
      }

      .cls-5 {
        fill: #ffdb77;
      }

      .cls-6 {
        fill: #ff905e;
      }

      .cls-7 {
        fill: #28d2e4;
      }

      .cls-8 {
        fill: #28c3e4;
      }

      .cls-9 {
        fill: #808285;
      }

      .cls-10 {
        fill: #6d6e71;
      }

      .cls-11 {
        opacity: 0.65;
      }

      .cls-12 {
        opacity: 0.35;
      }

      .cls-13 {
        opacity: 0;
      }
    </style>
    <clipPath id="clip-path">
      <rect id="Rectangle_191" data-name="Rectangle 191" class="cls-1" width="181.686" height="181.686" transform="translate(0 0)"/>
    </clipPath>
    <clipPath id="clip-icon-platform">
      <rect x="-691" y="2686" width="512" height="512"/>
    </clipPath>
  </defs>
  <g id="icon-platform" class="cls-2">
    <g id="Group_727" data-name="Group 727" transform="translate(-1503 -6.118)">
      <g id="Group_673" data-name="Group 673" transform="translate(1031.428 2765.118)">
        <rect id="Rectangle_190" data-name="Rectangle 190" class="cls-3" width="292.572" height="292.572" rx="2" transform="translate(0 0)"/>
        <g id="Mask_Group_68" data-name="Mask Group 68" class="cls-4" transform="translate(55.443 55.443)">
          <g id="dna" transform="translate(0.001 0)">
            <path id="Path_842" data-name="Path 842" class="cls-5" d="M60.537,77.781,20.928,38.172a6.988,6.988,0,0,1,9.882-9.882L70.42,67.9a6.988,6.988,0,0,1-9.882,9.882Z" transform="translate(34.72 48.256)"/>
            <path id="Path_843" data-name="Path 843" class="cls-6" d="M56.265,53.744l-19.8-19.8-9.882,9.882,19.8,19.8a6.988,6.988,0,1,0,9.882-9.882Z" transform="translate(48.874 62.41)"/>
            <path id="Path_844" data-name="Path 844" class="cls-5" d="M82.144,56.174,42.535,16.565a6.988,6.988,0,1,1,9.882-9.882L92.026,46.291a6.988,6.988,0,0,1-9.882,9.882Z" transform="translate(74.451 8.524)"/>
            <path id="Path_845" data-name="Path 845" class="cls-6" d="M77.872,32.137l-19.8-19.8-9.882,9.882,19.8,19.8a6.988,6.988,0,1,0,9.882-9.882Z" transform="translate(88.606 22.678)"/>
            <path id="Path_846" data-name="Path 846" class="cls-7" d="M46.289,92.025,6.683,52.418a6.988,6.988,0,0,1,9.882-9.882L56.171,82.142a6.988,6.988,0,0,1-9.882,9.883Z" transform="translate(8.524 74.453)"/>
            <path id="Path_847" data-name="Path 847" class="cls-8" d="M42.019,67.989l-19.8-19.8-9.882,9.882,19.8,19.8a6.988,6.988,0,0,0,9.882-9.882Z" transform="translate(22.678 88.606)"/>
            <path id="Path_848" data-name="Path 848" class="cls-7" d="M67.9,70.42,28.289,30.811a6.988,6.988,0,0,1,9.882-9.882L77.78,60.537A6.988,6.988,0,0,1,67.9,70.42Z" transform="translate(48.255 34.72)"/>
            <path id="Path_849" data-name="Path 849" class="cls-8" d="M63.626,46.383l-19.8-19.8L33.94,36.461l19.8,19.8a6.988,6.988,0,1,0,9.882-9.882Z" transform="translate(62.41 48.875)"/>
            <path id="Path_850" data-name="Path 850" class="cls-9" d="M130.024,68.686c13.185,1.559,36.043,1.846,49.614-11.725a6.988,6.988,0,0,0-9.882-9.882c-9.574,9.574-28.95,9.318-42.321,7.124-1.883-11.224-2.932-32.17,7.172-42.273a6.988,6.988,0,0,0-9.882-9.882C111.153,15.618,111.44,38.476,113,51.66,68.446,46.393,46.279,67.485,51.661,113c-13.185-1.559-36.043-1.846-49.614,11.725a6.988,6.988,0,0,0,9.882,9.882c9.554-9.554,28.879-9.324,42.28-7.13,2.192,13.4,2.425,32.724-7.13,42.28a6.988,6.988,0,0,0,9.882,9.882c13.571-13.571,13.284-36.429,11.725-49.614C113.239,135.292,135.406,114.2,130.024,68.686Zm-14.477-2.549c6.3,38.509-8.206,50.762-34.815,50.664a94.494,94.494,0,0,1-14.6-1.253,94.466,94.466,0,0,1-1.253-14.6C64.788,74.985,76.359,59.723,115.548,66.137Z" transform="translate(0 0)"/>
            <path id="Path_851" data-name="Path 851" class="cls-10" d="M39.517,100.855c44.554,5.268,66.72-15.825,61.339-61.339,13.185,1.559,36.043,1.846,49.614-11.725a6.988,6.988,0,1,0-9.882-9.882c-9.564,9.564-28.909,9.318-42.28,7.13L86.378,36.969c6.3,38.509-8.206,50.762-34.815,50.664a94.491,94.491,0,0,1-14.6-1.253L25.04,98.307c2.192,13.4,2.425,32.724-7.13,42.28a6.988,6.988,0,0,0,9.882,9.882C41.363,136.9,41.076,114.04,39.517,100.855Z" transform="translate(29.168 29.169)"/>
          </g>
        </g>
        <rect id="Rectangle_205" data-name="Rectangle 205" class="cls-11" width="292.572" height="292.572" rx="2" transform="translate(0 0)"/>
      </g>
      <g id="Group_672" data-name="Group 672" transform="translate(921.714 2801.688)">
        <rect id="Rectangle_190-2" data-name="Rectangle 190" class="cls-3" width="292.572" height="292.572" rx="2" transform="translate(0 0)"/>
        <g id="Mask_Group_68-2" data-name="Mask Group 68" class="cls-4" transform="translate(55.443 55.443)">
          <g id="dna-2" data-name="dna" transform="translate(0.001 0)">
            <path id="Path_842-2" data-name="Path 842" class="cls-5" d="M60.537,77.781,20.928,38.172a6.988,6.988,0,0,1,9.882-9.882L70.42,67.9a6.988,6.988,0,0,1-9.882,9.882Z" transform="translate(34.72 48.256)"/>
            <path id="Path_843-2" data-name="Path 843" class="cls-6" d="M56.265,53.744l-19.8-19.8-9.882,9.882,19.8,19.8a6.988,6.988,0,1,0,9.882-9.882Z" transform="translate(48.874 62.41)"/>
            <path id="Path_844-2" data-name="Path 844" class="cls-5" d="M82.144,56.174,42.535,16.565a6.988,6.988,0,1,1,9.882-9.882L92.026,46.291a6.988,6.988,0,0,1-9.882,9.882Z" transform="translate(74.451 8.524)"/>
            <path id="Path_845-2" data-name="Path 845" class="cls-6" d="M77.872,32.137l-19.8-19.8-9.882,9.882,19.8,19.8a6.988,6.988,0,1,0,9.882-9.882Z" transform="translate(88.606 22.678)"/>
            <path id="Path_846-2" data-name="Path 846" class="cls-7" d="M46.289,92.025,6.683,52.418a6.988,6.988,0,0,1,9.882-9.882L56.171,82.142a6.988,6.988,0,0,1-9.882,9.883Z" transform="translate(8.524 74.453)"/>
            <path id="Path_847-2" data-name="Path 847" class="cls-8" d="M42.019,67.989l-19.8-19.8-9.882,9.882,19.8,19.8a6.988,6.988,0,0,0,9.882-9.882Z" transform="translate(22.678 88.606)"/>
            <path id="Path_848-2" data-name="Path 848" class="cls-7" d="M67.9,70.42,28.289,30.811a6.988,6.988,0,0,1,9.882-9.882L77.78,60.537A6.988,6.988,0,0,1,67.9,70.42Z" transform="translate(48.255 34.72)"/>
            <path id="Path_849-2" data-name="Path 849" class="cls-8" d="M63.626,46.383l-19.8-19.8L33.94,36.461l19.8,19.8a6.988,6.988,0,1,0,9.882-9.882Z" transform="translate(62.41 48.875)"/>
            <path id="Path_850-2" data-name="Path 850" class="cls-9" d="M130.024,68.686c13.185,1.559,36.043,1.846,49.614-11.725a6.988,6.988,0,0,0-9.882-9.882c-9.574,9.574-28.95,9.318-42.321,7.124-1.883-11.224-2.932-32.17,7.172-42.273a6.988,6.988,0,0,0-9.882-9.882C111.153,15.618,111.44,38.476,113,51.66,68.446,46.393,46.279,67.485,51.661,113c-13.185-1.559-36.043-1.846-49.614,11.725a6.988,6.988,0,0,0,9.882,9.882c9.554-9.554,28.879-9.324,42.28-7.13,2.192,13.4,2.425,32.724-7.13,42.28a6.988,6.988,0,0,0,9.882,9.882c13.571-13.571,13.284-36.429,11.725-49.614C113.239,135.292,135.406,114.2,130.024,68.686Zm-14.477-2.549c6.3,38.509-8.206,50.762-34.815,50.664a94.494,94.494,0,0,1-14.6-1.253,94.466,94.466,0,0,1-1.253-14.6C64.788,74.985,76.359,59.723,115.548,66.137Z" transform="translate(0 0)"/>
            <path id="Path_851-2" data-name="Path 851" class="cls-10" d="M39.517,100.855c44.554,5.268,66.72-15.825,61.339-61.339,13.185,1.559,36.043,1.846,49.614-11.725a6.988,6.988,0,1,0-9.882-9.882c-9.564,9.564-28.909,9.318-42.28,7.13L86.378,36.969c6.3,38.509-8.206,50.762-34.815,50.664a94.491,94.491,0,0,1-14.6-1.253L25.04,98.307c2.192,13.4,2.425,32.724-7.13,42.28a6.988,6.988,0,0,0,9.882,9.882C41.363,136.9,41.076,114.04,39.517,100.855Z" transform="translate(29.168 29.169)"/>
          </g>
        </g>
        <rect id="Rectangle_205-2" data-name="Rectangle 205" class="cls-12" width="292.572" height="292.572" rx="2" transform="translate(0 0)"/>
      </g>
      <g id="Group_671" data-name="Group 671" transform="translate(812 2838.26)">
        <rect id="Rectangle_190-3" data-name="Rectangle 190" class="cls-3" width="292.572" height="292.572" rx="2" transform="translate(0 0)"/>
        <g id="Mask_Group_68-3" data-name="Mask Group 68" class="cls-4" transform="translate(55.443 55.443)">
          <g id="dna-3" data-name="dna" transform="translate(0.001 0)">
            <path id="Path_842-3" data-name="Path 842" class="cls-5" d="M60.537,77.781,20.928,38.172a6.988,6.988,0,0,1,9.882-9.882L70.42,67.9a6.988,6.988,0,0,1-9.882,9.882Z" transform="translate(34.72 48.256)"/>
            <path id="Path_843-3" data-name="Path 843" class="cls-6" d="M56.265,53.744l-19.8-19.8-9.882,9.882,19.8,19.8a6.988,6.988,0,1,0,9.882-9.882Z" transform="translate(48.874 62.41)"/>
            <path id="Path_844-3" data-name="Path 844" class="cls-5" d="M82.144,56.174,42.535,16.565a6.988,6.988,0,1,1,9.882-9.882L92.026,46.291a6.988,6.988,0,0,1-9.882,9.882Z" transform="translate(74.451 8.524)"/>
            <path id="Path_845-3" data-name="Path 845" class="cls-6" d="M77.872,32.137l-19.8-19.8-9.882,9.882,19.8,19.8a6.988,6.988,0,1,0,9.882-9.882Z" transform="translate(88.606 22.678)"/>
            <path id="Path_846-3" data-name="Path 846" class="cls-7" d="M46.289,92.025,6.683,52.418a6.988,6.988,0,0,1,9.882-9.882L56.171,82.142a6.988,6.988,0,0,1-9.882,9.883Z" transform="translate(8.524 74.453)"/>
            <path id="Path_847-3" data-name="Path 847" class="cls-8" d="M42.019,67.989l-19.8-19.8-9.882,9.882,19.8,19.8a6.988,6.988,0,0,0,9.882-9.882Z" transform="translate(22.678 88.606)"/>
            <path id="Path_848-3" data-name="Path 848" class="cls-7" d="M67.9,70.42,28.289,30.811a6.988,6.988,0,0,1,9.882-9.882L77.78,60.537A6.988,6.988,0,0,1,67.9,70.42Z" transform="translate(48.255 34.72)"/>
            <path id="Path_849-3" data-name="Path 849" class="cls-8" d="M63.626,46.383l-19.8-19.8L33.94,36.461l19.8,19.8a6.988,6.988,0,1,0,9.882-9.882Z" transform="translate(62.41 48.875)"/>
            <path id="Path_850-3" data-name="Path 850" class="cls-9" d="M130.024,68.686c13.185,1.559,36.043,1.846,49.614-11.725a6.988,6.988,0,0,0-9.882-9.882c-9.574,9.574-28.95,9.318-42.321,7.124-1.883-11.224-2.932-32.17,7.172-42.273a6.988,6.988,0,0,0-9.882-9.882C111.153,15.618,111.44,38.476,113,51.66,68.446,46.393,46.279,67.485,51.661,113c-13.185-1.559-36.043-1.846-49.614,11.725a6.988,6.988,0,0,0,9.882,9.882c9.554-9.554,28.879-9.324,42.28-7.13,2.192,13.4,2.425,32.724-7.13,42.28a6.988,6.988,0,0,0,9.882,9.882c13.571-13.571,13.284-36.429,11.725-49.614C113.239,135.292,135.406,114.2,130.024,68.686Zm-14.477-2.549c6.3,38.509-8.206,50.762-34.815,50.664a94.494,94.494,0,0,1-14.6-1.253,94.466,94.466,0,0,1-1.253-14.6C64.788,74.985,76.359,59.723,115.548,66.137Z" transform="translate(0 0)"/>
            <path id="Path_851-3" data-name="Path 851" class="cls-10" d="M39.517,100.855c44.554,5.268,66.72-15.825,61.339-61.339,13.185,1.559,36.043,1.846,49.614-11.725a6.988,6.988,0,1,0-9.882-9.882c-9.564,9.564-28.909,9.318-42.28,7.13L86.378,36.969c6.3,38.509-8.206,50.762-34.815,50.664a94.491,94.491,0,0,1-14.6-1.253L25.04,98.307c2.192,13.4,2.425,32.724-7.13,42.28a6.988,6.988,0,0,0,9.882,9.882C41.363,136.9,41.076,114.04,39.517,100.855Z" transform="translate(29.168 29.169)"/>
          </g>
        </g>
        <rect id="Rectangle_205-3" data-name="Rectangle 205" class="cls-13" width="292.572" height="292.572" rx="2" transform="translate(0 0)"/>
      </g>
    </g>
  </g>
</svg>
