<svg xmlns="http://www.w3.org/2000/svg" xmlns:xlink="http://www.w3.org/1999/xlink" viewBox="1055 2686 512 512">
  <defs>
    <style>
      .cls-1 {
        fill: #808285;
      }

      .cls-2 {
        clip-path: url(#clip-icon-helix);
      }

      .cls-3 {
        clip-path: url(#clip-path);
      }

      .cls-4 {
        fill: #ffdb77;
      }

      .cls-5 {
        fill: #ff905e;
      }

      .cls-6 {
        fill: #28d2e4;
      }

      .cls-7 {
        fill: #28c3e4;
      }

      .cls-8 {
        fill: #6d6e71;
      }

      .cls-9 {
        fill: #5b986c;
      }

      .cls-10 {
        fill: #a5a5a5;
      }

      .cls-11 {
        fill: #454545;
      }

      .cls-12 {
        fill: #8f8f8f;
      }

      .cls-13 {
        fill: #f2f1f1;
      }

      .cls-14 {
        fill: #d5e2f2;
        opacity: 0.5;
      }
    </style>
    <clipPath id="clip-path">
      <rect id="Rectangle_151" data-name="Rectangle 151" class="cls-1" width="371.814" height="371.814"/>
    </clipPath>
    <clipPath id="clip-icon-helix">
      <rect x="1055" y="2686" width="512" height="512"/>
    </clipPath>
  </defs>
  <g id="icon-helix" class="cls-2">
    <g id="Group_768" data-name="Group 768" transform="translate(445 1359.5)">
      <g id="Mask_Group_62" data-name="Mask Group 62" class="cls-3" transform="translate(680 1381)">
        <g id="dna" transform="translate(0.002 0)">
          <path id="Path_629" data-name="Path 629" class="cls-4" d="M104.129,131.714,23.07,50.655A14.3,14.3,0,0,1,43.294,30.431l81.058,81.058a14.3,14.3,0,1,1-20.224,20.224Z" transform="translate(90.811 126.216)"/>
          <path id="Path_630" data-name="Path 630" class="cls-5" d="M87.331,74.468,46.8,33.94,26.579,54.164,67.107,94.692A14.3,14.3,0,1,0,87.331,74.468Z" transform="translate(127.833 163.237)"/>
          <path id="Path_631" data-name="Path 631" class="cls-4" d="M125.735,110.106,44.677,29.048A14.3,14.3,0,1,1,64.9,8.824l81.058,81.058a14.3,14.3,0,1,1-20.224,20.224Z" transform="translate(194.733 22.295)"/>
          <path id="Path_632" data-name="Path 632" class="cls-5" d="M108.938,52.861,68.41,12.333,48.186,32.557,88.714,73.085a14.3,14.3,0,1,0,20.224-20.224Z" transform="translate(231.753 59.316)"/>
          <path id="Path_633" data-name="Path 633" class="cls-6" d="M89.878,145.955,8.825,64.9A14.3,14.3,0,0,1,29.048,44.678L110.1,125.731a14.3,14.3,0,0,1-20.223,20.225Z" transform="translate(22.295 194.736)"/>
          <path id="Path_634" data-name="Path 634" class="cls-7" d="M73.084,88.713,32.557,48.186,12.333,68.41,52.86,108.937A14.3,14.3,0,0,0,73.084,88.713Z" transform="translate(59.315 231.755)"/>
          <path id="Path_635" data-name="Path 635" class="cls-6" d="M111.49,124.353,30.431,43.294A14.3,14.3,0,0,1,50.655,23.07l81.058,81.058a14.3,14.3,0,0,1-20.224,20.224Z" transform="translate(126.214 90.813)"/>
          <path id="Path_636" data-name="Path 636" class="cls-7" d="M94.692,67.107,54.164,26.579,33.94,46.8,74.468,87.33A14.3,14.3,0,0,0,94.692,67.107Z" transform="translate(163.236 127.834)"/>
          <path id="Path_637" data-name="Path 637" class="cls-1" d="M266.09,140.563c26.982,3.191,73.76,3.777,101.533-23.994A14.3,14.3,0,0,0,347.4,96.345c-19.593,19.593-59.245,19.069-86.609,14.579-3.853-22.97-6-65.834,14.678-86.511A14.3,14.3,0,0,0,255.244,4.189C227.471,31.962,228.059,78.74,231.25,105.722c-91.177-10.78-136.541,32.385-125.528,125.528-26.982-3.19-73.761-3.777-101.533,23.994a14.3,14.3,0,0,0,20.224,20.224c19.551-19.551,59.1-19.082,86.525-14.592,4.486,27.413,4.964,66.969-14.592,86.525a14.3,14.3,0,1,0,20.224,20.224c27.773-27.773,27.185-74.551,23.994-101.533C231.74,276.872,277.1,233.707,266.09,140.563Zm-29.626-5.216c12.9,78.808-16.793,103.883-71.247,103.681a193.376,193.376,0,0,1-29.871-2.563,193.323,193.323,0,0,1-2.563-29.871C132.586,153.454,156.267,122.221,236.464,135.348Z" transform="translate(0 0)"/>
          <path id="Path_638" data-name="Path 638" class="cls-8" d="M64.271,189.8C155.45,200.578,200.812,157.413,189.8,64.27c26.982,3.191,73.76,3.777,101.533-23.994a14.3,14.3,0,0,0-20.224-20.224c-19.573,19.572-59.162,19.07-86.525,14.592L160.171,59.055c12.9,78.808-16.793,103.883-71.247,103.681a193.378,193.378,0,0,1-29.871-2.563l-24.41,24.41c4.486,27.412,4.964,66.969-14.592,86.525a14.3,14.3,0,0,0,20.224,20.224C68.049,263.558,67.461,216.779,64.271,189.8Z" transform="translate(76.291 76.294)"/>
        </g>
      </g>
      <g id="Group_240" data-name="Group 240" transform="translate(851.261 1553.536)">
        <g id="dna_-_2" data-name="dna - 2">
          <path id="Path_654" data-name="Path 654" class="cls-9" d="M26.383,43.651H37.994A74.651,74.651,0,0,0,26.154,23.99c-3.2.208-5.773,4.475-5.773,9.793C20.381,39.232,23.069,43.651,26.383,43.651Z" transform="translate(0.809 20.495)"/>
          <path id="Path_656" data-name="Path 656" class="cls-10" d="M69.955,40.058l53,53.312a13.133,13.133,0,0,1-.023,18.576l-9.3,9.277a13.135,13.135,0,0,1-18.573-.023L42.008,67.839Z" transform="translate(72.665 73.883)"/>
          <path id="Path_657" data-name="Path 657" class="cls-11" d="M41.986,68l27.96-27.96Z" transform="translate(72.591 73.819)"/>
          <path id="Path_658" data-name="Path 658" class="cls-12" d="M94.428,13.7a78.949,78.949,0,1,0,78.949,78.949A78.949,78.949,0,0,0,94.428,13.7Z" transform="translate(-15.479 -13.698)"/>
          <path id="Path_659" data-name="Path 659" class="cls-13" d="M134.759,98.011A59.292,59.292,0,0,1,79.33,136.684,59.414,59.414,0,0,1,25.489,102.2,59.238,59.238,0,0,1,79.2,18.265,59.408,59.408,0,0,1,133.025,52.75,58.787,58.787,0,0,1,134.759,98.011Z" transform="translate(-0.308 1.475)"/>
          <path id="Path_662" data-name="Path 662" class="cls-5" d="M45.552,22.831,67.531,35.517V60.892L45.552,73.582,23.574,60.892V35.517Z" transform="translate(11.418 16.644)"/>
          <path id="Path_663" data-name="Path 663" class="cls-7" d="M55.721,22.831,77.7,35.517V60.892L55.721,73.582,33.743,60.892V35.517Z" transform="translate(45.206 16.644)"/>
          <path id="Path_664" data-name="Path 664" class="cls-4" d="M50.637,31.637,72.615,44.323V69.7L50.637,82.389,28.659,69.7V44.323Z" transform="translate(28.312 45.903)"/>
          <path id="Path_665" data-name="Path 665" class="cls-14" d="M34.89,32.3l17.022,9.829Z" transform="translate(49.015 48.099)"/>
        </g>
      </g>
    </g>
  </g>
</svg>
