<svg xmlns="http://www.w3.org/2000/svg" xmlns:xlink="http://www.w3.org/1999/xlink" viewBox="-1273 2686 512 512"><defs><style>.a{clip-path:url(#b);}.b{fill:#34aeff;}.c{fill:#b5b5b5;}.d{fill:#555;font-size:155px;font-family:Roboto-Bold, Roboto;font-weight:700;letter-spacing:-0.05em;}</style><clipPath id="b"><rect x="-1273" y="2686" width="512" height="512"/></clipPath></defs><g id="a" class="a"><g transform="translate(-1783 1553)"><path class="b" d="M510.464,299.638S305.085,280.6,186.694,206.032,0,1.355,0,1.355L2.734-.653S89.6,115,186.028,175.152s202.427,64.791,202.427,64.791l7.862-40.659Z" transform="translate(511.537 1226.708)"/><path class="c" d="M325.961,358.066v0H178.354V187.555c36.588,22.566,86.248,42.535,147.607,59.35V358.066Zm-178.357,0v0H0V0C23.393,38.387,73.67,111.064,147.6,166.516V358.066Zm356.709,0h-147.6V254.824a1346.659,1346.659,0,0,0,147.6,26.682v76.559Z" transform="translate(510 1286.671)"/><text class="d" transform="translate(725.255 1352)"><tspan x="0" y="0">$</tspan></text></g></g></svg>