<?xml version="1.0" standalone="no"?>
<!DOCTYPE svg PUBLIC "-//W3C//DTD SVG 20010904//EN"
 "http://www.w3.org/TR/2001/REC-SVG-20010904/DTD/svg10.dtd">
<svg version="1.0" xmlns="http://www.w3.org/2000/svg"
 width="700.000000pt" height="700.000000pt" viewBox="0 0 700.000000 700.000000"
 preserveAspectRatio="xMidYMid meet">
<metadata>
Created by potrace 1.11, written by Peter Selinger 2001-2013
</metadata>
<g transform="translate(0.000000,700.000000) scale(0.100000,-0.100000)"
fill="#000000" stroke="none">
<path d="M3470 6768 c-14 -6 -38 -17 -55 -24 -16 -7 -52 -22 -79 -34 -26 -12
-202 -87 -390 -166 -187 -80 -359 -153 -381 -163 -22 -10 -254 -109 -515 -221
-261 -111 -488 -208 -505 -215 -16 -8 -79 -35 -140 -60 -60 -26 -123 -53 -140
-60 -16 -8 -303 -130 -636 -272 -333 -142 -606 -262 -607 -268 -1 -5 262 -123
585 -262 322 -139 587 -254 589 -256 5 -4 -4 -8 -661 -288 -275 -117 -506
-217 -512 -223 -9 -8 112 -64 475 -220 268 -116 514 -222 547 -237 58 -27 59
-28 34 -37 -14 -6 -241 -102 -505 -215 -263 -113 -498 -213 -521 -222 -24 -10
-43 -20 -43 -24 0 -3 85 -42 188 -85 103 -44 220 -95 260 -113 39 -18 74 -33
77 -33 3 0 24 -9 48 -19 23 -11 240 -105 482 -209 242 -104 521 -224 620 -267
99 -42 191 -82 205 -87 23 -9 20 -12 -53 -42 -42 -18 -74 -36 -70 -41 5 -4 3
-5 -4 -1 -6 3 -49 -10 -95 -29 -46 -20 -92 -40 -103 -44 -88 -37 -104 -45 -98
-54 3 -6 1 -7 -5 -3 -11 6 -45 -6 -178 -65 -23 -10 -86 -36 -140 -59 -143 -59
-153 -64 -149 -70 2 -3 -7 -6 -18 -7 -12 0 -49 -14 -82 -29 -33 -16 -62 -29
-65 -29 -3 -1 -21 -8 -41 -17 -20 -9 -46 -19 -58 -23 -11 -3 -19 -9 -17 -13 2
-4 -6 -8 -18 -8 -12 -1 -47 -13 -77 -26 -48 -22 -90 -41 -224 -98 -110 -47
-150 -65 -155 -70 -3 -3 -12 -6 -20 -8 -29 -5 -70 -24 -66 -31 2 -3 -6 -7 -18
-7 -27 -2 -126 -46 -126 -56 0 -7 16 -10 36 -7 4 0 10 -3 13 -9 3 -5 20 -14
36 -20 17 -6 88 -36 158 -66 70 -31 133 -53 139 -50 7 5 8 2 3 -6 -6 -10 -3
-12 13 -8 12 4 20 2 16 -3 -3 -5 7 -13 23 -19 15 -5 41 -16 56 -25 31 -16 53
-19 60 -7 2 4 3 2 1 -4 -3 -13 12 -21 145 -75 51 -21 98 -36 104 -32 5 3 7 2
4 -4 -7 -11 231 -116 244 -107 5 3 9 1 9 -5 0 -9 91 -49 98 -43 1 2 10 -4 19
-13 8 -9 22 -14 29 -11 8 3 14 2 14 -3 0 -13 79 -42 93 -35 7 4 9 3 4 -1 -10
-11 91 -58 105 -49 6 4 8 2 4 -4 -3 -6 4 -13 16 -17 13 -3 49 -18 81 -31 31
-14 62 -22 69 -18 6 4 8 3 5 -2 -3 -6 6 -15 21 -21 15 -6 85 -37 155 -67 70
-31 133 -53 139 -50 7 4 8 3 4 -4 -4 -7 -2 -12 4 -12 9 0 64 -23 127 -52 12
-6 29 -8 38 -4 9 3 13 2 10 -4 -3 -5 9 -16 27 -24 18 -8 59 -26 91 -40 32 -15
64 -23 70 -20 7 4 9 4 5 -1 -10 -11 71 -47 89 -40 8 2 12 1 9 -4 -8 -12 22
-23 37 -14 7 3 9 3 5 -2 -7 -7 47 -34 127 -65 11 -4 40 -17 65 -28 25 -12 61
-27 80 -36 19 -8 57 -24 83 -35 27 -12 54 -18 59 -14 7 3 8 1 4 -5 -4 -7 -3
-12 3 -12 6 0 40 -14 76 -30 37 -17 72 -27 78 -24 7 4 9 3 4 -1 -4 -5 34 -26
85 -48 51 -21 112 -47 135 -58 24 -10 46 -19 49 -19 7 0 80 -33 125 -56 14 -7
29 -11 33 -7 3 3 6 1 6 -6 0 -8 8 -11 20 -8 11 3 18 1 15 -3 -3 -5 0 -10 7
-12 15 -5 109 33 103 42 -2 3 6 7 18 7 30 3 167 64 167 75 0 5 4 7 9 4 8 -5
42 7 151 56 25 11 59 26 75 33 17 8 59 26 95 40 36 15 92 39 125 54 33 16 81
36 107 46 26 10 45 22 42 27 -3 4 -2 8 3 6 19 -5 73 14 67 24 -4 6 -2 8 3 5
11 -7 43 4 151 55 37 17 69 32 72 32 9 2 72 28 138 58 34 15 64 28 67 28 2 0
32 13 67 29 35 16 124 55 198 86 74 32 140 60 145 64 6 3 12 6 15 6 23 2 118
51 113 58 -3 6 -1 7 5 3 6 -4 32 2 56 14 25 11 50 20 56 20 6 0 8 5 4 12 -4 6
-3 8 4 4 11 -6 82 22 93 37 3 5 10 8 15 7 18 -3 143 53 138 61 -3 5 3 6 12 2
12 -4 15 -3 10 5 -4 7 -2 10 7 7 7 -3 54 13 104 35 50 22 96 40 102 40 6 0 11
5 11 10 0 6 6 10 13 10 6 0 40 12 74 26 54 23 61 29 50 42 -10 13 -9 14 8 3
17 -11 31 -8 95 22 41 19 92 40 113 48 20 7 37 17 37 23 0 5 3 6 6 3 4 -3 16
-1 28 5 11 7 26 13 31 14 6 1 37 14 70 29 94 43 117 53 163 71 23 10 42 22 42
27 0 4 5 5 10 2 6 -4 22 1 35 9 14 9 25 14 25 11 0 -4 12 1 28 9 15 9 49 25
76 36 27 11 47 22 45 24 -11 12 -189 83 -193 78 -3 -3 -6 0 -6 6 0 7 -8 12
-18 12 -10 0 -22 4 -27 8 -6 5 -62 30 -125 57 -63 26 -144 61 -178 77 -35 16
-72 31 -82 33 -10 2 -36 13 -58 24 -23 12 -65 30 -94 42 -29 11 -77 32 -106
45 -29 13 -58 21 -64 18 -7 -4 -8 -2 -4 4 4 7 2 12 -4 12 -10 0 -36 10 -135
55 -16 7 -41 17 -55 23 -14 5 -47 20 -75 32 -27 12 -59 26 -70 31 -11 5 -46
19 -77 33 -32 14 -58 22 -58 18 0 -4 -4 -2 -8 3 -12 17 -63 36 -75 29 -7 -4
-9 -3 -4 1 4 5 -34 26 -85 48 -51 21 -104 44 -118 50 -14 5 -27 11 -30 12 -5
2 -26 11 -100 43 l-45 19 45 20 c25 12 194 85 375 163 182 78 544 234 805 347
261 113 519 224 572 247 54 22 98 44 98 47 0 4 -26 17 -57 30 -32 12 -85 35
-118 49 -33 15 -253 109 -488 210 -235 100 -426 184 -425 185 2 1 242 105 533
230 292 126 536 233 542 239 10 9 -133 74 -573 262 -322 138 -586 254 -586
259 0 5 254 118 564 252 310 134 575 249 590 256 30 15 186 -55 -1292 577
-465 199 -858 367 -875 375 -16 7 -127 54 -245 105 -118 50 -230 98 -247 106
-74 32 -101 43 -160 68 -35 14 -86 37 -115 50 -30 14 -76 34 -104 45 -29 11
-71 29 -95 40 -24 11 -100 43 -169 72 -69 29 -129 56 -134 61 -13 11 -35 9
-66 -4z m1980 -4462 c0 -3 -4 -8 -10 -11 -5 -3 -10 -1 -10 4 0 6 5 11 10 11 6
0 10 -2 10 -4z m-3925 -175 c3 -5 2 -12 -3 -15 -5 -3 -9 1 -9 9 0 17 3 19 12
6z m160 -10 c3 -5 2 -12 -3 -15 -5 -3 -9 1 -9 9 0 17 3 19 12 6z m479 1 c3 -5
-1 -9 -9 -9 -8 0 -12 4 -9 9 3 4 7 8 9 8 2 0 6 -4 9 -8z m2880 0 c3 -5 -1 -9
-9 -9 -8 0 -12 4 -9 9 3 4 7 8 9 8 2 0 6 -4 9 -8z m486 -158 c0 -8 -19 -13
-24 -6 -3 5 1 9 9 9 8 0 15 -2 15 -3z m-3250 -78 c0 -2 -8 -10 -17 -17 -16
-13 -17 -12 -4 4 13 16 21 21 21 13z m240 0 c0 -2 -8 -10 -17 -17 -16 -13 -17
-12 -4 4 13 16 21 21 21 13z m1661 -13 c13 -16 12 -17 -3 -4 -17 13 -22 21
-14 21 2 0 10 -8 17 -17z m-3296 -62 c3 -5 2 -12 -3 -15 -5 -3 -9 1 -9 9 0 17
3 19 12 6z m-321 -9 c3 -5 -1 -9 -9 -9 -8 0 -12 4 -9 9 3 4 7 8 9 8 2 0 6 -4
9 -8z m1926 2 c0 -8 -19 -13 -24 -6 -3 5 1 9 9 9 8 0 15 -2 15 -3z m170 0 c0
-8 -19 -13 -24 -6 -3 5 1 9 9 9 8 0 15 -2 15 -3z m2227 -159 c0 -8 -4 -12 -9
-9 -5 3 -6 10 -3 15 9 13 12 11 12 -6z m480 0 c0 -8 -4 -12 -9 -9 -5 3 -6 10
-3 15 9 13 12 11 12 -6z m-1602 -4 c3 -5 2 -12 -3 -15 -5 -3 -9 1 -9 9 0 17 3
19 12 6z m639 1 c3 -5 -1 -9 -9 -9 -8 0 -12 4 -9 9 3 4 7 8 9 8 2 0 6 -4 9 -8z
m-3268 -84 c3 -4 -1 -5 -10 -4 -8 1 -18 5 -22 8 -3 4 1 5 10 4 8 -1 18 -5 22
-8z m1114 6 c0 -8 -19 -13 -24 -6 -3 5 1 9 9 9 8 0 15 -2 15 -3z m650 0 c0 -8
-19 -13 -24 -6 -3 5 1 9 9 9 8 0 15 -2 15 -3z m-1606 -22 c3 -5 -1 -9 -9 -9
-8 0 -12 4 -9 9 3 4 7 8 9 8 2 0 6 -4 9 -8z m566 -58 c0 -8 -19 -13 -24 -6 -3
5 1 9 9 9 8 0 15 -2 15 -3z m1600 0 c0 -8 -19 -13 -24 -6 -3 5 1 9 9 9 8 0 15
-2 15 -3z m1427 -9 c0 -8 -4 -12 -9 -9 -5 3 -6 10 -3 15 9 13 12 11 12 -6z
m-4181 -75 c0 -12 -4 -16 -9 -11 -5 5 -6 14 -3 20 10 15 12 14 12 -9z m584
-16 c0 -8 -19 -13 -24 -6 -3 5 1 9 9 9 8 0 15 -2 15 -3z m1370 -60 c0 -8 -19
-13 -24 -6 -3 5 1 9 9 9 8 0 15 -2 15 -3z m1585 -3 c3 -5 2 -12 -3 -15 -5 -3
-9 1 -9 9 0 17 3 19 12 6z m1129 1 c3 -5 -1 -9 -9 -9 -8 0 -12 4 -9 9 3 4 7 8
9 8 2 0 6 -4 9 -8z m-4080 -20 c3 -5 -1 -9 -9 -9 -8 0 -12 4 -9 9 3 4 7 8 9 8
2 0 6 -4 9 -8z m73 -147 c0 -8 -4 -12 -9 -9 -5 3 -6 10 -3 15 9 13 12 11 12
-6z m1117 7 c3 -5 -1 -9 -9 -9 -8 0 -12 4 -9 9 3 4 7 8 9 8 2 0 6 -4 9 -8z
m170 0 c3 -5 -1 -9 -9 -9 -8 0 -12 4 -9 9 3 4 7 8 9 8 2 0 6 -4 9 -8z m630
-160 c3 -5 -1 -9 -9 -9 -8 0 -12 4 -9 9 3 4 7 8 9 8 2 0 6 -4 9 -8z m1610 0
c3 -5 -1 -9 -9 -9 -8 0 -12 4 -9 9 3 4 7 8 9 8 2 0 6 -4 9 -8z m-31 -77 c-3
-9 -8 -14 -10 -11 -3 3 -2 9 2 15 9 16 15 13 8 -4z m-1969 -3 c3 -5 -1 -9 -9
-9 -8 0 -12 4 -9 9 3 4 7 8 9 8 2 0 6 -4 9 -8z m1031 -231 c3 -5 2 -12 -3 -15
-5 -3 -9 1 -9 9 0 17 3 19 12 6z m-1271 -9 c3 -5 -1 -9 -9 -9 -8 0 -12 4 -9 9
3 4 7 8 9 8 2 0 6 -4 9 -8z m486 2 c0 -8 -19 -13 -24 -6 -3 5 1 9 9 9 8 0 15
-2 15 -3z m627 -9 c0 -8 -4 -12 -9 -9 -5 3 -6 10 -3 15 9 13 12 11 12 -6z
m-897 -59 c0 -2 -8 -10 -17 -17 -16 -13 -17 -12 -4 4 13 16 21 21 21 13z m417
-91 c0 -8 -4 -12 -9 -9 -5 3 -6 10 -3 15 9 13 12 11 12 -6z"/>
</g>
</svg>
