<svg xmlns="http://www.w3.org/2000/svg" xmlns:xlink="http://www.w3.org/1999/xlink" viewBox="2122 477 375 667"><defs><style>.a{clip-path:url(#n);}.b{fill:#fff;}.c{fill:#e3e7ed;}.d{fill:#f5f6f8;}.e{fill:#eff6f8;}.f{fill:#7fabda;}.g{opacity:0.6;}.h{fill:#84dbff;}.i{fill:#54c0eb;}.j{fill:#4cdbc4;}.k{fill:#ff7058;}.l{opacity:0.64;}.m{fill:#ffdb77;}.n{fill:#ff905e;}.o{fill:#28d2e4;}.p{fill:#28c3e4;}.q{fill:#808285;}.r{fill:#6d6e71;}.s{fill:#efce4a;}.t{fill:#d75a4a;}.u{fill:none;stroke:#23a24d;stroke-linecap:round;stroke-miterlimit:10;stroke-width:2px;}.v{opacity:0.72;}.w{fill:#ed8a19;}.x{fill:#ea6248;}.y{fill:#556080;}.z{fill:#687497;}.aa{fill:#7383bf;}.ab{fill:#1a9172;}.ac{fill:#25ae88;}.ad{fill:#88c057;}.ae{fill:#61b872;}.af{fill:#efefef;}.ag{filter:url(#k);}.ah{filter:url(#i);}.ai{filter:url(#g);}.aj{filter:url(#e);}.ak{filter:url(#c);}.al{filter:url(#a);}</style><filter id="a" x="2123" y="485" width="189" height="220" filterUnits="userSpaceOnUse"><feOffset dy="3" input="SourceAlpha"/><feGaussianBlur stdDeviation="3" result="b"/><feFlood flood-opacity="0.161"/><feComposite operator="in" in2="b"/><feComposite in="SourceGraphic"/></filter><filter id="c" x="2308" y="485" width="189" height="220" filterUnits="userSpaceOnUse"><feOffset dy="3" input="SourceAlpha"/><feGaussianBlur stdDeviation="3" result="d"/><feFlood flood-opacity="0.161"/><feComposite operator="in" in2="d"/><feComposite in="SourceGraphic"/></filter><filter id="e" x="2123" y="704" width="189" height="220" filterUnits="userSpaceOnUse"><feOffset dy="3" input="SourceAlpha"/><feGaussianBlur stdDeviation="3" result="f"/><feFlood flood-opacity="0.161"/><feComposite operator="in" in2="f"/><feComposite in="SourceGraphic"/></filter><filter id="g" x="2308" y="704" width="189" height="220" filterUnits="userSpaceOnUse"><feOffset dy="3" input="SourceAlpha"/><feGaussianBlur stdDeviation="3" result="h"/><feFlood flood-opacity="0.161"/><feComposite operator="in" in2="h"/><feComposite in="SourceGraphic"/></filter><filter id="i" x="2123" y="922" width="189" height="220" filterUnits="userSpaceOnUse"><feOffset dy="3" input="SourceAlpha"/><feGaussianBlur stdDeviation="3" result="j"/><feFlood flood-opacity="0.161"/><feComposite operator="in" in2="j"/><feComposite in="SourceGraphic"/></filter><filter id="k" x="2308" y="922" width="189" height="220" filterUnits="userSpaceOnUse"><feOffset dy="3" input="SourceAlpha"/><feGaussianBlur stdDeviation="3" result="l"/><feFlood flood-opacity="0.161"/><feComposite operator="in" in2="l"/><feComposite in="SourceGraphic"/></filter><clipPath id="n"><rect x="2122" y="477" width="375" height="667"/></clipPath></defs><g id="m" class="a"><rect class="af" x="2122" y="477" width="375" height="667"/><g transform="translate(2115 477)"><g class="al" transform="matrix(1, 0, 0, 1, -2115, -477)"><path class="b" d="M4,0H167a4,4,0,0,1,4,4V198a4,4,0,0,1-4,4H4a4,4,0,0,1-4-4V4A4,4,0,0,1,4,0Z" transform="translate(2132 491)"/></g><g transform="translate(-0.491 -8)"><rect class="c" width="139.821" height="11.946" rx="2" transform="translate(33.491 171.336)"/><rect class="d" width="97.148" height="11.946" rx="2" transform="translate(33.491 195.229)"/></g><g transform="translate(66 52)"><path class="e" d="M21.9,53.58,11.161,59.439a9.653,9.653,0,0,0-1.724,1.227,35.977,35.977,0,0,0,46.225.12,9.53,9.53,0,0,0-1.894-1.269l-11.5-5.75a4.386,4.386,0,0,1-2.425-3.923V45.33a17.374,17.374,0,0,0,1.088-1.4,26.467,26.467,0,0,0,3.576-7.205,3.613,3.613,0,0,0,2.562-3.437V28.471a3.6,3.6,0,0,0-1.2-2.669V18.838S47.294,8,32.618,8,19.373,18.838,19.373,18.838V25.8a3.591,3.591,0,0,0-1.2,2.669v4.817a3.612,3.612,0,0,0,1.666,3.031A23.905,23.905,0,0,0,24.19,45.33v4.4A4.391,4.391,0,0,1,21.9,53.58Z" transform="translate(3.383 2.868)"/><g transform="translate(0 0)"><path class="f" d="M36.615.005a35.977,35.977,0,0,0-23.78,63.518,9.566,9.566,0,0,1,1.708-1.214l10.742-5.859A4.388,4.388,0,0,0,27.571,52.6V48.2a23.882,23.882,0,0,1-4.355-9.011,3.613,3.613,0,0,1-1.666-3.031V31.338a3.6,3.6,0,0,1,1.2-2.669V21.7S21.323,10.868,36,10.868,49.244,21.7,49.244,21.7v6.964a3.591,3.591,0,0,1,1.2,2.669v4.817a3.613,3.613,0,0,1-2.562,3.437A26.467,26.467,0,0,1,44.31,46.8a17.372,17.372,0,0,1-1.088,1.4v4.513a4.385,4.385,0,0,0,2.425,3.923l11.5,5.75a9.578,9.578,0,0,1,1.888,1.266A35.992,35.992,0,0,0,36.615.005Z" transform="translate(0 0)"/></g></g></g><g transform="translate(2300 477)"><g class="ak" transform="matrix(1, 0, 0, 1, -2300, -477)"><path class="b" d="M4,0H167a4,4,0,0,1,4,4V198a4,4,0,0,1-4,4H4a4,4,0,0,1-4-4V4A4,4,0,0,1,4,0Z" transform="translate(2317 491)"/></g><g transform="translate(-0.491 -8)"><rect class="c" width="139.821" height="11.946" rx="2" transform="translate(33.491 171.336)"/><rect class="d" width="97.148" height="11.946" rx="2" transform="translate(33.491 195.229)"/></g><g class="g" transform="translate(64.478 52)"><path class="h" d="M48.722,20.208a22.543,22.543,0,0,0-2.1-5.239l1.8-4.191L42.135,4.64l-4.191,1.8a20.2,20.2,0,0,0-5.239-2.1L31.208,0H22.377L20.73,4.341a22.543,22.543,0,0,0-5.239,2.1L11.3,4.64,5.162,10.778l1.8,4.191a20.2,20.2,0,0,0-2.1,5.239L.522,21.854v8.832l4.341,1.647a22.543,22.543,0,0,0,2.1,5.239l-1.8,4.191L11.449,47.9l4.191-1.8a20.2,20.2,0,0,0,5.239,2.1l1.647,4.341h8.682L32.855,48.2a22.543,22.543,0,0,0,5.239-2.1l4.191,1.8,6.287-6.137-1.8-4.191a20.2,20.2,0,0,0,2.1-5.239l4.341-1.647V21.854Zm-22,16.765A10.778,10.778,0,1,1,37.5,26.2,10.733,10.733,0,0,1,26.718,36.973Z"/><g transform="translate(10.626 10.104)"><path class="i" d="M122.977,122.455a10.661,10.661,0,0,1-15.119,0l-3.892,3.892a16.194,16.194,0,1,0,22.9-22.9l-3.892,3.892A10.661,10.661,0,0,1,122.977,122.455Z" transform="translate(-99.252 -98.73)"/><path class="i" d="M75.768,75.246a16.262,16.262,0,0,0,0,22.9l3.892-3.892A10.69,10.69,0,0,1,94.778,79.138l3.892-3.892A16.262,16.262,0,0,0,75.768,75.246Z" transform="translate(-71.053 -70.531)"/></g><path class="j" d="M221.357,349.63a7.265,7.265,0,0,0,0-2.545l1.5-1.5-1.5-3.742h-2.1a20.325,20.325,0,0,0-1.8-1.8v-2.1l-3.742-1.5-1.5,1.5a7.266,7.266,0,0,0-2.545,0l-1.5-1.5-3.742,1.5v2.1a20.318,20.318,0,0,0-1.8,1.8h-2.1l-1.5,3.742,1.5,1.5a7.265,7.265,0,0,0,0,2.545l-1.5,1.5,1.5,3.742h2.1a20.318,20.318,0,0,0,1.8,1.8v2.1l3.742,1.5,1.5-1.5a7.263,7.263,0,0,0,2.545,0l1.5,1.5,3.742-1.5v-2.1a20.328,20.328,0,0,0,1.8-1.8h2.1l1.5-3.742Zm-11.975,3.143a4.837,4.837,0,1,1,6.287-2.694A4.786,4.786,0,0,1,209.381,352.773Z" transform="translate(-170.09 -288.257)"/><path class="k" d="M358.237,212.749a7.262,7.262,0,0,0,0-2.545l1.5-1.5-1.5-3.742h-2.1a20.313,20.313,0,0,0-1.8-1.8v-2.1l-3.742-1.5-1.5,1.5a7.264,7.264,0,0,0-2.545,0l-1.5-1.5-3.742,1.5v2.1a20.331,20.331,0,0,0-1.8,1.8h-2.1l-1.5,3.742,1.5,1.5a7.266,7.266,0,0,0,0,2.545l-1.5,1.5,1.5,3.742h2.1a20.325,20.325,0,0,0,1.8,1.8v2.1l3.742,1.5,1.5-1.5a7.266,7.266,0,0,0,2.545,0l1.5,1.5,3.742-1.5v-2.1a20.307,20.307,0,0,0,1.8-1.8h2.1l1.5-3.742Zm-12.125,3.293a4.837,4.837,0,1,1,6.287-2.694A4.688,4.688,0,0,1,346.113,216.042Z" transform="translate(-287.362 -170.986)"/></g></g><g transform="translate(2115 696)"><g class="aj" transform="matrix(1, 0, 0, 1, -2115, -696)"><path class="b" d="M4,0H167a4,4,0,0,1,4,4V198a4,4,0,0,1-4,4H4a4,4,0,0,1-4-4V4A4,4,0,0,1,4,0Z" transform="translate(2132 710)"/></g><g transform="translate(-0.491 -8)"><rect class="c" width="139.821" height="11.946" rx="2" transform="translate(33.491 171.336)"/><rect class="d" width="97.148" height="11.946" rx="2" transform="translate(33.491 195.229)"/></g><g class="l" transform="translate(65.998 53)"><path class="m" d="M167.56,230.365l-15.7-15.7a2.769,2.769,0,1,1,3.916-3.916l15.7,15.7a2.769,2.769,0,1,1-3.916,3.916Z" transform="translate(-129.81 -180.418)"/><path class="n" d="M224.4,279.367l-7.848-7.848-3.916,3.916,7.848,7.848a2.769,2.769,0,0,0,3.916-3.916Z" transform="translate(-182.729 -233.337)"/><path class="m" d="M340.417,57.508l-15.7-15.7a2.769,2.769,0,1,1,3.916-3.916l15.7,15.7a2.769,2.769,0,0,1-3.916,3.916Z" transform="translate(-278.358 -31.869)"/><path class="n" d="M397.252,106.511,389.4,98.663l-3.916,3.916,7.848,7.848a2.769,2.769,0,0,0,3.916-3.916Z" transform="translate(-331.277 -84.789)"/><path class="o" d="M53.593,344.336l-15.7-15.7a2.769,2.769,0,0,1,3.916-3.916l15.7,15.7a2.769,2.769,0,0,1-3.916,3.916Z" transform="translate(-31.869 -278.363)"/><path class="p" d="M110.427,393.336l-7.848-7.848L98.663,389.4l7.848,7.848a2.769,2.769,0,0,0,3.916-3.916Z" transform="translate(-84.787 -331.279)"/><path class="o" d="M226.447,171.477l-15.7-15.7a2.769,2.769,0,0,1,3.916-3.916l15.7,15.7a2.769,2.769,0,0,1-3.916,3.916Z" transform="translate(-180.416 -129.811)"/><path class="p" d="M283.284,220.48l-7.848-7.848-3.916,3.916,7.848,7.848a2.769,2.769,0,1,0,3.916-3.916Z" transform="translate(-233.336 -182.731)"/><path class="q" d="M51.529,27.219c5.225.618,14.283.731,19.661-4.646a2.769,2.769,0,1,0-3.916-3.916C63.48,22.451,55.8,22.349,50.5,21.48c-.746-4.448-1.162-12.748,2.842-16.752A2.769,2.769,0,0,0,49.428.811c-5.378,5.378-5.264,14.437-4.646,19.661C27.126,18.385,18.342,26.743,20.474,44.78c-5.225-.618-14.284-.731-19.661,4.646a2.769,2.769,0,1,0,3.916,3.916c3.786-3.786,11.444-3.7,16.755-2.826.869,5.308.961,12.968-2.826,16.755a2.769,2.769,0,0,0,3.916,3.916c5.378-5.378,5.264-14.436,4.646-19.661C44.877,53.615,53.661,45.256,51.529,27.219Zm-5.737-1.01C48.289,41.47,42.54,46.326,32,46.287a37.447,37.447,0,0,1-5.784-.5,37.436,37.436,0,0,1-.5-5.784C25.676,29.715,30.262,23.667,45.792,26.209Z" transform="translate(0 0)"/><path class="r" d="M136.274,160.584c17.656,2.088,26.441-6.271,24.308-24.308,5.225.618,14.283.731,19.661-4.646a2.769,2.769,0,0,0-3.916-3.916c-3.79,3.79-11.456,3.693-16.755,2.826l-4.727,4.727c2.5,15.261-3.252,20.116-13.8,20.077a37.445,37.445,0,0,1-5.784-.5l-4.727,4.727c.869,5.308.961,12.968-2.826,16.755a2.769,2.769,0,1,0,3.916,3.916C137.005,174.868,136.892,165.809,136.274,160.584Z" transform="translate(-109.053 -109.057)"/></g></g><g transform="translate(2300 696)"><g class="ai" transform="matrix(1, 0, 0, 1, -2300, -696)"><path class="b" d="M4,0H167a4,4,0,0,1,4,4V198a4,4,0,0,1-4,4H4a4,4,0,0,1-4-4V4A4,4,0,0,1,4,0Z" transform="translate(2317 710)"/></g><g transform="translate(-0.491 -8)"><rect class="c" width="139.821" height="11.946" rx="2" transform="translate(33.491 171.336)"/><rect class="d" width="97.148" height="11.946" rx="2" transform="translate(33.491 195.229)"/></g><g transform="translate(65 53)"><path class="s" d="M28.88,32H3.12A3.121,3.121,0,0,1,0,28.88V3.12A3.121,3.121,0,0,1,3.12,0H28.88A3.121,3.121,0,0,1,32,3.12V28.88A3.121,3.121,0,0,1,28.88,32Z"/><path class="f" d="M58.88,32H33.12A3.121,3.121,0,0,1,30,28.88V3.12A3.121,3.121,0,0,1,33.12,0H58.88A3.121,3.121,0,0,1,62,3.12V28.88A3.121,3.121,0,0,1,58.88,32Z" transform="translate(10)"/><path class="t" d="M28.88,62H3.12A3.121,3.121,0,0,1,0,58.88V33.12A3.121,3.121,0,0,1,3.12,30H28.88A3.121,3.121,0,0,1,32,33.12V58.88A3.121,3.121,0,0,1,28.88,62Z" transform="translate(0 10)"/><line class="u" y2="32" transform="translate(56 40)"/><line class="u" x2="32" transform="translate(40 56)"/></g></g><g transform="translate(2115 914)"><g class="ah" transform="matrix(1, 0, 0, 1, -2115, -914)"><path class="b" d="M4,0H167a4,4,0,0,1,4,4V198a4,4,0,0,1-4,4H4a4,4,0,0,1-4-4V4A4,4,0,0,1,4,0Z" transform="translate(2132 928)"/></g><g transform="translate(-0.491 -8)"><rect class="c" width="139.821" height="11.946" rx="2" transform="translate(33.491 171.336)"/><rect class="d" width="97.148" height="11.946" rx="2" transform="translate(33.491 195.229)"/></g><g class="v" transform="translate(64.956 52)"><path class="s" d="M71.92,20.408,35.982,40.941.044,20.408,35.982,0Z" transform="translate(0)"/><path class="w" d="M35.982,32.717,13.676,19.973.044,27.714,35.982,48.246,71.92,27.714,58.288,19.973Z" transform="translate(0 8.224)"/><g transform="translate(0.044 43.727)"><path class="x" d="M35.982,43.717,13.676,30.973.044,38.714,35.982,59.246,71.92,38.714,58.288,30.973Z" transform="translate(-0.044 -30.973)"/></g></g></g><g transform="translate(2300 914)"><g class="ag" transform="matrix(1, 0, 0, 1, -2300, -914)"><path class="b" d="M4,0H167a4,4,0,0,1,4,4V198a4,4,0,0,1-4,4H4a4,4,0,0,1-4-4V4A4,4,0,0,1,4,0Z" transform="translate(2317 928)"/></g><g transform="translate(-0.491 -8)"><rect class="c" width="139.821" height="11.946" rx="2" transform="translate(33.491 171.336)"/><rect class="d" width="97.148" height="11.946" rx="2" transform="translate(33.491 195.229)"/></g><g transform="translate(66 52)"><g transform="translate(0 25.828)"><path class="y" d="M29.793,37.368V26.079h.042a2.429,2.429,0,0,0-.042.434c0-2.822,4.794-5.271,11.835-6.513H4.479A4.336,4.336,0,0,0,0,24.178V37.821A4.337,4.337,0,0,0,4.479,42H29.793Z" transform="translate(0 -20)"/></g><g transform="translate(0 49.414)"><path class="z" d="M29.835,55.211h-.042V39H4.479A4.336,4.336,0,0,0,0,43.178V56.821A4.337,4.337,0,0,0,4.479,61h35.65C34.263,59.762,30.262,57.646,29.835,55.211Z" transform="translate(0 -39)"/></g><path class="z" d="M67.521,23H4.479A4.337,4.337,0,0,1,0,18.822V5.178A4.337,4.337,0,0,1,4.479,1H67.52A4.337,4.337,0,0,1,72,5.178V18.821A4.337,4.337,0,0,1,67.521,23Z" transform="translate(0 1.086)"/><circle class="aa" cx="4.345" cy="4.345" r="4.345" transform="translate(7.448 8.448)"/><ellipse class="aa" cx="1.241" cy="1.241" rx="1.241" ry="1.241" transform="translate(59.586 9.69)"/><ellipse class="aa" cx="1.241" cy="1.241" rx="1.241" ry="1.241" transform="translate(54.621 9.69)"/><ellipse class="aa" cx="1.241" cy="1.241" rx="1.241" ry="1.241" transform="translate(62.069 13.414)"/><ellipse class="aa" cx="1.241" cy="1.241" rx="1.241" ry="1.241" transform="translate(57.103 13.414)"/><ellipse class="aa" cx="1.241" cy="1.241" rx="1.241" ry="1.241" transform="translate(49.655 9.69)"/><ellipse class="aa" cx="1.241" cy="1.241" rx="1.241" ry="1.241" transform="translate(52.138 13.414)"/><ellipse class="aa" cx="1.241" cy="1.241" rx="1.241" ry="1.241" transform="translate(44.69 9.69)"/><ellipse class="aa" cx="1.241" cy="1.241" rx="1.241" ry="1.241" transform="translate(47.172 13.414)"/><ellipse class="aa" cx="1.241" cy="1.241" rx="1.241" ry="1.241" transform="translate(39.724 9.69)"/><ellipse class="aa" cx="1.241" cy="1.241" rx="1.241" ry="1.241" transform="translate(42.207 13.414)"/><circle class="aa" cx="4.345" cy="4.345" r="4.345" transform="translate(7.448 32.034)"/><circle class="aa" cx="4.345" cy="4.345" r="4.345" transform="translate(7.448 55.621)"/><g transform="translate(29.793 51.897)"><path class="ab" d="M46.345,50.289C34,50.289,24,46.746,24,42.375v13.19h.042c.68,4.154,10.4,7.448,22.3,7.448s21.622-3.295,22.3-7.448h.042V42.375C68.69,46.746,58.685,50.289,46.345,50.289Z" transform="translate(-24 -41.909)"/><path class="ab" d="M24,42v.466A2.786,2.786,0,0,1,24.042,42Z" transform="translate(-24 -42)"/><path class="ab" d="M59.966,42a2.786,2.786,0,0,1,.042.466V42Z" transform="translate(-15.319 -42)"/></g><g transform="translate(29.793 38.552)"><path class="ac" d="M46.345,39.539C34,39.539,24,36,24,31.625v13.81h.042c.68,4.154,10.4,7.448,22.3,7.448s21.622-3.295,22.3-7.448h.042V31.625C68.69,36,58.685,39.539,46.345,39.539Z" transform="translate(-24 -31.159)"/><path class="ac" d="M24,31.25v.466a2.786,2.786,0,0,1,.042-.466Z" transform="translate(-24 -31.25)"/><path class="ac" d="M59.966,31.25a2.786,2.786,0,0,1,.042.466V31.25Z" transform="translate(-15.319 -31.25)"/></g><ellipse class="ad" cx="22.345" cy="7.914" rx="22.345" ry="7.914" transform="translate(29.793 18.379)"/><g transform="translate(29.793 25.828)"><path class="ae" d="M46.345,29.289C34,29.289,24,25.746,24,21.375v13.19h.042c.68,4.154,10.4,7.448,22.3,7.448s21.622-3.295,22.3-7.448h.042V21.375C68.69,25.746,58.685,29.289,46.345,29.289Z" transform="translate(-24 -20.909)"/><path class="ae" d="M24,21v.466A2.786,2.786,0,0,1,24.042,21Z" transform="translate(-24 -21)"/><path class="ae" d="M59.966,21a2.786,2.786,0,0,1,.042.466V21Z" transform="translate(-15.319 -21)"/></g></g></g></g></svg>