<svg xmlns="http://www.w3.org/2000/svg" xmlns:xlink="http://www.w3.org/1999/xlink" viewBox="1232 477 375 667"><defs><style>.a,.b,.i,.u{fill:none;}.b{clip-rule:evenodd;}.c{clip-path:url(#h);}.d{fill:#f70;}.e,.g,.n,.z{fill:#fff;}.e,.z{font-size:14px;}.e,.h{font-family:SegoeUI, Segoe UI;}.f{fill:#3c5a99;}.h{fill:#c1c1c1;font-size:12px;}.i{stroke:#cdd3d6;}.i,.u{stroke-width:2px;}.j,.l{fill:#919191;}.k{clip-path:url(#a);}.l{font-size:16px;}.l,.z{font-family:SegoeUI-Semibold, Segoe UI;font-weight:600;}.m{fill:#3594dc;}.n{font-size:32px;font-family:Antipasto-ExtraLight, Antipasto;font-weight:200;letter-spacing:0.045em;}.o{opacity:0.91;}.p{fill:#ffdb77;}.q{fill:#ff905e;}.r{fill:#28d2e4;}.s{fill:#28c3e4;}.t{clip-path:url(#b);}.u{stroke:rgba(255,255,255,0.35);}.v{clip-path:url(#c);}.w{clip-path:url(#d);}.x{clip-path:url(#e);}.y{clip-path:url(#f);}.z{letter-spacing:0em;}.aa{fill:#f8f8f8;}</style><clipPath id="a"><rect class="a" width="88" height="7"/></clipPath><clipPath id="b"><path class="b" d="M338.667-26.667h16.667A2.667,2.667,0,0,1,358-24v6h0a2.667,2.667,0,0,1-2.667,2.667H338.667A2.667,2.667,0,0,1,336-18v-6h0A2.667,2.667,0,0,1,338.667-26.667Z" transform="translate(0 44)"/></clipPath><clipPath id="c"><path class="a" d="M359-23v4a2.17,2.17,0,0,0,1.328-2A2.17,2.17,0,0,0,359-23" transform="translate(0 44)"/></clipPath><clipPath id="d"><path class="a" d="M339.333-24.667h15.333A1.333,1.333,0,0,1,356-23.333v4.667h0a1.333,1.333,0,0,1-1.333,1.333H339.333A1.333,1.333,0,0,1,338-18.667v-4.667h0A1.333,1.333,0,0,1,339.333-24.667Z" transform="translate(0 44)"/></clipPath><clipPath id="e"><path class="a" d="M323.33-24.392a8.64,8.64,0,0,1,5.953,2.378.308.308,0,0,0,.433,0l1.156-1.167a.322.322,0,0,0,.093-.229.322.322,0,0,0-.1-.227,10.9,10.9,0,0,0-15.08,0,.322.322,0,0,0-.1.227.322.322,0,0,0,.093.229l1.156,1.167a.308.308,0,0,0,.433,0,8.641,8.641,0,0,1,5.954-2.378Zm0,3.8a4.907,4.907,0,0,1,3.294,1.27.31.31,0,0,0,.433-.006l1.155-1.167a.322.322,0,0,0,.094-.23.322.322,0,0,0-.1-.229,7.159,7.159,0,0,0-9.752,0,.322.322,0,0,0-.1.229.322.322,0,0,0,.094.23l1.154,1.167a.31.31,0,0,0,.433.006,4.907,4.907,0,0,1,3.292-1.27Zm2.219,2.784a.314.314,0,0,0,.094-.231.314.314,0,0,0-.1-.226,3.422,3.422,0,0,0-4.419,0,.314.314,0,0,0-.1.226.314.314,0,0,0,.094.231l2,2.016a.311.311,0,0,0,.222.093.312.312,0,0,0,.222-.093Z" transform="translate(0 44)"/></clipPath><clipPath id="f"><path class="a" d="M294.667-19.667h1a1,1,0,0,1,1,1v2a1,1,0,0,1-1,1h-1a1,1,0,0,1-1-1v-2a1,1,0,0,1,1-1Zm4.667-2h1a1,1,0,0,1,1,1v4a1,1,0,0,1-1,1h-1a1,1,0,0,1-1-1v-4A1,1,0,0,1,299.333-21.667ZM304-24h1a1,1,0,0,1,1,1v6.333a1,1,0,0,1-1,1h-1a1,1,0,0,1-1-1V-23A1,1,0,0,1,304-24Zm4.667-2.333h1a1,1,0,0,1,1,1v8.667a1,1,0,0,1-1,1h-1a1,1,0,0,1-1-1v-8.667a1,1,0,0,1,1-1Z" transform="translate(0 44)"/></clipPath><clipPath id="h"><rect x="1232" y="477" width="375" height="667"/></clipPath></defs><g id="g" class="c"><rect class="aa" x="1232" y="477" width="375" height="667"/><g transform="translate(1234 467)"><rect class="d" width="280" height="42" rx="2" transform="translate(46 455)"/><text class="e" transform="translate(186 482)"><tspan x="-21.072" y="0">Sign in</tspan></text></g><g transform="translate(1232 467)"><rect class="f" width="280" height="42" rx="2" transform="translate(48 508)"/><text class="e" transform="translate(188 535)"><tspan x="-67.426" y="0">Sign in with Facebook</tspan></text><g transform="translate(82.128 511.412)"><path class="f" d="M25.01,26.2A1.193,1.193,0,0,0,26.2,25.01V5.781A1.193,1.193,0,0,0,25.01,4.588H5.781A1.193,1.193,0,0,0,4.588,5.781V25.01A1.193,1.193,0,0,0,5.781,26.2Z"/><path class="g" d="M114.844,61.863V53.492h2.81l.421-3.262h-3.23V48.147c0-.944.262-1.588,1.617-1.588h1.727V43.641a23.093,23.093,0,0,0-2.517-.129,3.931,3.931,0,0,0-4.2,4.312V50.23h-2.817v3.262h2.817v8.371Z" transform="translate(-95.341 -35.659)"/></g></g><g transform="translate(1232 477)"><text class="h" transform="translate(56 638)"><tspan x="0" y="0">Forgot password</tspan></text><text class="h" transform="translate(328 638)"><tspan x="-67.043" y="0">Forgot email</tspan></text></g><g transform="translate(1232 443)"><line class="i" x2="280" transform="translate(48.5 416.5)"/><g transform="translate(-9 386)"><g transform="translate(64)"><path class="j" d="M213.981,280.19l-.25,2.245a.4.4,0,0,0,.394.44h1.583a.4.4,0,0,0,.394-.44l-.25-2.245a1.566,1.566,0,0,0,.648-1.273,1.583,1.583,0,0,0-3.167,0A1.566,1.566,0,0,0,213.981,280.19Zm.935-2.065a.789.789,0,0,1,.342,1.5.4.4,0,0,0-.221.4l.229,2.057h-.7l.229-2.057a.4.4,0,0,0-.221-.4.789.789,0,0,1,.342-1.5Z" transform="translate(-207.791 -267.041)"/><path class="j" d="M77.854,7.125H76.667V5.542a5.542,5.542,0,0,0-11.083,0V7.125H64.4a.4.4,0,0,0-.4.4v9.9A1.585,1.585,0,0,0,65.583,19H76.667a1.585,1.585,0,0,0,1.583-1.583v-9.9A.4.4,0,0,0,77.854,7.125ZM66.375,5.542a4.75,4.75,0,1,1,9.5,0V7.125h-.792V5.542a3.958,3.958,0,1,0-7.917,0V7.125h-.792Zm7.917,0V7.125H67.958V5.542a3.167,3.167,0,0,1,6.333,0Zm3.167,11.875a.793.793,0,0,1-.792.792H65.583a.793.793,0,0,1-.792-.792v-9.5H77.458Z" transform="translate(-64)"/></g></g><g class="k" transform="translate(90 396)"><g transform="translate(-89 -398)"><circle class="j" cx="3.5" cy="3.5" r="3.5" transform="translate(89 398)"/></g><g transform="translate(-78 -398)"><circle class="j" cx="3.5" cy="3.5" r="3.5" transform="translate(89 398)"/></g><g transform="translate(-67 -398)"><circle class="j" cx="3.5" cy="3.5" r="3.5" transform="translate(89 398)"/></g><g transform="translate(-56 -398)"><circle class="j" cx="3.5" cy="3.5" r="3.5" transform="translate(89 398)"/></g><g transform="translate(-45 -398)"><circle class="j" cx="3.5" cy="3.5" r="3.5" transform="translate(89 398)"/></g><g transform="translate(-34 -398)"><circle class="j" cx="3.5" cy="3.5" r="3.5" transform="translate(89 398)"/></g><g transform="translate(-23 -398)"><circle class="j" cx="3.5" cy="3.5" r="3.5" transform="translate(89 398)"/></g><g transform="translate(-12 -398)"><circle class="j" cx="3.5" cy="3.5" r="3.5" transform="translate(89 398)"/></g></g></g><g transform="translate(1232 385)"><line class="i" x2="280" transform="translate(48.5 416.5)"/><text class="l" transform="translate(88 402)"><tspan x="0" y="0">Email address</tspan></text><g transform="translate(49 306.176)"><path class="j" d="M0,81.824v16H24.138v-16ZM12.069,91.7l-9.9-8.694h19.8ZM8.125,89.821,1.187,95.914V83.728Zm.9.79,3.044,2.673,3.044-2.673,6.862,6.026H2.162Zm6.988-.79,6.939-6.093V95.914Z" transform="translate(0 0)"/></g></g><g transform="translate(1232 477)"><rect class="m" width="375" height="229"/><g transform="translate(10)"><g transform="translate(-57.848)"><text class="n" transform="translate(140.848 131)"><tspan x="0" y="0">Genetic Product</tspan></text></g><g class="o" transform="translate(48.666 101.904)"><path class="p" d="M158.434,219.073l-7.018-7.018a1.238,1.238,0,1,1,1.751-1.751l7.018,7.018a1.238,1.238,0,0,1-1.751,1.751Z" transform="translate(-141.553 -196.74)"/><path class="q" d="M217.892,275.028l-3.509-3.509-1.751,1.751,3.509,3.509a1.238,1.238,0,0,0,1.751-1.751Z" transform="translate(-199.261 -254.447)"/><path class="p" d="M331.29,46.216,324.272,39.2a1.238,1.238,0,1,1,1.751-1.751l7.018,7.018a1.238,1.238,0,0,1-1.751,1.751Z" transform="translate(-303.541 -34.752)"/><path class="q" d="M390.748,102.172l-3.509-3.509-1.751,1.751L389,103.923a1.238,1.238,0,0,0,1.751-1.751Z" transform="translate(-361.248 -92.46)"/><path class="r" d="M44.466,333.045l-7.018-7.018a1.238,1.238,0,0,1,1.751-1.751l7.018,7.018a1.238,1.238,0,0,1-1.751,1.751Z" transform="translate(-34.752 -303.547)"/><path class="s" d="M103.923,389l-3.509-3.509-1.751,1.751,3.509,3.509A1.238,1.238,0,0,0,103.923,389Z" transform="translate(-92.458 -361.25)"/><path class="r" d="M217.321,160.185l-7.018-7.018a1.238,1.238,0,1,1,1.751-1.751l7.018,7.018a1.238,1.238,0,0,1-1.751,1.751Z" transform="translate(-196.738 -141.555)"/><path class="s" d="M276.78,216.141l-3.509-3.509-1.751,1.751,3.509,3.509a1.238,1.238,0,0,0,1.751-1.751Z" transform="translate(-254.446 -199.263)"/><path class="g" d="M23.041,12.17c2.336.276,6.386.327,8.791-2.078a1.238,1.238,0,0,0-1.751-1.751c-1.7,1.7-5.13,1.651-7.5,1.262-.334-1.989-.519-5.7,1.271-7.491A1.238,1.238,0,1,0,22.1.362c-2.4,2.4-2.354,6.455-2.078,8.791C12.13,8.22,8.2,11.958,9.156,20.022,6.819,19.746,2.769,19.7.364,22.1a1.238,1.238,0,0,0,1.751,1.751c1.693-1.693,5.117-1.652,7.492-1.263.388,2.373.43,5.8-1.263,7.492a1.238,1.238,0,1,0,1.751,1.751c2.4-2.4,2.354-6.455,2.078-8.791C20.067,23.973,23.994,20.235,23.041,12.17Zm-2.565-.452c1.117,6.824-1.454,8.995-6.169,8.977a16.744,16.744,0,0,1-2.586-.222,16.739,16.739,0,0,1-.222-2.586C11.482,13.287,13.532,10.582,20.476,11.719Z" transform="translate(0 0)"/></g></g></g><g transform="translate(830 397)"><path class="a" d="M0-44H375V0H0Z" transform="translate(402 124)"/><g transform="translate(402 80)"><g class="t"><path class="u" d="M2.667,0H19.333A2.667,2.667,0,0,1,22,2.667v6h0a2.667,2.667,0,0,1-2.667,2.667H2.667A2.667,2.667,0,0,1,0,8.667v-6H0A2.667,2.667,0,0,1,2.667,0Z" transform="translate(336 17.333)"/></g><g class="v"><path class="g" d="M354-28h11.328v14H354Z" transform="translate(0 44)"/></g><g class="w"><path class="g" d="M333-29.667h28v17.333H333Z" transform="translate(0 44)"/></g></g><g transform="translate(402 80)"><g class="x"><path class="g" d="M310.694-31.669h25.272V-10.7H310.694Z" transform="translate(0 44)"/></g></g><g transform="translate(402 80)"><g class="y"><path class="g" d="M288.667-31.333h27v20.667h-27Z" transform="translate(0 44)"/></g></g><g transform="translate(402 80)"><path class="a" d="M21-19H75V-35H21Z" transform="translate(0 50)"/><text class="z" transform="translate(21 17)"><tspan x="14.549" y="15">9:41</tspan></text></g></g></g></svg>