<svg xmlns="http://www.w3.org/2000/svg" xmlns:xlink="http://www.w3.org/1999/xlink" viewBox="3922 5102 128 128"><defs><style>.a{fill:#fff;}.b{clip-path:url(#c);}.c{clip-path:url(#a);}.d{fill:#717171;}.e{fill:#e2e2e2;}.f{fill:#a5a5a5;}.g{fill:#4acfd9;}</style><clipPath id="a"><rect class="a" width="128" height="128" transform="translate(323 1085)"/></clipPath><clipPath id="c"><rect x="3922" y="5102" width="128" height="128"/></clipPath></defs><g id="b" class="b"><g class="c" transform="translate(3599 4017)"><g transform="translate(340.491 1085)"><path class="d" d="M99.776,5.3H10.733A1.987,1.987,0,0,0,8.745,7.288V120.712a1.987,1.987,0,0,0,1.987,1.988H99.776a1.987,1.987,0,0,0,1.988-1.988V7.288A1.987,1.987,0,0,0,99.776,5.3Z" transform="translate(-8.745 5.3)"/><path class="a" d="M87.056,9.54H14.973a1.987,1.987,0,0,0-1.987,1.987v97.524a1.987,1.987,0,0,0,1.987,1.988H66.915a1.987,1.987,0,0,0,1.405-.582L88.461,90.316a1.988,1.988,0,0,0,.582-1.406V11.528A1.987,1.987,0,0,0,87.056,9.54Z" transform="translate(-4.505 9.54)"/><path class="e" d="M39.95,51.213V71.354h0a1.986,1.986,0,0,0,1.4-.582L61.5,50.631a1.988,1.988,0,0,0,.582-1.406H41.938A1.987,1.987,0,0,0,39.95,51.213Z" transform="translate(22.459 49.226)"/><path class="f" d="M64.795,10.6H57.719a14.711,14.711,0,0,0-28.25,0H22.393a1.987,1.987,0,0,0-1.987,1.988v15.9a1.987,1.987,0,0,0,1.987,1.987H64.8a1.987,1.987,0,0,0,1.988-1.987v-15.9A1.987,1.987,0,0,0,64.795,10.6Z" transform="translate(2.915)"/><path class="a" d="M40.306,12.8a1.988,1.988,0,0,1-1.958-1.659,5.408,5.408,0,0,0-5.354-4.519,1.988,1.988,0,0,1,0-3.975,9.371,9.371,0,0,1,9.274,7.836,1.988,1.988,0,0,1-1.631,2.289A2.019,2.019,0,0,1,40.306,12.8Z" transform="translate(13.515 2.65)"/><path class="g" d="M44.654,19.081A25.309,25.309,0,1,0,69.963,44.389,25.337,25.337,0,0,0,44.654,19.081Z" transform="translate(1.855 23.081)"/><path class="a" d="M32.2,48.762a1.981,1.981,0,0,1-1.405-.582l-6.36-6.36a1.988,1.988,0,1,1,2.811-2.811L32.2,43.964,49.344,26.818a1.988,1.988,0,0,1,2.811,2.811L33.6,48.18A1.983,1.983,0,0,1,32.2,48.762Z" transform="translate(6.36 30.236)"/></g></g></g></svg>