<svg xmlns="http://www.w3.org/2000/svg" xmlns:xlink="http://www.w3.org/1999/xlink" viewBox="3526 5102 128 128"><defs><style>.a{clip-path:url(#b);}.b{fill:#717171;}.c{fill:#34ffd6;}.d{fill:#34aeff;}.e{fill:#fff;}</style><clipPath id="b"><rect x="3526" y="5102" width="128" height="128"/></clipPath></defs><g id="a" class="a"><g transform="translate(3526 5102)"><circle class="b" cx="64" cy="64" r="64"/><path class="c" d="M104.94,139.128h12.521a22.259,22.259,0,1,1,22.259,22.259l-11.13,16.525h14.781A38.954,38.954,0,1,0,100.963,135.2Z" transform="translate(-75.724 -75.133)"/><path class="d" d="M79.306,114.084H66.785a47.3,47.3,0,1,1,47.3,47.3l-5.565-6.26,5.565-6.26a34.78,34.78,0,1,0-34.78-34.78Z" transform="translate(-50.09 -50.089)"/><path class="d" d="M173.239,405.25V384.382L159.446,380.8l-13.792,3.583Z" transform="translate(-109.243 -285.607)"/><path class="c" d="M173.239,332.521V311.653l-27.585,20.868Z" transform="translate(-109.243 -233.746)"/><path class="e" d="M264.347,208.7H244.87V189.219h5.565v13.912h13.913Z" transform="translate(-183.657 -141.918)"/></g></g></svg>