<svg xmlns="http://www.w3.org/2000/svg" xmlns:xlink="http://www.w3.org/1999/xlink" viewBox="3724 5102 128 128"><defs><style>.a{clip-path:url(#b);}.b{fill:#b5b5b5;}.c{fill:#fff;font-size:60px;font-family:Roboto-Medium, Roboto;font-weight:500;letter-spacing:-0.05em;}.d{fill:#34aeff;}</style><clipPath id="b"><rect x="3724" y="5102" width="128" height="128"/></clipPath></defs><g id="a" class="a"><g transform="translate(3215.285 3923.388)"><path class="b" d="M127,90.723H89.831V43.083C111.259,28.258,122.966,8.015,127,0V90.722Zm-44.917,0H44.916V62.583c14.812-4.143,27.318-9.07,37.171-14.643V90.722Zm-44.916,0H0v-19.2a322.379,322.379,0,0,0,37.172-6.9v26.1Z" transform="translate(509.711 1216.359)"/><text class="c" transform="translate(535.266 1237.077)"><tspan x="0" y="0">+</tspan></text><path class="d" d="M131.028,70.618S80.855,68.507,51.04,49.727,0,.506,0,.506L.689,0s25.9,26.8,50.184,41.951A92.368,92.368,0,0,0,100.3,55.585l1.98-10.239Z" transform="translate(508.715 1280.086) rotate(-60)"/></g></g></svg>