<svg xmlns="http://www.w3.org/2000/svg" xmlns:xlink="http://www.w3.org/1999/xlink" viewBox="4120 5102 128 128"><defs><style>.a{clip-path:url(#b);}.b{fill:#e2e2e2;}.c{fill:#fff;}.d{fill:#717171;}.e{fill:#a5a5a5;}.f{fill:#ff7058;}</style><clipPath id="b"><rect x="4120" y="5102" width="128" height="128"/></clipPath></defs><g id="a" class="a"><g transform="translate(3440 4291.032)"><g transform="translate(680 830.968)"><path class="b" d="M55.2,44.5l-.533,22.4L39.733,77.032,25.067,67.165l-.8-22.667s4.8-4.533,3.467-9.067H51.2C50.4,39.965,55.2,44.5,55.2,44.5Z" transform="translate(24.267 25.495)"/><path class="c" d="M103.466,78.1V70.365a21.048,21.048,0,0,0-10.4-18.133L82.133,46.1,71.2,39.965h0l-9.6,23.2L57.867,47.432,60.533,44.5h-9.6L53.6,47.432,49.867,63.165l-9.333-23.2L29.6,46.1,18.667,52.232a21.049,21.049,0,0,0-10.4,18.133V78.1h95.2Z" transform="translate(8.267 30.029)"/><g transform="translate(39.304 35.151)"><ellipse class="c" cx="5.333" cy="3.733" rx="5.333" ry="3.733" transform="translate(4.068 12.708) rotate(-112.421)"/><ellipse class="c" cx="5.333" cy="3.733" rx="5.333" ry="3.733" transform="translate(49.171 2.855) rotate(112.421)"/></g><path class="c" d="M64,31.965a18.884,18.884,0,0,1-.267,3.733h0c-1.6,12.533-10.4,32.8-21.067,32.8S23.2,48.232,21.6,35.432a15.2,15.2,0,0,1-.267-3.467,21.333,21.333,0,0,1,42.667,0Z" transform="translate(21.333 0.695)"/><path class="d" d="M23.37,45.1c-.533-2.933-.267-6.933,1.6-9.067,0,0-1.6-13.6,8.267-12.8,0,0,8,2.667,22.933,0,0,0,6.133-.267,5.067,6.133,0,0-1.6,5.867,1.6,7.2l1.333,8.267L65.5,38.7c2.4-11.2-.267-22.4-10.667-27.467H54.57c1.333-1.867,4-1.067,4-1.067-17.6-11.2-29.333-.8-29.333-.8C16.7,20.829,20.7,34.162,20.7,34.162,19.37,38.962,23.37,45.1,23.37,45.1Z" transform="translate(20.096 -4.968)"/><g transform="translate(0 19.861)"><path class="e" d="M24.8,73.972l10.933-6.133,9.867-5.6v-.267h0a25.314,25.314,0,0,0,2.667-4.533,56.955,56.955,0,0,1-6.133-12.8,10.01,10.01,0,0,1-4.267-5.067,10.324,10.324,0,0,1-.267-7.467c-1.067-2.933-1.6-5.6-1.067-8a30.476,30.476,0,0,1-.267-9.067,15.891,15.891,0,0,0-10.933,3.467c-9.6,8.8-6.667,18.933-6.667,18.933-.533,2.133.267,4.533,1.333,6.4a3.961,3.961,0,0,0-.267,4.267,4.116,4.116,0,0,0,2.933,2.667A48.283,48.283,0,0,0,28,61.972h0c.8,3.467-2.667,6.933-2.667,6.933h0l-8.533,4.8L8,78.239A15.689,15.689,0,0,0,0,92.106v2.667H12.267A25.057,25.057,0,0,1,24.8,73.972Z" transform="translate(0 -14.772)"/><path class="e" d="M80.134,78.365l-8.267-4.8-8.533-4.8h0s-3.467-3.467-2.667-6.933h0A48.283,48.283,0,0,0,66,50.632a4.762,4.762,0,0,0,2.933-2.667c.8-2.133.267-4.267-1.067-4.8l.533-2.133c1.867-8.533-.267-17.333-8-21.067a.826.826,0,0,0-.533-.267,2.944,2.944,0,0,1,2.933-.8,22.168,22.168,0,0,0-12.8-4c1.067,4.533.8,9.6-.267,14.933v.533a9.072,9.072,0,0,1,.533,9.067A10.011,10.011,0,0,1,46,44.5a56.955,56.955,0,0,1-6.133,12.8,25.314,25.314,0,0,0,2.667,4.533h0V62.1L63.066,73.832A24.569,24.569,0,0,1,75.6,94.9H88.134V92.232A16.589,16.589,0,0,0,80.134,78.365Z" transform="translate(39.866 -14.899)"/></g><path class="f" d="M55.2,54.632H50.133V49.565H46.667v5.067H41.6V58.1h5.067v5.066h3.467V58.1H55.2Z" transform="translate(41.6 39.629)"/></g></g></g></svg>