<svg xmlns="http://www.w3.org/2000/svg" xmlns:xlink="http://www.w3.org/1999/xlink" viewBox="-743 7582 420 300">
  <defs>
    <style>
      .cls-1 {
        clip-path: url(#clip-ix360-web-and-mobile_1);
      }

      .cls-13, .cls-2, .cls-20 {
        fill: #fff;
      }

      .cls-3 {
        opacity: 0.94;
      }

      .cls-4 {
        fill: #b5b5b5;
      }

      .cls-5 {
        fill: #88c5fc;
      }

      .cls-6 {
        fill: #c78bc5;
      }

      .cls-7 {
        fill: #f9a18a;
      }

      .cls-8 {
        fill: #f7e88b;
      }

      .cls-9 {
        fill: #686868;
        font-size: 14px;
        font-family: TrebuchetMS, Trebuchet MS;
      }

      .cls-10 {
        fill: #c17dbe;
        opacity: 0.89;
      }

      .cls-11, .cls-22 {
        fill: none;
      }

      .cls-11 {
        stroke: #34aeff;
        stroke-miterlimit: 10;
        stroke-width: 3px;
      }

      .cls-12 {
        fill: #34aeff;
      }

      .cls-13 {
        font-size: 11px;
        font-family: Helvetica;
      }

      .cls-14 {
        fill: #555;
      }

      .cls-15 {
        fill: #ebebeb;
      }

      .cls-16 {
        fill: #b9bbc1;
      }

      .cls-17 {
        fill: #6e73f9;
      }

      .cls-18 {
        fill: #8b8996;
      }

      .cls-19 {
        fill: #807e7e;
      }

      .cls-20 {
        stroke: #555;
      }

      .cls-21 {
        stroke: none;
      }

      .cls-23 {
        filter: url(#Rectangle_149);
      }
    </style>
    <filter id="Rectangle_149" x="-744" y="7645" width="225.636" height="165.05" filterUnits="userSpaceOnUse">
      <feOffset dy="6" input="SourceAlpha"/>
      <feGaussianBlur stdDeviation="9" result="blur"/>
      <feFlood flood-opacity="0.161"/>
      <feComposite operator="in" in2="blur"/>
      <feComposite in="SourceGraphic"/>
    </filter>
    <clipPath id="clip-ix360-web-and-mobile_1">
      <rect x="-743" y="7582" width="420" height="300"/>
    </clipPath>
  </defs>
  <g id="ix360-web-and-mobile_1" data-name="ix360-web-and-mobile – 1" class="cls-1">
    <g id="Group_738" data-name="Group 738" transform="translate(-1882 6511.997)">
      <g id="Group_392" data-name="Group 392" transform="translate(1165 1154.003)">
        <g class="cls-23" transform="matrix(1, 0, 0, 1, 717, -7666)">
          <rect id="Rectangle_149-2" data-name="Rectangle 149" class="cls-2" width="171.636" height="111.05" rx="4" transform="translate(-717 7666)"/>
        </g>
        <g id="Group_353" data-name="Group 353" class="cls-3" transform="translate(11.856 78.446)">
          <rect id="Rectangle_19" data-name="Rectangle 19" class="cls-4" width="21.989" height="7.932" rx="3.966" transform="translate(0 0.068)"/>
          <rect id="Rectangle_20" data-name="Rectangle 20" class="cls-5" width="48.301" height="7.932" rx="3.966" transform="translate(28.981 0)"/>
          <rect id="Rectangle_21" data-name="Rectangle 21" class="cls-6" width="68.529" height="7.932" rx="3.966" transform="translate(0 13.881)"/>
          <rect id="Rectangle_95" data-name="Rectangle 95" class="cls-7" width="20.01" height="7.932" rx="3.966" transform="translate(84.309 0)"/>
          <rect id="Rectangle_96" data-name="Rectangle 96" class="cls-8" width="36.985" height="7.932" rx="3.966" transform="translate(110.655 0)"/>
        </g>
        <g id="ixlayer-logo" transform="translate(38.203 24.925)">
          <text id="ix_layer" data-name="ix layer" class="cls-9" transform="translate(35.426 13.522)"><tspan x="0" y="0">ixlayer</tspan></text>
          <path id="Path_4" data-name="Path 4" class="cls-10" d="M259,1088.04l15.3-5.656,15.259,5.656-15.259,5.7Z" transform="translate(-259 -1068.7)"/>
          <path id="Path_3" data-name="Path 3" class="cls-8" d="M259,1088.04l15.3-5.656,15.259,5.656-15.259,5.7Z" transform="translate(-259 -1074.891)"/>
          <path id="Path_2" data-name="Path 2" class="cls-7" d="M259,1088.04l15.3-5.656,15.259,5.656-15.259,5.7Z" transform="translate(-259 -1078.475)"/>
          <path id="Path_1" data-name="Path 1" class="cls-5" d="M259,1088.04l15.3-5.656,15.259,5.656-15.259,5.7Z" transform="translate(-259 -1082.385)"/>
        </g>
      </g>
      <g id="Group_694" data-name="Group 694" transform="translate(1329.007 1163.254)">
        <g id="Group_693" data-name="Group 693" transform="translate(0 16.526)">
          <path id="Path_342" data-name="Path 342" class="cls-11" d="M440.266,120H325" transform="translate(-317.755 -113.39)"/>
          <path id="Path_343" data-name="Path 343" class="cls-12" d="M7.271,0A7.245,7.245,0,1,1,0,7.245,7.258,7.258,0,0,1,7.271,0Z" transform="translate(14.491) rotate(90)"/>
        </g>
        <g id="Group_397" data-name="Group 397" transform="translate(136.344 0)">
          <text id="Web_App" data-name="Web App" class="cls-13" transform="translate(32.539 64.849)"><tspan x="-22.226" y="0">Web App</tspan></text>
          <g id="Laptop_-_01" data-name="Laptop - 01">
            <g id="Group_615" data-name="Group 615" transform="translate(6.422 4.281)">
              <rect id="Rectangle_196" data-name="Rectangle 196" class="cls-2" width="55.657" height="34.251" transform="translate(0 0)"/>
            </g>
            <g id="Group_616" data-name="Group 616" transform="translate(6.422 4.281)">
              <rect id="Rectangle_197" data-name="Rectangle 197" class="cls-12" width="55.657" height="8.563" transform="translate(0 0)"/>
            </g>
            <g id="Group_617" data-name="Group 617" transform="translate(2.141)">
              <path id="Path_888" data-name="Path 888" class="cls-14" d="M75.287,75.984H20.93A4.93,4.93,0,0,0,16,80.9v38.965a1.07,1.07,0,0,0,1.07,1.07H79.15a1.07,1.07,0,0,0,1.07-1.07V80.9A4.931,4.931,0,0,0,75.287,75.984ZM20.281,113.446V81.336a1.07,1.07,0,0,1,1.07-1.07H74.868a1.07,1.07,0,0,1,1.07,1.07v32.11a1.07,1.07,0,0,1-1.07,1.07H21.352A1.07,1.07,0,0,1,20.281,113.446Z" transform="translate(-16 -75.984)"/>
            </g>
            <g id="Group_618" data-name="Group 618" transform="translate(0 42.813)">
              <path id="Path_889" data-name="Path 889" class="cls-4" d="M67.431,395.984H1.07A1.07,1.07,0,0,0,0,397.054H0a4.29,4.29,0,0,0,4.285,4.285h59.93a4.29,4.29,0,0,0,4.285-4.285h0A1.069,1.069,0,0,0,67.431,395.984Z" transform="translate(0 -395.984)"/>
            </g>
            <g id="Group_620" data-name="Group 620" transform="translate(10.703 7.492)">
              <g id="Group_619" data-name="Group 619" transform="translate(0 0)">
                <path id="Path_890" data-name="Path 890" class="cls-2" d="M88.563,134.125H81.07a1.07,1.07,0,0,1,0-2.141h7.492a1.07,1.07,0,1,1,0,2.141Z" transform="translate(-80 -131.984)"/>
              </g>
            </g>
            <g id="Group_622" data-name="Group 622" transform="translate(36.391 7.492)">
              <g id="Group_621" data-name="Group 621" transform="translate(0 0)">
                <path id="Path_891" data-name="Path 891" class="cls-2" d="M274.141,134.125h-1.07a1.07,1.07,0,0,1,0-2.141h1.07a1.07,1.07,0,1,1,0,2.141Z" transform="translate(-272 -131.984)"/>
              </g>
            </g>
            <g id="Group_624" data-name="Group 624" transform="translate(41.743 7.492)">
              <g id="Group_623" data-name="Group 623" transform="translate(0 0)">
                <path id="Path_892" data-name="Path 892" class="cls-2" d="M314.141,134.125h-1.07a1.07,1.07,0,0,1,0-2.141h1.07a1.07,1.07,0,0,1,0,2.141Z" transform="translate(-312 -131.984)"/>
              </g>
            </g>
            <g id="Group_626" data-name="Group 626" transform="translate(47.095 7.492)">
              <g id="Group_625" data-name="Group 625" transform="translate(0 0)">
                <path id="Path_893" data-name="Path 893" class="cls-2" d="M354.141,134.125h-1.07a1.07,1.07,0,1,1,0-2.141h1.07a1.07,1.07,0,0,1,0,2.141Z" transform="translate(-352 -131.984)"/>
              </g>
            </g>
            <g id="Group_628" data-name="Group 628" transform="translate(52.446 7.492)">
              <g id="Group_627" data-name="Group 627" transform="translate(0 0)">
                <path id="Path_894" data-name="Path 894" class="cls-2" d="M394.141,134.125h-1.07a1.07,1.07,0,1,1,0-2.141h1.07a1.07,1.07,0,0,1,0,2.141Z" transform="translate(-392 -131.984)"/>
              </g>
            </g>
            <g id="Group_629" data-name="Group 629" transform="translate(10.703 16.055)">
              <path id="Path_895" data-name="Path 895" class="cls-15" d="M99.266,215.25H81.07A1.07,1.07,0,0,1,80,214.18V197.054a1.07,1.07,0,0,1,1.07-1.07h18.2a1.07,1.07,0,0,1,1.07,1.07V214.18A1.07,1.07,0,0,1,99.266,215.25Z" transform="translate(-80 -195.984)"/>
            </g>
            <g id="Group_631" data-name="Group 631" transform="translate(34.251 16.055)">
              <g id="Group_630" data-name="Group 630" transform="translate(0 0)">
                <path id="Path_896" data-name="Path 896" class="cls-12" d="M277.407,198.125H257.07a1.07,1.07,0,1,1,0-2.141h20.336a1.07,1.07,0,0,1,0,2.141Z" transform="translate(-256 -195.984)"/>
              </g>
            </g>
            <g id="Group_633" data-name="Group 633" transform="translate(34.251 24.618)">
              <g id="Group_632" data-name="Group 632" transform="translate(0 0)">
                <path id="Path_897" data-name="Path 897" class="cls-16" d="M265.633,262.125H257.07a1.07,1.07,0,1,1,0-2.141h8.563a1.07,1.07,0,1,1,0,2.141Z" transform="translate(-256 -259.984)"/>
              </g>
            </g>
            <g id="Group_635" data-name="Group 635" transform="translate(34.251 28.899)">
              <g id="Group_634" data-name="Group 634">
                <path id="Path_898" data-name="Path 898" class="cls-16" d="M265.633,294.125H257.07a1.07,1.07,0,1,1,0-2.141h8.563a1.07,1.07,0,1,1,0,2.141Z" transform="translate(-256 -291.984)"/>
              </g>
            </g>
            <g id="Group_637" data-name="Group 637" transform="translate(34.251 33.18)">
              <g id="Group_636" data-name="Group 636">
                <path id="Path_899" data-name="Path 899" class="cls-16" d="M265.633,326.125H257.07a1.07,1.07,0,1,1,0-2.141h8.563a1.07,1.07,0,1,1,0,2.141Z" transform="translate(-256 -323.984)"/>
              </g>
            </g>
            <g id="Group_639" data-name="Group 639" transform="translate(47.095 24.618)">
              <g id="Group_638" data-name="Group 638" transform="translate(0 0)">
                <path id="Path_900" data-name="Path 900" class="cls-16" d="M361.633,262.125H353.07a1.07,1.07,0,1,1,0-2.141h8.563a1.07,1.07,0,0,1,0,2.141Z" transform="translate(-352 -259.984)"/>
              </g>
            </g>
            <g id="Group_641" data-name="Group 641" transform="translate(47.095 28.899)">
              <g id="Group_640" data-name="Group 640">
                <path id="Path_901" data-name="Path 901" class="cls-16" d="M361.633,294.125H353.07a1.07,1.07,0,0,1,0-2.141h8.563a1.07,1.07,0,0,1,0,2.141Z" transform="translate(-352 -291.984)"/>
              </g>
            </g>
            <g id="Group_643" data-name="Group 643" transform="translate(47.095 33.18)">
              <g id="Group_642" data-name="Group 642">
                <path id="Path_902" data-name="Path 902" class="cls-16" d="M361.633,326.125H353.07a1.07,1.07,0,1,1,0-2.141h8.563a1.07,1.07,0,0,1,0,2.141Z" transform="translate(-352 -323.984)"/>
              </g>
            </g>
            <g id="Group_645" data-name="Group 645" transform="translate(34.251 20.336)">
              <g id="Group_644" data-name="Group 644" transform="translate(0 0)">
                <path id="Path_903" data-name="Path 903" class="cls-17" d="M270.985,230.125H257.07a1.07,1.07,0,1,1,0-2.141h13.914a1.07,1.07,0,0,1,0,2.141Z" transform="translate(-256 -227.984)"/>
              </g>
            </g>
            <g id="Group_646" data-name="Group 646" transform="translate(27.829 42.813)">
              <path id="Path_904" data-name="Path 904" class="cls-18" d="M210.141,398.125H218.7a2.141,2.141,0,0,0,2.141-2.141H208A2.141,2.141,0,0,0,210.141,398.125Z" transform="translate(-208 -395.984)"/>
            </g>
          </g>
        </g>
      </g>
      <g id="Group_692" data-name="Group 692" transform="translate(1329.007 1202.916)">
        <g id="Group_691" data-name="Group 691" transform="translate(0 24.458)">
          <path id="Path_924" data-name="Path 924" class="cls-11" d="M390.835,120H325" transform="translate(-324.969 -112.068)"/>
          <path id="Path_925" data-name="Path 925" class="cls-12" d="M7.271,0A7.245,7.245,0,1,1,0,7.245,7.258,7.258,0,0,1,7.271,0Z" transform="translate(14.491) rotate(90)"/>
        </g>
        <g id="Group_689" data-name="Group 689" transform="translate(69.16)">
          <text id="Mobile_App" data-name="Mobile App" class="cls-13" transform="translate(27 80.714)"><tspan x="-27.215" y="0">Mobile App</tspan></text>
          <g id="Group_690" data-name="Group 690" transform="translate(11.856)">
            <rect id="Rectangle_198" data-name="Rectangle 198" class="cls-19" width="32.933" height="63.459" rx="3"/>
            <rect id="Rectangle_199" data-name="Rectangle 199" class="cls-15" width="30.299" height="46.272" transform="translate(1.317 7.932)"/>
            <circle id="Ellipse_440" data-name="Ellipse 440" class="cls-14" cx="2.305" cy="2.305" r="2.305" transform="translate(14.491 56.849)"/>
            <circle id="Ellipse_441" data-name="Ellipse 441" class="cls-14" cx="0.988" cy="0.988" r="0.988" transform="translate(9.221 2.644)"/>
            <g id="Rectangle_200" data-name="Rectangle 200" class="cls-20" transform="translate(13.173 2.644)">
              <rect class="cls-21" width="7.904" height="1.983" rx="0.992"/>
              <rect class="cls-22" x="0.5" y="0.5" width="6.904" height="0.983" rx="0.492"/>
            </g>
            <g id="apple" transform="translate(11.197 22.522)">
              <path id="Path_21" data-name="Path 21" class="cls-14" d="M56.443,6.95a2.959,2.959,0,0,1,1.412-2.49,3.054,3.054,0,0,0-2.392-1.3c-1.019-.1-1.987.6-2.5.6s-1.313-.584-2.158-.569A3.2,3.2,0,0,0,48.1,4.834c-1.153,2-.3,4.967.829,6.59.549.795,1.2,1.687,2.064,1.655.828-.033,1.141-.536,2.143-.536s1.283.536,2.159.519,1.456-.81,2-1.607A7.213,7.213,0,0,0,58.2,9.6,2.889,2.889,0,0,1,56.443,6.95ZM54.8,2.089A2.882,2.882,0,0,0,55.476,0,2.932,2.932,0,0,0,53.55.991a2.742,2.742,0,0,0-.695,2.024A2.426,2.426,0,0,0,54.8,2.089Z" transform="translate(-47.548)"/>
            </g>
          </g>
        </g>
      </g>
    </g>
  </g>
</svg>
