<svg xmlns="http://www.w3.org/2000/svg" xmlns:xlink="http://www.w3.org/1999/xlink" viewBox="-748 4996 420 300"><defs><style>.a{clip-path:url(#d);}.b,.m,.t{fill:#fff;}.c{opacity:0.94;}.d{fill:#b5b5b5;}.e{fill:#88c5fc;}.f{fill:#c78bc5;}.g{fill:#f9a18a;}.h{fill:#f7e88b;}.i{fill:#686868;font-size:15px;font-family:TrebuchetMS, Trebuchet MS;}.j{fill:#c17dbe;opacity:0.89;}.k,.v{fill:none;}.k{stroke:#34aeff;stroke-miterlimit:10;stroke-width:3px;}.l{fill:#34aeff;}.m{font-size:9px;font-family:Quicksand-Regular, Quicksand;}.n{fill:#555;}.o{fill:#ebebeb;}.p{fill:#b9bbc1;}.q{fill:#6e73f9;}.r{fill:#8b8996;}.s{fill:#807e7e;}.t{stroke:#555;}.u{stroke:none;}.w{filter:url(#a);}</style><filter id="a" x="-705" y="5075" width="184.291" height="137.997" filterUnits="userSpaceOnUse"><feOffset dy="6" input="SourceAlpha"/><feGaussianBlur stdDeviation="9" result="b"/><feFlood flood-opacity="0.161"/><feComposite operator="in" in2="b"/><feComposite in="SourceGraphic"/></filter><clipPath id="d"><rect x="-748" y="4996" width="420" height="300"/></clipPath></defs><g id="c" class="a"><g transform="translate(-1843 3941.997)"><g transform="translate(-467 -205.997)"><g class="w" transform="matrix(1, 0, 0, 1, 2310, -3736)"><rect class="b" width="130.291" height="83.997" rx="4" transform="translate(-678 5096)"/></g><g class="c" transform="translate(1641.454 1419.336)"><rect class="d" width="16.692" height="6" rx="3" transform="translate(-0.454 0.051)"/><rect class="e" width="36.666" height="6" rx="3" transform="translate(21.546 0)"/><rect class="f" width="52.021" height="6" rx="3" transform="translate(-0.454 10.5)"/><rect class="g" width="15.19" height="6" rx="3" transform="translate(63.546 0)"/><rect class="h" width="28.075" height="6" rx="3" transform="translate(83.546 0)"/></g><g transform="translate(1661 1376.469)"><text class="i" transform="translate(26.892 16.887)"><tspan x="0" y="0">ixlayer</tspan></text><path class="j" d="M259,1087.829l11.617-5.444,11.583,5.444-11.583,5.488Z" transform="translate(-259 -1066.827)"/><path class="h" d="M259,1087.829l11.617-5.444,11.583,5.444-11.583,5.488Z" transform="translate(-259 -1072.786)"/><path class="g" d="M259,1087.829l11.617-5.444,11.583,5.444-11.583,5.488Z" transform="translate(-259 -1076.237)"/><path class="e" d="M259,1087.829l11.617-5.444,11.583,5.444-11.583,5.488Z" transform="translate(-259 -1080)"/></g></g><g transform="translate(299 -16)"><g transform="translate(-169)"><path class="k" d="M412.5,120H325" transform="translate(840 1074.5)"/><path class="l" d="M5.5,0A5.5,5.5,0,1,1,0,5.5,5.5,5.5,0,0,1,5.5,0Z" transform="translate(1170.5 1189.5) rotate(90)"/></g><g transform="translate(915 -23)"><text class="m" transform="translate(205 1250)"><tspan x="-19.049" y="0">Web App</tspan></text><g transform="translate(179 1124.016)"><g transform="translate(4.875 79.234)"><rect class="b" width="42.25" height="26" transform="translate(0 0)"/></g><g transform="translate(4.875 79.234)"><rect class="l" width="42.25" height="6.5" transform="translate(0 0)"/></g><g transform="translate(1.625 75.984)"><path class="n" d="M61.006,75.984H19.743A3.743,3.743,0,0,0,16,79.718V109.3a.812.812,0,0,0,.813.813H63.938a.812.812,0,0,0,.812-.812V79.718A3.743,3.743,0,0,0,61.006,75.984ZM19.25,104.422V80.047a.813.813,0,0,1,.813-.812H60.688a.813.813,0,0,1,.813.813v24.375a.813.813,0,0,1-.813.813H20.063A.813.813,0,0,1,19.25,104.422Z" transform="translate(-16 -75.984)"/></g><g transform="translate(0 108.484)"><path class="d" d="M51.188,395.984H.813A.812.812,0,0,0,0,396.8H0a3.257,3.257,0,0,0,3.253,3.253H48.747A3.257,3.257,0,0,0,52,396.8h0A.812.812,0,0,0,51.188,395.984Z" transform="translate(0 -395.984)"/></g><g transform="translate(8.125 81.672)"><g transform="translate(0 0)"><path class="b" d="M86.5,133.609H80.813a.813.813,0,0,1,0-1.625H86.5a.813.813,0,1,1,0,1.625Z" transform="translate(-80 -131.984)"/></g></g><g transform="translate(27.625 81.672)"><g transform="translate(0 0)"><path class="b" d="M273.625,133.609h-.812a.812.812,0,0,1,0-1.625h.813a.813.813,0,0,1,0,1.625Z" transform="translate(-272 -131.984)"/></g></g><g transform="translate(31.688 81.672)"><g transform="translate(0 0)"><path class="b" d="M313.625,133.609h-.812a.812.812,0,0,1,0-1.625h.813a.813.813,0,0,1,0,1.625Z" transform="translate(-312 -131.984)"/></g></g><g transform="translate(35.75 81.672)"><g transform="translate(0 0)"><path class="b" d="M353.625,133.609h-.812a.812.812,0,0,1,0-1.625h.813a.813.813,0,0,1,0,1.625Z" transform="translate(-352 -131.984)"/></g></g><g transform="translate(39.813 81.672)"><g transform="translate(0 0)"><path class="b" d="M393.625,133.609h-.812a.812.812,0,0,1,0-1.625h.813a.813.813,0,0,1,0,1.625Z" transform="translate(-392 -131.984)"/></g></g><g transform="translate(8.125 88.172)"><path class="o" d="M94.625,210.609H80.813A.813.813,0,0,1,80,209.8v-13a.813.813,0,0,1,.813-.812H94.625a.813.813,0,0,1,.813.813v13A.813.813,0,0,1,94.625,210.609Z" transform="translate(-80 -195.984)"/></g><g transform="translate(26 88.172)"><g transform="translate(0 0)"><path class="l" d="M272.25,197.609H256.813a.813.813,0,0,1,0-1.625H272.25a.812.812,0,0,1,0,1.625Z" transform="translate(-256 -195.984)"/></g></g><g transform="translate(26 94.672)"><g transform="translate(0 0)"><path class="p" d="M263.313,261.609h-6.5a.813.813,0,0,1,0-1.625h6.5a.813.813,0,0,1,0,1.625Z" transform="translate(-256 -259.984)"/></g></g><g transform="translate(26 97.922)"><path class="p" d="M263.313,293.609h-6.5a.813.813,0,0,1,0-1.625h6.5a.813.813,0,0,1,0,1.625Z" transform="translate(-256 -291.984)"/></g><g transform="translate(26 101.172)"><path class="p" d="M263.313,325.609h-6.5a.813.813,0,0,1,0-1.625h6.5a.813.813,0,0,1,0,1.625Z" transform="translate(-256 -323.984)"/></g><g transform="translate(35.75 94.672)"><g transform="translate(0 0)"><path class="p" d="M359.313,261.609h-6.5a.813.813,0,0,1,0-1.625h6.5a.813.813,0,0,1,0,1.625Z" transform="translate(-352 -259.984)"/></g></g><g transform="translate(35.75 97.922)"><path class="p" d="M359.313,293.609h-6.5a.813.813,0,0,1,0-1.625h6.5a.813.813,0,0,1,0,1.625Z" transform="translate(-352 -291.984)"/></g><g transform="translate(35.75 101.172)"><path class="p" d="M359.313,325.609h-6.5a.813.813,0,0,1,0-1.625h6.5a.813.813,0,0,1,0,1.625Z" transform="translate(-352 -323.984)"/></g><g transform="translate(26 91.422)"><g transform="translate(0 0)"><path class="q" d="M267.375,229.609H256.813a.813.813,0,0,1,0-1.625h10.563a.813.813,0,0,1,0,1.625Z" transform="translate(-256 -227.984)"/></g></g><g transform="translate(21.125 108.484)"><path class="r" d="M209.625,397.609h6.5a1.625,1.625,0,0,0,1.625-1.625H208A1.625,1.625,0,0,0,209.625,397.609Z" transform="translate(-208 -395.984)"/></g></g></g></g><g transform="translate(0 20)"><path class="k" d="M374.976,120H325" transform="translate(964.524 1075.5)"/><path class="l" d="M5.5,0A5.5,5.5,0,1,1,0,5.5,5.5,5.5,0,0,1,5.5,0Z" transform="translate(1300.5 1189.5) rotate(90)"/><g transform="translate(1155 -30)"><text class="m" transform="translate(209 1263)"><tspan x="-23.121" y="0">Mobile App</tspan></text><g transform="translate(-1104 -2083)"><rect class="s" width="25" height="48" rx="3" transform="translate(1300 3284)"/><rect class="o" width="23" height="35" transform="translate(1301 3290)"/><circle class="n" cx="1.75" cy="1.75" r="1.75" transform="translate(1311 3327)"/><circle class="n" cx="0.75" cy="0.75" r="0.75" transform="translate(1307 3286)"/><g class="t" transform="translate(1310 3286)"><rect class="u" width="6" height="1.5" rx="0.75"/><rect class="v" x="0.5" y="0.5" width="5" height="0.5" rx="0.25"/></g><g transform="translate(1260.952 3301.036)"><path class="n" d="M54.3,5.275a2.246,2.246,0,0,1,1.072-1.89A2.319,2.319,0,0,0,53.556,2.4c-.773-.078-1.509.455-1.9.455s-1-.444-1.638-.432a2.429,2.429,0,0,0-2.054,1.245c-.876,1.519-.224,3.77.629,5,.417.6.914,1.281,1.567,1.256.629-.025.866-.407,1.627-.407s.974.407,1.639.394S54.531,9.3,54.945,8.7a5.475,5.475,0,0,0,.688-1.412A2.193,2.193,0,0,1,54.3,5.275Zm-1.25-3.69A2.188,2.188,0,0,0,53.566,0,2.226,2.226,0,0,0,52.1.752a2.082,2.082,0,0,0-.527,1.536A1.841,1.841,0,0,0,53.05,1.586Z" transform="translate(0)"/></g></g></g></g></g></g></svg>