<svg xmlns="http://www.w3.org/2000/svg" xmlns:xlink="http://www.w3.org/1999/xlink" viewBox="-1233 7582 420 300">
  <defs>
    <style>
      .cls-1 {
        clip-path: url(#clip-ix360-custom_product-design_1);
      }

      .cls-2, .cls-5 {
        fill: #fff;
      }

      .cls-3 {
        fill: #dbdbdb;
      }

      .cls-4 {
        fill: #34aeff;
      }

      .cls-5 {
        font-size: 14px;
        font-family: Helvetica;
        letter-spacing: 0.045em;
      }

      .cls-6 {
        opacity: 0.91;
      }

      .cls-7 {
        fill: #ffdb77;
      }

      .cls-8 {
        fill: #ff905e;
      }

      .cls-9 {
        fill: #28d2e4;
      }

      .cls-10 {
        fill: #28c3e4;
      }

      .cls-11 {
        fill: #afafaf;
        opacity: 0.64;
      }

      .cls-12 {
        fill: #4acfd9;
      }

      .cls-13 {
        fill: #ffd1a9;
      }

      .cls-14 {
        fill: #0295aa;
      }

      .cls-15 {
        fill: #ff8c29;
      }

      .cls-16 {
        fill: #9baaab;
      }

      .cls-17 {
        fill: #f0353d;
      }

      .cls-18 {
        fill: #365558;
      }

      .cls-19 {
        fill: #4eb6e9;
      }

      .cls-20 {
        fill: #4a3ed0;
      }

      .cls-21 {
        fill: #3e5dce;
      }

      .cls-22 {
        fill: #3e8dcf;
      }

      .cls-23 {
        fill: #613ece;
      }

      .cls-24 {
        fill: #8e3fd0;
      }

      .cls-25 {
        fill: #bc3ece;
      }

      .cls-26 {
        fill: #ce3e97;
      }

      .cls-27 {
        filter: url(#Rectangle_84);
      }
    </style>
    <filter id="Rectangle_84" x="-1080.146" y="7629" width="202.017" height="128.095" filterUnits="userSpaceOnUse">
      <feOffset dy="3" input="SourceAlpha"/>
      <feGaussianBlur stdDeviation="3" result="blur"/>
      <feFlood flood-opacity="0.161"/>
      <feComposite operator="in" in2="blur"/>
      <feComposite in="SourceGraphic"/>
    </filter>
    <clipPath id="clip-ix360-custom_product-design_1">
      <rect x="-1233" y="7582" width="420" height="300"/>
    </clipPath>
  </defs>
  <g id="ix360-custom_product-design_1" data-name="ix360-custom product-design – 1" class="cls-1">
    <g id="Group_737" data-name="Group 737" transform="translate(-2558.957 6379.997)">
      <g id="Group_731" data-name="Group 731" transform="translate(1487.812 1255.003)">
        <g id="Group_302" data-name="Group 302" transform="translate(0 0)">
          <g class="cls-27" transform="matrix(1, 0, 0, 1, 1071.15, -7635)">
            <rect id="Rectangle_84-2" data-name="Rectangle 84" class="cls-2" width="184.017" height="110.095" rx="2" transform="translate(-1071.15 7635)"/>
          </g>
          <g id="Group_223" data-name="Group 223" transform="translate(103.524 91.726)">
            <rect id="Rectangle_85" data-name="Rectangle 85" class="cls-3" width="34.071" height="13.104" rx="6.552"/>
            <rect id="Rectangle_86" data-name="Rectangle 86" class="cls-3" width="34.071" height="13.104" rx="6.552" transform="translate(40.623)"/>
          </g>
          <path id="Rectangle_154" data-name="Rectangle 154" class="cls-4" d="M2,0H182.017a2,2,0,0,1,2,2V35.4a0,0,0,0,1,0,0H0a0,0,0,0,1,0,0V2A2,2,0,0,1,2,0Z"/>
        </g>
        <g id="Group_364" data-name="Group 364" transform="translate(32.409 9.653)">
          <g id="Group_62" data-name="Group 62" transform="translate(18.232 2.141)">
            <text id="Genetic_Product" data-name="Genetic Product" class="cls-5" transform="translate(0 11)"><tspan x="0" y="0">Genetic Product</tspan></text>
          </g>
          <g id="dna" class="cls-6" transform="translate(0 0)">
            <path id="Path_89" data-name="Path 89" class="cls-7" d="M154.972,214.79l-3.727-3.727a.658.658,0,0,1,.93-.93l3.727,3.727a.658.658,0,0,1-.93.93Z" transform="translate(-146.009 -202.931)"/>
            <path id="Path_90" data-name="Path 90" class="cls-8" d="M215.425,273.383l-1.864-1.864-.93.93,1.864,1.864a.658.658,0,0,0,.93-.93Z" transform="translate(-205.532 -262.453)"/>
            <path id="Path_91" data-name="Path 91" class="cls-7" d="M327.829,41.933,324.1,38.206a.658.658,0,0,1,.93-.93L328.759,41a.658.658,0,0,1-.93.93Z" transform="translate(-313.094 -35.845)"/>
            <path id="Path_92" data-name="Path 92" class="cls-8" d="M388.281,100.526l-1.863-1.864-.93.93,1.863,1.864a.658.658,0,0,0,.93-.93Z" transform="translate(-372.616 -95.369)"/>
            <path id="Path_93" data-name="Path 93" class="cls-9" d="M41.005,328.763l-3.727-3.727a.658.658,0,0,1,.93-.93l3.727,3.727a.658.658,0,0,1-.93.93Z" transform="translate(-35.847 -313.097)"/>
            <path id="Path_94" data-name="Path 94" class="cls-10" d="M101.456,387.352l-1.863-1.863-.93.93,1.863,1.863a.658.658,0,0,0,.93-.93Z" transform="translate(-95.369 -372.616)"/>
            <path id="Path_95" data-name="Path 95" class="cls-9" d="M213.859,155.9l-3.727-3.727a.658.658,0,0,1,.93-.93l3.727,3.727a.658.658,0,1,1-.93.93Z" transform="translate(-202.93 -146.009)"/>
            <path id="Path_96" data-name="Path 96" class="cls-10" d="M274.313,214.5l-1.864-1.864-.93.93,1.863,1.864a.658.658,0,0,0,.93-.93Z" transform="translate(-262.454 -205.532)"/>
            <path id="Path_97" data-name="Path 97" class="cls-2" d="M12.237,6.463c1.241.147,3.391.174,4.668-1.1a.658.658,0,0,0-.93-.93c-.9.9-2.724.877-3.982.67-.177-1.056-.276-3.027.675-3.978a.658.658,0,0,0-.93-.93c-1.277,1.277-1.25,3.428-1.1,4.668-4.192-.5-6.278,1.489-5.772,5.772-1.241-.147-3.392-.174-4.668,1.1a.658.658,0,1,0,.93.93c.9-.9,2.717-.877,3.978-.671.206,1.26.228,3.079-.671,3.978a.658.658,0,0,0,.93.93c1.277-1.277,1.25-3.428,1.1-4.669C10.657,12.73,12.743,10.746,12.237,6.463Zm-1.362-.24C11.467,9.847,10.1,11,7.6,10.99a8.892,8.892,0,0,1-1.373-.118A8.889,8.889,0,0,1,6.107,9.5C6.1,7.056,7.187,5.619,10.874,6.223Z" transform="translate(-0.002 0)"/>
          </g>
        </g>
      </g>
      <g id="Group_734" data-name="Group 734" transform="translate(1399.957 1332.447)">
        <g id="Group_732" data-name="Group 732" transform="translate(29.423 29.423)">
          <ellipse id="Ellipse_457" data-name="Ellipse 457" class="cls-11" cx="28.962" cy="28.962" rx="28.962" ry="28.962"/>
          <g id="vector" transform="translate(11.537 8.698)">
            <path id="Path_86" data-name="Path 86" class="cls-12" d="M199.815.216A.665.665,0,0,0,199.324,0h-9.8a.666.666,0,0,0-.664.715l.953,12.78a.666.666,0,0,0,.664.616H198.2a.666.666,0,0,0,.663-.608L199.987.724A.666.666,0,0,0,199.815.216Z" transform="translate(-177.302)"/>
            <path id="Path_87" data-name="Path 87" class="cls-13" d="M188.519,164.829h-9.126l-1.775,11.36a.666.666,0,0,0,.062.4l5.61,11.22V174.789a1.819,1.819,0,1,1,1.331,0V187.81l5.61-11.22a.667.667,0,0,0,.062-.4Z" transform="translate(-166.96 -151.486)"/>
            <path id="Path_88" data-name="Path 88" class="cls-14" d="M189.529,0a.666.666,0,0,0-.664.715l.953,12.78a.666.666,0,0,0,.664.616H194.3V0Z" transform="translate(-177.302)"/>
            <path id="Path_89-2" data-name="Path 89" class="cls-15" d="M179.394,164.829l-1.775,11.36a.666.666,0,0,0,.062.4l5.61,11.22V174.789a1.818,1.818,0,0,1,.666-3.511v-6.449Z" transform="translate(-166.96 -151.486)"/>
            <path id="Path_90-2" data-name="Path 90" class="cls-16" d="M149.206,474.958H130.036a.666.666,0,0,1,0-1.331h19.171a.666.666,0,0,1,0,1.331Z" transform="translate(-122.625 -435.286)"/>
            <g id="Group_19" data-name="Group 19" transform="translate(3.195 36.566)">
              <path id="Path_91-2" data-name="Path 91" class="cls-17" d="M89.732,451.7h-3.55a.666.666,0,0,0-.666.666v3.55a.666.666,0,0,0,.666.666h3.55a.666.666,0,0,0,.666-.666v-3.55A.666.666,0,0,0,89.732,451.7Z" transform="translate(-85.516 -451.7)"/>
              <path id="Path_92-2" data-name="Path 92" class="cls-17" d="M370.4,451.7h-3.55a.666.666,0,0,0-.666.666v3.55a.666.666,0,0,0,.666.666h3.55a.666.666,0,0,0,.666-.666v-3.55A.666.666,0,0,0,370.4,451.7Z" transform="translate(-343.463 -451.7)"/>
            </g>
            <path id="Path_93-2" data-name="Path 93" class="cls-18" d="M63.043,272.017a17.016,17.016,0,0,1-17-17,.666.666,0,1,1,1.331,0,15.665,15.665,0,1,0,31.33,0,.666.666,0,1,1,1.331,0A17.016,17.016,0,0,1,63.043,272.017Z" transform="translate(-46.047 -233.764)"/>
          </g>
        </g>
        <g id="Group_733" data-name="Group 733">
          <rect id="Rectangle_210" data-name="Rectangle 210" class="cls-19" width="22.027" height="22.027" rx="11.014" transform="translate(48.253)"/>
          <rect id="Rectangle_213" data-name="Rectangle 213" class="cls-20" width="22.027" height="22.027" rx="11.014" transform="translate(91.377 75.802) rotate(45)"/>
          <rect id="Rectangle_214" data-name="Rectangle 214" class="cls-21" width="22.027" height="22.027" rx="11.014" transform="translate(94.152 47.076)"/>
          <rect id="Rectangle_215" data-name="Rectangle 215" class="cls-22" width="22.027" height="22.027" rx="11.014" transform="translate(91.377 9.226) rotate(45)"/>
          <rect id="Rectangle_216" data-name="Rectangle 216" class="cls-23" width="22.027" height="22.027" rx="11.014" transform="translate(48.253 94.152)"/>
          <rect id="Rectangle_217" data-name="Rectangle 217" class="cls-24" width="22.027" height="22.027" rx="11.014" transform="translate(24.802 75.802) rotate(45)"/>
          <rect id="Rectangle_218" data-name="Rectangle 218" class="cls-25" width="22.027" height="22.027" rx="11.014" transform="translate(0 47.076)"/>
          <rect id="Rectangle_220" data-name="Rectangle 220" class="cls-26" width="22.027" height="22.027" rx="11.014" transform="translate(24.802 9.226) rotate(45)"/>
        </g>
      </g>
    </g>
  </g>
</svg>
