<?xml version="1.0" encoding="utf-8"?>
<!-- Generator: Adobe Illustrator 21.0.1, SVG Export Plug-In . SVG Version: 6.00 Build 0)  -->
<svg version="1.1" id="Слой_1" xmlns="http://www.w3.org/2000/svg" xmlns:xlink="http://www.w3.org/1999/xlink" x="0px" y="0px"
	 viewBox="0 0 420 133" style="enable-background:new 0 0 420 133;" xml:space="preserve">
<style type="text/css">
	.st0{clip-path:url(#SVGID_2_);}
	.st1{fill:#FFFFFF;}
	.st2{opacity:0.94;}
	.st3{fill:#B5B5B5;}
	.st4{fill:#88C5FC;}
	.st5{fill:#C78BC5;}
	.st6{fill:#F9A18A;}
	.st7{fill:#F7E88B;}
	.st8{fill:#686868;}
	.st9{font-family:'TrebuchetMS';}
	.st10{font-size:14px;}
	.st11{opacity:0.89;fill:#C17DBE;enable-background:new    ;}
	.st12{fill:none;stroke:#34AEFF;stroke-width:3;stroke-miterlimit:10;}
	.st13{fill:#34AEFF;}
	.st14{font-family:'ArialMT';}
	.st15{font-size:11px;}
	.st16{fill:#555555;}
	.st17{fill:#EBEBEB;}
	.st18{fill:#B9BBC1;}
	.st19{fill:#6E73F9;}
	.st20{fill:#8B8996;}
	.st21{fill:#807E7E;}
	.st22{fill:none;stroke:#555555;}
</style>
<g>
	<defs>
		<rect id="SVGID_1_" y="-82" width="420" height="300"/>
	</defs>
	<clipPath id="SVGID_2_">
		<use xlink:href="#SVGID_1_"  style="overflow:visible;"/>
	</clipPath>
	<g id="ix360-web-and-mobile_1" class="st0">
		<g id="Group_738" transform="translate(-1882 6511.997)">
			<g id="Group_392" transform="translate(1165 1154.003)">
				<g transform="matrix(1, 0, 0, 1, 717, -7666)">
					<path id="Rectangle_149-2" class="st1" d="M30,2h163.6c2.2,0,4,1.8,4,4V109c0,2.2-1.8,4-4,4H30c-2.2,0-4-1.8-4-4V6
						C26,3.8,27.8,2,30,2z"/>
				</g>
				<g id="Group_353" transform="translate(11.856 78.446)" class="st2">
					<path id="Rectangle_19" class="st3" d="M747-7663.9H761c2.2,0,4,1.8,4,4l0,0c0,2.2-1.8,4-4,4H747c-2.2,0-4-1.8-4-4l0,0
						C743-7662.2,744.8-7663.9,747-7663.9z"/>
					<path id="Rectangle_20" class="st4" d="M775.9-7664h40.4c2.2,0,4,1.8,4,4l0,0c0,2.2-1.8,4-4,4h-40.4c-2.2,0-4-1.8-4-4l0,0
						C772-7662.2,773.8-7664,775.9-7664z"/>
					<path id="Rectangle_21" class="st5" d="M747-7650.1h60.6c2.2,0,4,1.8,4,4l0,0c0,2.2-1.8,4-4,4H747c-2.2,0-4-1.8-4-4l0,0
						C743-7648.4,744.8-7650.1,747-7650.1z"/>
					<path id="Rectangle_95" class="st6" d="M831.3-7664h12.1c2.2,0,4,1.8,4,4l0,0c0,2.2-1.8,4-4,4h-12.1c-2.2,0-4-1.8-4-4l0,0
						C827.3-7662.2,829.1-7664,831.3-7664z"/>
					<path id="Rectangle_96" class="st7" d="M857.6-7664h29.1c2.2,0,4,1.8,4,4l0,0c0,2.2-1.8,4-4,4h-29.1c-2.2,0-4-1.8-4-4l0,0
						C853.7-7662.2,855.4-7664,857.6-7664z"/>
				</g>
				<g id="ixlayer-logo" transform="translate(38.203 24.925)">
					<text transform="matrix(1 0 0 1 778.426 -7650.4878)" class="st8 st9 st10">ixlayer</text>
					<path id="Path_4" class="st11" d="M743-7644.7l15.3-5.7l15.3,5.7l-15.3,5.7L743-7644.7z"/>
					<path id="Path_3" class="st7" d="M743-7650.9l15.3-5.7l15.3,5.7l-15.3,5.7L743-7650.9z"/>
					<path id="Path_2" class="st6" d="M743-7654.4l15.3-5.7l15.3,5.7l-15.3,5.7L743-7654.4z"/>
					<path id="Path_1" class="st4" d="M743-7658.4l15.3-5.7l15.3,5.7l-15.3,5.7L743-7658.4z"/>
				</g>
			</g>
			<g id="Group_694" transform="translate(1329.007 1163.254)">
				<g id="Group_693" transform="translate(0 16.526)">
					<path id="Path_342" class="st12" d="M865.5-7657.4H750.2"/>
					<path id="Path_343" class="st13" d="M757.5-7656.7c0,4-3.3,7.2-7.3,7.2c-4,0-7.2-3.3-7.2-7.3c0-4,3.3-7.2,7.2-7.2
						C754.3-7664,757.5-7660.7,757.5-7656.7C757.5-7656.7,757.5-7656.7,757.5-7656.7z"/>
				</g>
				<g id="Group_397" transform="translate(136.344 0)">
					<text transform="matrix(1 0 0 1 753.313 -7599.1606)" class="st1 st14 st15">Web App</text>
					<g id="Laptop_-_01">
						<g id="Group_615" transform="translate(6.422 4.281)">
							<rect id="Rectangle_196" x="743" y="-7664" class="st1" width="55.7" height="34.3"/>
						</g>
						<g id="Group_616" transform="translate(6.422 4.281)">
							<rect id="Rectangle_197" x="743" y="-7664" class="st13" width="55.7" height="8.6"/>
						</g>
						<g id="Group_617" transform="translate(2.141)">
							<path id="Path_888" class="st16" d="M802.3-7664h-54.4c-2.7,0-4.9,2.2-4.9,4.9v39c0,0.6,0.5,1.1,1.1,1.1h62.1
								c0.6,0,1.1-0.5,1.1-1.1v-39C807.2-7661.8,805-7664,802.3-7664z M747.3-7626.5v-32.1c0-0.6,0.5-1.1,1.1-1.1h53.5
								c0.6,0,1.1,0.5,1.1,1.1v32.1c0,0.6-0.5,1.1-1.1,1.1h-53.5C747.8-7625.5,747.3-7626,747.3-7626.5
								C747.3-7626.5,747.3-7626.5,747.3-7626.5z"/>
						</g>
						<g id="Group_618" transform="translate(0 42.813)">
							<path id="Path_889" class="st3" d="M810.4-7664h-66.4c-0.6,0-1.1,0.5-1.1,1.1l0,0c0,2.4,1.9,4.3,4.3,4.3h59.9
								c2.4,0,4.3-1.9,4.3-4.3l0,0C811.5-7663.5,811-7664,810.4-7664C810.4-7664,810.4-7664,810.4-7664z"/>
						</g>
						<g id="Group_620" transform="translate(10.703 7.492)">
							<g id="Group_619" transform="translate(0 0)">
								<path id="Path_890" class="st1" d="M751.6-7661.9h-7.5c-0.6,0-1.1-0.5-1.1-1.1c0-0.6,0.5-1.1,1.1-1.1h7.5
									c0.6,0,1.1,0.5,1.1,1.1C752.6-7662.3,752.2-7661.9,751.6-7661.9L751.6-7661.9z"/>
							</g>
						</g>
						<g id="Group_622" transform="translate(36.391 7.492)">
							<g id="Group_621" transform="translate(0 0)">
								<path id="Path_891" class="st1" d="M745.1-7661.9h-1.1c-0.6,0-1.1-0.5-1.1-1.1c0-0.6,0.5-1.1,1.1-1.1h1.1
									c0.6,0,1.1,0.5,1.1,1.1C746.2-7662.3,745.7-7661.9,745.1-7661.9z"/>
							</g>
						</g>
						<g id="Group_624" transform="translate(41.743 7.492)">
							<g id="Group_623" transform="translate(0 0)">
								<path id="Path_892" class="st1" d="M745.1-7661.9h-1.1c-0.6,0-1.1-0.5-1.1-1.1c0-0.6,0.5-1.1,1.1-1.1h1.1
									c0.6,0,1.1,0.5,1.1,1.1C746.2-7662.3,745.7-7661.9,745.1-7661.9z"/>
							</g>
						</g>
						<g id="Group_626" transform="translate(47.095 7.492)">
							<g id="Group_625" transform="translate(0 0)">
								<path id="Path_893" class="st1" d="M745.1-7661.9h-1.1c-0.6,0-1.1-0.5-1.1-1.1c0-0.6,0.5-1.1,1.1-1.1h1.1
									c0.6,0,1.1,0.5,1.1,1.1C746.2-7662.3,745.7-7661.9,745.1-7661.9z"/>
							</g>
						</g>
						<g id="Group_628" transform="translate(52.446 7.492)">
							<g id="Group_627" transform="translate(0 0)">
								<path id="Path_894" class="st1" d="M745.1-7661.9h-1.1c-0.6,0-1.1-0.5-1.1-1.1c0-0.6,0.5-1.1,1.1-1.1h1.1
									c0.6,0,1.1,0.5,1.1,1.1C746.2-7662.3,745.7-7661.9,745.1-7661.9L745.1-7661.9z"/>
							</g>
						</g>
						<g id="Group_629" transform="translate(10.703 16.055)">
							<path id="Path_895" class="st17" d="M762.3-7644.7h-18.2c-0.6,0-1.1-0.5-1.1-1.1l0,0v-17.1c0-0.6,0.5-1.1,1.1-1.1l0,0h18.2
								c0.6,0,1.1,0.5,1.1,1.1l0,0v17.1C763.3-7645.2,762.9-7644.7,762.3-7644.7C762.3-7644.7,762.3-7644.7,762.3-7644.7z"/>
						</g>
						<g id="Group_631" transform="translate(34.251 16.055)">
							<g id="Group_630" transform="translate(0 0)">
								<path id="Path_896" class="st13" d="M764.4-7661.9h-20.3c-0.6,0-1.1-0.5-1.1-1.1c0-0.6,0.5-1.1,1.1-1.1h20.3
									c0.6,0,1.1,0.5,1.1,1.1C765.5-7662.3,765-7661.9,764.4-7661.9L764.4-7661.9z"/>
							</g>
						</g>
						<g id="Group_633" transform="translate(34.251 24.618)">
							<g id="Group_632" transform="translate(0 0)">
								<path id="Path_897" class="st18" d="M752.6-7661.9h-8.6c-0.6,0-1.1-0.5-1.1-1.1c0-0.6,0.5-1.1,1.1-1.1h8.6
									c0.6,0,1.1,0.5,1.1,1.1C753.7-7662.3,753.2-7661.9,752.6-7661.9z"/>
							</g>
						</g>
						<g id="Group_635" transform="translate(34.251 28.899)">
							<g id="Group_634">
								<path id="Path_898" class="st18" d="M752.6-7661.9h-8.6c-0.6,0-1.1-0.5-1.1-1.1c0-0.6,0.5-1.1,1.1-1.1h8.6
									c0.6,0,1.1,0.5,1.1,1.1C753.7-7662.3,753.2-7661.9,752.6-7661.9z"/>
							</g>
						</g>
						<g id="Group_637" transform="translate(34.251 33.18)">
							<g id="Group_636">
								<path id="Path_899" class="st18" d="M752.6-7661.9h-8.6c-0.6,0-1.1-0.5-1.1-1.1c0-0.6,0.5-1.1,1.1-1.1h8.6
									c0.6,0,1.1,0.5,1.1,1.1C753.7-7662.3,753.2-7661.9,752.6-7661.9z"/>
							</g>
						</g>
						<g id="Group_639" transform="translate(47.095 24.618)">
							<g id="Group_638" transform="translate(0 0)">
								<path id="Path_900" class="st18" d="M752.6-7661.9h-8.6c-0.6,0-1.1-0.5-1.1-1.1c0-0.6,0.5-1.1,1.1-1.1h8.6
									c0.6,0,1.1,0.5,1.1,1.1C753.7-7662.3,753.2-7661.9,752.6-7661.9z"/>
							</g>
						</g>
						<g id="Group_641" transform="translate(47.095 28.899)">
							<g id="Group_640">
								<path id="Path_901" class="st18" d="M752.6-7661.9h-8.6c-0.6,0-1.1-0.5-1.1-1.1c0-0.6,0.5-1.1,1.1-1.1h8.6
									c0.6,0,1.1,0.5,1.1,1.1C753.7-7662.3,753.2-7661.9,752.6-7661.9z"/>
							</g>
						</g>
						<g id="Group_643" transform="translate(47.095 33.18)">
							<g id="Group_642">
								<path id="Path_902" class="st18" d="M752.6-7661.9h-8.6c-0.6,0-1.1-0.5-1.1-1.1c0-0.6,0.5-1.1,1.1-1.1h8.6
									c0.6,0,1.1,0.5,1.1,1.1C753.7-7662.3,753.2-7661.9,752.6-7661.9z"/>
							</g>
						</g>
						<g id="Group_645" transform="translate(34.251 20.336)">
							<g id="Group_644" transform="translate(0 0)">
								<path id="Path_903" class="st19" d="M758-7661.9h-13.9c-0.6,0-1.1-0.5-1.1-1.1c0-0.6,0.5-1.1,1.1-1.1H758
									c0.6,0,1.1,0.5,1.1,1.1C759.1-7662.3,758.6-7661.9,758-7661.9L758-7661.9z"/>
							</g>
						</g>
						<g id="Group_646" transform="translate(27.829 42.813)">
							<path id="Path_904" class="st20" d="M745.1-7661.9h8.6c1.2,0,2.1-1,2.1-2.1H743C743-7662.8,744-7661.9,745.1-7661.9z"/>
						</g>
					</g>
				</g>
			</g>
			<g id="Group_692" transform="translate(1329.007 1202.916)">
				<g id="Group_691" transform="translate(0 24.458)">
					<path id="Path_924" class="st12" d="M808.9-7656.1H743"/>
					<path id="Path_925" class="st13" d="M757.5-7656.7c0,4-3.3,7.2-7.3,7.2c-4,0-7.2-3.3-7.2-7.3c0-4,3.3-7.2,7.2-7.2
						C754.3-7664,757.5-7660.7,757.5-7656.7C757.5-7656.7,757.5-7656.7,757.5-7656.7z"/>
				</g>
				<g id="Group_689" transform="translate(69.16)">
					<text transform="matrix(1 0 0 1 742.785 -7583.2959)" class="st1 st14 st15">Mobile App</text>
					<g id="Group_690" transform="translate(11.856)">
						<path id="Rectangle_198" class="st21" d="M746-7664h26.9c1.7,0,3,1.3,3,3v57.5c0,1.7-1.3,3-3,3H746c-1.7,0-3-1.3-3-3v-57.5
							C743-7662.7,744.3-7664,746-7664z"/>
						<rect id="Rectangle_199" x="744.3" y="-7656.1" class="st17" width="30.3" height="46.3"/>
						<circle id="Ellipse_440" class="st16" cx="759.8" cy="-7604.9" r="2.3"/>
						<circle id="Ellipse_441" class="st16" cx="753.2" cy="-7660.4" r="1"/>
						<g id="Rectangle_200" transform="translate(13.173 2.644)">
							<path class="st1" d="M744-7664h5.9c0.5,0,1,0.4,1,1l0,0c0,0.5-0.4,1-1,1H744c-0.5,0-1-0.4-1-1l0,0
								C743-7663.6,743.4-7664,744-7664z"/>
							<path class="st22" d="M744-7663.5h5.9c0.3,0,0.5,0.2,0.5,0.5l0,0c0,0.3-0.2,0.5-0.5,0.5H744c-0.3,0-0.5-0.2-0.5-0.5l0,0
								C743.5-7663.3,743.7-7663.5,744-7663.5z"/>
						</g>
						<g id="apple" transform="translate(11.197 22.522)">
							<path id="Path_21" class="st16" d="M751.9-7657.1c0-1,0.5-2,1.4-2.5c-0.5-0.8-1.4-1.3-2.4-1.3c-1-0.1-2,0.6-2.5,0.6
								s-1.3-0.6-2.2-0.6c-1.1,0-2.2,0.7-2.7,1.6c-1.2,2-0.3,5,0.8,6.6c0.5,0.8,1.2,1.7,2.1,1.7c0.8,0,1.1-0.5,2.1-0.5
								s1.3,0.5,2.2,0.5c0.9,0,1.5-0.8,2-1.6c0.4-0.6,0.7-1.2,0.9-1.9C752.6-7654.9,751.9-7655.9,751.9-7657.1z M750.3-7661.9
								c0.5-0.6,0.7-1.3,0.7-2.1c-0.7,0.1-1.4,0.4-1.9,1c-0.5,0.6-0.7,1.3-0.7,2C749.1-7661,749.8-7661.3,750.3-7661.9z"/>
						</g>
					</g>
				</g>
			</g>
		</g>
	</g>
</g>
</svg>
