<svg xmlns="http://www.w3.org/2000/svg" xmlns:xlink="http://www.w3.org/1999/xlink" viewBox="-1238 4996 420 300"><defs><style>.a{clip-path:url(#d);}.b,.e{fill:#fff;}.c{fill:#dbdbdb;}.d{fill:#34aeff;}.e{font-size:12px;font-family:Antipasto-ExtraLight, Antipasto;font-weight:200;letter-spacing:0.045em;}.f{opacity:0.91;}.g{fill:#ffdb77;}.h{fill:#ff905e;}.i{fill:#28d2e4;}.j{fill:#28c3e4;}.k{fill:#afafaf;opacity:0.64;}.l{fill:#4acfd9;}.m{fill:#ffd1a9;}.n{fill:#0295aa;}.o{fill:#ff8c29;}.p{fill:#9baaab;}.q{fill:#f0353d;}.r{fill:#365558;}.s{fill:#4eb6e9;}.t{fill:#4a3ed0;}.u{fill:#3e5dce;}.v{fill:#3e8dcf;}.w{fill:#613ece;}.x{fill:#8e3fd0;}.y{fill:#bc3ece;}.z{fill:#ce3e97;}.aa{filter:url(#a);}</style><filter id="a" x="-1073.958" y="5066" width="158.425" height="102.015" filterUnits="userSpaceOnUse"><feOffset dy="3" input="SourceAlpha"/><feGaussianBlur stdDeviation="3" result="b"/><feFlood flood-opacity="0.161"/><feComposite operator="in" in2="b"/><feComposite in="SourceGraphic"/></filter><clipPath id="d"><rect x="-1238" y="4996" width="420" height="300"/></clipPath></defs><g id="c" class="a"><g transform="translate(-2531.957 3816.997)"><g transform="translate(1278 -548)"><g transform="translate(-755 1050)"><g class="aa" transform="matrix(1, 0, 0, 1, 2008.96, -4319)"><rect class="b" width="140.425" height="84.015" rx="2" transform="translate(-1064.96 5072)"/></g><rect class="c" width="26" height="10" rx="5" transform="translate(1023 823)"/><rect class="c" width="26" height="10" rx="5" transform="translate(1054 823)"/><path class="d" d="M2,0H138.425a2,2,0,0,1,2,2V27.015a0,0,0,0,1,0,0H0a0,0,0,0,1,0,0V2A2,2,0,0,1,2,0Z" transform="translate(944 753.003)"/></g><g transform="translate(165.064 1709.003)"><g transform="translate(62.581 101)"><text class="e" transform="translate(0 11)"><tspan x="0" y="0">Genetic Product</tspan></text></g><g class="f" transform="translate(48.667 101.366)"><path class="g" d="M154.044,213.642,151.2,210.8a.5.5,0,1,1,.71-.71l2.844,2.844a.5.5,0,1,1-.71.71Z" transform="translate(-147.204 -204.591)"/><path class="h" d="M214.764,272.941l-1.422-1.422-.71.71,1.422,1.422a.5.5,0,0,0,.71-.71Z" transform="translate(-207.214 -264.6)"/><path class="g" d="M326.9,40.785l-2.844-2.844a.5.5,0,1,1,.71-.71l2.844,2.844a.5.5,0,0,1-.71.71Z" transform="translate(-315.656 -36.139)"/><path class="h" d="M387.62,100.085,386.2,98.663l-.71.71,1.422,1.422a.5.5,0,1,0,.71-.71Z" transform="translate(-375.666 -96.149)"/><path class="i" d="M40.077,327.614l-2.844-2.844a.5.5,0,1,1,.71-.71l2.844,2.844a.5.5,0,0,1-.71.71Z" transform="translate(-36.141 -315.66)"/><path class="j" d="M100.795,386.91l-1.422-1.422-.71.71,1.422,1.422a.5.5,0,1,0,.71-.71Z" transform="translate(-96.149 -375.665)"/><path class="i" d="M212.931,154.754l-2.844-2.844a.5.5,0,1,1,.71-.71l2.844,2.844a.5.5,0,0,1-.71.71Z" transform="translate(-204.59 -147.204)"/><path class="j" d="M273.652,214.054l-1.422-1.422-.71.71,1.422,1.422a.5.5,0,0,0,.71-.71Z" transform="translate(-264.602 -207.214)"/><path class="b" d="M9.338,4.932A4.435,4.435,0,0,0,12.9,4.09a.5.5,0,1,0-.71-.71c-.687.687-2.079.669-3.039.512-.135-.806-.211-2.31.515-3.036a.5.5,0,0,0-.71-.71,4.435,4.435,0,0,0-.842,3.563c-3.2-.378-4.791,1.136-4.4,4.4a4.435,4.435,0,0,0-3.563.842.5.5,0,0,0,.71.71c.686-.686,2.074-.67,3.036-.512.157.962.174,2.35-.512,3.036a.5.5,0,0,0,.71.71,4.435,4.435,0,0,0,.842-3.563C8.133,9.715,9.725,8.2,9.338,4.932ZM8.3,4.749c.452,2.765-.589,3.645-2.5,3.638A6.785,6.785,0,0,1,4.751,8.3a6.783,6.783,0,0,1-.09-1.048C4.654,5.384,5.485,4.288,8.3,4.749Z" transform="translate(-0.002 0)"/></g></g></g><g transform="translate(-70.043 -20.899)"><g transform="translate(1492.453 1357.453)"><circle class="k" cx="22.101" cy="22.101" r="22.101"/><g transform="translate(8.804 6.638)"><path class="l" d="M197.221.165A.508.508,0,0,0,196.846,0h-7.475a.508.508,0,0,0-.507.546l.727,9.753a.508.508,0,0,0,.507.47h5.892a.508.508,0,0,0,.506-.464l.856-9.753A.508.508,0,0,0,197.221.165Z" transform="translate(-180.04)"/><path class="m" d="M185.935,164.829h-6.964l-1.355,8.669a.508.508,0,0,0,.048.306l4.281,8.562v-9.936a1.388,1.388,0,1,1,1.016,0v9.936l4.281-8.562a.509.509,0,0,0,.048-.306Z" transform="translate(-169.483 -154.646)"/><path class="n" d="M189.371,0a.508.508,0,0,0-.507.546l.727,9.753a.508.508,0,0,0,.507.47h2.912V0Z" transform="translate(-180.04)"/><path class="o" d="M178.971,164.829l-1.355,8.669a.508.508,0,0,0,.048.306l4.281,8.562v-9.936a1.388,1.388,0,0,1,.508-2.679v-4.921Z" transform="translate(-169.483 -154.646)"/><path class="p" d="M144.507,474.643H129.878a.508.508,0,0,1,0-1.016h14.629a.508.508,0,0,1,0,1.016Z" transform="translate(-124.223 -444.368)"/><g transform="translate(2.438 27.904)"><path class="q" d="M88.733,451.7H86.024a.508.508,0,0,0-.508.508v2.709a.508.508,0,0,0,.508.508h2.709a.508.508,0,0,0,.508-.508v-2.709A.508.508,0,0,0,88.733,451.7Z" transform="translate(-85.516 -451.7)"/><path class="q" d="M369.4,451.7h-2.709a.508.508,0,0,0-.508.508v2.709a.508.508,0,0,0,.508.508H369.4a.508.508,0,0,0,.508-.508v-2.709A.508.508,0,0,0,369.4,451.7Z" transform="translate(-348.845 -451.7)"/></g><path class="r" d="M59.017,267.833a12.985,12.985,0,0,1-12.97-12.97.508.508,0,1,1,1.016,0,11.954,11.954,0,1,0,23.908,0,.508.508,0,1,1,1.016,0A12.985,12.985,0,0,1,59.017,267.833Z" transform="translate(-46.047 -238.642)"/></g></g><g transform="translate(1470 1335)"><rect class="s" width="16.809" height="16.809" rx="8.405" transform="translate(36.822)"/><rect class="t" width="16.809" height="16.809" rx="8.405" transform="translate(69.731 57.845) rotate(45)"/><rect class="u" width="16.809" height="16.809" rx="8.405" transform="translate(71.848 35.924)"/><rect class="v" width="16.809" height="16.809" rx="8.405" transform="translate(69.731 7.041) rotate(45)"/><rect class="w" width="16.809" height="16.809" rx="8.405" transform="translate(36.822 71.849)"/><rect class="x" width="16.809" height="16.809" rx="8.405" transform="translate(18.927 57.845) rotate(45)"/><rect class="y" width="16.809" height="16.809" rx="8.405" transform="translate(0 35.924)"/><rect class="z" width="16.809" height="16.809" rx="8.405" transform="translate(18.926 7.041) rotate(45)"/></g></g></g></g></svg>