<svg xmlns="http://www.w3.org/2000/svg" xmlns:xlink="http://www.w3.org/1999/xlink" viewBox="-719 3970 460 132.48"><defs><style>.a,.q{fill:#fff;}.b{clip-path:url(#f);}.c{fill:url(#a);}.d{fill:#0890d5;}.e{fill:#08b2d5;}.f{fill:#13dcd6;}.g{clip-path:url(#d);}.h{fill:#ffdb77;}.i{fill:#ff905e;}.j{fill:#28d2e4;}.k{fill:#28c3e4;}.l{fill:#f2f1f1;}.m{fill:#5b986c;}.n{fill:#a5a5a5;}.o{fill:#454545;}.p{fill:#d5e2f2;opacity:0.5;}.q{opacity:0.45;}.r{fill:#c17dbe;}.s{fill:#f7e88b;}.t{fill:#f9a18a;}.u{fill:#88c5fc;}.v,.w{fill:#717171;font-size:14px;letter-spacing:-0.01em;}.v{font-family:Quicksand-Regular, Quicksand;}.w{font-family:Quicksand-Medium, Quicksand;font-weight:500;}.x{filter:url(#b);}</style><linearGradient id="a" x1="0.046" x2="0.976" gradientUnits="objectBoundingBox"><stop offset="0" stop-color="#0890d5"/><stop offset="1" stop-color="#13dcd6"/></linearGradient><filter id="b" x="-553" y="3962" width="124" height="124" filterUnits="userSpaceOnUse"><feOffset dy="4" input="SourceAlpha"/><feGaussianBlur stdDeviation="4" result="c"/><feFlood flood-opacity="0.161"/><feComposite operator="in" in2="c"/><feComposite in="SourceGraphic"/></filter><clipPath id="d"><rect class="a" width="42" height="42"/></clipPath><clipPath id="f"><rect x="-719" y="3970" width="460" height="132.48"/></clipPath></defs><g id="e" class="b"><g transform="translate(-1125 1630.476)"><rect class="c" width="276" height="4" transform="translate(494 2388)"/><path class="d" d="M36,0A36,36,0,1,1,0,36,36,36,0,0,1,36,0Z" transform="translate(428 2354)"/><g class="x" transform="matrix(1, 0, 0, 1, 1125, -1630.48)"><path class="e" d="M50,0A50,50,0,1,1,0,50,50,50,0,0,1,50,0Z" transform="translate(-541 3970)"/></g><path class="f" d="M36,0A36,36,0,1,1,0,36,36,36,0,0,1,36,0Z" transform="translate(768 2354)"/><g transform="translate(-237 988)"><g class="g" transform="translate(680 1381)"><g transform="translate(0 0)"><path class="h" d="M28.511,38.157,19.355,29a1.615,1.615,0,0,1,2.284-2.284L30.8,35.872a1.615,1.615,0,1,1-2.284,2.284Z" transform="translate(-6.491 -9.021)"/><path class="i" d="M33.441,38.518,28.863,33.94l-2.284,2.284L31.157,40.8a1.615,1.615,0,0,0,2.284-2.284Z" transform="translate(-9.137 -11.667)"/><path class="h" d="M50.118,16.549,40.962,7.393a1.615,1.615,0,0,1,2.284-2.284L52.4,14.265a1.615,1.615,0,1,1-2.284,2.284Z" transform="translate(-13.918 -1.593)"/><path class="i" d="M55.048,16.911,50.47,12.333l-2.284,2.284L52.764,19.2a1.615,1.615,0,0,0,2.284-2.284Z" transform="translate(-16.564 -4.239)"/><path class="j" d="M14.265,52.4,5.109,43.247a1.615,1.615,0,0,1,2.284-2.284l9.156,9.156A1.615,1.615,0,0,1,14.265,52.4Z" transform="translate(-1.594 -13.918)"/><path class="k" d="M19.2,52.764l-4.578-4.578L12.333,50.47l4.578,4.578A1.615,1.615,0,0,0,19.2,52.764Z" transform="translate(-4.24 -16.564)"/><path class="j" d="M35.872,30.8l-9.156-9.156A1.615,1.615,0,0,1,29,19.355l9.156,9.156A1.615,1.615,0,1,1,35.872,30.8Z" transform="translate(-9.021 -6.491)"/><path class="k" d="M40.8,31.157l-4.578-4.578L33.94,28.863l4.578,4.578A1.615,1.615,0,1,0,40.8,31.157Z" transform="translate(-11.667 -9.136)"/><path class="a" d="M30.058,15.878c3.048.36,8.332.427,11.469-2.71a1.615,1.615,0,0,0-2.284-2.284c-2.213,2.213-6.692,2.154-9.783,1.647-.435-2.595-.678-7.437,1.658-9.772A1.615,1.615,0,1,0,28.832.473C25.7,3.61,25.762,8.894,26.122,11.942c-10.3-1.218-15.424,3.658-14.18,14.18C8.895,25.761,3.61,25.7.473,28.832a1.615,1.615,0,0,0,2.284,2.284c2.209-2.209,6.676-2.155,9.774-1.648.507,3.1.561,7.565-1.648,9.774a1.615,1.615,0,0,0,2.284,2.284c3.137-3.137,3.071-8.421,2.71-11.469C26.177,31.275,31.3,26.4,30.058,15.878Zm-3.347-.589c1.457,8.9-1.9,11.735-8.048,11.712a21.844,21.844,0,0,1-3.374-.29A21.838,21.838,0,0,1,15,23.337C14.977,17.334,17.652,13.806,26.711,15.289Z" transform="translate(0 0)"/><path class="l" d="M21.331,35.51c10.3,1.218,15.424-3.658,14.18-14.18,3.048.36,8.332.427,11.469-2.71a1.615,1.615,0,0,0-2.284-2.284c-2.211,2.211-6.683,2.154-9.774,1.648l-2.757,2.757c1.457,8.9-1.9,11.735-8.048,11.712a21.844,21.844,0,0,1-3.374-.29l-2.757,2.757c.507,3.1.561,7.565-1.648,9.774A1.615,1.615,0,0,0,18.62,46.98C21.757,43.842,21.691,38.558,21.331,35.51Z" transform="translate(-5.453 -5.453)"/></g></g><g transform="translate(699.346 1400.49)"><path class="m" d="M21.059,26.211h1.312a8.432,8.432,0,0,0-1.337-2.221c-.362.024-.652.506-.652,1.106S20.685,26.211,21.059,26.211Z" transform="translate(-17.988 -18.965)"/><path class="n" d="M45.165,40.058l5.987,6.022a1.484,1.484,0,0,1,0,2.1L50.1,49.226a1.484,1.484,0,0,1-2.1,0L42.008,43.2Z" transform="translate(-29.055 -27.187)"/><path class="o" d="M41.986,43.2l3.158-3.158Z" transform="translate(-29.043 -27.177)"/><path class="a" d="M24.4,13.7a8.918,8.918,0,1,0,8.918,8.918A8.918,8.918,0,0,0,24.4,13.7Z" transform="translate(-15.479 -13.698)"/><path class="l" d="M33,27.273a6.7,6.7,0,0,1-6.261,4.368,6.711,6.711,0,0,1-6.082-3.9,6.692,6.692,0,0,1,6.067-9.481,6.711,6.711,0,0,1,6.08,3.9A6.641,6.641,0,0,1,33,27.273Z" transform="translate(-17.816 -16.035)"/><path class="i" d="M26.057,22.831l2.483,1.433V27.13l-2.483,1.434L23.574,27.13V24.264Z" transform="translate(-19.622 -18.372)"/><path class="k" d="M36.226,22.831l2.483,1.433V27.13l-2.483,1.434L33.743,27.13V24.264Z" transform="translate(-24.825 -18.372)"/><path class="h" d="M31.142,31.637l2.483,1.433v2.866L31.142,37.37l-2.483-1.434V33.07Z" transform="translate(-22.223 -22.878)"/><path class="p" d="M34.89,32.3l1.923,1.11Z" transform="translate(-25.412 -23.216)"/></g></g><g transform="translate(783 2369)"><path class="a" d="M16.709,34.589l-6.266,3.418a5.631,5.631,0,0,0-1.006.716,20.987,20.987,0,0,0,26.965.07,5.559,5.559,0,0,0-1.1-.74L28.588,34.7a2.559,2.559,0,0,1-1.415-2.289V29.776a10.134,10.134,0,0,0,.635-.816,15.439,15.439,0,0,0,2.086-4.2,2.107,2.107,0,0,0,1.495-2v-2.81a2.1,2.1,0,0,0-.7-1.557V14.322S31.52,8,22.959,8s-7.726,6.321-7.726,6.321v4.062a2.1,2.1,0,0,0-.7,1.557v2.81A2.107,2.107,0,0,0,15.5,24.52a13.945,13.945,0,0,0,2.541,5.256v2.568A2.561,2.561,0,0,1,16.709,34.589Z" transform="translate(-1.959 -1.661)"/><g transform="translate(0 0)"><path class="q" d="M21.359,0A20.987,20.987,0,0,0,7.487,37.055a5.58,5.58,0,0,1,1-.708l6.266-3.418a2.56,2.56,0,0,0,1.334-2.247V28.115a13.931,13.931,0,0,1-2.541-5.256,2.108,2.108,0,0,1-.972-1.768V18.28a2.1,2.1,0,0,1,.7-1.557V12.661S12.438,6.34,21,6.34s7.726,6.321,7.726,6.321v4.062a2.1,2.1,0,0,1,.7,1.557v2.81a2.107,2.107,0,0,1-1.495,2,15.439,15.439,0,0,1-2.086,4.2,10.133,10.133,0,0,1-.635.816v2.633a2.558,2.558,0,0,0,1.415,2.289l6.71,3.354a5.587,5.587,0,0,1,1.1.739A21,21,0,0,0,21.359,0Z" transform="translate(0 0)"/></g></g><g transform="translate(608 2360.556)"><path class="r" d="M259,1095.684l26.414-13.3,26.339,13.3-26.339,13.408Z" transform="translate(-259 -1050.204)"/><path class="s" d="M259,1095.684l26.414-13.3,26.339,13.3-26.339,13.408Z" transform="translate(-259 -1064.761)"/><path class="t" d="M259,1095.684l26.414-13.3,26.339,13.3-26.339,13.408Z" transform="translate(-259 -1073.19)"/><path class="u" d="M259,1095.684l26.414-13.3,26.339,13.3-26.339,13.408Z" transform="translate(-259 -1082.384)"/></g><text class="v" transform="translate(464 2450)"><tspan x="-57.827" y="0">Scientific evidence</tspan><tspan x="-32.984" y="18">evaluation</tspan></text><text class="w" transform="translate(634 2464)"><tspan x="-23.534" y="0">ixLayer</tspan></text><text class="v" transform="translate(804 2450)"><tspan x="-27.51" y="0">End user</tspan></text></g></g></svg>