<svg xmlns="http://www.w3.org/2000/svg" xmlns:xlink="http://www.w3.org/1999/xlink" viewBox="-1238 3970 449 840"><defs><style>.a,.ai,.aq,.i,.m{fill:#fff;}.b{clip-path:url(#k);}.aj,.ao,.av,.c,.d,.e,.f{fill:none;}.c{stroke:#6a7c94;}.aj,.c,.d,.e,.f{stroke-miterlimit:10;stroke-width:4px;}.d{stroke:#6767c8;}.e{stroke:#7c80ff;}.f{stroke:#a983ff;}.g{fill:#6a7c94;}.h{fill:#7c80ff;}.i{font-size:14px;font-family:Quicksand-Regular, Quicksand;letter-spacing:-0.01em;}.j{fill:#8798ab;}.k{fill:#a5a5a5;}.l{fill:#aab7c5;}.m{opacity:0.45;}.n{fill:#e2e2e2;}.o{fill:#717171;}.p{fill:#c1ccd7;}.q{clip-path:url(#a);}.r{fill:#f2f1f1;}.s{fill:#26b999;}.t{fill:#6767c8;}.u{clip-path:url(#b);}.v{fill:#8282e8;}.w{clip-path:url(#c);}.x{fill:#9494ff;}.y{clip-path:url(#d);}.z{fill:#ff7058;}.aa{clip-path:url(#e);}.ab,.as{fill:#ffdb77;}.ac,.ar{fill:#ff905e;}.ad{fill:#28d2e4;}.ae,.ap{fill:#28c3e4;}.af{fill:#a983ff;}.ag{clip-path:url(#f);}.ah{fill:#4acfd9;}.ai{font-size:20px;font-family:Quicksand-Medium, Quicksand;font-weight:500;}.aj{stroke:#dc87eb;}.ak{fill:#dc87eb;}.al{clip-path:url(#g);}.am{clip-path:url(#h);}.an{clip-path:url(#i);}.ao{stroke:#fff;stroke-width:2px;}.ap,.aq,.ar,.as{font-size:8px;font-family:Quicksand-Bold, Quicksand;font-weight:700;}.at{fill:#6ddeb4;}.au{stroke:none;}</style><clipPath id="a"><rect class="a" width="42" height="42" transform="translate(681 335)"/></clipPath><clipPath id="b"><rect class="a" width="42" height="42" transform="translate(562 427)"/></clipPath><clipPath id="c"><rect class="a" width="38" height="38" transform="translate(799 533)"/></clipPath><clipPath id="d"><rect class="a" width="42" height="42" transform="translate(561 629)"/></clipPath><clipPath id="e"><rect class="a" width="42" height="42" transform="translate(323 951)"/></clipPath><clipPath id="f"><rect class="a" width="44" height="44" transform="translate(323 1085)"/></clipPath><clipPath id="g"><rect class="a" width="42" height="42" transform="translate(323 1746)"/></clipPath><clipPath id="h"><rect class="a" width="38" height="38" transform="translate(442 1855)"/></clipPath><clipPath id="i"><rect class="a" width="42" height="42" transform="translate(918 1961)"/></clipPath><clipPath id="k"><rect x="-1238" y="3970" width="449" height="840"/></clipPath></defs><g id="j" class="b"><g transform="translate(-1653 3885)"><path class="c" d="M102,405H32q-10,0-10,10V575q0,10,10,10h90" transform="translate(436 -284)"/><path class="d" d="M133,478H20q-10,0-10,10v87c0,3.693,1.023,6.364,3.31,8.2,1.407,1.141,3.717,1.8,6.69,1.8H82" transform="translate(797 886) rotate(180)"/><path class="d" d="M395,120H355q-10,0-10-10V-36" transform="translate(619 63) rotate(90)"/><path class="d" d="M395,120H355q-10,0-10-10V94" transform="translate(760 63) rotate(90)"/><path class="e" d="M304,478H28q-10,0-10,10v87q0,10,10,10H52" transform="translate(797 1066) rotate(180)"/><path class="e" d="M395,120H355q-10,0-10-10V94" transform="translate(589 243) rotate(90)"/><path class="e" d="M395,120H355q-10,0-10-10V94" transform="translate(702 243) rotate(90)"/><path class="e" d="M395,120H285" transform="translate(894 601) rotate(180)"/><path class="f" d="M133,406H23c-6.667,0-7,3.333-7,10V575q0,10,10,10H82" transform="translate(877 1246) rotate(180)"/><path class="f" d="M-103,406H0c7,0,10,3.333,10,10V575c0,6.667-3,10-10,10H-48" transform="translate(428 1246) rotate(180)"/><path class="e" d="M395,120H285" transform="translate(1059 601) rotate(180)"/><path class="e" d="M395,120H355q-10,0-10-10V94" transform="translate(816 243) rotate(90)"/><path class="e" d="M395,120H355q-10,0-10-10V74" transform="translate(1152 708) rotate(180)"/><path class="g" d="M36,0A36,36,0,1,1,0,36,36,36,0,0,1,36,0Z" transform="translate(533 85)"/><circle class="h" cx="36" cy="36" r="36" transform="translate(743 445)"/><text class="i" transform="translate(639 361)"><tspan x="-101.017" y="0">Backend development including</tspan><tspan x="-125.279" y="18">architecture, database and source code</tspan></text><text class="i" transform="translate(644 181)"><tspan x="-113.785" y="0">User interface development for web</tspan><tspan x="-67.893" y="18">and mobile platforms</tspan></text><text class="i" transform="translate(640 541)"><tspan x="-123.746" y="0">Integration to different genetic services</tspan></text><text class="i" transform="translate(639 721)"><tspan x="-174.755" y="0">Regulatory certification for interpretation and reporting</tspan></text><text class="i" transform="translate(639 901)"><tspan x="-224.441" y="0">24/7 DevOps, platform updates, data access, integration management,</tspan><tspan x="-199.017" y="18">certificate management, monitoring &amp; logs, security operation...</tspan></text><g transform="translate(-81 -1201)"><path class="g" d="M36,0A36,36,0,1,1,0,36,36,36,0,0,1,36,0Z" transform="translate(614 1286)"/><g transform="translate(583.452 1298)"><path class="a" d="M76.111,22.316a9.5,9.5,0,0,1,4.534-8,9.808,9.808,0,0,0-7.68-4.162c-3.271-.331-6.382,1.926-8.042,1.926s-4.217-1.877-6.93-1.827a10.276,10.276,0,0,0-8.688,5.266c-3.7,6.427-.949,15.948,2.661,21.161C53.732,39.234,55.835,42.1,58.6,42c2.66-.106,3.665-1.721,6.881-1.721S69.6,42,72.411,41.945c2.862-.053,4.675-2.6,6.427-5.16a23.16,23.16,0,0,0,2.909-5.973A9.276,9.276,0,0,1,76.111,22.316ZM70.823,6.707A9.256,9.256,0,0,0,73.008,0a9.416,9.416,0,0,0-6.186,3.181,8.805,8.805,0,0,0-2.23,6.5A7.789,7.789,0,0,0,70.823,6.707Z"/></g></g><g transform="translate(-81 -1201)"><circle class="j" cx="36" cy="36" r="36" transform="translate(664 1286)"/><g transform="translate(679 1301)"><path class="a" d="M21,42A20.992,20.992,0,0,1,5.21,7.154l.007.007A18.809,18.809,0,0,1,6.826,9.525a4.752,4.752,0,0,1,.3.986l0,.008,0,.007A9.725,9.725,0,0,0,9.3,15a5.208,5.208,0,0,0,1.3.964l.005,0a5.748,5.748,0,0,1,2.217,1.958,3.213,3.213,0,0,0,2.431,1.94l.042.01a1.477,1.477,0,0,0,.355.039,4.806,4.806,0,0,0,.628-.058,4.925,4.925,0,0,1,.647-.058,1.245,1.245,0,0,1,1.222.752c.524,1.02,1.144,1.553,1.487,1.553a.219.219,0,0,0,.211-.128.83.83,0,0,0-.067-.548,3.932,3.932,0,0,0-1.63-2,3.392,3.392,0,0,0-1.1-.251,1.9,1.9,0,0,1-1.559-.723.986.986,0,0,1-.167-.893,2.531,2.531,0,0,1,1.4-1.357,2.5,2.5,0,0,1,.862-.13,2.179,2.179,0,0,1,1.5.431l0,0c.279.381.659.9,1.078.9a.539.539,0,0,0,.082-.007.148.148,0,0,0,.112-.068c.063-.107-.012-.324-.117-.626a3.938,3.938,0,0,1-.3-1.557c.073-1.16,2.353-3.193,4.365-4.986l.21-.188c.633-.565.911-1.054.851-1.494C25.268,7.689,24.1,7.12,22.632,6.4l-.015-.006-.157-.077-.041-.02-.064-.031-.029-.014-.351-.174a2.5,2.5,0,0,0-1.041-.319.642.642,0,0,0-.479.18,2.1,2.1,0,0,0-.264,1.421v.02a1.543,1.543,0,0,1-.091.8,1.33,1.33,0,0,1-.979.279,5.177,5.177,0,0,1-2.4-.654,1.6,1.6,0,0,1-.945-1.225,2.112,2.112,0,0,1,1.021-1.7c.861-.659,1.28-1.2,1.18-1.523-.063-.207-.335-.326-.806-.352-.036,0-.072,0-.115,0a12.616,12.616,0,0,0-2.291.389l-.008,0-.019,0h-.014a12.615,12.615,0,0,1-2.244.384c-.318,0-.5-.066-.559-.2a.37.37,0,0,1,0-.306c.22-.5,1.519-.96,3.022-1.492h0l.573-.2a3.9,3.9,0,0,1,1.316-.215,6.268,6.268,0,0,1,2.561.606A4.305,4.305,0,0,1,21,3.112l0,.006c.5.7,1.335,1.883,1.92,1.883a.393.393,0,0,0,.251-.089c.018-.015.037-.03.058-.046l.008-.006.007-.005.012-.009.035-.027.01-.008c.3-.231.677-.518.645-.925-.036-.461-.584-.973-1.675-1.563S20.637,1.179,20.624.664A.822.822,0,0,1,21,0a21.035,21.035,0,0,1,5.515.731,1.492,1.492,0,0,0-.411.8,4.837,4.837,0,0,0,.41,2.821c.381.967.818,1.438,1.337,1.438.567,0,1.126-.557,1.619-1.049l.005-.005,0,0c.138-.138.267-.267.392-.379a3.311,3.311,0,0,1,2.054-.521,9.126,9.126,0,0,1,1.3.1,21.073,21.073,0,0,0-3.223-1.9,21.119,21.119,0,0,1,9.263,8.612c-.205-.358-.422-.715-.647-1.061-.011.016-1.2,1.756-.973,2.875a1.9,1.9,0,0,0,.846,1.134c.339.264.632.491.565.9-.053.323-.233.357-.507.409-.427.082-1.073.2-1.8,1.53a4.9,4.9,0,0,0-.232,4.322,1.8,1.8,0,0,0,1.358,1.079,3.973,3.973,0,0,0,.515.031A10.747,10.747,0,0,0,42,21,20.982,20.982,0,0,1,21,42Zm1.6-20.751a1.669,1.669,0,0,0-1.348.727,5.108,5.108,0,0,0-.7,3.9,4.128,4.128,0,0,0,1.673,2.173l0,0a2.9,2.9,0,0,1,.875.9c.411.905-.361,4.876-.45,5.325-.038.194-.1.414-.167.647l0,.008-.008.027v0l-.015.051,0,.005,0,.008c-.324,1.119-.767,2.65.2,3.975.406.561.78.845,1.111.845a.743.743,0,0,0,.614-.47,1.377,1.377,0,0,1-.722-1.162A5.75,5.75,0,0,1,24,36.375a5.58,5.58,0,0,1,2.023-2.623l.017-.014c.181-.154.391-.336.586-.514A37.486,37.486,0,0,0,30.75,27.45a2.37,2.37,0,0,0,.424-2.111A2.3,2.3,0,0,0,29.4,24.225a4.21,4.21,0,0,1-2.5-1.283l-.011-.01-.015-.014-.022-.021-.071-.064c-.121-.109-.24-.217-.376-.334a7.243,7.243,0,0,0-3.375-1.2A1.813,1.813,0,0,0,22.6,21.249ZM8.444,4.165h0c.274-.205.557-.406.841-.6C9,3.758,8.72,3.959,8.444,4.165Z" transform="translate(0 0)"/><path class="k" d="M446.229,128.15a20.9,20.9,0,0,0-3.377-11.425s-1.2,1.75-.973,2.875,1.547,1.211,1.411,2.036-1.111-.236-2.311,1.939-.6,5.176,1.125,5.4A9.775,9.775,0,0,0,446.229,128.15Z" transform="translate(-404.229 -107.15)"/><path class="k" d="M317.81,8.92a20.91,20.91,0,0,1,6.715,3.2s-2.435-.4-3.357.423-2.268,2.775-3.357,0S317.81,8.92,317.81,8.92Z" transform="translate(-291.295 -8.188)"/><path class="k" d="M63.519,7.155A20.949,20.949,0,0,1,79.308,0s-1.425.863,1.275,2.325,1.462,2.137.9,2.588-1.538-.9-2.175-1.8a5.727,5.727,0,0,0-5.474-1.537c-2.1.75-3.9,1.3-3.6,2s3.9-.652,5.25-.577.9.9-.375,1.875S73.684,7.05,75.034,7.8s3,.825,3.375.375-.675-3.375,1.875-2.1,4.65,2.025,2.55,3.9-4.5,3.975-4.575,5.175.75,2.175.3,2.25-.863-.487-1.163-.9a2.752,2.752,0,0,0-2.362-.3c-.675.262-1.95,1.275-1.238,2.25s1.687.525,2.662.975,1.884,2.163,1.7,2.55-1.018-.1-1.7-1.425-1.955-.45-2.852-.675a3.212,3.212,0,0,1-2.472-1.95c-.9-1.575-2.763-2.016-3.525-2.925-2.181-2.6-2.025-4.575-2.475-5.475A18.98,18.98,0,0,0,63.519,7.155Z" transform="translate(-58.308)"/><path class="k" d="M251.623,259.082a7.344,7.344,0,0,1,3.375,1.2c1.125.975,1.275,1.35,3,1.725s2.475,1.349,1.35,3.225a37.532,37.532,0,0,1-4.125,5.775c-.975.9-2.175,1.65-2.625,3.15s-.6,2.4.375,3c0,0-.525,1.275-1.725-.375s-.225-3.6,0-4.725.825-4.5.45-5.325-2.1-1.35-2.55-3.075S249.486,258.575,251.623,259.082Z" transform="translate(-228.598 -237.782)"/></g></g><g transform="translate(-81 -1201)"><circle class="l" cx="36" cy="36" r="36" transform="translate(714 1286)"/><g transform="translate(724.098 1301)"><path class="m" d="M68.137,57.6a2.013,2.013,0,0,0-2.011,2.011V80.476H54.42V73.908a2.011,2.011,0,1,0-4.021,0v6.568H38.335V68.413h5.138a2.011,2.011,0,1,0,0-4.021H38.335V53.042H57.772a2.011,2.011,0,1,0,0-4.021H36.325a2.013,2.013,0,0,0-2.011,2.011V82.487A2.013,2.013,0,0,0,36.325,84.5H68.137a2.013,2.013,0,0,0,2.011-2.011V59.61A2.013,2.013,0,0,0,68.137,57.6Z" transform="translate(-26.999 -45)"/><path class="a" d="M71.248,153.6a2.013,2.013,0,0,0-2.011,2.011v20.866H57.531v-6.568a2.011,2.011,0,0,0-4.021,0v6.568H41.445v-.715L37.7,179.505a2.011,2.011,0,0,0,1.733.993H71.248a2.013,2.013,0,0,0,2.011-2.011V155.611A2.013,2.013,0,0,0,71.248,153.6Z" transform="translate(-30.109 -141)"/><g transform="translate(36.983 32.974)"><path class="a" d="M400.495,401.974a4.513,4.513,0,1,0,4.513,4.513A4.518,4.518,0,0,0,400.495,401.974Z" transform="translate(-395.982 -401.974)"/></g><g transform="translate(4.902 1.43)"><path class="a" d="M9.415,401.974a4.513,4.513,0,1,0,4.513,4.513A4.518,4.518,0,0,0,9.415,401.974Z" transform="translate(-4.902 -370.429)"/><path class="a" d="M9.415,17.43a4.513,4.513,0,1,0,4.513,4.513A4.518,4.518,0,0,0,9.415,17.43Z" transform="translate(-4.902 -17.43)"/></g><path class="a" d="M212.615,3.735,209.077.2a.67.67,0,0,0-.948,0L192.022,16.311l-3.543,3.543a.671.671,0,0,0-.162.262l-1.769,5.308a.67.67,0,0,0,.848.848L192.7,24.5a.67.67,0,0,0,.262-.162l8.846-8.846.034-.037L212.615,4.682A.67.67,0,0,0,212.615,3.735Z" transform="translate(-166.714)"/><path class="n" d="M188.317,240.3l-1.769,5.308a.67.67,0,0,0,.848.848l5.308-1.769a.67.67,0,0,0,.44-.482l-4.345-4.345A.671.671,0,0,0,188.317,240.3Z" transform="translate(-166.714 -220.179)"/><path class="o" d="M173.771,307a.67.67,0,0,1-.474-1.144l1.072-1.072a.67.67,0,0,1,.948.948l-1.072,1.072A.668.668,0,0,1,173.771,307Z" transform="translate(-154.401 -279.599)"/></g></g><g transform="translate(-81 -1201)"><circle class="p" cx="36" cy="36" r="36" transform="translate(764 1286)"/><g class="q" transform="translate(99 970)"><g transform="translate(681 338.621)"><path class="n" d="M0,5.517V33.759H40.552V5.517Z" transform="translate(0 -5.517)"/><path class="r" d="M22.423,29.212a3.3,3.3,0,0,1-4.294,0l-1.511-1.335C11.89,32.1,0,41.445,0,41.445H40.552S28.662,32.1,23.934,27.878Z" transform="translate(0 -13.204)"/><path class="a" d="M0,5.517,18.129,21.526a3.3,3.3,0,0,0,4.294,0L40.552,5.517Z" transform="translate(0 -5.517)"/><g transform="translate(24.621 17.379)"><path class="s" d="M8.69,0A8.69,8.69,0,1,1,0,8.69,8.69,8.69,0,0,1,8.69,0Z"/><path class="a" d="M53.241,38.75a.723.723,0,0,0-1.008.181l-4.052,5.822-2.86-2.348a.724.724,0,0,0-.918,1.12l3.466,2.845a.726.726,0,0,0,.459.164.769.769,0,0,0,.1-.007.728.728,0,0,0,.5-.3l4.5-6.466A.726.726,0,0,0,53.241,38.75Z" transform="translate(-39.793 -34.276)"/></g></g></g></g><g transform="translate(-81 -1201)"><path class="t" d="M36,0A36,36,0,1,1,0,36,36,36,0,0,1,36,0Z" transform="translate(634 1466)"/><g class="u" transform="translate(87 1054)"><g transform="translate(563.155 427)"><path class="a" d="M49.414,43.415l-4.038,5.8-2.85-2.339a.721.721,0,1,0-.915,1.115l3.454,2.835a.72.72,0,0,0,.458.165.658.658,0,0,0,.1-.007.723.723,0,0,0,.494-.3L50.6,44.24a.722.722,0,0,0-1.185-.825Z" transform="translate(-15.368 -14.817)"/><path class="a" d="M43.03,35.409a9.381,9.381,0,1,0,9.381,9.381A9.392,9.392,0,0,0,43.03,35.409Zm0,17.319a7.938,7.938,0,1,1,7.938-7.938A7.947,7.947,0,0,1,43.03,52.729Z" transform="translate(-12.721 -12.172)"/><path class="a" d="M18.094,27.252c.235.006.47.013.709.017q.494.009,1,.009t1-.008c.238,0,.473-.011.709-.017l.252-.006c8.121-.259,14.179-2.1,16.082-4.09V16.373C34.329,18.785,26.9,20.061,19.8,20.061S5.272,18.785,1.759,16.373v6.783c1.9,1.987,7.962,3.832,16.082,4.09Z" transform="translate(-1.759 -5.628)"/><path class="a" d="M37.841,8.159V6.495a.664.664,0,0,0-.1-.331C36.934,3.06,30.708,0,19.8,0,8.92,0,2.7,3.045,1.866,6.141a.7.7,0,0,0-.106.354V8.159C3.807,10.3,10.648,12.268,19.8,12.268S35.795,10.3,37.841,8.159Z" transform="translate(-1.759)"/><path class="a" d="M20.634,41.683a11.534,11.534,0,0,1,4.112-7.4c-.981.076-1.995.136-3.064.165q-.942.029-1.881.03c-.627,0-1.257-.01-1.886-.03A42.352,42.352,0,0,1,5.356,32.487a14.722,14.722,0,0,1-3.6-1.7v6.783C3.813,39.717,10.7,41.695,19.8,41.695,20.083,41.695,20.356,41.687,20.634,41.683Z" transform="translate(-1.759 -10.584)"/><path class="a" d="M20.558,48.829c-.253,0-.5.009-.758.009-8.909,0-15.058-1.653-18.041-3.753V51a.679.679,0,0,0,.084.325C2.7,54.86,10.321,57.5,19.8,57.5a47.635,47.635,0,0,0,5.191-.278A11.522,11.522,0,0,1,20.558,48.829Z" transform="translate(-1.759 -15.498)"/></g></g></g><g transform="translate(-81 -1201)"><circle class="v" cx="36" cy="36" r="36" transform="translate(684 1466)"/><g class="w" transform="translate(-100 950)"><g transform="translate(799 533.315)"><path class="a" d="M49.39,47.846A5.138,5.138,0,0,0,44.353,43.2a5.053,5.053,0,0,0-4.1,2.155,3.236,3.236,0,0,0-.559-.048,3.393,3.393,0,0,0-3.208,2.415,4.072,4.072,0,0,0-1.973,3.485,3.985,3.985,0,0,0,3.932,4.027h6.824c.038,0,.075,0,.108-.005s.079.005.119.005h2.73a3.754,3.754,0,0,0,3.7-3.793A3.793,3.793,0,0,0,49.39,47.846Zm-1.17,6.123-2.756,0-.108,0-6.917.006a2.718,2.718,0,0,1-2.665-2.761A2.79,2.79,0,0,1,37.3,48.716l.275-.136.065-.3a2.125,2.125,0,0,1,2.045-1.7,2.034,2.034,0,0,1,.646.106l.492.165.258-.45a3.749,3.749,0,0,1,3.267-1.928,3.879,3.879,0,0,1,3.8,3.878l.007.515.506.1a2.535,2.535,0,0,1-.445,5.009Z" transform="translate(-14.019 -17.866)"/><path class="a" d="M.529,22.931A2.857,2.857,0,0,0,0,24.583v7.463A2.856,2.856,0,0,0,.529,33.7h26.96a6.714,6.714,0,0,1,5.682,0h4.3A2.853,2.853,0,0,0,38,32.046V24.583a2.856,2.856,0,0,0-.529-1.652ZM6.65,31.165a2.85,2.85,0,1,1,2.85-2.85A2.853,2.853,0,0,1,6.65,31.165ZM21.533,28a.633.633,0,1,1,.633-.633A.634.634,0,0,1,21.533,28Zm2.533,0a.633.633,0,1,1,.633-.633A.634.634,0,0,1,24.067,28ZM26.6,28a.633.633,0,1,1,.633-.633A.634.634,0,0,1,26.6,28Zm2.533,0a.633.633,0,1,1,.633-.633A.634.634,0,0,1,29.133,28Zm2.533,0a.633.633,0,1,1,.633-.633A.634.634,0,0,1,31.667,28Z" transform="translate(0 -9.631)"/><path class="a" d="M35.082.531H2.918A2.922,2.922,0,0,0,0,3.45v7.463a2.856,2.856,0,0,0,.529,1.652H37.471A2.853,2.853,0,0,0,38,10.913V3.45A2.922,2.922,0,0,0,35.082.531ZM6.65,10.031A2.85,2.85,0,1,1,9.5,7.181,2.853,2.853,0,0,1,6.65,10.031ZM21.533,6.865a.633.633,0,1,1,.633-.633A.634.634,0,0,1,21.533,6.865Zm1.267,1.9a.633.633,0,1,1,.633-.633A.634.634,0,0,1,22.8,8.765Zm1.267-1.9a.633.633,0,1,1,.633-.633A.634.634,0,0,1,24.067,6.865Zm1.267,1.9a.633.633,0,1,1,.633-.633A.634.634,0,0,1,25.333,8.765Zm1.267-1.9a.633.633,0,1,1,.633-.633A.634.634,0,0,1,26.6,6.865Zm1.267,1.9a.633.633,0,1,1,.633-.633A.634.634,0,0,1,27.867,8.765Zm1.267-1.9a.633.633,0,1,1,.633-.633A.634.634,0,0,1,29.133,6.865Zm1.267,1.9a.633.633,0,1,1,.633-.633A.634.634,0,0,1,30.4,8.765Zm1.267-1.9a.633.633,0,1,1,.633-.633A.634.634,0,0,1,31.667,6.865Zm1.267,1.9a.633.633,0,1,1,.633-.633A.634.634,0,0,1,32.933,8.765Z" transform="translate(0 -0.531)"/><path class="a" d="M20.905,46.486a5.269,5.269,0,0,1,4.473-3.072c.074-.077.156-.144.233-.217H.529A2.861,2.861,0,0,0,0,44.849v7.463a2.922,2.922,0,0,0,2.918,2.918H20.151a5.964,5.964,0,0,1,.754-8.744ZM6.65,51.431a2.85,2.85,0,1,1,2.85-2.85A2.853,2.853,0,0,1,6.65,51.431Z" transform="translate(0 -17.864)"/></g></g></g><g transform="translate(-81 -1201)"><circle class="x" cx="36" cy="36" r="36" transform="translate(734 1466)"/><g class="y" transform="translate(188 852)"><g transform="translate(561 634.243)"><path class="a" d="M34.187,8.415l-1.423-.39a.641.641,0,0,0-.539.057.746.746,0,0,0-.356.448L23.308,38.16a.687.687,0,0,0,.057.562.745.745,0,0,0,.448.356l1.423.39a.639.639,0,0,0,.539-.057.747.747,0,0,0,.356-.447l8.561-29.63a.688.688,0,0,0-.058-.563A.745.745,0,0,0,34.187,8.415Z" transform="translate(-8 -7.99)"/><path class="a" d="M13.358,16.453a.726.726,0,0,0-.23-.528l-1.148-1.148a.722.722,0,0,0-1.056,0L.23,25.473a.722.722,0,0,0,0,1.056l10.7,10.7a.722.722,0,0,0,1.056,0l1.148-1.147a.722.722,0,0,0,0-1.056L4.108,26l9.02-9.02A.725.725,0,0,0,13.358,16.453Z" transform="translate(0 -10.244)"/><path class="a" d="M56.774,25.473l-10.7-10.7a.721.721,0,0,0-1.056,0l-1.147,1.148a.723.723,0,0,0,0,1.056L52.9,26l-9.02,9.02a.722.722,0,0,0,0,1.056l1.147,1.147a.722.722,0,0,0,1.056,0l10.7-10.7a.722.722,0,0,0,0-1.056Z" transform="translate(-15.004 -10.244)"/></g></g></g><g transform="translate(-81 -1201)"><circle class="h" cx="36" cy="36" r="36" transform="translate(684 1646)"/><g transform="translate(18 832.032)"><g transform="translate(680 830.968)"><path class="n" d="M35.138,38.618,34.95,46.49,29.7,50.052l-5.154-3.468-.281-7.966s1.687-1.593,1.218-3.186h8.247C33.451,37.025,35.138,38.618,35.138,38.618Z" transform="translate(-7.21 -14.02)"/><path class="a" d="M41.724,53.367V50.649a7.4,7.4,0,0,0-3.655-6.373l-3.842-2.156-3.842-2.155h0L27.01,48.119,25.7,42.589l.937-1.031H23.261l.937,1.031-1.312,5.529-3.28-8.153-3.842,2.155-3.842,2.155a7.4,7.4,0,0,0-3.655,6.373v2.718H41.724Z" transform="translate(-2.456 -15.367)"/><g transform="translate(13.813 12.353)"><ellipse class="a" cx="1.874" cy="1.312" rx="1.874" ry="1.312" transform="translate(1.43 4.466) rotate(-112.421)"/><ellipse class="a" cx="1.874" cy="1.312" rx="1.874" ry="1.312" transform="translate(17.28 1.003) rotate(112.421)"/></g><path class="a" d="M36.328,18.129a6.636,6.636,0,0,1-.094,1.312h0c-.562,4.4-3.655,11.527-7.4,11.527s-6.841-7.122-7.4-11.621a5.342,5.342,0,0,1-.094-1.218,7.5,7.5,0,0,1,14.995,0Z" transform="translate(-6.339 -6.651)"/><path class="o" d="M21.247,19.07a4.13,4.13,0,0,1,.562-3.186s-.562-4.78,2.905-4.5c0,0,2.811.937,8.06,0a1.689,1.689,0,0,1,1.781,2.155s-.562,2.062.562,2.53l.469,2.905.469-2.155c.843-3.936-.094-7.872-3.749-9.653h-.094a1.35,1.35,0,0,1,1.406-.375c-6.185-3.936-10.309-.281-10.309-.281a8.872,8.872,0,0,0-3,8.716C19.841,16.915,21.247,19.07,21.247,19.07Z" transform="translate(-5.971 -4.968)"/><g transform="translate(0 6.98)"><path class="m" d="M8.716,35.741l3.842-2.155,3.468-1.968v-.094h0a8.9,8.9,0,0,0,.937-1.593,20.016,20.016,0,0,1-2.155-4.5,3.518,3.518,0,0,1-1.5-1.781,3.628,3.628,0,0,1-.094-2.624,5.112,5.112,0,0,1-.375-2.811,10.71,10.71,0,0,1-.094-3.186A5.585,5.585,0,0,0,8.9,16.248,6.852,6.852,0,0,0,6.56,22.9a3.2,3.2,0,0,0,.469,2.249,1.392,1.392,0,0,0-.094,1.5,1.446,1.446,0,0,0,1.031.937A16.968,16.968,0,0,0,9.84,31.524h0A3.114,3.114,0,0,1,8.9,33.96h0l-3,1.687L2.811,37.241A5.514,5.514,0,0,0,0,42.114v.937H4.311A8.806,8.806,0,0,1,8.716,35.741Z" transform="translate(0 -14.936)"/><path class="m" d="M54.018,37.2l-2.905-1.687-3-1.687h0a3.114,3.114,0,0,1-.937-2.437h0a16.969,16.969,0,0,0,1.874-3.936,1.674,1.674,0,0,0,1.031-.937c.281-.75.094-1.5-.375-1.687l.187-.75c.656-3-.094-6.092-2.811-7.4a.29.29,0,0,0-.187-.094,1.034,1.034,0,0,1,1.031-.281,7.791,7.791,0,0,0-4.5-1.406,12.451,12.451,0,0,1-.094,5.248v.187a3.188,3.188,0,0,1,.187,3.186,3.518,3.518,0,0,1-1.5,1.781,20.016,20.016,0,0,1-2.155,4.5,8.9,8.9,0,0,0,.937,1.593h0v.094L48.02,35.61a8.634,8.634,0,0,1,4.4,7.4h4.4v-.937A5.83,5.83,0,0,0,54.018,37.2Z" transform="translate(-11.845 -14.898)"/></g><path class="z" d="M46.38,51.346H44.6V49.565H43.381v1.781H41.6v1.218h1.781v1.781H44.6V52.564H46.38Z" transform="translate(-12.36 -18.219)"/></g></g></g><path class="h" d="M36,0A36,36,0,1,1,0,36,36,36,0,0,1,36,0Z" transform="translate(463 445)"/><g class="aa" transform="translate(155 -491)"><g transform="translate(323 951)"><path class="ab" d="M28.511,38.157,19.355,29a1.615,1.615,0,0,1,2.284-2.284L30.8,35.872a1.615,1.615,0,1,1-2.284,2.284Z" transform="translate(-6.491 -9.021)"/><path class="ac" d="M33.441,38.518,28.863,33.94l-2.284,2.284L31.157,40.8a1.615,1.615,0,0,0,2.284-2.284Z" transform="translate(-9.137 -11.667)"/><path class="ab" d="M50.118,16.549,40.962,7.393a1.615,1.615,0,0,1,2.284-2.284L52.4,14.265a1.615,1.615,0,1,1-2.284,2.284Z" transform="translate(-13.918 -1.593)"/><path class="ac" d="M55.048,16.911,50.47,12.333l-2.284,2.284L52.764,19.2a1.615,1.615,0,0,0,2.284-2.284Z" transform="translate(-16.564 -4.239)"/><path class="ad" d="M14.265,52.4,5.109,43.247a1.615,1.615,0,0,1,2.284-2.284l9.156,9.156A1.615,1.615,0,0,1,14.265,52.4Z" transform="translate(-1.594 -13.918)"/><path class="ae" d="M19.2,52.764l-4.578-4.578L12.333,50.47l4.578,4.578A1.615,1.615,0,0,0,19.2,52.764Z" transform="translate(-4.24 -16.564)"/><path class="ad" d="M35.872,30.8l-9.156-9.156A1.615,1.615,0,0,1,29,19.355l9.156,9.156A1.615,1.615,0,1,1,35.872,30.8Z" transform="translate(-9.021 -6.491)"/><path class="ae" d="M40.8,31.157l-4.578-4.578L33.94,28.863l4.578,4.578A1.615,1.615,0,1,0,40.8,31.157Z" transform="translate(-11.667 -9.136)"/><path class="a" d="M30.058,15.878c3.048.36,8.332.427,11.469-2.71a1.615,1.615,0,0,0-2.284-2.284c-2.213,2.213-6.692,2.154-9.783,1.647-.435-2.595-.678-7.437,1.658-9.772A1.615,1.615,0,1,0,28.832.473C25.7,3.61,25.762,8.894,26.122,11.942c-10.3-1.218-15.424,3.658-14.18,14.18C8.895,25.761,3.61,25.7.473,28.832a1.615,1.615,0,0,0,2.284,2.284c2.209-2.209,6.676-2.155,9.774-1.648.507,3.1.561,7.565-1.648,9.774a1.615,1.615,0,0,0,2.284,2.284c3.137-3.137,3.071-8.421,2.71-11.469C26.177,31.275,31.3,26.4,30.058,15.878Zm-3.347-.589c1.457,8.9-1.9,11.735-8.048,11.712a21.844,21.844,0,0,1-3.374-.29A21.838,21.838,0,0,1,15,23.337C14.977,17.334,17.652,13.806,26.711,15.289Z" transform="translate(0 0)"/><path class="r" d="M21.331,35.51c10.3,1.218,15.424-3.658,14.18-14.18,3.048.36,8.332.427,11.469-2.71a1.615,1.615,0,0,0-2.284-2.284c-2.211,2.211-6.683,2.154-9.774,1.648l-2.757,2.757c1.457,8.9-1.9,11.735-8.048,11.712a21.844,21.844,0,0,1-3.374-.29l-2.757,2.757c.507,3.1.561,7.565-1.648,9.774A1.615,1.615,0,0,0,18.62,46.98C21.757,43.842,21.691,38.558,21.331,35.51Z" transform="translate(-5.453 -5.453)"/></g></g><g transform="translate(-81 -1201)"><circle class="af" cx="36" cy="36" r="36" transform="translate(627 1826)"/><g class="ag" transform="translate(318 755)"><g transform="translate(329.012 1085)"><path class="o" d="M40.037,5.3H9.429a.683.683,0,0,0-.683.683v38.99a.683.683,0,0,0,.683.683H40.037a.683.683,0,0,0,.683-.683V5.983A.683.683,0,0,0,40.037,5.3Z" transform="translate(-8.745 -1.656)"/><path class="a" d="M38.447,9.54H13.669a.683.683,0,0,0-.683.683V43.747a.683.683,0,0,0,.683.683H31.524a.683.683,0,0,0,.483-.2l6.923-6.923a.683.683,0,0,0,.2-.483v-26.6A.683.683,0,0,0,38.447,9.54Z" transform="translate(-10.07 -2.981)"/><path class="n" d="M39.95,49.909v6.923h0a.683.683,0,0,0,.483-.2l6.923-6.923a.683.683,0,0,0,.2-.483H40.633A.683.683,0,0,0,39.95,49.909Z" transform="translate(-18.497 -15.383)"/><path class="n" d="M35.665,3.644H33.232a5.057,5.057,0,0,0-9.711,0H21.089a.683.683,0,0,0-.683.683V9.793a.683.683,0,0,0,.683.683H35.665a.683.683,0,0,0,.683-.683V4.327A.683.683,0,0,0,35.665,3.644Z" transform="translate(-12.389)"/><path class="a" d="M34.2,6.14a.684.684,0,0,1-.673-.57,1.859,1.859,0,0,0-1.84-1.553.683.683,0,0,1,0-1.366,3.221,3.221,0,0,1,3.188,2.694.683.683,0,0,1-.561.787A.694.694,0,0,1,34.2,6.14Z" transform="translate(-15.702 -0.828)"/><path class="ah" d="M28.046,19.081a8.7,8.7,0,1,0,8.7,8.7A8.71,8.71,0,0,0,28.046,19.081Z" transform="translate(-12.058 -4.588)"/><path class="a" d="M26.721,33.979a.681.681,0,0,1-.483-.2l-2.186-2.186a.683.683,0,0,1,.966-.966l1.7,1.7,5.894-5.894a.683.683,0,1,1,.966.966L27.2,33.779A.682.682,0,0,1,26.721,33.979Z" transform="translate(-13.466 -6.824)"/></g></g></g><g transform="translate(-81 -1201)"><path class="af" d="M36,0A36,36,0,1,1,0,36,36,36,0,0,1,36,0Z" transform="translate(514 1826)"/><text class="ai" transform="translate(550 1870)"><tspan x="-18.64" y="0">LDT</tspan></text></g><g transform="translate(-81 -1201)"><circle class="af" cx="36" cy="36" r="36" transform="translate(854 1826)"/><text class="ai" transform="translate(890 1870)"><tspan x="-20.95" y="0">CLIA</tspan></text></g><path class="aj" d="M395,120H285" transform="translate(893 961) rotate(180)"/><path class="aj" d="M395,120H285" transform="translate(1058 961) rotate(180)"/><g transform="translate(-81 -1201)"><path class="ak" d="M36,0A36,36,0,1,1,0,36,36,36,0,0,1,36,0Z" transform="translate(574 2006)"/><g class="al" transform="translate(266 276)"><g transform="translate(328.769 1746)"><path class="a" d="M32.182,22.611a7.713,7.713,0,0,0,7.071-7.74A7.806,7.806,0,0,0,33.57,7.346,8.779,8.779,0,0,0,24.87,0a8.867,8.867,0,0,0-7.654,4.423,4.771,4.771,0,0,0-.926-.086,4.844,4.844,0,0,0-4.731,5.837A6.724,6.724,0,0,0,8.79,15.591a7.069,7.069,0,0,0,6.343,7.029h17A.127.127,0,0,0,32.182,22.611ZM15.2,20.923a5.324,5.324,0,0,1-4.714-5.331,5.01,5.01,0,0,1,2.486-4.32.842.842,0,0,0,.369-1.029,2.967,2.967,0,0,1-.189-1.071A3.139,3.139,0,0,1,16.29,6.034a3.034,3.034,0,0,1,1.071.189.846.846,0,0,0,1.063-.437A7.134,7.134,0,0,1,31.976,8.134a.838.838,0,0,0,.7.754A6.094,6.094,0,0,1,32.1,20.923Z" transform="translate(-8.79)"/><path class="a" d="M30.469,38.831a.845.845,0,0,0-.849.849v9.943a2.927,2.927,0,0,0,.78,5.726h.069a2.926,2.926,0,0,0,.849-5.726V39.68A.845.845,0,0,0,30.469,38.831Zm.891,12.746a1.224,1.224,0,0,1-.883,2.074h-.034a1.226,1.226,0,0,1,.026-2.451H30.5A1.183,1.183,0,0,1,31.36,51.577Z" transform="translate(-15.237 -13.348)"/><path class="a" d="M18.6,39.68v4.757a1.483,1.483,0,0,1-1.483,1.483h-2.5a2.931,2.931,0,1,0,0,1.7h2.5a3.184,3.184,0,0,0,3.18-3.18V39.68a.849.849,0,1,0-1.7,0ZM11.813,48a1.234,1.234,0,1,1,1.234-1.234A1.235,1.235,0,0,1,11.813,48Z" transform="translate(-8.822 -13.348)"/><path class="a" d="M40.9,47.63h2.5a2.931,2.931,0,1,0,0-1.7H40.9a1.483,1.483,0,0,1-1.483-1.483V39.693a.849.849,0,0,0-1.7,0V44.45A3.184,3.184,0,0,0,40.9,47.63Zm5.306-2.083a1.234,1.234,0,1,1-1.234,1.234A1.235,1.235,0,0,1,46.207,45.547Z" transform="translate(-18.735 -13.353)"/></g></g></g><g transform="translate(-81 -1201)"><circle class="ak" cx="36" cy="36" r="36" transform="translate(684 2006)"/><g class="am" transform="translate(259 168)"><g transform="translate(442 1855)"><path class="a" d="M34.66,0H3.34A3.344,3.344,0,0,0,0,3.34V34.66A3.344,3.344,0,0,0,3.34,38H34.66A3.344,3.344,0,0,0,38,34.66V3.34A3.344,3.344,0,0,0,34.66,0Zm1.113,34.66a1.115,1.115,0,0,1-1.113,1.113H3.34A1.115,1.115,0,0,1,2.227,34.66V3.34A1.115,1.115,0,0,1,3.34,2.227H34.66A1.115,1.115,0,0,1,35.773,3.34Z"/><g transform="translate(6.754 5.121)"><path class="a" d="M12.488,8.625a1.113,1.113,0,0,0-1.113,1.113V15.23a1.113,1.113,0,0,0,2.227,0V9.738A1.113,1.113,0,0,0,12.488,8.625Z" transform="translate(-11.375 -8.625)"/></g><g transform="translate(12.691 5.121)"><path class="a" d="M23.973,8.625a2.6,2.6,0,0,0-2.6,2.6v2.523a2.6,2.6,0,0,0,5.2,0V11.223A2.6,2.6,0,0,0,23.973,8.625Zm.371,5.121a.371.371,0,0,1-.742,0V11.223a.371.371,0,0,1,.742,0Z" transform="translate(-21.375 -8.625)"/></g><g transform="translate(21.598 5.121)"><path class="a" d="M37.488,8.625a1.113,1.113,0,0,0-1.113,1.113V15.23a1.113,1.113,0,0,0,2.227,0V9.738A1.113,1.113,0,0,0,37.488,8.625Z" transform="translate(-36.375 -8.625)"/></g><g transform="translate(27.535 5.121)"><path class="a" d="M48.973,8.625a2.6,2.6,0,0,0-2.6,2.6v2.523a2.6,2.6,0,0,0,5.2,0V11.223A2.6,2.6,0,0,0,48.973,8.625Zm.371,5.121a.371.371,0,0,1-.742,0V11.223a.371.371,0,0,1,.742,0Z" transform="translate(-46.375 -8.625)"/></g><g transform="translate(14.176 15.141)"><path class="a" d="M24.988,25.5a1.113,1.113,0,0,0-1.113,1.113v5.492a1.113,1.113,0,0,0,2.227,0V26.613A1.113,1.113,0,0,0,24.988,25.5Z" transform="translate(-23.875 -25.5)"/></g><g transform="translate(5.27 15.141)"><path class="a" d="M11.473,25.5a2.6,2.6,0,0,0-2.6,2.6v2.523a2.6,2.6,0,0,0,5.2,0V28.1A2.6,2.6,0,0,0,11.473,25.5Zm.371,5.121a.371.371,0,0,1-.742,0V28.1a.371.371,0,0,1,.742,0Z" transform="translate(-8.875 -25.5)"/></g><g transform="translate(21.598 15.141)"><path class="a" d="M37.488,25.5a1.113,1.113,0,0,0-1.113,1.113v5.492a1.113,1.113,0,0,0,2.227,0V26.613A1.113,1.113,0,0,0,37.488,25.5Z" transform="translate(-36.375 -25.5)"/></g><g transform="translate(27.535 15.141)"><path class="a" d="M48.973,25.5a2.6,2.6,0,0,0-2.6,2.6v2.523a2.6,2.6,0,0,0,5.2,0V28.1A2.6,2.6,0,0,0,48.973,25.5Zm.371,5.121a.371.371,0,0,1-.742,0V28.1a.371.371,0,0,1,.742,0Z" transform="translate(-46.375 -25.5)"/></g><g transform="translate(6.754 25.16)"><path class="a" d="M12.488,42.375a1.113,1.113,0,0,0-1.113,1.113V48.98a1.113,1.113,0,0,0,2.227,0V43.488A1.113,1.113,0,0,0,12.488,42.375Z" transform="translate(-11.375 -42.375)"/></g><g transform="translate(12.691 25.16)"><path class="a" d="M23.973,42.375a2.6,2.6,0,0,0-2.6,2.6V47.5a2.6,2.6,0,0,0,5.2,0V44.973A2.6,2.6,0,0,0,23.973,42.375Zm.371,5.121a.371.371,0,0,1-.742,0V44.973a.371.371,0,0,1,.742,0Z" transform="translate(-21.375 -42.375)"/></g><g transform="translate(29.02 25.16)"><path class="a" d="M49.988,42.375a1.113,1.113,0,0,0-1.113,1.113V48.98a1.113,1.113,0,0,0,2.227,0V43.488A1.113,1.113,0,0,0,49.988,42.375Z" transform="translate(-48.875 -42.375)"/></g><g transform="translate(20.113 25.16)"><path class="a" d="M36.473,42.375a2.6,2.6,0,0,0-2.6,2.6V47.5a2.6,2.6,0,0,0,5.2,0V44.973A2.6,2.6,0,0,0,36.473,42.375Zm.371,5.121a.371.371,0,0,1-.742,0V44.973a.371.371,0,0,1,.742,0Z" transform="translate(-33.875 -42.375)"/></g></g></g></g><g transform="translate(-81 -1201)"><circle class="ak" cx="36" cy="36" r="36" transform="translate(794 2006)"/><g class="an" transform="translate(-109 60)"><g transform="translate(918 1964)"><path class="a" d="M32.929,34.964a5.25,5.25,0,1,0-10.5,0v.75h-3v13.5h16.5v-13.5h-3Zm-9,0a3.75,3.75,0,0,1,7.5,0v.75h-7.5Zm10.5,2.25v10.5h-13.5v-10.5h13.5Z" transform="translate(-6.679 -13.214)"/><path class="a" d="M29.679,49.322v.856a.75.75,0,0,0,1.5,0v-.856a3,3,0,1,0-1.5,0Zm.75-4.394a1.5,1.5,0,1,1-1.5,1.5A1.5,1.5,0,0,1,30.429,44.929Z" transform="translate(-9.429 -17.929)"/><path class="a" d="M35.876,16.561a13.778,13.778,0,0,0-3.513,0,.737.737,0,0,1-.114.009.75.75,0,0,1-.112-1.492,14.326,14.326,0,0,1,3.062-.093A11.322,11.322,0,0,0,24.064,4.571a11.88,11.88,0,0,0-9.214,4.6,6.735,6.735,0,0,1,2.4,5.153.75.75,0,1,1-1.5,0,5.24,5.24,0,0,0-2.933-4.7c-.052-.026-.1-.052-.157-.076a5.109,5.109,0,0,0-.626-.241l-.08-.02a5.273,5.273,0,0,0-.592-.133l-.175-.027a5.357,5.357,0,0,0-.687-.05,5.257,5.257,0,0,0-5.25,5.25c0,.062,0,.122.009.183l.009.158-.007.12c-.005.1-.011.194-.011.29v.472l-.425.2A8.915,8.915,0,0,0,0,23.437a8.143,8.143,0,0,0,8.134,8.134H10.5v-6.75h3.152a7.5,7.5,0,0,1,14.7,0H31.5v6.75h2.979A7.53,7.53,0,0,0,42,24.05,7.688,7.688,0,0,0,35.876,16.561Z" transform="translate(0 -4.571)"/></g></g></g><g transform="translate(-113 -919)"><g class="ao" transform="translate(873 1381)"><rect class="au" width="38" height="38" rx="6"/><rect class="av" x="1" y="1" width="36" height="36" rx="5"/></g><g transform="translate(878.75 1385.969)"><text class="ap" transform="translate(2 7)"><tspan x="-2.556" y="0">A</tspan></text><text class="aq" transform="translate(10.313 7)"><tspan x="-2.504" y="0">T</tspan></text><text class="aq" transform="translate(17.438 7)"><tspan x="-2.508" y="0">C</tspan></text><text class="aq" transform="translate(24.563 7)"><tspan x="-2.784" y="0">G</tspan></text><text class="aq" transform="translate(2 17.094)"><tspan x="-2.556" y="0">A</tspan></text><text class="ar" transform="translate(10.313 17.094)"><tspan x="-2.504" y="0">T</tspan></text><text class="aq" transform="translate(17.438 17.094)"><tspan x="-2.508" y="0">C</tspan></text><text class="aq" transform="translate(24.563 17.094)"><tspan x="-2.784" y="0">G</tspan></text><text class="aq" transform="translate(2 26.594)"><tspan x="-2.556" y="0">A</tspan></text><text class="aq" transform="translate(10.313 26.594)"><tspan x="-2.504" y="0">T</tspan></text><text class="aq" transform="translate(17.438 26.594)"><tspan x="-2.508" y="0">C</tspan></text><text class="as" transform="translate(24.563 26.594)"><tspan x="-2.784" y="0">G</tspan></text></g></g><circle class="af" cx="36" cy="36" r="36" transform="translate(660 625)"/><g transform="translate(-248.268 -983.968)"><g transform="translate(926.267 1623.968)"><g transform="translate(0 0)"><path class="n" d="M35.544,38.737,35.349,46.9,29.905,50.6,24.558,47l-.292-8.263s1.75-1.653,1.264-3.305h8.555C33.794,37.084,35.544,38.737,35.544,38.737Z" transform="translate(-12.601 -13.22)"/><path class="a" d="M26.034,13.9H0V11.083A7.677,7.677,0,0,1,3.791,4.472L7.777,2.236,11.763,0l3.4,8.458,1.361-5.735-.972-1.069h3.5l-.973,1.069,1.361,5.735L22.942,0l3.986,2.236,2.672,1.5L26.252,12.69a3.7,3.7,0,0,0-.218,1.211Z" transform="translate(0 25.517)"/><g transform="translate(8.301 12.815)"><ellipse class="a" cx="1.944" cy="1.361" rx="1.944" ry="1.361" transform="translate(1.483 4.633) rotate(-112.421)"/><ellipse class="a" cx="1.944" cy="1.361" rx="1.944" ry="1.361" transform="translate(17.926 1.041) rotate(112.421)"/></g><path class="a" d="M36.888,18.409a6.884,6.884,0,0,1-.1,1.361h0c-.583,4.569-3.791,11.958-7.68,11.958s-7.1-7.388-7.68-12.055a5.542,5.542,0,0,1-.1-1.264,7.777,7.777,0,0,1,15.555,0Z" transform="translate(-11.806 -6.502)"/><path class="o" d="M21.29,19.6a4.284,4.284,0,0,1,.583-3.305s-.583-4.958,3.014-4.666c0,0,2.917.972,8.361,0a1.752,1.752,0,0,1,1.847,2.236s-.583,2.139.583,2.625l.486,3.014.486-2.236c.875-4.083-.1-8.166-3.889-10.013h-.1a1.4,1.4,0,0,1,1.458-.389C27.706,2.779,23.429,6.57,23.429,6.57a9.2,9.2,0,0,0-3.111,9.041C19.832,17.361,21.29,19.6,21.29,19.6Z" transform="translate(-11.471 -4.968)"/><path class="k" d="M4294.452,1661.235h3.558l-1.012,1.111,1.331,5.613-2.156,4.942-2.19-4.942,1.392-5.613Z" transform="translate(-4278.878 -1634.063)"/></g></g><g transform="translate(953.873 1645.136)"><path class="r" d="M13.169,2.021V8.37L9.623,17.854a2.917,2.917,0,0,0,2.732,3.938h8.56a2.917,2.917,0,0,0,2.731-3.941L20.092,8.37V2.021Z" transform="translate(-9.439 -1.376)"/><path class="at" d="M23.2,36.421H15.564l-1.986,5.311a1.627,1.627,0,0,0,1.524,2.2h8.56a1.627,1.627,0,0,0,1.524-2.2Z" transform="translate(-12.186 -24.803)"/><rect class="a" width="9.045" height="1.331" transform="translate(2.67)"/><g transform="translate(3.287 13.127)"><ellipse class="a" cx="1.056" cy="1.056" rx="1.056" ry="1.056" transform="translate(1.565)"/><ellipse class="a" cx="0.747" cy="0.747" rx="0.747" ry="0.747" transform="translate(0 3.445)"/><ellipse class="a" cx="0.747" cy="0.747" rx="0.747" ry="0.747" transform="translate(6.166 2.245)"/></g><ellipse class="a" cx="0.747" cy="0.747" rx="0.747" ry="0.747" transform="translate(9.454 15.372)"/></g></g></g></g></svg>