<svg xmlns="http://www.w3.org/2000/svg" xmlns:xlink="http://www.w3.org/1999/xlink" viewBox="2567 477 375 667"><defs><style>.a,.f,.l,.n{fill:none;}.b{clip-path:url(#d);}.c{fill:#e3e7ed;}.d{fill:#8effc7;}.e{fill:#50d9b3;}.f{stroke:#fff;stroke-linecap:round;stroke-linejoin:round;stroke-miterlimit:10;stroke-width:2px;}.g{fill:#a5a5a5;}.h{fill:#687497;}.i{fill:#7383bf;}.j{fill:#556080;}.k{opacity:0.46;clip-path:url(#a);}.l{stroke:#95989a;}.m{opacity:0.33;fill:url(#b);}.n{stroke:#50d9b3;stroke-width:4px;}.o{fill:#4b4b4b;}</style><clipPath id="a"><rect class="a" width="406" height="211"/></clipPath><linearGradient id="b" x1="0.5" x2="0.5" y2="0.785" gradientUnits="objectBoundingBox"><stop offset="0"/><stop offset="1" stop-opacity="0"/></linearGradient><clipPath id="d"><rect x="2567" y="477" width="375" height="667"/></clipPath></defs><g id="c" class="b"><rect class="o" x="2567" y="477" width="375" height="667"/><g transform="translate(2285 -1477)"><g transform="translate(282 2411)"><rect class="c" width="34.975" height="11.946" rx="2" transform="translate(27 77.958)"/><rect class="d" width="277.827" height="11.946" rx="2" transform="translate(72.491 77.85)"/><rect class="d" width="260" height="11.946" rx="2" transform="translate(27 99.85)"/></g><g transform="translate(282 2325)"><rect class="c" width="34.975" height="11.946" rx="2" transform="translate(27 77.958)"/><rect class="d" width="277.827" height="11.946" rx="2" transform="translate(72.491 77.85)"/><rect class="d" width="322.827" height="11.946" rx="2" transform="translate(27 99.85)"/><rect class="d" width="260" height="11.946" rx="2" transform="translate(27 121.85)"/></g><g transform="translate(282 1958)"><g transform="translate(27 32)"><circle class="e" cx="24" cy="24" r="24"/><path class="f" d="M36.96,15,21.6,32.28,12,24.6" transform="translate(-0.48 -0.6)"/></g><rect class="c" width="183.975" height="11.946" rx="2" transform="translate(100.491 37.647)"/><path class="g" d="M2,0H125.827a2,2,0,0,1,2,2V9.946a2,2,0,0,1-2,2H2a2,2,0,0,1-2-2V2A2,2,0,0,1,2,0Z" transform="translate(100.491 61.54)"/></g><g transform="translate(282 2044)"><g transform="translate(27 31.5)"><g transform="translate(0 0.18)"><path class="h" d="M45.8,14.5H3.038A2.868,2.868,0,0,1,0,11.841V3.159A2.868,2.868,0,0,1,3.038.5H45.8a2.868,2.868,0,0,1,3.039,2.659v8.682A2.868,2.868,0,0,1,45.8,14.5Z" transform="translate(0 0.82)"/><circle class="i" cx="2.947" cy="2.947" r="2.947" transform="translate(5.053 5.553)"/><ellipse class="i" cx="0.842" cy="0.842" rx="0.842" ry="0.842" transform="translate(40.421 6.395)"/><ellipse class="i" cx="0.842" cy="0.842" rx="0.842" ry="0.842" transform="translate(37.053 6.395)"/><ellipse class="i" cx="0.842" cy="0.842" rx="0.842" ry="0.842" transform="translate(42.105 8.921)"/><ellipse class="i" cx="0.842" cy="0.842" rx="0.842" ry="0.842" transform="translate(38.737 8.921)"/><ellipse class="i" cx="0.842" cy="0.842" rx="0.842" ry="0.842" transform="translate(33.684 6.395)"/><ellipse class="i" cx="0.842" cy="0.842" rx="0.842" ry="0.842" transform="translate(35.368 8.921)"/><ellipse class="i" cx="0.842" cy="0.842" rx="0.842" ry="0.842" transform="translate(30.316 6.395)"/><ellipse class="i" cx="0.842" cy="0.842" rx="0.842" ry="0.842" transform="translate(32 8.921)"/><ellipse class="i" cx="0.842" cy="0.842" rx="0.842" ry="0.842" transform="translate(26.947 6.395)"/><ellipse class="i" cx="0.842" cy="0.842" rx="0.842" ry="0.842" transform="translate(28.632 8.921)"/></g><g transform="translate(0 -0.152)"><path class="j" d="M45.8,33.5H3.038A2.868,2.868,0,0,1,0,30.841V22.159A2.868,2.868,0,0,1,3.038,19.5H45.8a2.868,2.868,0,0,1,3.038,2.659v8.682A2.867,2.867,0,0,1,45.8,33.5Z" transform="translate(0 -1.848)"/><circle class="i" cx="2.947" cy="2.947" r="2.947" transform="translate(5.053 21.553)"/><ellipse class="i" cx="0.842" cy="0.842" rx="0.842" ry="0.842" transform="translate(40.421 22.395)"/><ellipse class="i" cx="0.842" cy="0.842" rx="0.842" ry="0.842" transform="translate(37.053 22.395)"/><ellipse class="i" cx="0.842" cy="0.842" rx="0.842" ry="0.842" transform="translate(42.105 24.921)"/><ellipse class="i" cx="0.842" cy="0.842" rx="0.842" ry="0.842" transform="translate(38.737 24.921)"/><ellipse class="i" cx="0.842" cy="0.842" rx="0.842" ry="0.842" transform="translate(33.684 22.395)"/><ellipse class="i" cx="0.842" cy="0.842" rx="0.842" ry="0.842" transform="translate(35.368 24.921)"/><ellipse class="i" cx="0.842" cy="0.842" rx="0.842" ry="0.842" transform="translate(30.316 22.395)"/><ellipse class="i" cx="0.842" cy="0.842" rx="0.842" ry="0.842" transform="translate(32 24.921)"/><ellipse class="i" cx="0.842" cy="0.842" rx="0.842" ry="0.842" transform="translate(26.947 22.395)"/><ellipse class="i" cx="0.842" cy="0.842" rx="0.842" ry="0.842" transform="translate(28.632 24.921)"/></g><g transform="translate(0 0.387)"><path class="h" d="M45.8,52.5H3.038A2.868,2.868,0,0,1,0,49.841V41.159A2.868,2.868,0,0,1,3.038,38.5H45.8a2.868,2.868,0,0,1,3.038,2.659v8.682A2.867,2.867,0,0,1,45.8,52.5Z" transform="translate(0 -5.387)"/><circle class="i" cx="2.947" cy="2.947" r="2.947" transform="translate(5.053 37.553)"/><ellipse class="i" cx="0.842" cy="0.842" rx="0.842" ry="0.842" transform="translate(40.421 38.395)"/><ellipse class="i" cx="0.842" cy="0.842" rx="0.842" ry="0.842" transform="translate(37.053 38.395)"/><ellipse class="i" cx="0.842" cy="0.842" rx="0.842" ry="0.842" transform="translate(42.105 40.921)"/><ellipse class="i" cx="0.842" cy="0.842" rx="0.842" ry="0.842" transform="translate(38.737 40.921)"/><ellipse class="i" cx="0.842" cy="0.842" rx="0.842" ry="0.842" transform="translate(33.684 38.395)"/><ellipse class="i" cx="0.842" cy="0.842" rx="0.842" ry="0.842" transform="translate(35.368 40.921)"/><ellipse class="i" cx="0.842" cy="0.842" rx="0.842" ry="0.842" transform="translate(30.316 38.395)"/><ellipse class="i" cx="0.842" cy="0.842" rx="0.842" ry="0.842" transform="translate(32 40.921)"/><ellipse class="i" cx="0.842" cy="0.842" rx="0.842" ry="0.842" transform="translate(26.947 38.395)"/><ellipse class="i" cx="0.842" cy="0.842" rx="0.842" ry="0.842" transform="translate(28.632 40.921)"/></g></g><rect class="c" width="183.975" height="11.946" rx="2" transform="translate(100.491 37.647)"/><path class="g" d="M2,0H125.827a2,2,0,0,1,2,2V9.946a2,2,0,0,1-2,2H2a2,2,0,0,1-2-2V2A2,2,0,0,1,2,0Z" transform="translate(100.491 61.54)"/></g><g transform="translate(284 1960)"><g class="k" transform="translate(-17.5 193.5)"><g transform="translate(7.5 -24.5)"><line class="l" x2="406" transform="translate(-7.5 24.5)"/></g><g transform="translate(7.5 4.5)"><line class="l" x2="406" transform="translate(-7.5 24.5)"/></g><g transform="translate(7.5 33.5)"><line class="l" x2="406" transform="translate(-7.5 24.5)"/></g><g transform="translate(7.5 62.5)"><line class="l" x2="406" transform="translate(-7.5 24.5)"/></g><g transform="translate(7.5 91.5)"><line class="l" x2="406" transform="translate(-7.5 24.5)"/></g><g transform="translate(7.5 120.5)"><line class="l" x2="406" transform="translate(-7.5 24.5)"/></g><g transform="translate(7.5 149.5)"><line class="l" x2="406" transform="translate(-7.5 24.5)"/></g><g transform="translate(7.5 178.5)"><line class="l" x2="406" transform="translate(-7.5 24.5)"/></g></g><path class="m" d="M910,67.5,939,193l334-3.5L1234.653,69.328,1175,81.5l-57.959,28.793L1054.773,60.68l-37.49,56.153-57.246-6.54Z" transform="translate(-890 171)"/><path class="n" d="M903.5,65.5l49.7,43.7,56.363,6.915,37.3-55.888,13.36,10.843,49.453,40.135L1171.3,80.6l55.353-11.272" transform="translate(-883 171)"/></g><g transform="translate(282 2475)"><rect class="c" width="34.975" height="11.946" rx="2" transform="translate(27 77.958)"/><rect class="d" width="277.827" height="11.946" rx="2" transform="translate(72.491 77.85)"/><rect class="d" width="260" height="11.946" rx="2" transform="translate(27 99.85)"/></g></g></g></svg>