<svg xmlns="http://www.w3.org/2000/svg" xmlns:xlink="http://www.w3.org/1999/xlink" viewBox="2852 2686 512 512"><defs><style>.a{clip-path:url(#b);}.b{fill:#b5b5b5;}.c{fill:#555;font-size:350px;font-family:Roboto-Bold, Roboto;font-weight:700;letter-spacing:-0.05em;}.d{fill:#34aeff;}</style><clipPath id="b"><rect x="2852" y="2686" width="512" height="512"/></clipPath></defs><g id="a" class="a"><g transform="translate(2343.285 1469.388)"><path class="b" d="M508.018,362.893v0H359.327V172.331C445.037,113.032,491.864,32.059,508.018,0V362.893Zm-179.665,0v0H179.666V250.333c59.248-16.575,109.273-36.281,148.687-58.573V362.893Zm-179.666,0v0H0V286.11A1289.525,1289.525,0,0,0,148.688,258.5V362.893Z" transform="translate(512.697 1365.602)"/><text class="c" transform="translate(562.258 1500.814)"><tspan x="0" y="0">+</tspan></text><path class="d" d="M524.114,282.472s-200.692-8.444-319.952-83.562S0,2.022,0,2.022L2.754,0s103.6,107.213,200.735,167.8S401.208,222.34,401.208,222.34l7.92-40.958Z" transform="translate(508.715 1620.508) rotate(-60)"/></g></g></svg>