<svg xmlns="http://www.w3.org/2000/svg" xmlns:xlink="http://www.w3.org/1999/xlink" viewBox="4598 2686 512 512"><defs><style>.a{clip-path:url(#b);}.b,.i{fill:none;}.b{stroke:#717171;stroke-width:32px;}.c{fill:#28c3e4;}.c,.e{font-size:126px;}.c,.d,.e,.f,.g{font-family:Quicksand-Bold, Quicksand;font-weight:700;}.d,.e{fill:#717171;}.d,.f,.g{font-size:128px;}.f{fill:#ff905e;}.g{fill:#ffdb77;}.h{stroke:none;}</style><clipPath id="b"><rect x="4598" y="2686" width="512" height="512"/></clipPath></defs><g id="a" class="a"><g transform="translate(3725 1305)"><g class="b" transform="translate(873 1381)"><rect class="h" width="512" height="512" rx="48"/><rect class="i" x="16" y="16" width="480" height="480" rx="32"/></g><g transform="translate(945 1421)"><text class="c" transform="translate(40 126)"><tspan x="-40.257" y="0">A</tspan></text><text class="d" transform="translate(136 128)"><tspan x="-40.064" y="0">T</tspan></text><text class="e" transform="translate(232 126)"><tspan x="-39.501" y="0">C</tspan></text><text class="d" transform="translate(333 128)"><tspan x="-44.544" y="0">G</tspan></text><text class="e" transform="translate(40 262)"><tspan x="-40.257" y="0">A</tspan></text><text class="f" transform="translate(136 264)"><tspan x="-40.064" y="0">T</tspan></text><text class="e" transform="translate(232 262)"><tspan x="-39.501" y="0">C</tspan></text><text class="d" transform="translate(333 264)"><tspan x="-44.544" y="0">G</tspan></text><text class="e" transform="translate(40 390)"><tspan x="-40.257" y="0">A</tspan></text><text class="d" transform="translate(136 392)"><tspan x="-40.064" y="0">T</tspan></text><text class="e" transform="translate(232 390)"><tspan x="-39.501" y="0">C</tspan></text><text class="g" transform="translate(333 392)"><tspan x="-44.544" y="0">G</tspan></text></g></g></g></svg>