<svg xmlns="http://www.w3.org/2000/svg" xmlns:xlink="http://www.w3.org/1999/xlink" viewBox="1688 2686 512 512"><defs><style>.a{clip-path:url(#b);}.b{fill:#34aeff;}.c{fill:#b5b5b5;}.d{fill:#555;font-size:148px;font-family:Roboto-Bold, Roboto;font-weight:700;letter-spacing:-0.05em;}</style><clipPath id="b"><rect x="1688" y="2686" width="512" height="512"/></clipPath></defs><g id="a" class="a"><g transform="translate(1178 1553)"><path class="b" d="M510.462,299.637S305.084,280.6,186.694,206.032,0,1.355,0,1.355L2.734-.653S89.6,115,186.027,175.152s202.426,64.791,202.426,64.791l7.862-40.659Z" transform="translate(511.538 1226.709)"/><path class="c" d="M325.962,358.066v0H178.353V187.554c36.588,22.567,86.25,42.537,147.609,59.351V358.066Zm-178.358,0v0H0V0C23.394,38.386,73.67,111.065,147.6,166.515V358.066Zm356.708,0H356.71V254.825a1346.666,1346.666,0,0,0,147.6,26.681v76.557Z" transform="translate(510 1286.671)"/><text class="d" transform="translate(654.529 1346)"><tspan x="0" y="0">-80%</tspan></text></g></g></svg>