<svg xmlns="http://www.w3.org/2000/svg" xmlns:xlink="http://www.w3.org/1999/xlink" viewBox="3434 2686 512 512"><defs><style>.a{clip-path:url(#d);}.b{fill:#34aeff;}.c{fill:#f7ac16;}.d{fill:#f2961d;}.e{fill:#2571a0;}.f{fill:#176287;}.g{filter:url(#a);}</style><filter id="a" x="3693.516" y="2812" width="270.483" height="322.86" filterUnits="userSpaceOnUse"><feOffset dy="3" input="SourceAlpha"/><feGaussianBlur stdDeviation="6" result="b"/><feFlood flood-opacity="0.161"/><feComposite operator="in" in2="b"/><feComposite in="SourceGraphic"/></filter><clipPath id="d"><rect x="3434" y="2686" width="512" height="512"/></clipPath></defs><g id="c" class="a"><g transform="translate(2964.33 2252.19)"><path class="b" d="M425.544,224.472a86.649,86.649,0,0,0-17.786,1.84c0-.312.036-.624.036-.925a142.775,142.775,0,0,0-281.062-35.52,105.725,105.725,0,0,0-22.505-2.449,104.237,104.237,0,0,0,.006,208.473H425.549a85.71,85.71,0,0,0,0-171.419Z" transform="translate(469.67 549.752)"/><g transform="translate(747.186 574.81)"><g class="g" transform="matrix(1, 0, 0, 1, -3711.52, -2827)"><path class="c" d="M267.067,252.4c-118.591-21.546-110.791-20.342-112.654-20l-110.1,20a7.139,7.139,0,0,0-5.863,7.024v101.6c0,46.69,19.6,87.536,58.27,121.4A229.654,229.654,0,0,0,152.8,518.511a7.137,7.137,0,0,0,5.773,0,229.616,229.616,0,0,0,56.085-36.087c38.665-33.869,58.27-74.715,58.27-121.4V259.42A7.14,7.14,0,0,0,267.067,252.4Z" transform="translate(3673.07 2594.74)"/></g><path class="d" d="M63.284,360.559c0-117.6-.649-111.117,1.515-114.115L44.31,250.167a7.139,7.139,0,0,0-5.863,7.024v101.6c0,46.69,19.6,87.536,58.27,121.4A229.658,229.658,0,0,0,152.8,516.281a7.2,7.2,0,0,0,.98.341C98.716,480.689,63.284,427.258,63.284,360.559Z" transform="translate(-38.447 -230.031)"/><path class="e" d="M155.689,232.277c-1,0,5.337-1.087-111.379,20.118a7.139,7.139,0,0,0-5.863,7.024v97.17H155.689Z" transform="translate(-38.447 -232.259)"/><path class="f" d="M64.8,246.445,44.31,250.167a7.139,7.139,0,0,0-5.863,7.024v97.17H63.284C63.284,242.4,62.645,249.428,64.8,246.445Z" transform="translate(-38.447 -230.031)"/><path class="e" d="M139.764,502.232c4.41,0,24.731-11.9,29.376-14.8,55.439-34.68,87.866-83.189,87.866-147.734H139.764Z" transform="translate(-22.522 -215.373)"/></g></g></g></svg>