<svg xmlns="http://www.w3.org/2000/svg" xmlns:xlink="http://www.w3.org/1999/xlink" viewBox="4016 2686 512 512"><defs><style>.a{fill:#fff;}.b{clip-path:url(#c);}.c{clip-path:url(#a);}.d{fill:#717171;}.e{fill:#e2e2e2;}.f{fill:#a5a5a5;}.g{fill:#4acfd9;}</style><clipPath id="a"><rect class="a" width="512" height="512" transform="translate(323 1085)"/></clipPath><clipPath id="c"><rect x="4016" y="2686" width="512" height="512"/></clipPath></defs><g id="b" class="b"><g class="c" transform="translate(3693 1601)"><g transform="translate(392.963 1085)"><path class="d" d="M372.869,5.3H16.7a7.95,7.95,0,0,0-7.95,7.95v453.7a7.95,7.95,0,0,0,7.95,7.95H372.869a7.95,7.95,0,0,0,7.95-7.95V13.25A7.949,7.949,0,0,0,372.869,5.3Z" transform="translate(-8.745 37.102)"/><path class="a" d="M309.267,9.54H20.936a7.95,7.95,0,0,0-7.95,7.95V407.585a7.95,7.95,0,0,0,7.95,7.95H228.7a7.947,7.947,0,0,0,5.621-2.328l80.563-80.563a7.951,7.951,0,0,0,2.329-5.622V17.49A7.949,7.949,0,0,0,309.267,9.54Z" transform="translate(20.935 66.783)"/><path class="e" d="M39.95,57.176v80.563h0a7.945,7.945,0,0,0,5.62-2.328l80.563-80.563a7.951,7.951,0,0,0,2.329-5.622H47.9A7.95,7.95,0,0,0,39.95,57.176Z" transform="translate(209.689 344.58)"/><path class="f" d="M197.962,42.4h-28.3a58.844,58.844,0,0,0-113,0h-28.3a7.95,7.95,0,0,0-7.95,7.95v63.6a7.95,7.95,0,0,0,7.95,7.95H197.963a7.95,7.95,0,0,0,7.95-7.95v-63.6A7.95,7.95,0,0,0,197.962,42.4Z" transform="translate(72.878)"/><path class="a" d="M68.2,43.262a7.954,7.954,0,0,1-7.832-6.636A21.631,21.631,0,0,0,38.956,18.55a7.95,7.95,0,0,1,0-15.9,37.484,37.484,0,0,1,37.1,31.344,7.951,7.951,0,0,1-6.525,9.157A8.074,8.074,0,0,1,68.2,43.262Z" transform="translate(147.081 18.551)"/><path class="g" d="M120.58,19.081A101.234,101.234,0,1,0,221.814,120.315,101.348,101.348,0,0,0,120.58,19.081Z" transform="translate(65.457 149.565)"/><path class="a" d="M57.242,116.338a7.924,7.924,0,0,1-5.621-2.328L26.18,88.569A7.95,7.95,0,1,1,37.423,77.325l19.82,19.82,68.581-68.581a7.95,7.95,0,1,1,11.243,11.244l-74.2,74.2A7.933,7.933,0,0,1,57.242,116.338Z" transform="translate(96.994 199.654)"/></g></g></g></svg>