<svg xmlns="http://www.w3.org/2000/svg" xmlns:xlink="http://www.w3.org/1999/xlink" viewBox="2270 2686 512 512"><defs><style>.a{clip-path:url(#b);}.b{fill:#717171;}.c{fill:#34ffd6;}.d{fill:#34aeff;}.e{fill:#fff;}</style><clipPath id="b"><rect x="2270" y="2686" width="512" height="512"/></clipPath></defs><g id="a" class="a"><g transform="translate(2270 2686)"><circle class="b" cx="256" cy="256" r="256"/><path class="c" d="M116.872,255.989h50.083a89.036,89.036,0,1,1,89.036,89.036l-44.518,66.1H270.6C349.69,403.737,411.8,336.979,411.8,255.989c0-85.916-69.9-155.814-155.814-155.814-80.615,0-147.126,61.537-155.028,140.1Z" transform="translate(-0.008 -0.008)"/><path class="d" d="M116.868,255.986H66.785c0-104.329,84.874-189.2,189.2-189.2s189.2,84.873,189.2,189.2-84.874,189.2-189.2,189.2l-22.259-25.041,22.259-25.041a139.119,139.119,0,1,0-139.12-139.12Z" transform="translate(-0.005 -0.005)"/><path class="d" d="M255.993,478.6V395.13L200.824,380.8l-55.17,14.331Z" transform="translate(-0.012 -0.03)"/><path class="c" d="M255.993,395.125V311.653L145.654,395.125Z" transform="translate(-0.012 -0.025)"/><path class="e" d="M322.779,267.126l-77.909,0v-77.9h22.258v55.646h55.651Z" transform="translate(-0.019 -0.015)"/></g></g></svg>