<svg xmlns="http://www.w3.org/2000/svg" xmlns:xlink="http://www.w3.org/1999/xlink" viewBox="-1233 5465 420 300"><defs><style>.a,.ad,.o,.r{fill:#fff;}.b{clip-path:url(#e);}.c{opacity:0.94;}.d{fill:#b5b5b5;}.e{fill:#88c5fc;}.f{fill:#c78bc5;}.g{fill:#f9a18a;}.h{fill:#f7e88b;}.i{fill:#686868;font-size:15px;font-family:TrebuchetMS, Trebuchet MS;}.j{fill:#c17dbe;opacity:0.89;}.k,.m{fill:none;}.k{stroke:#34aeff;stroke-miterlimit:10;stroke-width:3px;}.l{fill:#34aeff;}.aa,.n{fill:#28c3e4;}.n,.o,.p,.q{font-size:7px;font-family:Quicksand-Bold, Quicksand;font-weight:700;}.p,.y{fill:#ff905e;}.q,.x{fill:#ffdb77;}.q{opacity:0.7;}.r{font-size:9px;font-family:Quicksand-Regular, Quicksand;}.s{fill:#e2e2e2;}.t{fill:#717171;}.u{fill:#a5a5a5;}.v{fill:#ff7058;}.w{clip-path:url(#c);}.z{fill:#28d2e4;}.ab{fill:#f2f1f1;}.ac,.ad{stroke:none;}.ae{filter:url(#a);}</style><filter id="a" x="-1032" y="5550.003" width="184.291" height="137.997" filterUnits="userSpaceOnUse"><feOffset dy="6" input="SourceAlpha"/><feGaussianBlur stdDeviation="9" result="b"/><feFlood flood-opacity="0.161"/><feComposite operator="in" in2="b"/><feComposite in="SourceGraphic"/></filter><clipPath id="c"><rect class="a" width="38" height="38" transform="translate(323 951)"/></clipPath><clipPath id="e"><rect x="-1233" y="5465" width="420" height="300"/></clipPath></defs><g id="d" class="b"><g transform="translate(-1509 4313)"><g transform="translate(-1128 -101.997)"><g class="ae" transform="matrix(1, 0, 0, 1, 2637, -4211)"><rect class="a" width="130.291" height="83.997" rx="4" transform="translate(-1005 5571)"/></g><g class="c" transform="translate(1641.454 1419.336)"><rect class="d" width="16.692" height="6" rx="3" transform="translate(-0.454 0.051)"/><rect class="e" width="36.666" height="6" rx="3" transform="translate(21.546 0)"/><rect class="f" width="52.021" height="6" rx="3" transform="translate(-0.454 10.5)"/><rect class="g" width="15.19" height="6" rx="3" transform="translate(63.546 0)"/><rect class="h" width="28.075" height="6" rx="3" transform="translate(83.546 0)"/></g><g transform="translate(1661 1376.469)"><text class="i" transform="translate(26.892 16.887)"><tspan x="0" y="0">ixlayer</tspan></text><path class="j" d="M259,1087.829l11.617-5.444,11.583,5.444-11.583,5.488Z" transform="translate(-259 -1066.827)"/><path class="h" d="M259,1087.829l11.617-5.444,11.583,5.444-11.583,5.488Z" transform="translate(-259 -1072.786)"/><path class="g" d="M259,1087.829l11.617-5.444,11.583,5.444-11.583,5.488Z" transform="translate(-259 -1076.237)"/><path class="e" d="M259,1087.829l11.617-5.444,11.583,5.444-11.583,5.488Z" transform="translate(-259 -1080)"/></g></g><path class="k" d="M375,120H355q-10,0-10-10V60" transform="translate(563.5 979.5) rotate(90)"/><path class="l" d="M5.5,0A5.5,5.5,0,1,1,0,5.5,5.5,5.5,0,0,1,5.5,0Z" transform="translate(509.5 1319.5) rotate(90)"/><path class="k" d="M405,120H355q-10,0-10-10V90" transform="translate(98.5 1154.5)"/><path class="l" d="M5.5,0A5.5,5.5,0,1,1,0,5.5,5.5,5.5,0,0,1,5.5,0Z" transform="translate(509.5 1268.5) rotate(90)"/><path class="k" d="M405,120H325" transform="translate(98.5 1179.5)"/><path class="l" d="M5.5,0A5.5,5.5,0,1,1,0,5.5,5.5,5.5,0,0,1,5.5,0Z" transform="translate(509.5 1293.5) rotate(90)"/><g transform="translate(219 -17)"><g transform="translate(-667)"><g class="m" transform="translate(873 1381)"><path class="ac" d="M6,0H32a6,6,0,0,1,6,6V32a6,6,0,0,1-6,6H6a6,6,0,0,1-6-6V6A6,6,0,0,1,6,0Z"/><path class="ad" d="M 32 36 C 34.20560836791992 36 36 34.20560836791992 36 32 L 36 6 C 36 3.794389963150024 34.20560836791992 2 32 2 L 6 2 C 3.794389963150024 2 2 3.794389963150024 2 6 L 2 32 C 2 34.20560836791992 3.794389963150024 36 6 36 L 32 36 M 32 38 L 6 38 C 2.68629002571106 38 0 35.3137092590332 0 32 L 0 6 C 0 2.68629002571106 2.68629002571106 0 6 0 L 32 0 C 35.3137092590332 0 38 2.68629002571106 38 6 L 38 32 C 38 35.3137092590332 35.3137092590332 38 32 38 Z"/></g><g transform="translate(878.344 1385.969)"><text class="n" transform="translate(2 7)"><tspan x="-2.237" y="0">A</tspan></text><text class="o" transform="translate(9.719 7)"><tspan x="-2.191" y="0">T</tspan></text><text class="o" transform="translate(16.844 7)"><tspan x="-2.194" y="0">C</tspan></text><text class="o" transform="translate(24.375 7)"><tspan x="-2.436" y="0">G</tspan></text><text class="o" transform="translate(2 17.094)"><tspan x="-2.237" y="0">A</tspan></text><text class="p" transform="translate(9.719 17.094)"><tspan x="-2.191" y="0">T</tspan></text><text class="o" transform="translate(16.844 17.094)"><tspan x="-2.194" y="0">C</tspan></text><text class="o" transform="translate(24.375 17.094)"><tspan x="-2.436" y="0">G</tspan></text><text class="o" transform="translate(2 26.594)"><tspan x="-2.237" y="0">A</tspan></text><text class="o" transform="translate(9.719 26.594)"><tspan x="-2.191" y="0">T</tspan></text><text class="o" transform="translate(16.844 26.594)"><tspan x="-2.194" y="0">C</tspan></text><text class="q" transform="translate(24.375 26.594)"><tspan x="-2.436" y="0">G</tspan></text></g></g><text class="r" transform="translate(225 1438)"><tspan x="-40.387" y="0">Physician Networks</tspan></text></g><g transform="translate(153 74)"><text class="r" transform="translate(225 1250)"><tspan x="-40.387" y="0">Physician Networks</tspan></text><g transform="translate(-476 368)"><g transform="translate(680 830.968)"><path class="s" d="M35.138,38.618,34.95,46.49,29.7,50.052l-5.154-3.468-.281-7.966s1.687-1.593,1.218-3.186h8.247C33.451,37.025,35.138,38.618,35.138,38.618Z" transform="translate(-7.21 -14.02)"/><path class="a" d="M41.724,53.367V50.649a7.4,7.4,0,0,0-3.655-6.373l-3.842-2.156-3.842-2.155h0L27.01,48.119,25.7,42.589l.937-1.031H23.262l.937,1.031-1.312,5.529-3.28-8.153-3.842,2.155-3.842,2.155a7.4,7.4,0,0,0-3.655,6.373v2.718H41.724Z" transform="translate(-2.456 -15.367)"/><g transform="translate(13.813 12.353)"><ellipse class="a" cx="1.874" cy="1.312" rx="1.874" ry="1.312" transform="translate(1.43 4.466) rotate(-112.421)"/><ellipse class="a" cx="1.874" cy="1.312" rx="1.874" ry="1.312" transform="translate(17.28 1.003) rotate(112.421)"/></g><path class="a" d="M36.328,18.129a6.636,6.636,0,0,1-.094,1.312h0c-.562,4.4-3.655,11.527-7.4,11.527s-6.841-7.122-7.4-11.621a5.342,5.342,0,0,1-.094-1.218,7.5,7.5,0,0,1,14.995,0Z" transform="translate(-6.339 -6.651)"/><path class="t" d="M21.247,19.07a4.13,4.13,0,0,1,.562-3.186s-.562-4.78,2.905-4.5c0,0,2.811.937,8.06,0a1.689,1.689,0,0,1,1.781,2.155s-.562,2.062.562,2.53l.469,2.905.469-2.155c.843-3.936-.094-7.872-3.749-9.653h-.094a1.35,1.35,0,0,1,1.406-.375c-6.185-3.936-10.309-.281-10.309-.281a8.872,8.872,0,0,0-3,8.716C19.841,16.915,21.247,19.07,21.247,19.07Z" transform="translate(-5.971 -4.968)"/><g transform="translate(0 6.98)"><path class="u" d="M8.716,35.741l3.842-2.155,3.468-1.968v-.094h0a8.9,8.9,0,0,0,.937-1.593,20.016,20.016,0,0,1-2.155-4.5,3.518,3.518,0,0,1-1.5-1.781,3.628,3.628,0,0,1-.094-2.624,5.112,5.112,0,0,1-.375-2.811,10.71,10.71,0,0,1-.094-3.186A5.585,5.585,0,0,0,8.9,16.248,6.852,6.852,0,0,0,6.56,22.9a3.2,3.2,0,0,0,.469,2.249,1.392,1.392,0,0,0-.094,1.5,1.446,1.446,0,0,0,1.031.937A16.969,16.969,0,0,0,9.84,31.524h0A3.114,3.114,0,0,1,8.9,33.961h0l-3,1.687L2.811,37.241A5.514,5.514,0,0,0,0,42.114v.937H4.311A8.806,8.806,0,0,1,8.716,35.741Z" transform="translate(0 -14.936)"/><path class="u" d="M54.018,37.2l-2.905-1.687-3-1.687h0a3.114,3.114,0,0,1-.937-2.437h0a16.969,16.969,0,0,0,1.874-3.936,1.674,1.674,0,0,0,1.031-.937c.281-.75.094-1.5-.375-1.687l.187-.75c.656-3-.094-6.092-2.811-7.4a.29.29,0,0,0-.187-.094,1.034,1.034,0,0,1,1.031-.281,7.791,7.791,0,0,0-4.5-1.406,12.451,12.451,0,0,1-.094,5.248v.187a3.188,3.188,0,0,1,.187,3.186,3.518,3.518,0,0,1-1.5,1.781,20.016,20.016,0,0,1-2.155,4.5,8.9,8.9,0,0,0,.937,1.593h0v.094L48.02,35.61a8.634,8.634,0,0,1,4.4,7.4h4.4v-.937A5.83,5.83,0,0,0,54.018,37.2Z" transform="translate(-11.845 -14.898)"/></g><path class="v" d="M46.38,51.346H44.6V49.565H43.381v1.781H41.6v1.218h1.781v1.781H44.6V52.564H46.38Z" transform="translate(-12.36 -18.219)"/></g></g></g><g transform="translate(219 -17)"><text class="r" transform="translate(225 1250)"><tspan x="-32.18" y="0">Helix API &amp; SDK</tspan></text><g class="w" transform="translate(-117 248)"><g transform="translate(323 951)"><path class="x" d="M27.594,37.022,19.31,28.738a1.462,1.462,0,0,1,2.067-2.067l8.284,8.284a1.462,1.462,0,0,1-2.067,2.067Z" transform="translate(-7.671 -10.661)"/><path class="y" d="M32.788,38.082,28.646,33.94l-2.067,2.067,4.142,4.142a1.462,1.462,0,0,0,2.067-2.067Z" transform="translate(-10.798 -13.788)"/><path class="x" d="M49.2,15.415,40.917,7.13a1.462,1.462,0,1,1,2.067-2.067l8.284,8.284A1.462,1.462,0,0,1,49.2,15.415Z" transform="translate(-16.449 -1.883)"/><path class="y" d="M54.395,16.475l-4.142-4.142L48.186,14.4l4.142,4.142a1.462,1.462,0,0,0,2.067-2.067Z" transform="translate(-19.576 -5.01)"/><path class="z" d="M13.348,51.268,5.064,42.984a1.462,1.462,0,0,1,2.067-2.067L15.414,49.2a1.462,1.462,0,0,1-2.067,2.067Z" transform="translate(-1.883 -16.449)"/><path class="aa" d="M18.542,52.328,14.4,48.186l-2.067,2.067,4.142,4.142a1.462,1.462,0,1,0,2.067-2.067Z" transform="translate(-5.01 -19.576)"/><path class="z" d="M34.955,29.661l-8.284-8.284a1.462,1.462,0,1,1,2.067-2.067l8.284,8.284a1.462,1.462,0,0,1-2.067,2.067Z" transform="translate(-10.661 -7.671)"/><path class="aa" d="M40.149,30.721l-4.142-4.142L33.94,28.646l4.142,4.142a1.462,1.462,0,0,0,2.067-2.067Z" transform="translate(-13.788 -10.798)"/><path class="a" d="M27.2,14.366c2.758.326,7.538.386,10.377-2.452A1.462,1.462,0,0,0,35.5,9.847c-2,2-6.055,1.949-8.852,1.49-.394-2.348-.613-6.728,1.5-8.842A1.462,1.462,0,0,0,26.087.428C23.248,3.266,23.308,8.047,23.634,10.8,14.316,9.7,9.68,14.115,10.805,23.634c-2.758-.326-7.539-.386-10.377,2.452A1.462,1.462,0,0,0,2.5,28.153c2-2,6.04-1.95,8.843-1.491.458,2.8.507,6.844-1.491,8.843a1.462,1.462,0,0,0,2.067,2.067c2.838-2.838,2.778-7.619,2.452-10.377C23.684,28.3,28.321,23.885,27.2,14.366Zm-3.028-.533c1.318,8.054-1.716,10.617-7.282,10.6a19.763,19.763,0,0,1-3.053-.262,19.758,19.758,0,0,1-.262-3.053C13.551,15.683,15.971,12.491,24.167,13.833Z" transform="translate(0 0)"/><path class="ab" d="M20.81,33.639c9.319,1.1,13.955-3.31,12.829-12.829,2.758.326,7.538.386,10.377-2.452a1.462,1.462,0,0,0-2.067-2.067c-2,2-6.046,1.949-8.843,1.491l-2.495,2.495c1.318,8.054-1.716,10.617-7.282,10.6a19.764,19.764,0,0,1-3.053-.262l-2.495,2.495c.458,2.8.507,6.844-1.491,8.843a1.462,1.462,0,0,0,2.067,2.067C21.2,41.178,21.136,36.4,20.81,33.639Z" transform="translate(-6.444 -6.444)"/></g></g></g></g></g></svg>