<svg xmlns="http://www.w3.org/2000/svg" xmlns:xlink="http://www.w3.org/1999/xlink" viewBox="-253 5465 420 300"><defs><style>.a{clip-path:url(#h);}.b,.o{fill:#fff;}.c{opacity:0.94;}.d{fill:#b5b5b5;}.e{fill:#88c5fc;}.f{fill:#c78bc5;}.g{fill:#f9a18a;}.h{fill:#f7e88b;}.i{fill:#686868;font-size:15px;font-family:TrebuchetMS, Trebuchet MS;}.j{fill:#c17dbe;opacity:0.89;}.k{fill:#353639;}.l,.x{fill:#34ffd6;}.m{fill:#dbdbdb;}.n,.w{fill:#34aeff;}.o{font-size:12px;font-family:Antipasto-ExtraLight, Antipasto;font-weight:200;letter-spacing:0.045em;}.p{opacity:0.91;}.q{fill:#ffdb77;}.r{fill:#ff905e;}.s{fill:#28d2e4;}.t{fill:#28c3e4;}.u,.v{fill:none;stroke-miterlimit:10;stroke-width:3px;}.u{stroke:#34aeff;}.v{stroke:#34ffd6;}.w,.x{opacity:0.45;}.y{filter:url(#e);}.z{filter:url(#c);}.aa{filter:url(#a);}</style><filter id="a" x="1" y="5611" width="184.291" height="137.997" filterUnits="userSpaceOnUse"><feOffset dy="6" input="SourceAlpha"/><feGaussianBlur stdDeviation="9" result="b"/><feFlood flood-opacity="0.161"/><feComposite operator="in" in2="b"/><feComposite in="SourceGraphic"/></filter><filter id="c" x="-253" y="5625.997" width="158.425" height="102.015" filterUnits="userSpaceOnUse"><feOffset dy="3" input="SourceAlpha"/><feGaussianBlur stdDeviation="3" result="d"/><feFlood flood-opacity="0.161"/><feComposite operator="in" in2="d"/><feComposite in="SourceGraphic"/></filter><filter id="e" x="-112" y="5507" width="158.425" height="102.015" filterUnits="userSpaceOnUse"><feOffset dy="3" input="SourceAlpha"/><feGaussianBlur stdDeviation="3" result="f"/><feFlood flood-opacity="0.161"/><feComposite operator="in" in2="f"/><feComposite in="SourceGraphic"/></filter><clipPath id="h"><rect x="-253" y="5465" width="420" height="300"/></clipPath></defs><g id="g" class="a"><g transform="translate(-646 3651.997)"><g transform="translate(-958 620.003)"><g class="aa" transform="matrix(1, 0, 0, 1, 1604, -4272)"><rect class="b" width="130.291" height="83.997" rx="4" transform="translate(28 5632)"/></g><g class="c" transform="translate(1641.454 1419.336)"><rect class="d" width="16.692" height="6" rx="3" transform="translate(-0.454 0.051)"/><rect class="e" width="36.666" height="6" rx="3" transform="translate(21.546 0)"/><rect class="f" width="52.021" height="6" rx="3" transform="translate(-0.454 10.5)"/><rect class="g" width="15.19" height="6" rx="3" transform="translate(63.546 0)"/><rect class="h" width="28.075" height="6" rx="3" transform="translate(83.546 0)"/></g><g transform="translate(1661 1376.469)"><text class="i" transform="translate(26.892 16.887)"><tspan x="0" y="0">ixlayer</tspan></text><path class="j" d="M259,1087.829l11.617-5.444,11.583,5.444-11.583,5.488Z" transform="translate(-259 -1066.827)"/><path class="h" d="M259,1087.829l11.617-5.444,11.583,5.444-11.583,5.488Z" transform="translate(-259 -1072.786)"/><path class="g" d="M259,1087.829l11.617-5.444,11.583,5.444-11.583,5.488Z" transform="translate(-259 -1076.237)"/><path class="e" d="M259,1087.829l11.617-5.444,11.583,5.444-11.583,5.488Z" transform="translate(-259 -1080)"/></g></g><g transform="translate(-1061 150)"><g transform="translate(-24 113)"><g class="z" transform="matrix(1, 0, 0, 1, 1731, -3915)"><path class="k" d="M2,0H138.425a2,2,0,0,1,2,2V82.015a2,2,0,0,1-2,2H2a2,2,0,0,1-2-2V2A2,2,0,0,1,2,0Z" transform="translate(-244 5632)"/></g><g transform="translate(1.509 2.15)"><rect class="l" width="51.827" height="6" rx="3" transform="translate(1522.491 1729.851)"/><rect class="l" width="110.827" height="6" rx="3" transform="translate(1500.491 1741.851)"/><rect class="l" width="110.827" height="6" rx="3" transform="translate(1500.491 1753.851)"/><rect class="l" width="110.827" height="6" rx="3" transform="translate(1500.491 1765.851)"/><rect class="l" width="27.827" height="6" rx="3" transform="translate(1500.491 1777.851)"/><rect class="d" width="17.827" height="6" rx="3" transform="translate(1500.491 1729.851)"/></g></g></g><g transform="translate(354 58)"><g transform="translate(-755 1050)"><g class="y" transform="matrix(1, 0, 0, 1, 1047, -4760)"><rect class="b" width="140.425" height="84.015" rx="2" transform="translate(-103 5513)"/></g><rect class="m" width="26" height="10" rx="5" transform="translate(1023 823)"/><rect class="m" width="26" height="10" rx="5" transform="translate(1054 823)"/><path class="n" d="M2,0H138.425a2,2,0,0,1,2,2V27.015a0,0,0,0,1,0,0H0a0,0,0,0,1,0,0V2A2,2,0,0,1,2,0Z" transform="translate(944 753.003)"/></g><g transform="translate(165.064 1709.003)"><g transform="translate(62.581 101)"><text class="o" transform="translate(0 11)"><tspan x="0" y="0">Genetic Product</tspan></text></g><g class="p" transform="translate(48.667 101.366)"><path class="q" d="M154.044,213.642,151.2,210.8a.5.5,0,1,1,.71-.71l2.844,2.844a.5.5,0,1,1-.71.71Z" transform="translate(-147.204 -204.591)"/><path class="r" d="M214.764,272.941l-1.422-1.422-.71.71,1.422,1.422a.5.5,0,0,0,.71-.71Z" transform="translate(-207.214 -264.6)"/><path class="q" d="M326.9,40.785l-2.844-2.844a.5.5,0,1,1,.71-.71l2.844,2.844a.5.5,0,0,1-.71.71Z" transform="translate(-315.656 -36.139)"/><path class="r" d="M387.62,100.085,386.2,98.663l-.71.71,1.422,1.422a.5.5,0,1,0,.71-.71Z" transform="translate(-375.666 -96.149)"/><path class="s" d="M40.077,327.614l-2.844-2.844a.5.5,0,1,1,.71-.71l2.844,2.844a.5.5,0,0,1-.71.71Z" transform="translate(-36.141 -315.66)"/><path class="t" d="M100.795,386.91l-1.422-1.422-.71.71,1.422,1.422a.5.5,0,1,0,.71-.71Z" transform="translate(-96.149 -375.665)"/><path class="s" d="M212.931,154.754l-2.844-2.844a.5.5,0,1,1,.71-.71l2.844,2.844a.5.5,0,0,1-.71.71Z" transform="translate(-204.59 -147.204)"/><path class="t" d="M273.652,214.054l-1.422-1.422-.71.71,1.422,1.422a.5.5,0,0,0,.71-.71Z" transform="translate(-264.602 -207.214)"/><path class="b" d="M9.338,4.932A4.435,4.435,0,0,0,12.9,4.09a.5.5,0,1,0-.71-.71c-.687.687-2.079.669-3.039.512-.135-.806-.211-2.31.515-3.036a.5.5,0,0,0-.71-.71,4.435,4.435,0,0,0-.842,3.563c-3.2-.378-4.791,1.136-4.4,4.4a4.435,4.435,0,0,0-3.563.842.5.5,0,0,0,.71.71c.686-.686,2.074-.67,3.036-.512.157.962.174,2.35-.512,3.036a.5.5,0,0,0,.71.71,4.435,4.435,0,0,0,.842-3.563C8.133,9.715,9.725,8.2,9.338,4.932ZM8.3,4.749c.452,2.765-.589,3.645-2.5,3.638A6.785,6.785,0,0,1,4.751,8.3a6.783,6.783,0,0,1-.09-1.048C4.654,5.384,5.485,4.288,8.3,4.749Z" transform="translate(-0.002 0)"/></g></g></g><path class="u" d="M395,120H340q-10,0-10-10V26" transform="translate(278.5 1903.5)"/><path class="n" d="M5.5,0A5.5,5.5,0,1,1,0,5.5,5.5,5.5,0,0,1,5.5,0Z" transform="translate(679.5 2017.5) rotate(90)"/><path class="v" d="M439,90H355q-10,0-10-10V60" transform="translate(483.5 2368.5) rotate(-90)"/><path class="l" d="M5.5,0A5.5,5.5,0,1,1,0,5.5,5.5,5.5,0,0,1,5.5,0Z" transform="translate(537.5 2028.5) rotate(-90)"/><path class="w" d="M14.5,0A14.5,14.5,0,1,1,0,14.5,14.5,14.5,0,0,1,14.5,0Z" transform="translate(594 1899)"/><circle class="x" cx="14.5" cy="14.5" r="14.5" transform="translate(559 1899)"/></g></g></svg>