<svg xmlns="http://www.w3.org/2000/svg" xmlns:xlink="http://www.w3.org/1999/xlink" viewBox="242 8446 420 300">
  <defs>
    <style>
      .cls-1, .cls-15, .cls-16, .cls-19, .cls-23 {
        fill: #fff;
      }

      .cls-2 {
        clip-path: url(#clip-ixAnypoint-regulatory_1);
      }

      .cls-3 {
        clip-path: url(#clip-path);
      }

      .cls-18, .cls-4 {
        fill: #ffdb77;
      }

      .cls-17, .cls-5 {
        fill: #ff905e;
      }

      .cls-6 {
        fill: #28d2e4;
      }

      .cls-14, .cls-7 {
        fill: #28c3e4;
      }

      .cls-8 {
        fill: #f2f1f1;
      }

      .cls-9 {
        fill: #5b986c;
      }

      .cls-10 {
        fill: #a5a5a5;
      }

      .cls-11 {
        fill: #454545;
      }

      .cls-12 {
        fill: #d5e2f2;
        opacity: 0.5;
      }

      .cls-13, .cls-20, .cls-21, .cls-25 {
        fill: none;
      }

      .cls-13 {
        stroke: #fff;
        stroke-width: 4px;
      }

      .cls-14, .cls-15, .cls-17 {
        font-size: 17px;
      }

      .cls-14, .cls-15, .cls-16, .cls-17, .cls-18, .cls-23 {
        font-family: Helvetica-Bold, Helvetica;
        font-weight: 700;
      }

      .cls-16, .cls-18 {
        font-size: 16px;
      }

      .cls-19 {
        font-size: 10px;
        font-family: Helvetica;
      }

      .cls-20 {
        stroke: #34ffd6;
      }

      .cls-20, .cls-21 {
        stroke-miterlimit: 10;
        stroke-width: 3px;
      }

      .cls-21 {
        stroke: #f54f9d;
      }

      .cls-22 {
        fill: #f54f9d;
      }

      .cls-23 {
        font-size: 12px;
      }

      .cls-24 {
        stroke: none;
      }
    </style>
    <clipPath id="clip-path">
      <rect id="Rectangle_151" data-name="Rectangle 151" class="cls-1" width="43.117" height="43.117"/>
    </clipPath>
    <clipPath id="clip-ixAnypoint-regulatory_1">
      <rect x="242" y="8446" width="420" height="300"/>
    </clipPath>
  </defs>
  <g id="ixAnypoint-regulatory_1" data-name="ixAnypoint-regulatory – 1" class="cls-2">
    <g id="Group_749" data-name="Group 749" transform="translate(-203 4475.395)">
      <g id="Group_471" data-name="Group 471" transform="translate(480.367 4093.369)">
        <g id="Mask_Group_62" data-name="Mask Group 62" class="cls-3" transform="translate(0 0)">
          <g id="dna" transform="translate(0 0)">
            <path id="Path_629" data-name="Path 629" class="cls-4" d="M28.767,38.473l-9.4-9.4a1.658,1.658,0,0,1,2.345-2.345l9.4,9.4a1.658,1.658,0,1,1-2.345,2.345Z" transform="translate(-6.161 -8.563)"/>
            <path id="Path_630" data-name="Path 630" class="cls-5" d="M33.624,38.64l-4.7-4.7-2.345,2.345,4.7,4.7a1.658,1.658,0,1,0,2.345-2.345Z" transform="translate(-8.673 -11.074)"/>
            <path id="Path_631" data-name="Path 631" class="cls-4" d="M50.374,16.866l-9.4-9.4A1.658,1.658,0,1,1,43.32,5.121l9.4,9.4a1.658,1.658,0,1,1-2.345,2.345Z" transform="translate(-13.211 -1.512)"/>
            <path id="Path_632" data-name="Path 632" class="cls-5" d="M55.231,17.033l-4.7-4.7-2.345,2.345,4.7,4.7a1.658,1.658,0,1,0,2.345-2.345Z" transform="translate(-15.723 -4.024)"/>
            <path id="Path_633" data-name="Path 633" class="cls-6" d="M14.521,52.719l-9.4-9.4a1.658,1.658,0,1,1,2.345-2.345l9.4,9.4a1.658,1.658,0,0,1-2.345,2.345Z" transform="translate(-1.513 -13.211)"/>
            <path id="Path_634" data-name="Path 634" class="cls-7" d="M19.378,52.886l-4.7-4.7-2.345,2.345,4.7,4.7a1.658,1.658,0,0,0,2.345-2.345Z" transform="translate(-4.024 -15.723)"/>
            <path id="Path_635" data-name="Path 635" class="cls-6" d="M36.128,31.112l-9.4-9.4a1.658,1.658,0,0,1,2.345-2.345l9.4,9.4a1.658,1.658,0,1,1-2.345,2.345Z" transform="translate(-8.563 -6.161)"/>
            <path id="Path_636" data-name="Path 636" class="cls-7" d="M40.985,31.279l-4.7-4.7L33.94,28.924l4.7,4.7a1.658,1.658,0,0,0,2.345-2.345Z" transform="translate(-11.074 -8.672)"/>
            <path id="Path_637" data-name="Path 637" class="cls-1" d="M30.857,16.3c3.129.37,8.554.438,11.774-2.782a1.658,1.658,0,1,0-2.345-2.345c-2.272,2.272-6.87,2.211-10.044,1.691-.447-2.664-.7-7.634,1.7-10.032A1.658,1.658,0,1,0,29.6.486c-3.221,3.221-3.153,8.645-2.782,11.774C16.244,11.01,10.983,16.015,12.26,26.817,9.131,26.447,3.706,26.379.486,29.6a1.658,1.658,0,0,0,2.345,2.345c2.267-2.267,6.854-2.213,10.034-1.692.52,3.179.576,7.766-1.692,10.034a1.658,1.658,0,1,0,2.345,2.345c3.221-3.221,3.153-8.645,2.782-11.774C26.874,32.107,32.134,27.1,30.857,16.3Zm-3.436-.6c1.5,9.139-1.947,12.047-8.262,12.023a22.425,22.425,0,0,1-3.464-.3,22.418,22.418,0,0,1-.3-3.464C15.376,17.8,18.122,14.173,27.422,15.7Z" transform="translate(0 0)"/>
            <path id="Path_638" data-name="Path 638" class="cls-8" d="M21.476,36.033c10.573,1.25,15.834-3.755,14.557-14.557,3.129.37,8.554.438,11.774-2.782a1.658,1.658,0,1,0-2.345-2.345c-2.27,2.27-6.861,2.211-10.034,1.692L32.6,20.872c1.5,9.139-1.947,12.047-8.262,12.023a22.425,22.425,0,0,1-3.464-.3L18.04,35.428c.52,3.179.576,7.766-1.692,10.034a1.658,1.658,0,0,0,2.345,2.345C21.914,44.587,21.846,39.162,21.476,36.033Z" transform="translate(-5.176 -5.176)"/>
          </g>
        </g>
        <g id="Group_240" data-name="Group 240" transform="translate(19.86 20.008)">
          <g id="dna_-_2" data-name="dna - 2">
            <path id="Path_654" data-name="Path 654" class="cls-9" d="M21.077,26.27h1.346a8.657,8.657,0,0,0-1.373-2.28c-.371.024-.669.519-.669,1.136C20.381,25.757,20.693,26.27,21.077,26.27Z" transform="translate(-17.924 -18.831)"/>
            <path id="Path_656" data-name="Path 656" class="cls-10" d="M45.249,40.058,51.4,46.24a1.523,1.523,0,0,1,0,2.154L50.314,49.47a1.523,1.523,0,0,1-2.154,0L42.008,43.28Z" transform="translate(-28.71 -26.845)"/>
            <path id="Path_657" data-name="Path 657" class="cls-11" d="M41.986,43.281l3.242-3.242Z" transform="translate(-28.699 -26.835)"/>
            <path id="Path_658" data-name="Path 658" class="cls-1" d="M24.634,13.7a9.155,9.155,0,1,0,9.155,9.155A9.155,9.155,0,0,0,24.634,13.7Z" transform="translate(-15.479 -13.698)"/>
            <path id="Path_659" data-name="Path 659" class="cls-8" d="M33.348,27.513A6.876,6.876,0,0,1,26.92,32a6.89,6.89,0,0,1-6.244-4A6.87,6.87,0,0,1,26.9,18.265a6.889,6.889,0,0,1,6.242,4A6.817,6.817,0,0,1,33.348,27.513Z" transform="translate(-17.756 -15.976)"/>
            <path id="Path_662" data-name="Path 662" class="cls-5" d="M26.123,22.831,28.672,24.3v2.943l-2.549,1.472-2.549-1.472V24.3Z" transform="translate(-19.516 -18.253)"/>
            <path id="Path_663" data-name="Path 663" class="cls-7" d="M36.292,22.831,38.841,24.3v2.943l-2.549,1.472-2.549-1.472V24.3Z" transform="translate(-24.588 -18.253)"/>
            <path id="Path_664" data-name="Path 664" class="cls-4" d="M31.208,31.637l2.549,1.471v2.943l-2.549,1.472-2.549-1.472V33.108Z" transform="translate(-22.052 -22.645)"/>
            <path id="Path_665" data-name="Path 665" class="cls-12" d="M34.89,32.3l1.974,1.14Z" transform="translate(-25.16 -22.975)"/>
          </g>
        </g>
      </g>
      <g id="Group_472" data-name="Group 472" transform="translate(617.661 4082.023)">
        <g id="Rectangle_163" data-name="Rectangle 163" class="cls-13" transform="translate(0 0)">
          <rect class="cls-24" width="72.619" height="72.619" rx="6"/>
          <rect class="cls-25" x="2" y="2" width="68.619" height="68.619" rx="4"/>
        </g>
        <g id="Group_256" data-name="Group 256" transform="translate(9.077 10.212)">
          <text id="A" class="cls-14" transform="translate(6 13)"><tspan x="-6.138" y="0">A</tspan></text>
          <text id="T" class="cls-15" transform="translate(20.885 13)"><tspan x="-5.192" y="0">T</tspan></text>
          <text id="C" class="cls-15" transform="translate(34.367 13)"><tspan x="-6.138" y="0">C</tspan></text>
          <text id="G" class="cls-16" transform="translate(47.983 12)"><tspan x="-6.223" y="0">G</tspan></text>
          <text id="A-2" data-name="A" class="cls-15" transform="translate(6 32.289)"><tspan x="-6.138" y="0">A</tspan></text>
          <text id="T-2" data-name="T" class="cls-17" transform="translate(20.885 32.289)"><tspan x="-5.192" y="0">T</tspan></text>
          <text id="C-2" data-name="C" class="cls-15" transform="translate(34.367 32.289)"><tspan x="-6.138" y="0">C</tspan></text>
          <text id="G-2" data-name="G" class="cls-16" transform="translate(47.983 31.289)"><tspan x="-6.223" y="0">G</tspan></text>
          <text id="A-3" data-name="A" class="cls-15" transform="translate(6 50.444)"><tspan x="-6.138" y="0">A</tspan></text>
          <text id="T-3" data-name="T" class="cls-15" transform="translate(20.885 50.444)"><tspan x="-5.192" y="0">T</tspan></text>
          <text id="C-3" data-name="C" class="cls-15" transform="translate(34.367 50.444)"><tspan x="-6.138" y="0">C</tspan></text>
          <text id="G-3" data-name="G" class="cls-18" transform="translate(47.983 49.444)"><tspan x="-6.223" y="0">G</tspan></text>
        </g>
      </g>
      <text id="Genetic_sequencing" data-name="Genetic sequencing" class="cls-19" transform="translate(496 4151.295)"><tspan x="-44.197" y="0">Genetic sequencing</tspan></text>
      <path id="Path_712" data-name="Path 712" class="cls-20" d="M381.733,120H325" transform="translate(224.581 3998.332)"/>
      <g id="Group_477" data-name="Group 477" transform="translate(702.194 4006)">
        <path id="Path_713" data-name="Path 713" class="cls-21" d="M34.04,68.08H11.347Q0,68.08,0,56.733V0" transform="translate(6.808 87.937) rotate(-90)"/>
        <path id="Path_714" data-name="Path 714" class="cls-22" d="M6.241,0A6.241,6.241,0,1,1,0,6.241,6.241,6.241,0,0,1,6.241,0Z" transform="translate(0 93.61) rotate(-90)"/>
        <g id="Group_474" data-name="Group 474" transform="translate(53.897)">
          <circle id="Ellipse_296" data-name="Ellipse 296" class="cls-22" cx="21.559" cy="21.559" r="21.559"/>
          <text id="LDT" class="cls-15" transform="translate(20.404 27.751)"><tspan x="-16.523" y="0">LDT</tspan></text>
        </g>
      </g>
      <g id="Group_476" data-name="Group 476" transform="translate(702.194 4138.188)">
        <path id="Path_715" data-name="Path 715" class="cls-21" d="M68.08,34.04H11.347Q0,34.04,0,22.693V0" transform="translate(74.888 39.713) rotate(180)"/>
        <path id="Path_716" data-name="Path 716" class="cls-22" d="M6.241,0A6.241,6.241,0,1,1,0,6.241,6.241,6.241,0,0,1,6.241,0Z" transform="translate(0 12.481) rotate(-90)"/>
        <g id="Group_475" data-name="Group 475" transform="translate(53.897 50.493)">
          <circle id="Ellipse_296-2" data-name="Ellipse 296" class="cls-22" cx="21.559" cy="21.559" r="21.559"/>
          <text id="CLIA" class="cls-15" transform="translate(20 27.751)"><tspan x="-19.831" y="0">CLIA</tspan></text>
        </g>
      </g>
      <g id="Group_478" data-name="Group 478" transform="translate(702.194 4096.773)">
        <path id="Path_713-2" data-name="Path 713" class="cls-21" d="M0,93.043V0" transform="translate(6.808 22.126) rotate(-90)"/>
        <path id="Path_714-2" data-name="Path 714" class="cls-22" d="M6.241,0A6.241,6.241,0,1,1,0,6.241,6.241,6.241,0,0,1,6.241,0Z" transform="translate(0 27.799) rotate(-90)"/>
        <g id="Group_474-2" data-name="Group 474" transform="translate(111.765 0)">
          <circle id="Ellipse_296-3" data-name="Ellipse 296" class="cls-22" cx="21.559" cy="21.559" r="21.559"/>
          <text id="HIPAA" class="cls-23" transform="translate(19.135 26.02)"><tspan x="-18.226" y="0">HIPAA</tspan></text>
        </g>
      </g>
    </g>
  </g>
</svg>
