<svg xmlns="http://www.w3.org/2000/svg" xmlns:xlink="http://www.w3.org/1999/xlink" viewBox="-48 3970 1000 650"><defs><style>.a{clip-path:url(#f);}.b{fill:#353639;}.b,.c{opacity:0.8;}.d{fill:#e3e7ed;}.e{fill:#8effc7;}.f{fill:rgba(235,235,235,0.06);}.g{fill:#b5b5b5;font-size:16px;font-family:Roboto-Medium, Roboto;font-weight:500;}.h{fill:#26282b;}.i{fill:#d6ff00;font-size:18px;font-family:LucidaConsole, Lucida Console;}.j{fill:#fff;}.k{fill:#f54f9d;}.l{fill:#f8830e;}.m{fill:#34aeff;}.n{fill:#5c8de1;}.o{fill:#ff3835;}.p{fill:#ffb40e;}.q{fill:#82e508;}.r,.s{stroke:none;}.s{fill:#95989a;}.t{filter:url(#c);}.u{filter:url(#a);}</style><filter id="a" x="233" y="3967" width="719" height="437" filterUnits="userSpaceOnUse"><feOffset dy="8" input="SourceAlpha"/><feGaussianBlur stdDeviation="10" result="b"/><feFlood flood-opacity="0.161"/><feComposite operator="in" in2="b"/><feComposite in="SourceGraphic"/></filter><filter id="c" x="-48" y="4156" width="719" height="484" filterUnits="userSpaceOnUse"><feOffset dy="8" input="SourceAlpha"/><feGaussianBlur stdDeviation="10" result="d"/><feFlood flood-opacity="0.161"/><feComposite operator="in" in2="d"/><feComposite in="SourceGraphic"/></filter><clipPath id="f"><rect x="-48" y="3970" width="1000" height="650"/></clipPath></defs><g id="e" class="a"><g transform="translate(-784 1039)"><g transform="translate(294 519)"><g class="u" transform="matrix(1, 0, 0, 1, 490, -1558)"><rect class="b" width="659" height="377" rx="12" transform="translate(263 3989)"/></g><g class="c" transform="translate(774 2406)"><rect class="d" width="34.975" height="11.946" rx="2" transform="translate(27 77.958)"/><rect class="e" width="528.827" height="11.946" rx="2" transform="translate(72.491 77.85)"/><rect class="e" width="573.827" height="11.946" rx="2" transform="translate(27 99.85)"/><rect class="e" width="451" height="11.946" rx="2" transform="translate(27 121.85)"/></g><g class="c" transform="translate(774 2496)"><rect class="d" width="34.975" height="11.946" rx="2" transform="translate(27 77.958)"/><rect class="e" width="528.827" height="11.946" rx="2" transform="translate(72.491 77.85)"/><rect class="e" width="450.827" height="11.946" rx="2" transform="translate(27 99.85)"/></g><g class="c" transform="translate(774 2564)"><rect class="d" width="34.975" height="11.946" rx="2" transform="translate(27 77.958)"/><rect class="e" width="528.827" height="11.946" rx="2" transform="translate(72.491 77.85)"/><rect class="e" width="450.827" height="11.946" rx="2" transform="translate(27 99.85)"/></g><g transform="translate(-53 299)"><g class="f" transform="translate(1315 2464)"><path class="r" d="M 116 24.5 L -19 24.5 C -20.92990875244141 24.5 -22.5 22.92990875244141 -22.5 21 L -22.5 4 C -22.5 2.070091009140015 -20.92990875244141 0.5 -19 0.5 L 64.69313049316406 0.5 L 116 0.5 C 117.9299087524414 0.5 119.5 2.070091009140015 119.5 4 L 119.5 21 C 119.5 22.92990875244141 117.9299087524414 24.5 116 24.5 Z"/><path class="s" d="M 116 24 C 117.6541976928711 24 119 22.65419960021973 119 21 L 119 4 C 119 2.345799922943115 117.6541976928711 1 116 1 L 64.69312286376953 1 L -19 1 C -20.65419960021973 1 -22 2.345799922943115 -22 4 L -22 21 C -22 22.65419960021973 -20.65419960021973 24 -19 24 L 116 24 M 116 25 L -19 25 C -21.20914077758789 25 -23 23.20914077758789 -23 21 L -23 4 C -23 1.790860056877136 -21.20914077758789 -1.77635683940025e-15 -19 -1.77635683940025e-15 L 64.69312286376953 -1.77635683940025e-15 L 116 -1.77635683940025e-15 C 118.2091369628906 -1.77635683940025e-15 120 1.790860056877136 120 4 L 120 21 C 120 23.20914077758789 118.2091369628906 25 116 25 Z"/></g><text class="g" transform="translate(1363 2482)"><tspan x="-65.379" y="0">ixLAYER SERVERS</tspan></text></g></g><g transform="translate(-3 746)"><g transform="translate(0 10)"><g class="t" transform="matrix(1, 0, 0, 1, 787, -1795)"><path class="h" d="M12,0H647a12,12,0,0,1,12,12V424a0,0,0,0,1,0,0H0a0,0,0,0,1,0,0V12A12,12,0,0,1,12,0Z" transform="translate(-18 4178)"/></g><text class="i" transform="translate(791 2470)"><tspan x="0" y="14">import </tspan><tspan class="j" y="14">ixLayer</tspan><tspan class="j"><tspan x="0" y="45"></tspan></tspan><tspan class="k"><tspan x="0" y="76">class </tspan><tspan class="l" y="76">DNA-API</tspan><tspan class="j" y="76">:</tspan></tspan><tspan class="j"><tspan x="0" y="107" xml:space="preserve">    </tspan><tspan class="k" y="107">def </tspan><tspan class="l" y="107">__init__</tspan><tspan y="107">(</tspan><tspan class="m" y="107">self</tspan><tspan y="107">, UUID, product, type):</tspan><tspan x="0" y="138" xml:space="preserve">        </tspan><tspan class="m" y="138">self</tspan><tspan y="138">.</tspan><tspan class="m" y="138">UUID</tspan><tspan y="138" xml:space="preserve"> = UUID</tspan><tspan x="0" y="169" xml:space="preserve">        </tspan><tspan class="m" y="169">self</tspan><tspan y="169">.</tspan><tspan class="m" y="169">product</tspan><tspan y="169" xml:space="preserve"> = product</tspan><tspan x="0" y="200" xml:space="preserve">        </tspan><tspan class="m" y="200">self</tspan><tspan y="200">.</tspan><tspan class="m" y="200">type</tspan><tspan y="200" xml:space="preserve"> = type</tspan><tspan x="0" y="231"></tspan><tspan x="0" y="262" xml:space="preserve">   </tspan><tspan class="k" y="262">def </tspan><tspan class="l" y="262">getSequencing</tspan><tspan y="262">(</tspan><tspan class="m" y="262">self</tspan><tspan y="262">):</tspan><tspan x="0" y="293" xml:space="preserve">        base = </tspan><tspan class="m" y="293">self</tspan><tspan y="293">.</tspan><tspan class="l" y="293">referenceBase</tspan><tspan y="293">()</tspan></tspan></text></g><g transform="translate(0 1)"><path class="n" d="M12,0H647a12,12,0,0,1,12,12V48a0,0,0,0,1,0,0H0a0,0,0,0,1,0,0V12A12,12,0,0,1,12,0Z" transform="translate(769 2392)"/><path class="o" d="M9,0A9,9,0,1,1,0,9,9,9,0,0,1,9,0Z" transform="translate(791 2407)"/><circle class="p" cx="9" cy="9" r="9" transform="translate(821 2407)"/><circle class="q" cx="9" cy="9" r="9" transform="translate(851 2407)"/></g><g transform="translate(-8 310)"><g class="f" transform="translate(1315 2464)"><path class="r" d="M 89 24.5 L 7 24.5 C 5.070094108581543 24.5 3.5 22.92990493774414 3.5 21 L 3.5 4 C 3.5 2.070094108581543 5.070094108581543 0.5 7 0.5 L 89 0.5 C 90.92990875244141 0.5 92.5 2.070094108581543 92.5 4 L 92.5 21 C 92.5 22.92990493774414 90.92990875244141 24.5 89 24.5 Z"/><path class="s" d="M 89 24 C 90.65419769287109 24 92 22.65419960021973 92 21 L 92 4 C 92 2.345799922943115 90.65419769287109 1 89 1 L 7 1 C 5.345799922943115 1 4 2.345799922943115 4 4 L 4 21 C 4 22.65419960021973 5.345799922943115 24 7 24 L 89 24 M 89 25 L 7 25 C 4.790862560272217 25 3 23.20913696289063 3 21 L 3 4 C 3 1.790862441062927 4.790862560272217 0 7 0 L 89 0 C 91.20913696289063 0 93 1.790862441062927 93 4 L 93 21 C 93 23.20913696289063 91.20913696289063 25 89 25 Z"/></g><text class="g" transform="translate(1363 2482)"><tspan x="-38.035" y="0">YOUR APP</tspan></text></g></g></g></g></svg>