<svg xmlns="http://www.w3.org/2000/svg" xmlns:xlink="http://www.w3.org/1999/xlink" viewBox="-741 5860 420 300"><defs><style>.a{clip-path:url(#h);}.b{opacity:0.2;}.c,.f{fill:#fff;}.d{fill:#dbdbdb;}.e{fill:#34aeff;}.f,.n{font-size:12px;}.f{font-family:Antipasto-ExtraLight, Antipasto;font-weight:200;letter-spacing:0.045em;}.g{opacity:0.91;}.h{fill:#ffdb77;}.i{fill:#ff905e;}.j{fill:#28d2e4;}.k{fill:#28c3e4;}.l,.p{fill:none;stroke-miterlimit:10;stroke-width:3px;}.l{stroke:#b5b5b5;}.m{fill:#b5b5b5;}.n{fill:#555;font-family:Quicksand-Bold, Quicksand;font-weight:700;}.o{opacity:0.6;}.p{stroke:#34ffd6;}.q{fill:#34ffd6;}.r{filter:url(#e);}.s{filter:url(#c);}.t{filter:url(#a);}</style><filter id="a" x="-510" y="5943.003" width="158.425" height="102.015" filterUnits="userSpaceOnUse"><feOffset dy="3" input="SourceAlpha"/><feGaussianBlur stdDeviation="3" result="b"/><feFlood flood-opacity="0.161"/><feComposite operator="in" in2="b"/><feComposite in="SourceGraphic"/></filter><filter id="c" x="-560" y="5995.003" width="158.425" height="102.015" filterUnits="userSpaceOnUse"><feOffset dy="3" input="SourceAlpha"/><feGaussianBlur stdDeviation="3" result="d"/><feFlood flood-opacity="0.161"/><feComposite operator="in" in2="d"/><feComposite in="SourceGraphic"/></filter><filter id="e" x="-610" y="6047.003" width="158.425" height="102.015" filterUnits="userSpaceOnUse"><feOffset dy="3" input="SourceAlpha"/><feGaussianBlur stdDeviation="3" result="f"/><feFlood flood-opacity="0.161"/><feComposite operator="in" in2="f"/><feComposite in="SourceGraphic"/></filter><clipPath id="h"><rect x="-741" y="5860" width="420" height="300"/></clipPath></defs><g id="g" class="a"><g transform="translate(-2105 2779)"><g class="b" transform="translate(389 -2)"><g transform="translate(1026 1369)"><g transform="translate(-755 1050)"><g class="t" transform="matrix(1, 0, 0, 1, 1445, -5196)"><rect class="c" width="140.425" height="84.015" rx="2" transform="translate(-501 5949)"/></g><rect class="d" width="26" height="10" rx="5" transform="translate(1023 823)"/><rect class="d" width="26" height="10" rx="5" transform="translate(1054 823)"/><path class="e" d="M2,0H138.425a2,2,0,0,1,2,2V27.015a0,0,0,0,1,0,0H0a0,0,0,0,1,0,0V2A2,2,0,0,1,2,0Z" transform="translate(944 753.003)"/></g><g transform="translate(165.064 1709.003)"><g transform="translate(62.581 101)"><text class="f" transform="translate(0 11)"><tspan x="0" y="0">Genetic Product</tspan></text></g><g class="g" transform="translate(48.667 101.366)"><path class="h" d="M154.044,213.642,151.2,210.8a.5.5,0,1,1,.71-.71l2.844,2.844a.5.5,0,1,1-.71.71Z" transform="translate(-147.204 -204.591)"/><path class="i" d="M214.764,272.941l-1.422-1.422-.71.71,1.422,1.422a.5.5,0,0,0,.71-.71Z" transform="translate(-207.214 -264.6)"/><path class="h" d="M326.9,40.785l-2.844-2.844a.5.5,0,1,1,.71-.71l2.844,2.844a.5.5,0,0,1-.71.71Z" transform="translate(-315.656 -36.139)"/><path class="i" d="M387.62,100.085,386.2,98.663l-.71.71,1.422,1.422a.5.5,0,1,0,.71-.71Z" transform="translate(-375.666 -96.149)"/><path class="j" d="M40.077,327.614l-2.844-2.844a.5.5,0,1,1,.71-.71l2.844,2.844a.5.5,0,0,1-.71.71Z" transform="translate(-36.141 -315.66)"/><path class="k" d="M100.795,386.91l-1.422-1.422-.71.71,1.422,1.422a.5.5,0,1,0,.71-.71Z" transform="translate(-96.149 -375.665)"/><path class="j" d="M212.931,154.754l-2.844-2.844a.5.5,0,1,1,.71-.71l2.844,2.844a.5.5,0,0,1-.71.71Z" transform="translate(-204.59 -147.204)"/><path class="k" d="M273.652,214.054l-1.422-1.422-.71.71,1.422,1.422a.5.5,0,0,0,.71-.71Z" transform="translate(-264.602 -207.214)"/><path class="c" d="M9.338,4.932A4.435,4.435,0,0,0,12.9,4.09a.5.5,0,1,0-.71-.71c-.687.687-2.079.669-3.039.512-.135-.806-.211-2.31.515-3.036a.5.5,0,0,0-.71-.71,4.435,4.435,0,0,0-.842,3.563c-3.2-.378-4.791,1.136-4.4,4.4a4.435,4.435,0,0,0-3.563.842.5.5,0,0,0,.71.71c.686-.686,2.074-.67,3.036-.512.157.962.174,2.35-.512,3.036a.5.5,0,0,0,.71.71,4.435,4.435,0,0,0,.842-3.563C8.133,9.715,9.725,8.2,9.338,4.932ZM8.3,4.749c.452,2.765-.589,3.645-2.5,3.638A6.785,6.785,0,0,1,4.751,8.3a6.783,6.783,0,0,1-.09-1.048C4.654,5.384,5.485,4.288,8.3,4.749Z" transform="translate(-0.002 0)"/></g></g></g><path class="l" d="M415,120H345q-10,0-10-10V60" transform="translate(797.5 3092.5)"/><path class="m" d="M5.5,0A5.5,5.5,0,1,1,0,5.5,5.5,5.5,0,0,1,5.5,0Z" transform="translate(1209.5 3217.5) rotate(-90)"/><g transform="translate(122 -304)"><path class="m" d="M19,0A19,19,0,1,1,0,19,19,19,0,0,1,19,0Z" transform="translate(992 3409)"/><text class="n" transform="translate(1011 3433)"><tspan x="-11.838" y="0">v0.9</tspan></text></g></g><g class="o" transform="translate(339 50)"><g transform="translate(1026 1369)"><g transform="translate(-755 1050)"><g class="s" transform="matrix(1, 0, 0, 1, 1495, -5248)"><rect class="c" width="140.425" height="84.015" rx="2" transform="translate(-551 6001)"/></g><rect class="d" width="26" height="10" rx="5" transform="translate(1023 823)"/><rect class="d" width="26" height="10" rx="5" transform="translate(1054 823)"/><path class="e" d="M2,0H138.425a2,2,0,0,1,2,2V27.015a0,0,0,0,1,0,0H0a0,0,0,0,1,0,0V2A2,2,0,0,1,2,0Z" transform="translate(944 753.003)"/></g><g transform="translate(165.064 1709.003)"><g transform="translate(62.581 101)"><text class="f" transform="translate(0 11)"><tspan x="0" y="0">Genetic Product</tspan></text></g><g class="g" transform="translate(48.667 101.366)"><path class="h" d="M154.044,213.642,151.2,210.8a.5.5,0,1,1,.71-.71l2.844,2.844a.5.5,0,1,1-.71.71Z" transform="translate(-147.204 -204.591)"/><path class="i" d="M214.764,272.941l-1.422-1.422-.71.71,1.422,1.422a.5.5,0,0,0,.71-.71Z" transform="translate(-207.214 -264.6)"/><path class="h" d="M326.9,40.785l-2.844-2.844a.5.5,0,1,1,.71-.71l2.844,2.844a.5.5,0,0,1-.71.71Z" transform="translate(-315.656 -36.139)"/><path class="i" d="M387.62,100.085,386.2,98.663l-.71.71,1.422,1.422a.5.5,0,1,0,.71-.71Z" transform="translate(-375.666 -96.149)"/><path class="j" d="M40.077,327.614l-2.844-2.844a.5.5,0,1,1,.71-.71l2.844,2.844a.5.5,0,0,1-.71.71Z" transform="translate(-36.141 -315.66)"/><path class="k" d="M100.795,386.91l-1.422-1.422-.71.71,1.422,1.422a.5.5,0,1,0,.71-.71Z" transform="translate(-96.149 -375.665)"/><path class="j" d="M212.931,154.754l-2.844-2.844a.5.5,0,1,1,.71-.71l2.844,2.844a.5.5,0,0,1-.71.71Z" transform="translate(-204.59 -147.204)"/><path class="k" d="M273.652,214.054l-1.422-1.422-.71.71,1.422,1.422a.5.5,0,0,0,.71-.71Z" transform="translate(-264.602 -207.214)"/><path class="c" d="M9.338,4.932A4.435,4.435,0,0,0,12.9,4.09a.5.5,0,1,0-.71-.71c-.687.687-2.079.669-3.039.512-.135-.806-.211-2.31.515-3.036a.5.5,0,0,0-.71-.71,4.435,4.435,0,0,0-.842,3.563c-3.2-.378-4.791,1.136-4.4,4.4a4.435,4.435,0,0,0-3.563.842.5.5,0,0,0,.71.71c.686-.686,2.074-.67,3.036-.512.157.962.174,2.35-.512,3.036a.5.5,0,0,0,.71.71,4.435,4.435,0,0,0,.842-3.563C8.133,9.715,9.725,8.2,9.338,4.932ZM8.3,4.749c.452,2.765-.589,3.645-2.5,3.638A6.785,6.785,0,0,1,4.751,8.3a6.783,6.783,0,0,1-.09-1.048C4.654,5.384,5.485,4.288,8.3,4.749Z" transform="translate(-0.002 0)"/></g></g></g><path class="l" d="M415,120H345q-10,0-10-10V60" transform="translate(797.5 3092.5)"/><path class="m" d="M5.5,0A5.5,5.5,0,1,1,0,5.5,5.5,5.5,0,0,1,5.5,0Z" transform="translate(1209.5 3217.5) rotate(-90)"/><g transform="translate(122 -304)"><path class="m" d="M19,0A19,19,0,1,1,0,19,19,19,0,0,1,19,0Z" transform="translate(992 3409)"/><text class="n" transform="translate(1011 3433)"><tspan x="-10.734" y="0">v1.0</tspan></text></g></g><g transform="translate(289 102)"><g transform="translate(1026 1369)"><g transform="translate(-755 1050)"><g class="r" transform="matrix(1, 0, 0, 1, 1545, -5300)"><rect class="c" width="140.425" height="84.015" rx="2" transform="translate(-601 6053)"/></g><rect class="d" width="26" height="10" rx="5" transform="translate(1023 823)"/><rect class="d" width="26" height="10" rx="5" transform="translate(1054 823)"/><path class="e" d="M2,0H138.425a2,2,0,0,1,2,2V27.015a0,0,0,0,1,0,0H0a0,0,0,0,1,0,0V2A2,2,0,0,1,2,0Z" transform="translate(944 753.003)"/></g><g transform="translate(165.064 1709.003)"><g transform="translate(62.581 101)"><text class="f" transform="translate(0 11)"><tspan x="0" y="0">Genetic Product</tspan></text></g><g class="g" transform="translate(48.667 101.366)"><path class="h" d="M154.044,213.642,151.2,210.8a.5.5,0,1,1,.71-.71l2.844,2.844a.5.5,0,1,1-.71.71Z" transform="translate(-147.204 -204.591)"/><path class="i" d="M214.764,272.941l-1.422-1.422-.71.71,1.422,1.422a.5.5,0,0,0,.71-.71Z" transform="translate(-207.214 -264.6)"/><path class="h" d="M326.9,40.785l-2.844-2.844a.5.5,0,1,1,.71-.71l2.844,2.844a.5.5,0,0,1-.71.71Z" transform="translate(-315.656 -36.139)"/><path class="i" d="M387.62,100.085,386.2,98.663l-.71.71,1.422,1.422a.5.5,0,1,0,.71-.71Z" transform="translate(-375.666 -96.149)"/><path class="j" d="M40.077,327.614l-2.844-2.844a.5.5,0,1,1,.71-.71l2.844,2.844a.5.5,0,0,1-.71.71Z" transform="translate(-36.141 -315.66)"/><path class="k" d="M100.795,386.91l-1.422-1.422-.71.71,1.422,1.422a.5.5,0,1,0,.71-.71Z" transform="translate(-96.149 -375.665)"/><path class="j" d="M212.931,154.754l-2.844-2.844a.5.5,0,1,1,.71-.71l2.844,2.844a.5.5,0,0,1-.71.71Z" transform="translate(-204.59 -147.204)"/><path class="k" d="M273.652,214.054l-1.422-1.422-.71.71,1.422,1.422a.5.5,0,0,0,.71-.71Z" transform="translate(-264.602 -207.214)"/><path class="c" d="M9.338,4.932A4.435,4.435,0,0,0,12.9,4.09a.5.5,0,1,0-.71-.71c-.687.687-2.079.669-3.039.512-.135-.806-.211-2.31.515-3.036a.5.5,0,0,0-.71-.71,4.435,4.435,0,0,0-.842,3.563c-3.2-.378-4.791,1.136-4.4,4.4a4.435,4.435,0,0,0-3.563.842.5.5,0,0,0,.71.71c.686-.686,2.074-.67,3.036-.512.157.962.174,2.35-.512,3.036a.5.5,0,0,0,.71.71,4.435,4.435,0,0,0,.842-3.563C8.133,9.715,9.725,8.2,9.338,4.932ZM8.3,4.749c.452,2.765-.589,3.645-2.5,3.638A6.785,6.785,0,0,1,4.751,8.3a6.783,6.783,0,0,1-.09-1.048C4.654,5.384,5.485,4.288,8.3,4.749Z" transform="translate(-0.002 0)"/></g></g></g><path class="p" d="M415,120H345q-10,0-10-10V60" transform="translate(797.5 3092.5)"/><path class="q" d="M5.5,0A5.5,5.5,0,1,1,0,5.5,5.5,5.5,0,0,1,5.5,0Z" transform="translate(1209.5 3217.5) rotate(-90)"/><g transform="translate(122 -304)"><path class="q" d="M19,0A19,19,0,1,1,0,19,19,19,0,0,1,19,0Z" transform="translate(992 3409)"/><text class="n" transform="translate(1011 3433)"><tspan x="-9.234" y="0">v1.1</tspan></text></g></g></g></g></svg>