<?xml version="1.0" encoding="utf-8"?>
<!-- Generator: Adobe Illustrator 21.0.1, SVG Export Plug-In . SVG Version: 6.00 Build 0)  -->
<svg version="1.1" id="Слой_1" xmlns="http://www.w3.org/2000/svg" xmlns:xlink="http://www.w3.org/1999/xlink" x="0px" y="0px"
	 viewBox="0 0 420 255" style="enable-background:new 0 0 420 255;" xml:space="preserve">
<style type="text/css">
	.st0{fill:none;}
	.st1{clip-path:url(#SVGID_2_);}
	.st2{fill:#FFFFFF;}
	.st3{opacity:0.94;}
	.st4{fill:#B5B5B5;}
	.st5{fill:#88C5FC;}
	.st6{fill:#C78BC5;}
	.st7{fill:#F9A18A;}
	.st8{fill:#F7E88B;}
	.st9{fill:#686868;}
	.st10{font-family:'TrebuchetMS';}
	.st11{font-size:10px;}
	.st12{opacity:0.89;fill:#C17DBE;enable-background:new    ;}
	.st13{fill:none;stroke:#34AEFF;stroke-width:3;stroke-miterlimit:10;}
	.st14{fill:#34AEFF;}
	.st15{font-family:'ArialMT';}
	.st16{fill:url(#health-kit-logo_1_);}
</style>
<pattern  y="289" width="393" height="437" patternUnits="userSpaceOnUse" id="pattern" viewBox="0 -437 393 437" style="overflow:visible;">
	<g>
		<rect y="-437" class="st0" width="393" height="437"/>
		
			<image style="overflow:visible;enable-background:new    ;" width="393" height="437" xlink:href="6797FD77.png"  transform="matrix(1 0 0 -1 0 0)">
		</image>
	</g>
</pattern>
<g>
	<defs>
		<rect id="SVGID_1_" y="-11" width="420" height="300"/>
	</defs>
	<clipPath id="SVGID_2_">
		<use xlink:href="#SVGID_1_"  style="overflow:visible;"/>
	</clipPath>
	<g id="ixAnypoint-apple-ecosystem_1" class="st1">
		<g id="Group_741" transform="translate(-1193 6582)">
			<g id="Group_399" transform="translate(504 1569.468)">
				<g transform="matrix(1, 0, 0, 1, 689, -8151.47)">
					<path id="Rectangle_149-2" class="st2" d="M53,89.5h147.6c2.2,0,4,1.8,4,4v89c0,2.2-1.8,4-4,4H53c-2.2,0-4-1.8-4-4v-89
						C49,91.3,50.8,89.5,53,89.5z"/>
				</g>
				<g id="Group_353" transform="translate(10.751 68.529)" class="st3">
					<path id="Rectangle_19" class="st4" d="M741.5-8062h13c1.9,0,3.5,1.6,3.5,3.5l0,0c0,1.9-1.6,3.5-3.5,3.5h-13
						c-1.9,0-3.5-1.6-3.5-3.5l0,0C738-8060.4,739.6-8062,741.5-8062z"/>
					<path id="Rectangle_20" class="st5" d="M767.7-8062h36.9c1.9,0,3.5,1.6,3.5,3.5l0,0c0,1.9-1.6,3.5-3.5,3.5h-36.9
						c-1.9,0-3.5-1.6-3.5-3.5l0,0C764.3-8060.5,765.8-8062,767.7-8062z"/>
					<path id="Rectangle_21" class="st6" d="M741.5-8049.9h55.2c1.9,0,3.5,1.6,3.5,3.5l0,0c0,1.9-1.6,3.5-3.5,3.5h-55.2
						c-1.9,0-3.5-1.6-3.5-3.5l0,0C738-8048.3,739.6-8049.9,741.5-8049.9z"/>
					<path id="Rectangle_95" class="st7" d="M817.9-8062h11.2c1.9,0,3.5,1.6,3.5,3.5l0,0c0,1.9-1.6,3.5-3.5,3.5h-11.2
						c-1.9,0-3.5-1.6-3.5-3.5l0,0C814.5-8060.5,816-8062,817.9-8062z"/>
					<path id="Rectangle_96" class="st8" d="M841.8-8062h26.6c1.9,0,3.5,1.6,3.5,3.5l0,0c0,1.9-1.6,3.5-3.5,3.5h-26.6
						c-1.9,0-3.5-1.6-3.5-3.5l0,0C838.3-8060.5,839.9-8062,841.8-8062z"/>
				</g>
				<g id="ixlayer-logo" transform="translate(34.642 21.774)">
					<text transform="matrix(1 0 0 1 770.124 -8052.5981)" class="st9 st10 st11">ixlayer</text>
					<path id="Path_4" class="st12" d="M738-8046.7l13.9-4.5l13.8,4.5l-13.8,4.5L738-8046.7z"/>
					<path id="Path_3" class="st8" d="M738-8051.6l13.9-4.5l13.8,4.5l-13.8,4.5L738-8051.6z"/>
					<path id="Path_2" class="st7" d="M738-8054.5l13.9-4.5l13.8,4.5l-13.8,4.5L738-8054.5z"/>
					<path id="Path_1" class="st5" d="M738-8057.5l13.9-4.5l13.8,4.5l-13.8,4.5L738-8057.5z"/>
				</g>
			</g>
			<path id="Path_566" class="st13" d="M1469.6-6508.1v23.1c0,7.7-4,11.5-11.9,11.5h-59.7"/>
			<path id="Path_567" class="st14" d="M1390.7-6474.1c0.1-3.6,3-6.4,6.6-6.3c3.6-0.1,6.5,2.8,6.6,6.4c-0.1,3.6-3,6.4-6.6,6.3
				C1393.7-6467.7,1390.8-6470.5,1390.7-6474.1z"/>
			<path id="Path_568" class="st13" d="M1397.9-6415.7h59.7c8,0,11.9,3.8,11.9,11.5v23.1"/>
			<path id="Path_569" class="st14" d="M1390.7-6415.2c0.1-3.6,3-6.4,6.6-6.3c3.6-0.1,6.5,2.8,6.6,6.4c-0.1,3.6-3,6.4-6.6,6.3
				C1393.7-6408.8,1390.8-6411.6,1390.7-6415.2z"/>
			<path id="Path_570" class="st13" d="M1397.9-6444.6h95.6"/>
			<path id="Path_571" class="st14" d="M1390.7-6444c0.1-3.6,3-6.4,6.6-6.3c3.6-0.1,6.5,2.8,6.6,6.4c-0.1,3.6-3,6.4-6.6,6.3
				C1393.7-6437.6,1390.8-6440.5,1390.7-6444z"/>
			
				<image style="overflow:visible;enable-background:new    ;" width="256" height="257" id="researchkit-icon" xlink:href="6797FD75.png"  transform="matrix(0.1805 0 0 0.1805 1446.2671 -6372.4316)">
			</image>
			<text transform="matrix(1 0 0 1 1418.993 -6310.1509)" class="st2 st15 st11">Apple Research Kit</text>
			<g id="apple" transform="translate(714.24 1484)">
				<path id="Path_233" class="st2" d="M766.3-8039.9c0-3.2,1.7-6.2,4.5-7.9c-1.7-2.5-4.6-4-7.6-4.1c-3.2-0.3-6.3,1.9-8,1.9
					s-4.2-1.9-6.9-1.8c-3.6,0.1-6.9,2.1-8.6,5.2c-3.7,6.4-0.9,15.8,2.6,20.9c1.7,2.5,3.8,5.4,6.6,5.3c2.6-0.1,3.6-1.7,6.8-1.7
					c3.2,0,4.1,1.7,6.9,1.7c2.8-0.1,4.6-2.6,6.4-5.1c1.2-1.8,2.2-3.8,2.9-5.9C768.5-8032.9,766.3-8036.3,766.3-8039.9z M761-8055.4
					c1.6-1.8,2.3-4.2,2.2-6.6c-2.4,0.2-4.6,1.4-6.1,3.1c-1.6,1.8-2.4,4.1-2.2,6.4C757.3-8052.4,759.6-8053.5,761-8055.4z"/>
			</g>
			<text transform="matrix(1 0 0 1 1443.642 -6522.6577)" class="st2 st15 st11">Apple IAP</text>
			<text transform="matrix(1 0 0 1 1491.8059 -6407.165)" class="st2 st15 st11">Apple Health Kit</text>
			<pattern  id="health-kit-logo_1_" xlink:href="#pattern" patternTransform="matrix(0.1059 0 0 -0.1057 -7590.1074 -17242.9609)">
			</pattern>
			<rect id="health-kit-logo" x="1513.2" y="-6468.3" class="st16" width="41.6" height="46.2"/>
		</g>
	</g>
</g>
</svg>
