<?xml version="1.0" encoding="utf-8"?>
<!-- Generator: Adobe Illustrator 21.0.1, SVG Export Plug-In . SVG Version: 6.00 Build 0)  -->
<svg version="1.1" id="Слой_1" xmlns="http://www.w3.org/2000/svg" xmlns:xlink="http://www.w3.org/1999/xlink" x="0px" y="0px"
	 viewBox="0 0 420 253" style="enable-background:new 0 0 420 253;" xml:space="preserve">
<style type="text/css">
	.st0{clip-path:url(#SVGID_2_);}
	.st1{fill:#FFFFFF;}
	.st2{fill:#DBDBDB;}
	.st3{fill:#34AEFF;}
	.st4{font-family:'ArialMT';}
	.st5{font-size:17px;}
	.st6{opacity:0.91;}
	.st7{fill:#FFDB77;}
	.st8{fill:#FF905E;}
	.st9{fill:#28D2E4;}
	.st10{fill:#28C3E4;}
	.st11{fill:none;stroke:#34AEFF;stroke-width:3;stroke-miterlimit:10;}
	.st12{opacity:0.45;fill:#34AEFF;enable-background:new    ;}
	.st13{fill:#00769D;}
	.st14{font-size:13px;}
</style>
<g>
	<defs>
		<rect id="SVGID_1_" y="-23" width="420" height="300"/>
	</defs>
	<clipPath id="SVGID_2_">
		<use xlink:href="#SVGID_1_"  style="overflow:visible;"/>
	</clipPath>
	<g id="ixAnypoint-plugins_1" class="st0">
		<g id="Group_763" transform="translate(766 5032.997)">
			<g id="Group_420" transform="translate(606.871 3041.003)">
				<g id="Group_365" transform="translate(0 0)">
					<g id="Group_302">
						<g transform="matrix(1, 0, 0, 1, -1372.87, -8074)">
							<path id="Rectangle_84-2" class="st1" d="M152.9,0h206.3c1.1,0,2,0.9,2,2v122.8c0,1.1-0.9,2-2,2H152.9c-1.1,0-2-0.9-2-2V2
								C150.9,0.9,151.8,0,152.9,0z"/>
						</g>
						<g id="Group_223" transform="translate(118.336 105.679)">
							<path id="Rectangle_85" class="st2" d="M-1214.5-8074h23.8c4.2,0,7.5,3.4,7.5,7.5l0,0c0,4.2-3.4,7.5-7.5,7.5h-23.8
								c-4.2,0-7.5-3.4-7.5-7.5l0,0C-1222-8070.6-1218.6-8074-1214.5-8074z"/>
							<path id="Rectangle_86" class="st2" d="M-1168-8074h23.8c4.2,0,7.5,3.4,7.5,7.5l0,0c0,4.2-3.4,7.5-7.5,7.5h-23.8
								c-4.2,0-7.5-3.4-7.5-7.5l0,0C-1175.6-8070.6-1172.2-8074-1168-8074z"/>
						</g>
						<path id="Rectangle_154" class="st3" d="M-1220-8074h206.3c1.1,0,2,0.9,2,2v38.8l0,0H-1222l0,0v-38.8
							C-1222-8073.1-1221.1-8074-1220-8074z"/>
					</g>
					<g id="Group_364" transform="translate(37.046 11.121)">
						<g id="Group_62" transform="translate(20.841 2.467)">
							<text transform="matrix(1 0 0 1 -1222 -8061)" class="st1 st4 st5">Genetic Product</text>
						</g>
						<g id="dna" transform="translate(0 0)" class="st6">
							<path id="Path_89" class="st7" d="M-1211.8-8060.4l-4.3-4.3c-0.3-0.3-0.3-0.8,0-1.1c0.3-0.3,0.8-0.3,1.1,0c0,0,0,0,0,0
								l4.3,4.3c0.3,0.3,0.3,0.8,0,1.1C-1211-8060.2-1211.5-8060.2-1211.8-8060.4z"/>
							<path id="Path_90" class="st8" d="M-1210.7-8061.5l-2.1-2.1l-1.1,1.1l2.1,2.1c0.3,0.3,0.8,0.3,1.1,0
								S-1210.4-8061.2-1210.7-8061.5C-1210.7-8061.5-1210.7-8061.5-1210.7-8061.5z"/>
							<path id="Path_91" class="st7" d="M-1205.2-8067l-4.3-4.3c-0.3-0.3-0.3-0.8,0-1.1c0.3-0.3,0.7-0.3,1,0l4.3,4.3
								c0.3,0.3,0.3,0.8,0,1.1C-1204.3-8066.7-1204.8-8066.7-1205.2-8067C-1205.1-8067-1205.1-8067-1205.2-8067z"/>
							<path id="Path_92" class="st8" d="M-1204.1-8068.1l-2.1-2.1l-1.1,1.1l2.1,2.1c0.3,0.3,0.8,0.3,1.1,0
								C-1203.8-8067.4-1203.8-8067.8-1204.1-8068.1z"/>
							<path id="Path_93" class="st9" d="M-1216.1-8056.1l-4.3-4.3c-0.3-0.3-0.3-0.8,0-1.1c0.3-0.3,0.8-0.3,1.1,0c0,0,0,0,0,0
								l4.3,4.3c0.3,0.3,0.3,0.8,0,1.1C-1215.4-8055.8-1215.8-8055.8-1216.1-8056.1z"/>
							<path id="Path_94" class="st10" d="M-1215-8057.2l-2.1-2.1l-1.1,1.1l2.1,2.1c0.3,0.3,0.8,0.3,1.1,0
								S-1214.7-8056.8-1215-8057.2C-1215-8057.1-1215-8057.1-1215-8057.2z"/>
							<path id="Path_95" class="st9" d="M-1209.5-8062.7l-4.3-4.3c-0.3-0.3-0.3-0.8,0-1.1c0.3-0.3,0.8-0.3,1.1,0c0,0,0,0,0,0
								l4.3,4.3c0.3,0.3,0.3,0.8,0,1.1C-1208.8-8062.4-1209.2-8062.4-1209.5-8062.7z"/>
							<path id="Path_96" class="st10" d="M-1208.4-8063.8l-2.1-2.1l-1.1,1.1l2.1,2.1c0.3,0.3,0.8,0.3,1.1,0
								S-1208.1-8063.4-1208.4-8063.8C-1208.4-8063.7-1208.4-8063.7-1208.4-8063.8z"/>
							<path id="Path_97" class="st1" d="M-1208-8066.6c1.4,0.2,3.9,0.2,5.3-1.3c0.3-0.3,0.3-0.8,0-1.1c-0.3-0.3-0.7-0.3-1,0
								c-1,1-3.1,1-4.6,0.8c-0.2-1.2-0.3-3.5,0.8-4.5c0.3-0.3,0.3-0.8,0-1.1c-0.3-0.3-0.7-0.3-1,0c-1.5,1.5-1.4,3.9-1.3,5.3
								c-4.8-0.6-7.2,1.7-6.6,6.6c-1.4-0.2-3.9-0.2-5.3,1.3c-0.3,0.3-0.3,0.8,0,1.1c0.3,0.3,0.7,0.3,1,0c1-1,3.1-1,4.5-0.8
								c0.2,1.4,0.3,3.5-0.8,4.5c-0.3,0.3-0.3,0.8,0,1.1c0.3,0.3,0.7,0.3,1,0c1.5-1.5,1.4-3.9,1.3-5.3
								C-1209.8-8059.4-1207.4-8061.7-1208-8066.6z M-1209.6-8066.9c0.7,4.1-0.9,5.5-3.7,5.4c-0.5,0-1.1,0-1.6-0.1
								c-0.1-0.5-0.1-1-0.1-1.6C-1215-8065.9-1213.8-8067.6-1209.6-8066.9z"/>
						</g>
					</g>
				</g>
			</g>
			<path id="Path_674" class="st11" d="M-649.6-4888.1v-43.8c0-10.1,2.9-15.1,12.9-15.1h53"/>
			<path id="Path_675" class="st12" d="M-559-4969.6c12,0,21.7,9.7,21.7,21.7s-9.7,21.7-21.7,21.7c-12,0-21.7-9.7-21.7-21.7
				S-571-4969.6-559-4969.6C-559-4969.6-559-4969.6-559-4969.6z"/>
			<g id="Group_421" transform="translate(536.469 3201.033)">
				<circle id="Ellipse_168" class="st1" cx="-1186.1" cy="-8038" r="34.5"/>
				<g id="wordpress" transform="translate(0)">
					<path id="Path_328" class="st13" d="M-1200.4-8051.8h-4l10.8,30.6l6.1-17.3l-4.7-13.3h-4.2v-2.9h18.6v2.9h-4.3l10.8,30.6
						l3.9-11.1c5.1-14.2-4.2-18.7-4.2-21.9s2.6-5.8,5.8-5.8c0.2,0,0.3,0,0.5,0c-12.1-11.4-31.1-10.9-42.5,1.2
						c-1.2,1.2-2.2,2.6-3.2,4h10.7C-1200.4-8054.7-1200.4-8051.8-1200.4-8051.8z"/>
					<path id="Path_329" class="st13" d="M-1216.1-8038c0,11.1,6.1,21.4,16,26.6l-13.6-38.4
						C-1215.3-8046.1-1216.1-8042.1-1216.1-8038z"/>
					<path id="Path_330" class="st13" d="M-1159.9-8052.9c0.4,2.7,0.3,5.5-0.4,8.2h0.1l-0.5,1.3l0,0c-0.3,1-0.6,1.9-1,2.8l-10.3,29
						c14.7-7.8,20.2-26,12.4-40.7C-1159.6-8052.4-1159.7-8052.6-1159.9-8052.9L-1159.9-8052.9z"/>
					<path id="Path_331" class="st13" d="M-1195.3-8009.4c5.9,1.9,12.2,1.9,18.1,0.1l-8.8-24.9L-1195.3-8009.4z"/>
					<path id="Path_332" class="st13" d="M-1160.6-8063.5c-14-14-36.8-14-50.8,0c-14,14-14,36.8,0,50.8c14,14,36.8,14,50.8,0
						C-1146.6-8026.7-1146.6-8049.4-1160.6-8063.5z M-1186.1-8004.6c-18.5,0-33.4-15-33.4-33.4c0-18.5,15-33.4,33.4-33.4
						c18.5,0,33.4,15,33.4,33.4c0,0,0,0,0,0C-1152.7-8019.6-1167.6-8004.7-1186.1-8004.6z"/>
				</g>
			</g>
			<text transform="matrix(1 0 0 1 -708.464 -4781.439)" class="st1 st4 st14">Wordpress plugin</text>
		</g>
	</g>
</g>
</svg>
