<?xml version="1.0" encoding="utf-8"?>
<!-- Generator: Adobe Illustrator 21.0.1, SVG Export Plug-In . SVG Version: 6.00 Build 0)  -->
<svg version="1.1" id="Слой_1" xmlns="http://www.w3.org/2000/svg" xmlns:xlink="http://www.w3.org/1999/xlink" x="0px" y="0px"
	 viewBox="0 0 420 242" style="enable-background:new 0 0 420 242;" xml:space="preserve">
<style type="text/css">
	.st0{clip-path:url(#SVGID_2_);}
	.st1{fill:#FFFFFF;}
	.st2{opacity:0.94;}
	.st3{fill:#B5B5B5;}
	.st4{fill:#88C5FC;}
	.st5{fill:#C78BC5;}
	.st6{fill:#F9A18A;}
	.st7{fill:#F7E88B;}
	.st8{fill:#686868;}
	.st9{font-family:'TrebuchetMS';}
	.st10{font-size:15px;}
	.st11{opacity:0.89;fill:#C17DBE;enable-background:new    ;}
	.st12{fill:#353639;}
	.st13{fill:#34FFD6;}
	.st14{fill:#DBDBDB;}
	.st15{fill:#34AEFF;}
	.st16{font-family:'ArialMT';}
	.st17{font-size:12px;}
	.st18{opacity:0.91;}
	.st19{fill:#FFDB77;}
	.st20{fill:#FF905E;}
	.st21{fill:#28D2E4;}
	.st22{fill:#28C3E4;}
	.st23{fill:#5A4146;}
	.st24{fill:#E6AF78;}
	.st25{fill:#D29B6E;}
	.st26{fill:#E4EAF6;}
	.st27{fill:#D7DEED;}
	.st28{fill:#707487;}
	.st29{fill:#65687A;}
	.st30{fill:#F0C087;}
	.st31{fill:#464655;}
	.st32{fill:#5B5D6E;}
	.st33{font-size:10px;}
	.st34{fill:none;stroke:#34AEFF;stroke-width:3;stroke-miterlimit:10;}
</style>
<g>
	<defs>
		<rect id="SVGID_1_" y="-29" width="420" height="300"/>
	</defs>
	<clipPath id="SVGID_2_">
		<use xlink:href="#SVGID_1_"  style="overflow:visible;"/>
	</clipPath>
	<g id="ixAnypoint-support_1" class="st0">
		<g id="Group_750" transform="translate(175 4152.997)">
			<g id="Group_468" transform="translate(5 519)">
				<g transform="matrix(1, 0, 0, 1, -180, -4672)">
					<path id="Rectangle_149-2" class="st1" d="M125,0h122.3c2.2,0,4,1.8,4,4v76c0,2.2-1.8,4-4,4H125c-2.2,0-4-1.8-4-4V4
						C121,1.8,122.8,0,125,0z"/>
				</g>
				<g id="Group_353" transform="translate(682.454 3862.339)" class="st2">
					<path id="Rectangle_19" class="st3" d="M-729.5-8474.9h10.7c1.7,0,3,1.3,3,3l0,0c0,1.7-1.3,3-3,3h-10.7c-1.7,0-3-1.3-3-3l0,0
						C-732.5-8473.6-731.1-8474.9-729.5-8474.9z"/>
					<path id="Rectangle_20" class="st4" d="M-707.5-8475h30.7c1.7,0,3,1.3,3,3l0,0c0,1.7-1.3,3-3,3h-30.7c-1.7,0-3-1.3-3-3l0,0
						C-710.5-8473.7-709.1-8475-707.5-8475z"/>
					<path id="Rectangle_21" class="st5" d="M-729.5-8464.5h46c1.7,0,3,1.3,3,3l0,0c0,1.7-1.3,3-3,3h-46c-1.7,0-3-1.3-3-3l0,0
						C-732.5-8463.2-731.1-8464.5-729.5-8464.5z"/>
					<path id="Rectangle_95" class="st6" d="M-665.5-8475h9.2c1.7,0,3,1.3,3,3l0,0c0,1.7-1.3,3-3,3h-9.2c-1.7,0-3-1.3-3-3l0,0
						C-668.5-8473.7-667.1-8475-665.5-8475z"/>
					<path id="Rectangle_96" class="st7" d="M-645.5-8475h22.1c1.7,0,3,1.3,3,3l0,0c0,1.7-1.3,3-3,3h-22.1c-1.7,0-3-1.3-3-3l0,0
						C-648.5-8473.7-647.1-8475-645.5-8475z"/>
				</g>
				<g id="ixlayer-logo" transform="translate(702 3819.472)">
					<text transform="matrix(1 0 0 1 -705.108 -8458.1104)" class="st8 st9 st10">ixlayer</text>
					<path id="Path_4" class="st11" d="M-732-8454l11.6-5.4l11.6,5.4l-11.6,5.5L-732-8454z"/>
					<path id="Path_3" class="st7" d="M-732-8460l11.6-5.4l11.6,5.4l-11.6,5.5L-732-8460z"/>
					<path id="Path_2" class="st6" d="M-732-8463.4l11.6-5.4l11.6,5.4l-11.6,5.5L-732-8463.4z"/>
					<path id="Path_1" class="st4" d="M-732-8467.2l11.6-5.4l11.6,5.4l-11.6,5.5L-732-8467.2z"/>
				</g>
			</g>
			<g id="Group_312" transform="translate(-857 2763)">
				<g transform="matrix(1, 0, 0, 1, 682, -6916)">
					<path id="Path_263-2" class="st12" d="M75,158h136.4c1.1,0,2,0.9,2,2v80c0,1.1-0.9,2-2,2H75c-1.1,0-2-0.9-2-2v-80
						C73,158.9,73.9,158,75,158z"/>
				</g>
				<g id="Group_311" transform="translate(1.509 2.15)">
					<path id="Rectangle_116" class="st13" d="M793.5-6745.1h45.8c1.7,0,3,1.3,3,3l0,0c0,1.7-1.3,3-3,3h-45.8c-1.7,0-3-1.3-3-3l0,0
						C790.5-6743.8,791.8-6745.1,793.5-6745.1z"/>
					<path id="Rectangle_117" class="st13" d="M771.5-6733.1h104.8c1.7,0,3,1.3,3,3l0,0c0,1.7-1.3,3-3,3H771.5c-1.7,0-3-1.3-3-3l0,0
						C768.5-6731.8,769.8-6733.1,771.5-6733.1z"/>
					<path id="Rectangle_118" class="st13" d="M771.5-6721.1h104.8c1.7,0,3,1.3,3,3l0,0c0,1.7-1.3,3-3,3H771.5c-1.7,0-3-1.3-3-3l0,0
						C768.5-6719.8,769.8-6721.1,771.5-6721.1z"/>
					<path id="Rectangle_119" class="st13" d="M771.5-6709.1h104.8c1.7,0,3,1.3,3,3l0,0c0,1.7-1.3,3-3,3H771.5c-1.7,0-3-1.3-3-3l0,0
						C768.5-6707.8,769.8-6709.1,771.5-6709.1z"/>
					<path id="Rectangle_120" class="st13" d="M771.5-6697.1h21.8c1.7,0,3,1.3,3,3l0,0c0,1.7-1.3,3-3,3h-21.8c-1.7,0-3-1.3-3-3l0,0
						C768.5-6695.8,769.8-6697.1,771.5-6697.1z"/>
					<path id="Rectangle_121" class="st3" d="M771.5-6745.1h11.8c1.7,0,3,1.3,3,3l0,0c0,1.7-1.3,3-3,3h-11.8c-1.7,0-3-1.3-3-3l0,0
						C768.5-6743.8,769.8-6745.1,771.5-6745.1z"/>
				</g>
			</g>
			<g id="Group_365" transform="translate(643 2629)">
				<g id="Group_302" transform="translate(-755 1050)">
					<g transform="matrix(1, 0, 0, 1, -63, -7832)">
						<path id="Rectangle_84-2" class="st1" d="M277,110h136.4c1.1,0,2,0.9,2,2v80c0,1.1-0.9,2-2,2H277c-1.1,0-2-0.9-2-2v-80
							C275,110.9,275.9,110,277,110z"/>
					</g>
					<g id="Group_223">
						<path id="Rectangle_85" class="st14" d="M296-7652h16c2.8,0,5,2.2,5,5l0,0c0,2.8-2.2,5-5,5h-16c-2.8,0-5-2.2-5-5l0,0
							C291-7649.8,293.2-7652,296-7652z"/>
						<path id="Rectangle_86" class="st14" d="M327-7652h16c2.8,0,5,2.2,5,5l0,0c0,2.8-2.2,5-5,5h-16c-2.8,0-5-2.2-5-5l0,0
							C322-7649.8,324.2-7652,327-7652z"/>
					</g>
					<path id="Rectangle_154" class="st15" d="M214-7722h136.4c1.1,0,2,0.9,2,2v25l0,0H212l0,0v-25C212-7721.1,212.9-7722,214-7722z
						"/>
				</g>
				<g id="Group_364" transform="translate(165.064 1709.003)">
					<g id="Group_62" transform="translate(62.581 101)">
						<text transform="matrix(1 0 0 1 -732 -8463.9971)" class="st1 st16 st17">Genetic Product</text>
					</g>
					<g id="dna" transform="translate(48.667 101.366)" class="st18">
						<path id="Path_89" class="st19" d="M-725.2-8465.9l-2.8-2.8c-0.2-0.2-0.2-0.5,0-0.7c0.2-0.2,0.5-0.2,0.7,0l2.8,2.8
							c0.2,0.2,0.2,0.5,0,0.7C-724.6-8465.7-725-8465.7-725.2-8465.9L-725.2-8465.9L-725.2-8465.9z"/>
						<path id="Path_90" class="st20" d="M-724.5-8466.7l-1.4-1.4l-0.7,0.7l1.4,1.4c0.2,0.2,0.5,0.2,0.7,0
							C-724.3-8466.1-724.3-8466.5-724.5-8466.7z"/>
						<path id="Path_91" class="st19" d="M-720.8-8470.4l-2.8-2.8c-0.2-0.2-0.2-0.5,0-0.7c0.2-0.2,0.5-0.2,0.7,0l2.8,2.8
							c0.2,0.2,0.2,0.5,0,0.7C-720.2-8470.2-720.6-8470.2-720.8-8470.4z"/>
						<path id="Path_92" class="st20" d="M-720-8471.1l-1.4-1.4l-0.7,0.7l1.4,1.4c0.2,0.2,0.5,0.2,0.7,0
							C-719.8-8470.5-719.8-8470.9-720-8471.1L-720-8471.1z"/>
						<path id="Path_93" class="st21" d="M-728.1-8463l-2.8-2.8c-0.2-0.2-0.2-0.5,0-0.7c0.2-0.2,0.5-0.2,0.7,0l2.8,2.8
							c0.2,0.2,0.2,0.5,0,0.7S-727.9-8462.8-728.1-8463z"/>
						<path id="Path_94" class="st22" d="M-727.4-8463.8l-1.4-1.4l-0.7,0.7l1.4,1.4c0.2,0.2,0.5,0.2,0.7,0
							S-727.2-8463.6-727.4-8463.8L-727.4-8463.8z"/>
						<path id="Path_95" class="st21" d="M-723.7-8467.4l-2.8-2.8c-0.2-0.2-0.2-0.5,0-0.7s0.5-0.2,0.7,0l2.8,2.8
							c0.2,0.2,0.2,0.5,0,0.7S-723.5-8467.3-723.7-8467.4z"/>
						<path id="Path_96" class="st22" d="M-722.9-8468.2l-1.4-1.4l-0.7,0.7l1.4,1.4c0.2,0.2,0.5,0.2,0.7,0S-722.8-8468-722.9-8468.2
							L-722.9-8468.2z"/>
						<path id="Path_97" class="st1" d="M-722.7-8470.1c1.3,0.2,2.6-0.1,3.6-0.8c0.2-0.2,0.2-0.5,0-0.7s-0.5-0.2-0.7,0
							c-0.7,0.7-2.1,0.7-3,0.5c-0.1-0.8-0.2-2.3,0.5-3c0.2-0.2,0.2-0.5,0-0.7c-0.2-0.2-0.5-0.2-0.7,0c-0.8,1-1.1,2.3-0.8,3.6
							c-3.2-0.4-4.8,1.1-4.4,4.4c-1.3-0.2-2.6,0.1-3.6,0.8c-0.2,0.2-0.2,0.5,0,0.7s0.5,0.2,0.7,0l0,0c0.7-0.7,2.1-0.7,3-0.5
							c0.2,1,0.2,2.3-0.5,3c-0.2,0.2-0.2,0.5,0,0.7c0.2,0.2,0.5,0.2,0.7,0c0.8-1,1.1-2.3,0.8-3.6
							C-723.9-8465.3-722.3-8466.8-722.7-8470.1z M-723.7-8470.2c0.5,2.8-0.6,3.6-2.5,3.6c-0.4,0-0.7,0-1-0.1
							c-0.1-0.3-0.1-0.7-0.1-1C-727.3-8469.6-726.5-8470.7-723.7-8470.2z"/>
					</g>
				</g>
			</g>
			<g id="Group_481" transform="translate(-76 57)">
				<g id="Support_-_01" transform="translate(589.207 4355)">
					<path id="Path_702" class="st23" d="M-643.4-8451.6c0,0.5-0.3,1-0.8,1.2c-3.7,1.6-7.7,2.3-11.7,2.2c-4,0.1-8-0.7-11.7-2.2
						c-0.5-0.2-0.8-0.7-0.8-1.2c0.1-12.5,2.4-23.4,12.4-23.4C-645.7-8475-643.4-8464.1-643.4-8451.6z"/>
					<path id="Path_703" class="st24" d="M-651.2-8449.6v-3.2h-9.2v3.2c0,0.8-0.5,1.6-1.3,1.9l-6.2,2.1c-1.3,0.4-2.2,1.7-2.2,3.1
						v4.2c0,0.7,0.6,1.3,1.3,1.3h26.2c0.7,0,1.3-0.6,1.3-1.3v-4.2c0-1.4-0.9-2.7-2.2-3.1l-6.2-2.1
						C-650.7-8448-651.2-8448.7-651.2-8449.6z"/>
					<path id="Path_704" class="st25" d="M-660.4-8449.6c0,0.8-0.5,1.5-1.2,1.8c7.3,1.3,10.4-4,10.4-4l0,0v-1h-9.2L-660.4-8449.6z"
						/>
					<path id="Path_705" class="st26" d="M-643.6-8445.6l-5.1-1.7c-1.8,2.6-4.2,4.5-7.1,5.7c-2.9-1.2-5.3-3.2-7.1-5.7l-5.1,1.7
						c-1.3,0.4-2.2,1.7-2.2,3.1v4.2c0,0.7,0.6,1.3,1.3,1.3h26.2c0.7,0,1.3-0.6,1.3-1.3v-4.2
						C-641.4-8443.9-642.3-8445.2-643.6-8445.6z"/>
					<g id="Group_276" transform="translate(61.793 27.691)">
						<path id="Path_706" class="st27" d="M-727.5-8468.7l-3.6-3.6c-0.5,0.6-0.8,1.4-0.8,2.2v4.2c0,0.7,0.6,1.3,1.3,1.3h3.9v-2.2
							C-726.8-8467.6-727-8468.2-727.5-8468.7z"/>
						<path id="Path_707" class="st27" d="M-707.6-8468.7l3.6-3.6c0.5,0.6,0.8,1.4,0.8,2.2v4.2c0,0.7-0.6,1.3-1.3,1.3h-3.9v-2.2
							C-708.4-8467.6-708.1-8468.2-707.6-8468.7z"/>
						<path id="Path_708" class="st27" d="M-725.7-8474.2c1.9,2.8,4.6,4.9,7.7,6.2l0.4,0.1l0.4-0.1c3.1-1.3,5.8-3.4,7.7-6.2l0.2-0.3
							l-1.3-0.4c-1.8,2.6-4.2,4.5-7.1,5.7c-2.9-1.2-5.3-3.2-7.1-5.7l-1.3,0.4L-725.7-8474.2z"/>
					</g>
					<path id="Path_709" class="st28" d="M-664.2-8461.2h-0.8c-0.7,0-1.3,0.6-1.3,1.3c0,0,0,0,0,0v2.6c0,0.7,0.6,1.3,1.3,1.3
						c0,0,0,0,0,0l1.1,0L-664.2-8461.2z"/>
					<path id="Path_710" class="st29" d="M-665-8461.2L-665-8461.2v5.2h0l1.1,0l-0.4-5.2H-665z"/>
					<path id="Path_711" class="st28" d="M-647.4-8461.2h0.8c0.7,0,1.3,0.6,1.3,1.3c0,0,0,0,0,0v2.6c0,0.7-0.6,1.3-1.3,1.3
						c0,0,0,0,0,0l-1.1,0L-647.4-8461.2z"/>
					<path id="Path_712" class="st29" d="M-646.6-8461.2L-646.6-8461.2v5.2h0l-1.1,0l0.4-5.2H-646.6z"/>
					<path id="Path_713" class="st30" d="M-664.3-8467.1v2.8c0,1.2,0,2.3,0.1,3.5l0.4,4.9c0.1,1.2,0.7,2.2,1.7,2.9l4,2.8
						c0.7,0.5,1.5,0.8,2.4,0.8l0,0c0.9,0,1.7-0.3,2.4-0.8l4-2.8c1-0.7,1.6-1.7,1.7-2.9l0.4-4.9c0.1-1.2,0.1-2.3,0.1-3.5v-2.8H-664.3
						z"/>
					<path id="Path_714" class="st24" d="M-647.3-8467.1h-17v2.8c0,0.4,0,0.7,0,1.1l0,0c0,0.4,0,0.9,0,1.3l0,0c0,0.4,0,0.7,0.1,1.1
						l0.4,4.9c0.1,1.2,0.7,2.2,1.7,2.9l4,2.8c0.7,0.5,1.5,0.8,2.4,0.8c-1.1,0-2.2-1.8-2.9-3.2c-0.5-0.9-0.7-1.9-0.8-2.9l-0.1-5.9
						c0-0.5,0.3-0.9,0.8-1c2.7-0.5,5.4-1.2,7.9-2.3c0.7,1.3,1.8,2.2,3.1,2.8l0.2,0.1h0.2c0-0.4,0-0.9,0.1-1.3L-647.3-8467.1z"/>
					<path id="Path_715" class="st23" d="M-665-8467.8v4.6c5.1,0,10.1-1.1,14.7-3.3c0.5,1.5,1.6,2.7,3,3.3h0.7v-4.6H-665z"/>
					<path id="Path_716" class="st31" d="M-646.6-8456l-1.1,0c-0.5,0.9-2,2.4-6.5,2.4v1.3c6,0,7.5-2.5,7.9-3.7
						C-646.4-8456-646.5-8456-646.6-8456z"/>
					<path id="Path_717" class="st32" d="M-654.8-8452.1h-0.7c-0.5,0-1-0.4-1-1l0,0l0,0c0-0.5,0.4-1,1-1l0,0h0.7c0.5,0,1,0.4,1,1
						l0,0l0,0C-653.8-8452.5-654.3-8452.1-654.8-8452.1L-654.8-8452.1z"/>
				</g>
				<text transform="matrix(1 0 0 1 -95.633 -4067.9971)" class="st1 st16 st33">24/7 Support</text>
			</g>
			<path id="Path_718" class="st34" d="M-114.5-4038.5h82c6.7,0,10,3.3,10,10v31"/>
			<path id="Path_719" class="st15" d="M-28-3995c0-3,2.5-5.5,5.5-5.5s5.5,2.5,5.5,5.5s-2.5,5.5-5.5,5.5S-28-3992-28-3995z"/>
			<path id="Path_720" class="st34" d="M21.5-4065.5v17c0,6.7-3.3,10-10,10h-51"/>
			<path id="Path_721" class="st15" d="M16-4068c0-3,2.5-5.5,5.5-5.5s5.5,2.5,5.5,5.5s-2.5,5.5-5.5,5.5S16-4065,16-4068z"/>
			<path id="Path_722" class="st34" d="M-19-4038.5h75c6.7,0,10,3.3,10,10v23c0,6.7,3.3,10,10,10h25"/>
			<path id="Path_723" class="st15" d="M95-3995.5c0-3,2.5-5.5,5.5-5.5s5.5,2.5,5.5,5.5s-2.5,5.5-5.5,5.5S95-3992.5,95-3995.5z"/>
		</g>
	</g>
</g>
</svg>
