<svg xmlns="http://www.w3.org/2000/svg" xmlns:xlink="http://www.w3.org/1999/xlink" viewBox="1217 5465 420 300"><defs><style>.a{clip-path:url(#d);}.b,.e,.n{fill:#fff;}.c{fill:#dbdbdb;}.d,.l{fill:#34aeff;}.e{font-size:12px;font-family:Antipasto-ExtraLight, Antipasto;font-weight:200;letter-spacing:0.045em;}.f{opacity:0.91;}.g{fill:#ffdb77;}.h{fill:#ff905e;}.i{fill:#28d2e4;}.j{fill:#28c3e4;}.k{fill:none;stroke:#34aeff;stroke-miterlimit:10;stroke-width:3px;}.l{opacity:0.45;}.m{fill:#00769d;}.n{font-size:9px;font-family:Quicksand-Regular, Quicksand;}.o{filter:url(#a);}</style><filter id="a" x="1377" y="5524" width="158.425" height="102.015" filterUnits="userSpaceOnUse"><feOffset dy="3" input="SourceAlpha"/><feGaussianBlur stdDeviation="3" result="b"/><feFlood flood-opacity="0.161"/><feComposite operator="in" in2="b"/><feComposite in="SourceGraphic"/></filter><clipPath id="d"><rect x="1217" y="5465" width="420" height="300"/></clipPath></defs><g id="c" class="a"><g transform="translate(810 2488.997)"><g transform="translate(387 1238)"><g transform="translate(-755 1050)"><g class="o" transform="matrix(1, 0, 0, 1, -442, -4777)"><rect class="b" width="140.425" height="84.015" rx="2" transform="translate(1386 5530)"/></g><rect class="c" width="26" height="10" rx="5" transform="translate(1023 823)"/><rect class="c" width="26" height="10" rx="5" transform="translate(1054 823)"/><path class="d" d="M2,0H138.425a2,2,0,0,1,2,2V27.015a0,0,0,0,1,0,0H0a0,0,0,0,1,0,0V2A2,2,0,0,1,2,0Z" transform="translate(944 753.003)"/></g><g transform="translate(165.064 1709.003)"><g transform="translate(62.581 101)"><text class="e" transform="translate(0 11)"><tspan x="0" y="0">Genetic Product</tspan></text></g><g class="f" transform="translate(48.667 101.366)"><path class="g" d="M154.044,213.642,151.2,210.8a.5.5,0,1,1,.71-.71l2.844,2.844a.5.5,0,1,1-.71.71Z" transform="translate(-147.204 -204.591)"/><path class="h" d="M214.764,272.941l-1.422-1.422-.71.71,1.422,1.422a.5.5,0,0,0,.71-.71Z" transform="translate(-207.214 -264.6)"/><path class="g" d="M326.9,40.785l-2.844-2.844a.5.5,0,1,1,.71-.71l2.844,2.844a.5.5,0,0,1-.71.71Z" transform="translate(-315.656 -36.139)"/><path class="h" d="M387.62,100.085,386.2,98.663l-.71.71,1.422,1.422a.5.5,0,1,0,.71-.71Z" transform="translate(-375.666 -96.149)"/><path class="i" d="M40.077,327.614l-2.844-2.844a.5.5,0,1,1,.71-.71l2.844,2.844a.5.5,0,0,1-.71.71Z" transform="translate(-36.141 -315.66)"/><path class="j" d="M100.795,386.91l-1.422-1.422-.71.71,1.422,1.422a.5.5,0,1,0,.71-.71Z" transform="translate(-96.149 -375.665)"/><path class="i" d="M212.931,154.754l-2.844-2.844a.5.5,0,1,1,.71-.71l2.844,2.844a.5.5,0,0,1-.71.71Z" transform="translate(-204.59 -147.204)"/><path class="j" d="M273.652,214.054l-1.422-1.422-.71.71,1.422,1.422a.5.5,0,0,0,.71-.71Z" transform="translate(-264.602 -207.214)"/><path class="b" d="M9.338,4.932A4.435,4.435,0,0,0,12.9,4.09a.5.5,0,1,0-.71-.71c-.687.687-2.079.669-3.039.512-.135-.806-.211-2.31.515-3.036a.5.5,0,0,0-.71-.71,4.435,4.435,0,0,0-.842,3.563c-3.2-.378-4.791,1.136-4.4,4.4a4.435,4.435,0,0,0-3.563.842.5.5,0,0,0,.71.71c.686-.686,2.074-.67,3.036-.512.157.962.174,2.35-.512,3.036a.5.5,0,0,0,.71.71,4.435,4.435,0,0,0,.842-3.563C8.133,9.715,9.725,8.2,9.338,4.932ZM8.3,4.749c.452,2.765-.589,3.645-2.5,3.638A6.785,6.785,0,0,1,4.751,8.3a6.783,6.783,0,0,1-.09-1.048C4.654,5.384,5.485,4.288,8.3,4.749Z" transform="translate(-0.002 0)"/></g></g></g><path class="k" d="M399,120H370c-6.667,0-10-1.923-10-8.589V76" transform="translate(673 2738) rotate(90)"/><path class="l" d="M14.5,0A14.5,14.5,0,1,1,0,14.5,14.5,14.5,0,0,1,14.5,0Z" transform="translate(599 3083)"/><g transform="translate(514 1445)"><circle class="b" cx="23" cy="23" r="23" transform="translate(16 1703)"/><g transform="translate(15 1702)"><path class="m" d="M75.064,47.443H72.413L79.64,67.871,83.685,56.31l-3.137-8.867h-2.8V45.5H90.137v1.946h-2.9l7.226,20.428,2.6-7.423c3.408-9.511-2.793-12.473-2.793-14.6a3.843,3.843,0,0,1,3.843-3.843c.115,0,.226.006.336.016a20.081,20.081,0,0,0-30.5,3.472h7.113v1.946Z" transform="translate(-60.665 -32.629)"/><path class="m" d="M36.548,158.253a20.077,20.077,0,0,0,10.667,17.741l-9.062-25.617A20.016,20.016,0,0,0,36.548,158.253Z" transform="translate(-32.629 -134.252)"/><path class="m" d="M319.906,131.547a14.2,14.2,0,0,1-.241,5.5h.08l-.3.868h0a18.709,18.709,0,0,1-.664,1.9l-6.91,19.358a20.091,20.091,0,0,0,8.038-27.623Z" transform="translate(-278.429 -117.442)"/><path class="m" d="M166.075,264.5a20.175,20.175,0,0,0,12.116.086l-5.874-16.6Z" transform="translate(-148.268 -221.389)"/><path class="m" d="M40.971,7.029A24,24,0,0,0,7.029,40.971,24,24,0,1,0,40.971,7.029ZM24,46.307A22.307,22.307,0,1,1,46.307,24,22.332,22.332,0,0,1,24,46.307Z" transform="translate(0)"/></g></g><text class="n" transform="translate(553 3209)"><tspan x="-36.185" y="0">Wordpress plugin</tspan></text></g></g></svg>