<?xml version="1.0" encoding="utf-8"?>
<!-- Generator: Adobe Illustrator 21.0.1, SVG Export Plug-In . SVG Version: 6.00 Build 0)  -->
<svg version="1.1" id="Слой_1" xmlns="http://www.w3.org/2000/svg" xmlns:xlink="http://www.w3.org/1999/xlink" x="0px" y="0px"
	 viewBox="0 0 420 227" style="enable-background:new 0 0 420 227;" xml:space="preserve">
<style type="text/css">
	.st0{clip-path:url(#SVGID_2_);}
	.st1{fill:#353639;}
	.st2{fill:#34FFD6;}
	.st3{fill:#B5B5B5;}
	.st4{fill:#FFFFFF;}
	.st5{fill:#DBDBDB;}
	.st6{font-family:'ArialMT';}
	.st7{font-size:12px;}
	.st8{opacity:0.91;}
	.st9{fill:#FFDB77;}
	.st10{fill:#FF905E;}
	.st11{fill:#28D2E4;}
	.st12{fill:#28C3E4;}
	.st13{fill:none;stroke:#34FFD6;stroke-width:3;stroke-miterlimit:10;}
	.st14{opacity:0.45;fill:#34FFD6;enable-background:new    ;}
	.st15{fill:#F54F9D;}
	.st16{fill:#34AEFF;}
</style>
<g>
	<defs>
		<rect id="SVGID_1_" y="-36" width="420" height="300"/>
	</defs>
	<clipPath id="SVGID_2_">
		<use xlink:href="#SVGID_1_"  style="overflow:visible;"/>
	</clipPath>
	<g id="ixAnypoint-multiple-products_1" class="st0">
		<g id="Group_743" transform="translate(-92 5789.992)">
			<g id="Group_406" transform="translate(343 2432.178)">
				<g id="Group_312" transform="translate(0 0)">
					<g transform="matrix(1, 0, 0, 1, -251, -8222.17)">
						<path id="Path_263-2" class="st1" d="M11.2,135.2h149.9c1.2,0,2.2,1,2.2,2.2v87.9c0,1.2-1,2.2-2.2,2.2H11.2
							c-1.2,0-2.2-1-2.2-2.2v-87.9C9,136.2,10,135.2,11.2,135.2C11.2,135.2,11.2,135.2,11.2,135.2z"/>
					</g>
					<g id="Group_311" transform="translate(16.485 16.485)">
						<path id="Rectangle_116" class="st2" d="M-214.5-8087h50.4c1.8,0,3.3,1.5,3.3,3.3l0,0c0,1.8-1.5,3.3-3.3,3.3h-50.4
							c-1.8,0-3.3-1.5-3.3-3.3l0,0C-217.8-8085.5-216.3-8087-214.5-8087z"/>
						<path id="Rectangle_117" class="st2" d="M-238.7-8073.8h115.2c1.8,0,3.3,1.5,3.3,3.3l0,0c0,1.8-1.5,3.3-3.3,3.3h-115.2
							c-1.8,0-3.3-1.5-3.3-3.3l0,0C-242-8072.3-240.5-8073.8-238.7-8073.8z"/>
						<path id="Rectangle_118" class="st2" d="M-238.7-8060.6h115.2c1.8,0,3.3,1.5,3.3,3.3l0,0c0,1.8-1.5,3.3-3.3,3.3h-115.2
							c-1.8,0-3.3-1.5-3.3-3.3l0,0C-242-8059.1-240.5-8060.6-238.7-8060.6z"/>
						<path id="Rectangle_119" class="st2" d="M-238.7-8047.4h115.2c1.8,0,3.3,1.5,3.3,3.3l0,0c0,1.8-1.5,3.3-3.3,3.3h-115.2
							c-1.8,0-3.3-1.5-3.3-3.3l0,0C-242-8046-240.5-8047.4-238.7-8047.4z"/>
						<path id="Rectangle_120" class="st2" d="M-238.7-8034.2h24c1.8,0,3.3,1.5,3.3,3.3l0,0c0,1.8-1.5,3.3-3.3,3.3h-24
							c-1.8,0-3.3-1.5-3.3-3.3l0,0C-242-8032.8-240.5-8034.2-238.7-8034.2z"/>
						<path id="Rectangle_121" class="st3" d="M-238.7-8087h13c1.8,0,3.3,1.5,3.3,3.3l0,0c0,1.8-1.5,3.3-3.3,3.3h-13
							c-1.8,0-3.3-1.5-3.3-3.3l0,0C-242-8085.5-240.5-8087-238.7-8087z"/>
					</g>
				</g>
			</g>
			<g id="Group_413" transform="translate(491.916 2362.944)">
				<g id="Group_403" transform="translate(99.46 0)">
					<g id="Group_302" transform="translate(0)">
						<g transform="matrix(1, 0, 0, 1, -499.38, -8152.94)">
							<path id="Rectangle_84-4" class="st4" d="M259.4,65.9h150.3c1.1,0,2,0.9,2,2v88.3c0,1.1-0.9,2-2,2H259.4c-1.1,0-2-0.9-2-2
								V67.9C257.4,66.8,258.3,65.9,259.4,65.9z"/>
						</g>
						<g id="Group_223" transform="translate(86.822 76.928)">
							<path id="Rectangle_85" class="st5" d="M-236.5-8087h17.6c3,0,5.5,2.5,5.5,5.5l0,0c0,3-2.5,5.5-5.5,5.5h-17.6
								c-3,0-5.5-2.5-5.5-5.5l0,0C-242-8084.5-239.5-8087-236.5-8087z"/>
							<path id="Rectangle_86" class="st5" d="M-202.4-8087h17.6c3,0,5.5,2.5,5.5,5.5l0,0c0,3-2.5,5.5-5.5,5.5h-17.6
								c-3,0-5.5-2.5-5.5-5.5l0,0C-207.9-8084.5-205.5-8087-202.4-8087z"/>
						</g>
						<path id="Rectangle_154" class="st2" d="M-240-8087h150.3c1.1,0,2,0.9,2,2v27.7l0,0H-242l0,0v-27.7
							C-242-8086.1-241.1-8087-240-8087z"/>
					</g>
					<g id="Group_364" transform="translate(27.18 8.095)">
						<g id="Group_62" transform="translate(15.291 1.796)">
							<text transform="matrix(1 0 0 1 -242 -8077.9951)" class="st4 st6 st7">Genetic Product</text>
						</g>
						<g id="dna" transform="translate(0 0)" class="st8">
							<path id="Path_89" class="st9" d="M-234.5-8077l-3.1-3.1c-0.2-0.2-0.2-0.6,0-0.8s0.6-0.2,0.8,0l3.1,3.1
								c0.2,0.2,0.2,0.6,0,0.8C-233.9-8076.8-234.3-8076.8-234.5-8077z"/>
							<path id="Path_90" class="st10" d="M-233.7-8077.8l-1.6-1.6l-0.8,0.8l1.6,1.6c0.2,0.2,0.6,0.2,0.8,0
								C-233.5-8077.3-233.5-8077.6-233.7-8077.8z"/>
							<path id="Path_91" class="st9" d="M-229.6-8081.9l-3.1-3.1c-0.2-0.2-0.2-0.6,0-0.8c0.2-0.2,0.6-0.2,0.8,0l0,0l3.1,3.1
								c0.2,0.2,0.2,0.6,0,0.8S-229.4-8081.7-229.6-8081.9z"/>
							<path id="Path_92" class="st10" d="M-228.9-8082.7l-1.6-1.6l-0.8,0.8l1.6,1.6c0.2,0.2,0.6,0.2,0.8,0
								S-228.6-8082.5-228.9-8082.7L-228.9-8082.7z"/>
							<path id="Path_93" class="st11" d="M-237.7-8073.9l-3.1-3.1c-0.2-0.2-0.2-0.6,0-0.8c0.2-0.2,0.6-0.2,0.8,0l3.1,3.1
								c0.2,0.2,0.2,0.6,0,0.8C-237.1-8073.6-237.5-8073.6-237.7-8073.9z"/>
							<path id="Path_94" class="st12" d="M-236.9-8074.6l-1.6-1.6l-0.8,0.8l1.6,1.6c0.2,0.2,0.6,0.2,0.8,0
								C-236.7-8074.1-236.7-8074.4-236.9-8074.6z"/>
							<path id="Path_95" class="st11" d="M-232.8-8078.7l-3.1-3.1c-0.2-0.2-0.2-0.6,0-0.8s0.6-0.2,0.8,0l3.1,3.1
								c0.2,0.2,0.2,0.6,0,0.8S-232.6-8078.5-232.8-8078.7z"/>
							<path id="Path_96" class="st12" d="M-232.1-8079.5l-1.6-1.6l-0.8,0.8l1.6,1.6c0.2,0.2,0.6,0.2,0.8,0
								S-231.8-8079.3-232.1-8079.5z"/>
							<path id="Path_97" class="st4" d="M-231.7-8081.6c1,0.1,2.8,0.1,3.9-0.9c0.2-0.2,0.2-0.6,0-0.8s-0.6-0.2-0.8,0l0,0
								c-0.8,0.8-2.3,0.7-3.3,0.6c-0.1-0.9-0.2-2.5,0.6-3.3c0.2-0.2,0.2-0.6,0-0.8c-0.2-0.2-0.6-0.2-0.8,0l0,0
								c-1.1,1.1-1,2.9-0.9,3.9c-3.5-0.4-5.3,1.2-4.8,4.8c-1-0.1-2.8-0.1-3.9,0.9c-0.2,0.2-0.2,0.6,0,0.8s0.6,0.2,0.8,0l0,0
								c0.8-0.8,2.3-0.7,3.3-0.6c0.2,1.1,0.2,2.6-0.6,3.3c-0.2,0.2-0.2,0.6,0,0.8c0.2,0.2,0.6,0.2,0.8,0c1.1-1.1,1-2.9,0.9-3.9
								C-233.1-8076.3-231.3-8078-231.7-8081.6z M-232.9-8081.8c0.5,3-0.6,4-2.7,4c-0.4,0-0.8,0-1.2-0.1c-0.1-0.4-0.1-0.8-0.1-1.2
								C-236.9-8081.1-236-8082.3-232.9-8081.8L-232.9-8081.8z"/>
						</g>
					</g>
				</g>
				<g id="Group_412" transform="translate(0 41.759)">
					<path id="Path_581" class="st13" d="M-114.5-8053.5v58.2c0,7.3-3.7,11-11,11h-109.9"/>
					<path id="Path_582" class="st2" d="M-242-7984.8c0-3.3,2.7-6,6-6s6,2.7,6,6s-2.7,6-6,6c0,0,0,0,0,0
						C-239.3-7978.7-242-7981.4-242-7984.8z"/>
					<circle id="Ellipse_292" class="st14" cx="-114.5" cy="-8071.1" r="15.9"/>
				</g>
			</g>
			<g id="Group_411" transform="translate(491.916 2329.973)">
				<g id="Group_404" transform="translate(55.5 0)">
					<g id="Group_302-2" transform="translate(0)">
						<g transform="matrix(1, 0, 0, 1, -455.42, -8119.97)">
							<path id="Rectangle_84-5" class="st4" d="M215.4,33h150.3c1.1,0,2,0.9,2,2v88.3c0,1.1-0.9,2-2,2H215.4c-1.1,0-2-0.9-2-2V35
								C213.4,33.9,214.3,33,215.4,33z"/>
						</g>
						<g id="Group_223-2" transform="translate(86.822 76.928)">
							<path id="Rectangle_85-2" class="st5" d="M-236.5-8087h17.6c3,0,5.5,2.5,5.5,5.5l0,0c0,3-2.5,5.5-5.5,5.5h-17.6
								c-3,0-5.5-2.5-5.5-5.5l0,0C-242-8084.5-239.5-8087-236.5-8087z"/>
							<path id="Rectangle_86-2" class="st5" d="M-202.4-8087h17.6c3,0,5.5,2.5,5.5,5.5l0,0c0,3-2.5,5.5-5.5,5.5h-17.6
								c-3,0-5.5-2.5-5.5-5.5l0,0C-207.9-8084.5-205.5-8087-202.4-8087z"/>
						</g>
						<path id="Rectangle_154-2" class="st15" d="M-240-8087h150.3c1.1,0,2,0.9,2,2v27.7l0,0H-242l0,0v-27.7
							C-242-8086.1-241.1-8087-240-8087z"/>
					</g>
					<g id="Group_364-2" transform="translate(27.18 8.095)">
						<g id="Group_62-2" transform="translate(15.291 1.796)">
							<text transform="matrix(1 0 0 1 -242 -8077.9951)" class="st4 st6 st7">Genetic Product</text>
						</g>
						<g id="dna-2" transform="translate(0 0)" class="st8">
							<path id="Path_89-2" class="st9" d="M-234.5-8077l-3.1-3.1c-0.2-0.2-0.2-0.6,0-0.8s0.6-0.2,0.8,0l3.1,3.1
								c0.2,0.2,0.2,0.6,0,0.8C-233.9-8076.8-234.3-8076.8-234.5-8077z"/>
							<path id="Path_90-2" class="st10" d="M-233.7-8077.8l-1.6-1.6l-0.8,0.8l1.6,1.6c0.2,0.2,0.6,0.2,0.8,0
								C-233.5-8077.3-233.5-8077.6-233.7-8077.8z"/>
							<path id="Path_91-2" class="st9" d="M-229.6-8081.9l-3.1-3.1c-0.2-0.2-0.2-0.6,0-0.8c0.2-0.2,0.6-0.2,0.8,0l0,0l3.1,3.1
								c0.2,0.2,0.2,0.6,0,0.8S-229.4-8081.7-229.6-8081.9z"/>
							<path id="Path_92-2" class="st10" d="M-228.9-8082.7l-1.6-1.6l-0.8,0.8l1.6,1.6c0.2,0.2,0.6,0.2,0.8,0
								S-228.6-8082.5-228.9-8082.7L-228.9-8082.7z"/>
							<path id="Path_93-2" class="st11" d="M-237.7-8073.9l-3.1-3.1c-0.2-0.2-0.2-0.6,0-0.8c0.2-0.2,0.6-0.2,0.8,0l3.1,3.1
								c0.2,0.2,0.2,0.6,0,0.8S-237.5-8073.6-237.7-8073.9z"/>
							<path id="Path_94-2" class="st12" d="M-236.9-8074.6l-1.6-1.6l-0.8,0.8l1.6,1.6c0.2,0.2,0.6,0.2,0.8,0
								S-236.7-8074.4-236.9-8074.6z"/>
							<path id="Path_95-2" class="st11" d="M-232.8-8078.7l-3.1-3.1c-0.2-0.2-0.2-0.6,0-0.8s0.6-0.2,0.8,0l3.1,3.1
								c0.2,0.2,0.2,0.6,0,0.8S-232.6-8078.5-232.8-8078.7z"/>
							<path id="Path_96-2" class="st12" d="M-232.1-8079.5l-1.6-1.6l-0.8,0.8l1.6,1.6c0.2,0.2,0.6,0.2,0.8,0
								S-231.8-8079.3-232.1-8079.5z"/>
							<path id="Path_97-2" class="st4" d="M-231.7-8081.6c1,0.1,2.8,0.1,3.9-0.9c0.2-0.2,0.2-0.6,0-0.8s-0.6-0.2-0.8,0l0,0
								c-0.8,0.8-2.3,0.7-3.3,0.6c-0.1-0.9-0.2-2.5,0.6-3.3c0.2-0.2,0.2-0.6,0-0.8c-0.2-0.2-0.6-0.2-0.8,0l0,0
								c-1.1,1.1-1,2.9-0.9,3.9c-3.5-0.4-5.3,1.2-4.8,4.8c-1-0.1-2.8-0.1-3.9,0.9c-0.2,0.2-0.2,0.6,0,0.8s0.6,0.2,0.8,0l0,0
								c0.8-0.8,2.3-0.7,3.3-0.6c0.2,1.1,0.2,2.6-0.6,3.3c-0.2,0.2-0.2,0.6,0,0.8c0.2,0.2,0.6,0.2,0.8,0c1.1-1.1,1-2.9,0.9-3.9
								C-233.1-8076.3-231.3-8078-231.7-8081.6z M-232.9-8081.8c0.5,3-0.6,4-2.7,4c-0.4,0-0.8,0-1.2-0.1c-0.1-0.4-0.1-0.8-0.1-1.2
								C-236.9-8081.1-236-8082.3-232.9-8081.8L-232.9-8081.8z"/>
						</g>
					</g>
				</g>
				<g id="Group_409" transform="translate(0 40.66)">
					<path id="Path_579" class="st13" d="M-158.5-8053.5v64.8c0,7.3-3.7,11-11,11h-65.9"/>
					<path id="Path_580" class="st2" d="M-242-7978.2c0-3.3,2.7-6,6-6s6,2.7,6,6c0,3.3-2.7,6-6,6c0,0,0,0,0,0
						C-239.3-7972.1-242-7974.9-242-7978.2z"/>
					<circle id="Ellipse_291" class="st14" cx="-158.5" cy="-8071.1" r="15.9"/>
				</g>
			</g>
			<g id="Group_410" transform="translate(491.916 2297.003)">
				<g id="Group_405" transform="translate(11.54 0)">
					<g id="Group_365" transform="translate(0)">
						<g id="Group_302-3">
							<g transform="matrix(1, 0, 0, 1, -411.46, -8087)">
								<path id="Rectangle_84-6" class="st4" d="M171.5,0h150.3c1.1,0,2,0.9,2,2v88.3c0,1.1-0.9,2-2,2H171.5c-1.1,0-2-0.9-2-2V2
									C169.5,0.9,170.4,0,171.5,0z"/>
							</g>
							<g id="Group_223-3" transform="translate(86.822 76.928)">
								<path id="Rectangle_85-3" class="st5" d="M-236.5-8087h17.6c3,0,5.5,2.5,5.5,5.5l0,0c0,3-2.5,5.5-5.5,5.5h-17.6
									c-3,0-5.5-2.5-5.5-5.5l0,0C-242-8084.5-239.5-8087-236.5-8087z"/>
								<path id="Rectangle_86-3" class="st5" d="M-202.4-8087h17.6c3,0,5.5,2.5,5.5,5.5l0,0c0,3-2.5,5.5-5.5,5.5h-17.6
									c-3,0-5.5-2.5-5.5-5.5l0,0C-207.9-8084.5-205.5-8087-202.4-8087z"/>
							</g>
							<path id="Rectangle_154-3" class="st16" d="M-240-8087h150.3c1.1,0,2,0.9,2,2v27.7l0,0H-242l0,0v-27.7
								C-242-8086.1-241.1-8087-240-8087z"/>
						</g>
						<g id="Group_364-3" transform="translate(27.18 8.095)">
							<g id="Group_62-3" transform="translate(15.291 1.796)">
								<text transform="matrix(1 0 0 1 -242 -8077.9951)" class="st4 st6 st7">Genetic Product</text>
							</g>
							<g id="dna-3" transform="translate(0 0)" class="st8">
								<path id="Path_89-3" class="st9" d="M-234.5-8077l-3.1-3.1c-0.2-0.2-0.2-0.6,0-0.8s0.6-0.2,0.8,0l3.1,3.1
									c0.2,0.2,0.2,0.6,0,0.8C-233.9-8076.8-234.3-8076.8-234.5-8077z"/>
								<path id="Path_90-3" class="st10" d="M-233.7-8077.8l-1.6-1.6l-0.8,0.8l1.6,1.6c0.2,0.2,0.6,0.2,0.8,0
									C-233.5-8077.3-233.5-8077.6-233.7-8077.8z"/>
								<path id="Path_91-3" class="st9" d="M-229.6-8081.9l-3.1-3.1c-0.2-0.2-0.2-0.6,0-0.8c0.2-0.2,0.6-0.2,0.8,0l0,0l3.1,3.1
									c0.2,0.2,0.2,0.6,0,0.8S-229.4-8081.7-229.6-8081.9z"/>
								<path id="Path_92-3" class="st10" d="M-228.9-8082.7l-1.6-1.6l-0.8,0.8l1.6,1.6c0.2,0.2,0.6,0.2,0.8,0
									S-228.6-8082.5-228.9-8082.7L-228.9-8082.7z"/>
								<path id="Path_93-3" class="st11" d="M-237.7-8073.9l-3.1-3.1c-0.2-0.2-0.2-0.6,0-0.8c0.2-0.2,0.6-0.2,0.8,0l3.1,3.1
									c0.2,0.2,0.2,0.6,0,0.8C-237.1-8073.6-237.5-8073.6-237.7-8073.9z"/>
								<path id="Path_94-3" class="st12" d="M-236.9-8074.6l-1.6-1.6l-0.8,0.8l1.6,1.6c0.2,0.2,0.6,0.2,0.8,0
									C-236.7-8074.1-236.7-8074.4-236.9-8074.6z"/>
								<path id="Path_95-3" class="st11" d="M-232.8-8078.7l-3.1-3.1c-0.2-0.2-0.2-0.6,0-0.8s0.6-0.2,0.8,0l3.1,3.1
									c0.2,0.2,0.2,0.6,0,0.8S-232.6-8078.5-232.8-8078.7z"/>
								<path id="Path_96-3" class="st12" d="M-232.1-8079.5l-1.6-1.6l-0.8,0.8l1.6,1.6c0.2,0.2,0.6,0.2,0.8,0
									S-231.8-8079.3-232.1-8079.5z"/>
								<path id="Path_97-3" class="st4" d="M-231.7-8081.6c1,0.1,2.8,0.1,3.9-0.9c0.2-0.2,0.2-0.6,0-0.8s-0.6-0.2-0.8,0l0,0
									c-0.8,0.8-2.3,0.7-3.3,0.6c-0.1-0.9-0.2-2.5,0.6-3.3c0.2-0.2,0.2-0.6,0-0.8c-0.2-0.2-0.6-0.2-0.8,0l0,0
									c-1.1,1.1-1,2.9-0.9,3.9c-3.5-0.4-5.3,1.2-4.8,4.8c-1-0.1-2.8-0.1-3.9,0.9c-0.2,0.2-0.2,0.6,0,0.8s0.6,0.2,0.8,0l0,0
									c0.8-0.8,2.3-0.7,3.3-0.6c0.2,1.1,0.2,2.6-0.6,3.3c-0.2,0.2-0.2,0.6,0,0.8c0.2,0.2,0.6,0.2,0.8,0c1.1-1.1,1-2.9,0.9-3.9
									C-233.1-8076.3-231.3-8078-231.7-8081.6z M-232.9-8081.8c0.5,3-0.6,4-2.7,4c-0.4,0-0.8,0-1.2-0.1c-0.1-0.4-0.1-0.8-0.1-1.2
									C-236.9-8081.1-236-8082.3-232.9-8081.8L-232.9-8081.8z"/>
							</g>
						</g>
					</g>
				</g>
				<g id="Group_408" transform="translate(0 46.155)">
					<path id="Path_577" class="st13" d="M-202.4-8053.5v64.8c0,7.3-3.7,11-11,11h-22"/>
					<path id="Path_578" class="st2" d="M-242-7978.2c0-3.3,2.7-6,6-6s6,2.7,6,6c0,3.3-2.7,6-6,6c0,0,0,0,0,0
						C-239.3-7972.1-242-7974.9-242-7978.2z"/>
					<circle id="Ellipse_290" class="st14" cx="-202.4" cy="-8071.1" r="15.9"/>
				</g>
			</g>
		</g>
	</g>
</g>
</svg>
