<svg xmlns="http://www.w3.org/2000/svg" xmlns:xlink="http://www.w3.org/1999/xlink" viewBox="-1228 8051 420 300">
  <defs>
    <style>
      .cls-1, .cls-15, .cls-18, .cls-30 {
        fill: #fff;
      }

      .cls-2 {
        clip-path: url(#clip-ixAnypoint-genetic-services_1);
      }

      .cls-3 {
        opacity: 0.94;
      }

      .cls-4 {
        fill: #b5b5b5;
      }

      .cls-5 {
        fill: #88c5fc;
      }

      .cls-6 {
        fill: #c78bc5;
      }

      .cls-7 {
        fill: #f9a18a;
      }

      .cls-8 {
        fill: #f7e88b;
      }

      .cls-9 {
        fill: #686868;
        font-size: 12px;
        font-family: TrebuchetMS, Trebuchet MS;
      }

      .cls-10 {
        fill: #c17dbe;
        opacity: 0.89;
      }

      .cls-11, .cls-13 {
        fill: none;
      }

      .cls-11 {
        stroke: #34aeff;
        stroke-miterlimit: 10;
        stroke-width: 3px;
      }

      .cls-12 {
        fill: #34aeff;
      }

      .cls-14, .cls-27 {
        fill: #28c3e4;
      }

      .cls-14, .cls-15, .cls-16, .cls-17 {
        font-size: 7px;
        font-family: Helvetica-Bold, Helvetica;
        font-weight: 700;
      }

      .cls-16, .cls-25 {
        fill: #ff905e;
      }

      .cls-17, .cls-24 {
        fill: #ffdb77;
      }

      .cls-17 {
        opacity: 0.7;
      }

      .cls-18 {
        font-size: 10px;
        font-family: Helvetica;
      }

      .cls-19 {
        fill: #e2e2e2;
      }

      .cls-20 {
        fill: #717171;
      }

      .cls-21 {
        fill: #a5a5a5;
      }

      .cls-22 {
        fill: #ff7058;
      }

      .cls-23 {
        clip-path: url(#clip-path);
      }

      .cls-26 {
        fill: #28d2e4;
      }

      .cls-28 {
        fill: #f2f1f1;
      }

      .cls-29, .cls-30 {
        stroke: none;
      }

      .cls-31 {
        filter: url(#Rectangle_149);
      }
    </style>
    <filter id="Rectangle_149" x="-1021.306" y="8128.292" width="206.283" height="152.684" filterUnits="userSpaceOnUse">
      <feOffset dy="6" input="SourceAlpha"/>
      <feGaussianBlur stdDeviation="9" result="blur"/>
      <feFlood flood-opacity="0.161"/>
      <feComposite operator="in" in2="blur"/>
      <feComposite in="SourceGraphic"/>
    </filter>
    <clipPath id="clip-path">
      <rect id="Rectangle_155" data-name="Rectangle 155" class="cls-1" width="44.414" height="44.414"/>
    </clipPath>
    <clipPath id="clip-ixAnypoint-genetic-services_1">
      <rect x="-1228" y="8051" width="420" height="300"/>
    </clipPath>
  </defs>
  <g id="ixAnypoint-genetic-services_1" data-name="ixAnypoint-genetic-services – 1" class="cls-2">
    <g id="Group_740" data-name="Group 740" transform="translate(-1527 6878)">
      <g id="Group_392" data-name="Group 392" transform="translate(532.694 1271.292)">
        <g class="cls-31" transform="matrix(1, 0, 0, 1, 994.31, -8149.29)">
          <rect id="Rectangle_149-2" data-name="Rectangle 149" class="cls-1" width="152.283" height="98.684" rx="4" transform="translate(-994.31 8149.29)"/>
        </g>
        <g id="Group_353" data-name="Group 353" class="cls-3" transform="translate(10.519 69.711)">
          <rect id="Rectangle_19" data-name="Rectangle 19" class="cls-4" width="19.51" height="7.049" rx="3.525" transform="translate(0 0.06)"/>
          <rect id="Rectangle_20" data-name="Rectangle 20" class="cls-5" width="42.855" height="7.049" rx="3.525" transform="translate(25.713 0)"/>
          <rect id="Rectangle_21" data-name="Rectangle 21" class="cls-6" width="60.801" height="7.049" rx="3.525" transform="translate(0 12.335)"/>
          <rect id="Rectangle_95" data-name="Rectangle 95" class="cls-7" width="17.753" height="7.049" rx="3.525" transform="translate(74.802 0)"/>
          <rect id="Rectangle_96" data-name="Rectangle 96" class="cls-8" width="32.814" height="7.049" rx="3.525" transform="translate(98.178 0)"/>
        </g>
        <g id="ixlayer-logo" transform="translate(33.895 22.15)">
          <text id="ix_layer" data-name="ix layer" class="cls-9" transform="translate(31.431 11.449)"><tspan x="0" y="0">ixlayer</tspan></text>
          <path id="Path_4" data-name="Path 4" class="cls-10" d="M259,1087.246l13.577-4.861,13.539,4.861-13.539,4.9Z" transform="translate(-259 -1070.622)"/>
          <path id="Path_3" data-name="Path 3" class="cls-8" d="M259,1087.246l13.577-4.861,13.539,4.861-13.539,4.9Z" transform="translate(-259 -1075.943)"/>
          <path id="Path_2" data-name="Path 2" class="cls-7" d="M259,1087.246l13.577-4.861,13.539,4.861-13.539,4.9Z" transform="translate(-259 -1079.024)"/>
          <path id="Path_1" data-name="Path 1" class="cls-5" d="M259,1087.246l13.577-4.861,13.539,4.861-13.539,4.9Z" transform="translate(-259 -1082.385)"/>
        </g>
      </g>
      <path id="Path_336" data-name="Path 336" class="cls-11" d="M35.245,70.127h-23.5Q0,70.127,0,58.439V0" transform="translate(532.11 1349.416) rotate(90)"/>
      <path id="Path_337" data-name="Path 337" class="cls-12" d="M6.462,0A6.428,6.428,0,1,1,0,6.428,6.445,6.445,0,0,1,6.462,0Z" transform="translate(539.122 1343.542) rotate(90)"/>
      <path id="Path_340" data-name="Path 340" class="cls-11" d="M415.127,125.245H356.688Q345,125.245,345,113.5V90" transform="translate(116.982 1165.428)"/>
      <path id="Path_341" data-name="Path 341" class="cls-12" d="M6.462,0A6.428,6.428,0,1,1,0,6.428,6.445,6.445,0,0,1,6.462,0Z" transform="translate(539.122 1283.625) rotate(90)"/>
      <path id="Path_342" data-name="Path 342" class="cls-11" d="M418.5,120H325" transform="translate(113.607 1200.045)"/>
      <path id="Path_343" data-name="Path 343" class="cls-12" d="M6.462,0A6.428,6.428,0,1,1,0,6.428,6.445,6.445,0,0,1,6.462,0Z" transform="translate(539.122 1312.996) rotate(90)"/>
      <g id="Group_396" data-name="Group 396" transform="translate(409.971 1395.823)">
        <g id="Group_394" data-name="Group 394" transform="translate(30.389 0)">
          <g id="Path_549" data-name="Path 549" class="cls-13">
            <path class="cls-29" d="M7.013,0H37.4a7.013,7.013,0,0,1,7.013,7.013V37.4A7.013,7.013,0,0,1,37.4,44.414H7.013A7.013,7.013,0,0,1,0,37.4V7.013A7.013,7.013,0,0,1,7.013,0Z"/>
            <path class="cls-30" d="M 37.4012336730957 42.41396331787109 C 40.16526412963867 42.41396331787109 42.41396331787109 40.16526412963867 42.41396331787109 37.4012336730957 L 42.41396331787109 7.012733459472656 C 42.41396331787109 4.248703479766846 40.16526412963867 2.000003576278687 37.4012336730957 2.000003576278687 L 7.012733459472656 2.000003576278687 C 4.248703479766846 2.000003576278687 2.000003576278687 4.248703479766846 2.000003576278687 7.012733459472656 L 2.000003576278687 37.4012336730957 C 2.000003576278687 40.16526412963867 4.248703479766846 42.41396331787109 7.012733459472656 42.41396331787109 L 37.4012336730957 42.41396331787109 M 37.4012336730957 44.41396331787109 L 7.012733459472656 44.41396331787109 C 3.139703512191772 44.41396331787109 3.566284249245655e-06 41.27426528930664 3.566284249245655e-06 37.4012336730957 L 3.566284249245655e-06 7.012733459472656 C 3.566284249245655e-06 3.139703512191772 3.139703512191772 3.566284249245655e-06 7.012733459472656 3.566284249245655e-06 L 37.4012336730957 3.566284249245655e-06 C 41.27426528930664 3.566284249245655e-06 44.41396331787109 3.139703512191772 44.41396331787109 7.012733459472656 L 44.41396331787109 37.4012336730957 C 44.41396331787109 41.27426528930664 41.27426528930664 44.41396331787109 37.4012336730957 44.41396331787109 Z"/>
          </g>
          <g id="Group_256" data-name="Group 256" transform="translate(5.077 8.145)">
            <text id="A" class="cls-14" transform="translate(3 5)"><tspan x="-2.528" y="0">A</tspan></text>
            <text id="T" class="cls-15" transform="translate(12.19 5)"><tspan x="-2.138" y="0">T</tspan></text>
            <text id="C" class="cls-15" transform="translate(20.349 5)"><tspan x="-2.528" y="0">C</tspan></text>
            <text id="G" class="cls-15" transform="translate(29.152 5)"><tspan x="-2.722" y="0">G</tspan></text>
            <text id="A-2" data-name="A" class="cls-15" transform="translate(3 16.797)"><tspan x="-2.528" y="0">A</tspan></text>
            <text id="T-2" data-name="T" class="cls-16" transform="translate(12.19 16.797)"><tspan x="-2.138" y="0">T</tspan></text>
            <text id="C-2" data-name="C" class="cls-15" transform="translate(20.349 16.797)"><tspan x="-2.528" y="0">C</tspan></text>
            <text id="G-2" data-name="G" class="cls-15" transform="translate(29.152 16.797)"><tspan x="-2.722" y="0">G</tspan></text>
            <text id="A-3" data-name="A" class="cls-15" transform="translate(3 27.901)"><tspan x="-2.528" y="0">A</tspan></text>
            <text id="T-3" data-name="T" class="cls-15" transform="translate(12.19 27.901)"><tspan x="-2.138" y="0">T</tspan></text>
            <text id="C-3" data-name="C" class="cls-15" transform="translate(20.349 27.901)"><tspan x="-2.528" y="0">C</tspan></text>
            <text id="G-3" data-name="G" class="cls-17" transform="translate(29.152 27.901)"><tspan x="-2.722" y="0">G</tspan></text>
          </g>
        </g>
        <text id="Genetic_Counselling" data-name="Genetic Counselling" class="cls-18" transform="translate(45 65.568)"><tspan x="-44.749" y="0">Genetic Counselling</tspan></text>
      </g>
      <g id="Group_397" data-name="Group 397" transform="translate(334 1288.874)">
        <text id="Physician_Networks" data-name="Physician Networks" class="cls-18" transform="translate(44 58.556)"><tspan x="-43.625" y="0">Physician Networks</tspan></text>
        <g id="Group_393" data-name="Group 393" transform="translate(26.882 0)">
          <g id="Dr_-_04" data-name="Dr - 04" transform="translate(0)">
            <path id="Path_542" data-name="Path 542" class="cls-19" d="M36.973,39.156l-.219,9.2L30.62,52.519,24.6,48.466l-.329-9.31s1.972-1.862,1.424-3.724H35.33C35,37.294,36.973,39.156,36.973,39.156Z" transform="translate(-4.331 -10.406)"/>
            <path id="Path_543" data-name="Path 543" class="cls-1" d="M47.371,55.629V52.452A8.646,8.646,0,0,0,43.1,45l-4.491-2.519-4.491-2.519h0l-3.943,9.53L28.64,43.032l1.1-1.2H25.792l1.1,1.2-1.533,6.463-3.834-9.53L17.03,42.485,12.539,45a8.646,8.646,0,0,0-4.272,7.448v3.176h39.1Z" transform="translate(-1.476 -11.215)"/>
            <g id="Group_196" data-name="Group 196" transform="translate(16.144 14.438)">
              <ellipse id="Ellipse_286" data-name="Ellipse 286" class="cls-1" cx="2.191" cy="1.533" rx="2.191" ry="1.533" transform="translate(1.671 5.22) rotate(-112.421)"/>
              <ellipse id="Ellipse_287" data-name="Ellipse 287" class="cls-1" cx="2.191" cy="1.533" rx="2.191" ry="1.533" transform="translate(20.197 1.173) rotate(112.421)"/>
            </g>
            <path id="Path_544" data-name="Path 544" class="cls-1" d="M38.859,19.395a7.757,7.757,0,0,1-.11,1.533h0C38.092,26.076,34.477,34.4,30.1,34.4s-8-8.325-8.653-13.582a6.244,6.244,0,0,1-.11-1.424,8.763,8.763,0,0,1,17.526,0Z" transform="translate(-3.808 -5.979)"/>
            <path id="Path_545" data-name="Path 545" class="cls-20" d="M21.441,21.451a4.827,4.827,0,0,1,.657-3.724s-.657-5.586,3.4-5.258c0,0,3.286,1.1,9.42,0A1.974,1.974,0,0,1,37,14.988s-.657,2.41.657,2.957l.548,3.4.548-2.519c.986-4.6-.11-9.2-4.381-11.282h-.11A1.578,1.578,0,0,1,35.9,7.1c-7.229-4.6-12.049-.329-12.049-.329C18.7,11.483,20.346,16.96,20.346,16.96,19.8,18.931,21.441,21.451,21.441,21.451Z" transform="translate(-3.587 -4.968)"/>
            <g id="Group_197" data-name="Group 197" transform="translate(0 8.158)">
              <path id="Path_546" data-name="Path 546" class="cls-21" d="M10.187,39.238l4.491-2.519,4.053-2.3v-.11h0a10.4,10.4,0,0,0,1.1-1.862,23.394,23.394,0,0,1-2.519-5.258,4.112,4.112,0,0,1-1.753-2.081,4.241,4.241,0,0,1-.11-3.067,5.975,5.975,0,0,1-.438-3.286,12.518,12.518,0,0,1-.11-3.724,6.527,6.527,0,0,0-4.491,1.424,8.009,8.009,0,0,0-2.738,7.777,3.736,3.736,0,0,0,.548,2.629,1.627,1.627,0,0,0-.11,1.753,1.69,1.69,0,0,0,1.2,1.1,19.833,19.833,0,0,0,2.191,4.6h0c.329,1.424-1.1,2.848-1.1,2.848h0L6.9,39.128,3.286,40.99A6.444,6.444,0,0,0,0,46.686v1.1H5.039A10.292,10.292,0,0,1,10.187,39.238Z" transform="translate(0 -14.921)"/>
              <path id="Path_547" data-name="Path 547" class="cls-21" d="M56.406,40.968,53.011,39l-3.505-1.972h0s-1.424-1.424-1.1-2.848h0a19.833,19.833,0,0,0,2.191-4.6,1.956,1.956,0,0,0,1.2-1.1c.329-.876.11-1.753-.438-1.972l.219-.876c.767-3.505-.11-7.12-3.286-8.653a.339.339,0,0,0-.219-.11,1.209,1.209,0,0,1,1.2-.329A9.106,9.106,0,0,0,44.029,14.9a14.553,14.553,0,0,1-.11,6.134v.219a3.726,3.726,0,0,1,.219,3.724,4.112,4.112,0,0,1-1.753,2.081,23.4,23.4,0,0,1-2.519,5.258,10.4,10.4,0,0,0,1.1,1.862h0v.11L49.4,39.106a10.092,10.092,0,0,1,5.148,8.653h5.148v-1.1A6.814,6.814,0,0,0,56.406,40.968Z" transform="translate(-7.116 -14.898)"/>
            </g>
            <path id="Path_548" data-name="Path 548" class="cls-22" d="M47.186,51.646H45.105V49.565H43.681v2.081H41.6V53.07h2.081v2.081h1.424V53.07h2.081Z" transform="translate(-7.425 -12.928)"/>
          </g>
        </g>
      </g>
      <g id="Group_398" data-name="Group 398" transform="translate(419.322 1182)">
        <text id="Helix_API_SDK" data-name="Helix API &amp; SDK" class="cls-18" transform="translate(37 58.519)"><tspan x="-36.682" y="0">Helix API &amp; SDK</tspan></text>
        <g id="Mask_Group_8" data-name="Mask Group 8" class="cls-23" transform="translate(21.038 0)">
          <g id="dna" transform="translate(0)">
            <path id="Path_550" data-name="Path 550" class="cls-24" d="M29.064,38.841l-9.683-9.683A1.708,1.708,0,0,1,21.8,26.743l9.683,9.683a1.708,1.708,0,0,1-2.416,2.416Z" transform="translate(-5.779 -8.031)"/>
            <path id="Path_551" data-name="Path 551" class="cls-25" d="M33.836,38.781,28.995,33.94l-2.416,2.416L31.42,41.2a1.708,1.708,0,0,0,2.416-2.416Z" transform="translate(-8.134 -10.387)"/>
            <path id="Path_552" data-name="Path 552" class="cls-24" d="M50.671,17.234,40.989,7.552A1.708,1.708,0,0,1,43.4,5.136l9.683,9.683a1.708,1.708,0,0,1-2.416,2.416Z" transform="translate(-12.391 -1.419)"/>
            <path id="Path_553" data-name="Path 553" class="cls-25" d="M55.443,17.174,50.6,12.333l-2.416,2.416,4.841,4.841a1.708,1.708,0,0,0,2.416-2.416Z" transform="translate(-14.747 -3.774)"/>
            <path id="Path_554" data-name="Path 554" class="cls-26" d="M14.818,53.087,5.136,43.405a1.708,1.708,0,0,1,2.416-2.416l9.682,9.682a1.708,1.708,0,0,1-2.416,2.416Z" transform="translate(-1.419 -12.391)"/>
            <path id="Path_555" data-name="Path 555" class="cls-27" d="M19.59,53.027l-4.841-4.841L12.333,50.6l4.841,4.841a1.708,1.708,0,1,0,2.416-2.416Z" transform="translate(-3.774 -14.746)"/>
            <path id="Path_556" data-name="Path 556" class="cls-26" d="M36.425,31.48,26.743,21.8a1.708,1.708,0,0,1,2.416-2.416l9.683,9.683a1.708,1.708,0,1,1-2.416,2.416Z" transform="translate(-8.031 -5.778)"/>
            <path id="Path_557" data-name="Path 557" class="cls-27" d="M41.2,31.42l-4.841-4.841L33.94,28.995l4.841,4.841A1.708,1.708,0,0,0,41.2,31.42Z" transform="translate(-10.387 -8.134)"/>
            <path id="Path_558" data-name="Path 558" class="cls-1" d="M31.785,16.791c3.223.381,8.811.451,12.128-2.866A1.708,1.708,0,0,0,41.5,11.509c-2.34,2.34-7.077,2.278-10.346,1.742-.46-2.744-.717-7.864,1.753-10.334A1.708,1.708,0,0,0,30.49.5c-3.318,3.318-3.247,8.905-2.866,12.128C16.732,11.341,11.313,16.5,12.629,27.623,9.406,27.242,3.818,27.172.5,30.489a1.708,1.708,0,0,0,2.416,2.416c2.335-2.335,7.06-2.279,10.336-1.743.536,3.274.593,8-1.743,10.336a1.708,1.708,0,0,0,2.416,2.416c3.318-3.318,3.247-8.905,2.866-12.128C27.682,33.073,33.1,27.917,31.785,16.791Zm-3.539-.623c1.54,9.414-2.006,12.409-8.511,12.385a23.1,23.1,0,0,1-3.568-.306,23.093,23.093,0,0,1-.306-3.568C15.838,18.33,18.667,14.6,28.246,16.168Z" transform="translate(0 0)"/>
            <path id="Path_559" data-name="Path 559" class="cls-28" d="M21.645,36.64c10.891,1.288,16.31-3.868,14.995-14.995,3.223.381,8.811.451,12.128-2.866a1.708,1.708,0,1,0-2.416-2.416c-2.338,2.338-7.067,2.278-10.336,1.743L33.1,21.022c1.54,9.414-2.006,12.409-8.511,12.385a23.1,23.1,0,0,1-3.568-.306l-2.916,2.916c.536,3.274.593,8-1.743,10.336a1.708,1.708,0,1,0,2.416,2.416C22.1,45.451,22.026,39.863,21.645,36.64Z" transform="translate(-4.855 -4.855)"/>
          </g>
        </g>
      </g>
    </g>
  </g>
</svg>
