<svg xmlns="http://www.w3.org/2000/svg" xmlns:xlink="http://www.w3.org/1999/xlink" viewBox="-253 5860 420 300"><defs><style>.a,.w{fill:#fff;}.b{clip-path:url(#f);}.c{opacity:0.94;}.d{fill:#b5b5b5;}.e{fill:#88c5fc;}.f{fill:#c78bc5;}.g{fill:#f9a18a;}.h{fill:#f7e88b;}.i{fill:#686868;font-size:15px;font-family:TrebuchetMS, Trebuchet MS;}.j{fill:#c17dbe;opacity:0.89;}.k{fill:none;stroke:#34ffd6;stroke-miterlimit:10;stroke-width:3px;}.l{fill:#34ffd6;}.m{clip-path:url(#c);}.n{fill:#ffdb77;}.o{fill:#ff905e;}.p{fill:#28d2e4;}.q{fill:#28c3e4;}.r{fill:#f2f1f1;}.s{fill:#5b986c;}.t{fill:#a5a5a5;}.u{fill:#454545;}.v{fill:#d5e2f2;opacity:0.5;}.w{font-size:9px;font-family:Quicksand-Regular, Quicksand;}.x{fill:#e2e2e2;}.y{fill:#717171;}.z{fill:#6ddeb4;}.aa{clip-path:url(#d);}.ab{fill:#4acfd9;}.ac{filter:url(#a);}</style><filter id="a" x="-101" y="5901.003" width="184.291" height="137.997" filterUnits="userSpaceOnUse"><feOffset dy="6" input="SourceAlpha"/><feGaussianBlur stdDeviation="9" result="b"/><feFlood flood-opacity="0.161"/><feComposite operator="in" in2="b"/><feComposite in="SourceGraphic"/></filter><clipPath id="c"><rect class="a" width="38" height="38"/></clipPath><clipPath id="d"><rect class="a" width="38" height="38" transform="translate(323 1085)"/></clipPath><clipPath id="f"><rect x="-253" y="5860" width="420" height="300"/></clipPath></defs><g id="e" class="b"><g transform="translate(-1315 1817)"><g transform="translate(568 302)"><g class="ac" transform="matrix(1, 0, 0, 1, 747, -2119)"><rect class="a" width="130.291" height="83.997" rx="4" transform="translate(-74 5922)"/></g><g class="c" transform="translate(682.454 3862.339)"><rect class="d" width="16.692" height="6" rx="3" transform="translate(-0.454 0.051)"/><rect class="e" width="36.666" height="6" rx="3" transform="translate(21.546 0)"/><rect class="f" width="52.021" height="6" rx="3" transform="translate(-0.454 10.5)"/><rect class="g" width="15.19" height="6" rx="3" transform="translate(63.546 0)"/><rect class="h" width="28.075" height="6" rx="3" transform="translate(83.546 0)"/></g><g transform="translate(702 3819.472)"><text class="i" transform="translate(26.892 16.887)"><tspan x="0" y="0">ixlayer</tspan></text><path class="j" d="M259,1087.829l11.617-5.444,11.583,5.444-11.583,5.488Z" transform="translate(-259 -1066.827)"/><path class="h" d="M259,1087.829l11.617-5.444,11.583,5.444-11.583,5.488Z" transform="translate(-259 -1072.786)"/><path class="g" d="M259,1087.829l11.617-5.444,11.583,5.444-11.583,5.488Z" transform="translate(-259 -1076.237)"/><path class="e" d="M259,1087.829l11.617-5.444,11.583,5.444-11.583,5.488Z" transform="translate(-259 -1080)"/></g></g><path class="k" d="M345,120H328q-10,0-10-10V59" transform="translate(1174.5 4536.5) rotate(-90)"/><path class="l" d="M5.5,0A5.5,5.5,0,1,1,0,5.5,5.5,5.5,0,0,1,5.5,0Z" transform="translate(1289 4194.5) rotate(-90)"/><g transform="translate(506 2814)"><g class="m" transform="translate(680 1381)"><g transform="translate(0 0)"><path class="n" d="M27.594,37.022,19.31,28.738a1.462,1.462,0,0,1,2.067-2.067l8.284,8.284a1.462,1.462,0,0,1-2.067,2.067Z" transform="translate(-7.671 -10.661)"/><path class="o" d="M32.788,38.082,28.646,33.94l-2.067,2.067,4.142,4.142a1.462,1.462,0,0,0,2.067-2.067Z" transform="translate(-10.798 -13.788)"/><path class="n" d="M49.2,15.415,40.917,7.13a1.462,1.462,0,1,1,2.067-2.067l8.284,8.284A1.462,1.462,0,0,1,49.2,15.415Z" transform="translate(-16.449 -1.883)"/><path class="o" d="M54.395,16.475l-4.142-4.142L48.186,14.4l4.142,4.142a1.462,1.462,0,0,0,2.067-2.067Z" transform="translate(-19.576 -5.01)"/><path class="p" d="M13.348,51.268,5.064,42.984a1.462,1.462,0,0,1,2.067-2.067L15.414,49.2a1.462,1.462,0,0,1-2.067,2.067Z" transform="translate(-1.883 -16.449)"/><path class="q" d="M18.542,52.328,14.4,48.186l-2.067,2.067,4.142,4.142a1.462,1.462,0,1,0,2.067-2.067Z" transform="translate(-5.01 -19.576)"/><path class="p" d="M34.955,29.661l-8.284-8.284a1.462,1.462,0,1,1,2.067-2.067l8.284,8.284a1.462,1.462,0,0,1-2.067,2.067Z" transform="translate(-10.661 -7.671)"/><path class="q" d="M40.149,30.721l-4.142-4.142L33.94,28.646l4.142,4.142a1.462,1.462,0,0,0,2.067-2.067Z" transform="translate(-13.788 -10.798)"/><path class="a" d="M27.2,14.366c2.758.326,7.538.386,10.377-2.452A1.462,1.462,0,0,0,35.5,9.847c-2,2-6.055,1.949-8.852,1.49-.394-2.348-.613-6.728,1.5-8.842A1.462,1.462,0,0,0,26.087.428C23.248,3.266,23.308,8.047,23.634,10.8,14.316,9.7,9.68,14.115,10.805,23.634c-2.758-.326-7.539-.386-10.377,2.452A1.462,1.462,0,0,0,2.5,28.153c2-2,6.04-1.95,8.843-1.491.458,2.8.507,6.844-1.491,8.843a1.462,1.462,0,0,0,2.067,2.067c2.838-2.838,2.778-7.619,2.452-10.377C23.684,28.3,28.321,23.885,27.2,14.366Zm-3.028-.533c1.318,8.054-1.716,10.617-7.282,10.6a19.763,19.763,0,0,1-3.053-.262,19.758,19.758,0,0,1-.262-3.053C13.551,15.683,15.971,12.491,24.167,13.833Z" transform="translate(0 0)"/><path class="r" d="M20.81,33.639c9.319,1.1,13.955-3.31,12.829-12.829,2.758.326,7.538.386,10.377-2.452a1.462,1.462,0,0,0-2.067-2.067c-2,2-6.046,1.949-8.843,1.491l-2.495,2.495c1.318,8.054-1.716,10.617-7.282,10.6a19.764,19.764,0,0,1-3.053-.262l-2.495,2.495c.458,2.8.507,6.844-1.491,8.843a1.462,1.462,0,0,0,2.067,2.067C21.2,41.178,21.136,36.4,20.81,33.639Z" transform="translate(-6.444 -6.444)"/></g></g><g transform="translate(697.503 1398.633)"><path class="s" d="M20.995,26h1.187a7.629,7.629,0,0,0-1.21-2.009c-.327.021-.59.457-.59,1S20.656,26,20.995,26Z" transform="translate(-18.216 -19.443)"/><path class="t" d="M44.864,40.058l5.417,5.449a1.342,1.342,0,0,1,0,1.9l-.951.948a1.342,1.342,0,0,1-1.9,0L42.008,42.9Z" transform="translate(-30.288 -28.413)"/><path class="u" d="M41.986,42.9l2.858-2.858Z" transform="translate(-30.276 -28.402)"/><path class="a" d="M23.548,13.7a8.069,8.069,0,1,0,8.069,8.069A8.069,8.069,0,0,0,23.548,13.7Z" transform="translate(-15.479 -13.698)"/><path class="r" d="M31.769,26.415A6.06,6.06,0,0,1,26.1,30.368a6.072,6.072,0,0,1-5.5-3.524,6.054,6.054,0,0,1,5.489-8.578,6.072,6.072,0,0,1,5.5,3.524A6.008,6.008,0,0,1,31.769,26.415Z" transform="translate(-18.028 -16.248)"/><path class="o" d="M25.821,22.831l2.246,1.3v2.593l-2.246,1.3-2.246-1.3V24.127Z" transform="translate(-19.998 -18.796)"/><path class="q" d="M35.99,22.831l2.246,1.3v2.593l-2.246,1.3-2.246-1.3V24.127Z" transform="translate(-25.675 -18.796)"/><path class="n" d="M30.905,31.637l2.246,1.3v2.593l-2.246,1.3-2.246-1.3V32.933Z" transform="translate(-22.836 -23.712)"/><path class="v" d="M34.89,32.3l1.74,1Z" transform="translate(-26.315 -24.081)"/></g></g><text class="w" transform="translate(1205 4247)"><tspan x="-40.415" y="0">Genetic sequencing</tspan></text><g transform="translate(423 2604)"><g transform="translate(926.267 1623.968)"><g transform="translate(0 0)"><path class="x" d="M34.572,38.452l-.178,7.463-4.975,3.376L24.533,46l-.267-7.551s1.6-1.51,1.155-3.021h7.818C32.973,36.942,34.572,38.452,34.572,38.452Z" transform="translate(-13.606 -15.134)"/><path class="a" d="M23.791,12.7H0V10.128A7.016,7.016,0,0,1,3.464,4.086L7.107,2.043,10.749,0l3.11,7.729L15.1,2.488l-.888-.977h3.2l-.889.977,1.244,5.241L20.966,0l3.643,2.043,2.442,1.37L23.99,11.6a3.38,3.38,0,0,0-.2,1.106Z" transform="translate(0 23.318)"/><g transform="translate(7.586 11.71)"><ellipse class="a" cx="1.777" cy="1.244" rx="1.777" ry="1.244" transform="translate(1.355 4.234) rotate(-112.421)"/><ellipse class="a" cx="1.777" cy="1.244" rx="1.777" ry="1.244" transform="translate(16.381 0.951) rotate(112.421)"/></g><path class="a" d="M35.548,17.739a6.291,6.291,0,0,1-.089,1.244h0c-.533,4.175-3.465,10.927-7.018,10.927s-6.485-6.752-7.018-11.016a5.064,5.064,0,0,1-.089-1.155,7.107,7.107,0,0,1,14.214,0Z" transform="translate(-12.627 -6.858)"/><path class="y" d="M21.187,18.337a3.915,3.915,0,0,1,.533-3.021s-.533-4.531,2.754-4.264c0,0,2.665.888,7.64,0A1.6,1.6,0,0,1,33.8,13.095s-.533,1.954.533,2.4l.444,2.754.444-2.043c.8-3.731-.089-7.463-3.554-9.15h-.089A1.28,1.28,0,0,1,32.914,6.7c-5.863-3.731-9.772-.267-9.772-.267A8.41,8.41,0,0,0,20.3,14.694C19.855,16.293,21.187,18.337,21.187,18.337Z" transform="translate(-12.215 -4.968)"/><path class="t" d="M4294.411,1661.235h3.251l-.924,1.015,1.216,5.129-1.97,4.516-2-4.516,1.271-5.129Z" transform="translate(-4280.18 -1636.404)"/></g></g><g transform="translate(951.495 1643.312)"><path class="r" d="M12.848,2.021v5.8l-3.24,8.666a2.665,2.665,0,0,0,2.5,3.6h7.823a2.665,2.665,0,0,0,2.5-3.6L19.174,7.823v-5.8Z" transform="translate(-9.439 -1.432)"/><path class="z" d="M22.358,36.421H15.384l-1.815,4.853a1.487,1.487,0,0,0,1.393,2.008h7.823a1.487,1.487,0,0,0,1.392-2.009Z" transform="translate(-12.297 -25.804)"/><rect class="a" width="8.265" height="1.217" transform="translate(2.44)"/><g transform="translate(3.004 11.996)"><circle class="a" cx="0.965" cy="0.965" r="0.965" transform="translate(1.43)"/><circle class="a" cx="0.683" cy="0.683" r="0.683" transform="translate(0 3.148)"/><circle class="a" cx="0.683" cy="0.683" r="0.683" transform="translate(5.635 2.051)"/></g><circle class="a" cx="0.683" cy="0.683" r="0.683" transform="translate(8.639 14.048)"/></g></g><path class="k" d="M345,120H328q-10,0-10-10V59" transform="translate(996.5 4130.5)"/><path class="l" d="M5.5,0A5.5,5.5,0,1,1,0,5.5,5.5,5.5,0,0,1,5.5,0Z" transform="translate(1309 4194.5) rotate(-90)"/><text class="w" transform="translate(1365 4279)"><tspan x="-33.763" y="0">Clinical research</tspan></text><path class="k" d="M345,120H299" transform="translate(892.25 4006.75)"/><path class="l" d="M5.5,0A5.5,5.5,0,1,1,0,5.5,5.5,5.5,0,0,1,5.5,0Z" transform="translate(1235.25 4121.25)"/><g class="aa" transform="translate(823 3020)"><g transform="translate(328.193 1085)"><path class="y" d="M35.77,5.3H9.335a.59.59,0,0,0-.59.59V39.563a.59.59,0,0,0,.59.59H35.77a.59.59,0,0,0,.59-.59V5.89A.59.59,0,0,0,35.77,5.3Z" transform="translate(-8.745 -2.153)"/><path class="a" d="M34.975,9.54h-21.4a.59.59,0,0,0-.59.59V39.083a.59.59,0,0,0,.59.59H29a.59.59,0,0,0,.417-.173l5.979-5.979a.59.59,0,0,0,.173-.417V10.13A.59.59,0,0,0,34.975,9.54Z" transform="translate(-10.468 -3.876)"/><path class="x" d="M39.95,49.816V55.8h0a.59.59,0,0,0,.417-.173l5.979-5.979a.59.59,0,0,0,.173-.417H40.54A.59.59,0,0,0,39.95,49.816Z" transform="translate(-21.422 -19.998)"/><path class="t" d="M33.584,3.147h-2.1a4.367,4.367,0,0,0-8.387,0H21a.59.59,0,0,0-.59.59v4.72a.59.59,0,0,0,.59.59H33.584a.59.59,0,0,0,.59-.59V3.737A.59.59,0,0,0,33.584,3.147Z" transform="translate(-13.482)"/><path class="a" d="M33.767,5.664a.59.59,0,0,1-.581-.493A1.605,1.605,0,0,0,31.6,3.83a.59.59,0,0,1,0-1.18A2.782,2.782,0,0,1,34.35,4.976a.59.59,0,0,1-.484.68A.6.6,0,0,1,33.767,5.664Z" transform="translate(-17.789 -1.077)"/><path class="ab" d="M26.859,19.081a7.513,7.513,0,1,0,7.513,7.513A7.522,7.522,0,0,0,26.859,19.081Z" transform="translate(-13.052 -6.564)"/><path class="a" d="M26.329,32.924a.588.588,0,0,1-.417-.173l-1.888-1.888a.59.59,0,1,1,.834-.835L26.329,31.5l5.09-5.09a.59.59,0,1,1,.834.835l-5.507,5.507A.589.589,0,0,1,26.329,32.924Z" transform="translate(-14.882 -9.471)"/></g></g><text class="w" transform="translate(1165 4157)"><tspan x="-16.506" y="0">Surveys</tspan></text></g></g></svg>