<svg xmlns="http://www.w3.org/2000/svg" xmlns:xlink="http://www.w3.org/1999/xlink" viewBox="727 5465 420 300"><defs><style>.a,.o,.t,.y{fill:#fff;}.b{clip-path:url(#e);}.c{clip-path:url(#a);}.d,.q{fill:#ffdb77;}.e,.p{fill:#ff905e;}.f{fill:#28d2e4;}.g,.n{fill:#28c3e4;}.h{fill:#f2f1f1;}.i{fill:#5b986c;}.j{fill:#a5a5a5;}.k{fill:#454545;}.l{fill:#d5e2f2;opacity:0.5;}.aa,.m,.v,.w{fill:none;}.m{stroke:#fff;stroke-width:4px;}.n,.o,.p,.q{font-size:16px;font-family:Quicksand-Bold, Quicksand;font-weight:700;}.r{fill:#dbdbdb;}.s,.x{fill:#34aeff;}.t{font-size:12px;font-family:Antipasto-ExtraLight, Antipasto;font-weight:200;letter-spacing:0.045em;}.u{opacity:0.91;}.v{stroke:#34ffd6;}.v,.w{stroke-miterlimit:10;stroke-width:3px;}.w{stroke:#34aeff;}.x{opacity:0.45;}.y{font-size:9px;font-family:Quicksand-Regular, Quicksand;}.z{stroke:none;}.ab{filter:url(#b);}</style><clipPath id="a"><rect class="a" width="38" height="38"/></clipPath><filter id="b" x="896" y="5623.003" width="158.425" height="102.015" filterUnits="userSpaceOnUse"><feOffset dy="3" input="SourceAlpha"/><feGaussianBlur stdDeviation="3" result="c"/><feFlood flood-opacity="0.161"/><feComposite operator="in" in2="c"/><feComposite in="SourceGraphic"/></filter><clipPath id="e"><rect x="727" y="5465" width="420" height="300"/></clipPath></defs><g id="d" class="b"><g transform="translate(-310 2871)"><g transform="translate(591 1275)"><g class="c" transform="translate(680 1381)"><g transform="translate(0 0)"><path class="d" d="M27.594,37.022,19.31,28.738a1.462,1.462,0,0,1,2.067-2.067l8.284,8.284a1.462,1.462,0,0,1-2.067,2.067Z" transform="translate(-7.671 -10.661)"/><path class="e" d="M32.788,38.082,28.646,33.94l-2.067,2.067,4.142,4.142a1.462,1.462,0,0,0,2.067-2.067Z" transform="translate(-10.798 -13.788)"/><path class="d" d="M49.2,15.415,40.917,7.13a1.462,1.462,0,1,1,2.067-2.067l8.284,8.284A1.462,1.462,0,0,1,49.2,15.415Z" transform="translate(-16.449 -1.883)"/><path class="e" d="M54.395,16.475l-4.142-4.142L48.186,14.4l4.142,4.142a1.462,1.462,0,0,0,2.067-2.067Z" transform="translate(-19.576 -5.01)"/><path class="f" d="M13.348,51.268,5.064,42.984a1.462,1.462,0,0,1,2.067-2.067L15.414,49.2a1.462,1.462,0,0,1-2.067,2.067Z" transform="translate(-1.883 -16.449)"/><path class="g" d="M18.542,52.328,14.4,48.186l-2.067,2.067,4.142,4.142a1.462,1.462,0,1,0,2.067-2.067Z" transform="translate(-5.01 -19.576)"/><path class="f" d="M34.955,29.661l-8.284-8.284a1.462,1.462,0,1,1,2.067-2.067l8.284,8.284a1.462,1.462,0,0,1-2.067,2.067Z" transform="translate(-10.661 -7.671)"/><path class="g" d="M40.149,30.721l-4.142-4.142L33.94,28.646l4.142,4.142a1.462,1.462,0,0,0,2.067-2.067Z" transform="translate(-13.788 -10.798)"/><path class="a" d="M27.2,14.366c2.758.326,7.538.386,10.377-2.452A1.462,1.462,0,0,0,35.5,9.847c-2,2-6.055,1.949-8.852,1.49-.394-2.348-.613-6.728,1.5-8.842A1.462,1.462,0,0,0,26.087.428C23.248,3.266,23.308,8.047,23.634,10.8,14.316,9.7,9.68,14.115,10.805,23.634c-2.758-.326-7.539-.386-10.377,2.452A1.462,1.462,0,0,0,2.5,28.153c2-2,6.04-1.95,8.843-1.491.458,2.8.507,6.844-1.491,8.843a1.462,1.462,0,0,0,2.067,2.067c2.838-2.838,2.778-7.619,2.452-10.377C23.684,28.3,28.321,23.885,27.2,14.366Zm-3.028-.533c1.318,8.054-1.716,10.617-7.282,10.6a19.763,19.763,0,0,1-3.053-.262,19.758,19.758,0,0,1-.262-3.053C13.551,15.683,15.971,12.491,24.167,13.833Z" transform="translate(0 0)"/><path class="h" d="M20.81,33.639c9.319,1.1,13.955-3.31,12.829-12.829,2.758.326,7.538.386,10.377-2.452a1.462,1.462,0,0,0-2.067-2.067c-2,2-6.046,1.949-8.843,1.491l-2.495,2.495c1.318,8.054-1.716,10.617-7.282,10.6a19.764,19.764,0,0,1-3.053-.262l-2.495,2.495c.458,2.8.507,6.844-1.491,8.843a1.462,1.462,0,0,0,2.067,2.067C21.2,41.178,21.136,36.4,20.81,33.639Z" transform="translate(-6.444 -6.444)"/></g></g><g transform="translate(697.503 1398.633)"><path class="i" d="M20.995,26h1.187a7.629,7.629,0,0,0-1.21-2.009c-.327.021-.59.457-.59,1S20.656,26,20.995,26Z" transform="translate(-18.216 -19.443)"/><path class="j" d="M44.864,40.058l5.417,5.449a1.342,1.342,0,0,1,0,1.9l-.951.948a1.342,1.342,0,0,1-1.9,0L42.008,42.9Z" transform="translate(-30.288 -28.413)"/><path class="k" d="M41.986,42.9l2.858-2.858Z" transform="translate(-30.276 -28.402)"/><path class="a" d="M23.548,13.7a8.069,8.069,0,1,0,8.069,8.069A8.069,8.069,0,0,0,23.548,13.7Z" transform="translate(-15.479 -13.698)"/><path class="h" d="M31.769,26.415A6.06,6.06,0,0,1,26.1,30.368a6.072,6.072,0,0,1-5.5-3.524,6.054,6.054,0,0,1,5.489-8.578,6.072,6.072,0,0,1,5.5,3.524A6.008,6.008,0,0,1,31.769,26.415Z" transform="translate(-18.028 -16.248)"/><path class="e" d="M25.821,22.831l2.246,1.3v2.593l-2.246,1.3-2.246-1.3V24.127Z" transform="translate(-19.998 -18.796)"/><path class="g" d="M35.99,22.831l2.246,1.3v2.593l-2.246,1.3-2.246-1.3V24.127Z" transform="translate(-25.675 -18.796)"/><path class="d" d="M30.905,31.637l2.246,1.3v2.593l-2.246,1.3-2.246-1.3V32.933Z" transform="translate(-22.836 -23.712)"/><path class="l" d="M34.89,32.3l1.74,1Z" transform="translate(-26.315 -24.081)"/></g></g><g transform="translate(265 1265)"><g class="m" transform="translate(873 1381)"><rect class="z" width="64" height="64" rx="6"/><rect class="aa" x="2" y="2" width="60" height="60" rx="4"/></g><g transform="translate(75)"><text class="n" transform="translate(812 1402)"><tspan x="-5.112" y="0">A</tspan></text><text class="o" transform="translate(825 1402)"><tspan x="-5.008" y="0">T</tspan></text><text class="o" transform="translate(837 1402)"><tspan x="-5.016" y="0">C</tspan></text><text class="o" transform="translate(849 1402)"><tspan x="-5.568" y="0">G</tspan></text><text class="o" transform="translate(812 1419)"><tspan x="-5.112" y="0">A</tspan></text><text class="p" transform="translate(825 1419)"><tspan x="-5.008" y="0">T</tspan></text><text class="o" transform="translate(837 1419)"><tspan x="-5.016" y="0">C</tspan></text><text class="o" transform="translate(849 1419)"><tspan x="-5.568" y="0">G</tspan></text><text class="o" transform="translate(812 1435)"><tspan x="-5.112" y="0">A</tspan></text><text class="o" transform="translate(825 1435)"><tspan x="-5.008" y="0">T</tspan></text><text class="o" transform="translate(837 1435)"><tspan x="-5.016" y="0">C</tspan></text><text class="q" transform="translate(849 1435)"><tspan x="-5.568" y="0">G</tspan></text></g></g><g transform="translate(1026 955)"><g transform="translate(-755 1050)"><g class="ab" transform="matrix(1, 0, 0, 1, 39, -4876)"><rect class="a" width="140.425" height="84.015" rx="2" transform="translate(905 5629)"/></g><rect class="r" width="26" height="10" rx="5" transform="translate(1023 823)"/><rect class="r" width="26" height="10" rx="5" transform="translate(1054 823)"/><path class="s" d="M2,0H138.425a2,2,0,0,1,2,2V27.015a0,0,0,0,1,0,0H0a0,0,0,0,1,0,0V2A2,2,0,0,1,2,0Z" transform="translate(944 753.003)"/></g><g transform="translate(165.064 1709.003)"><g transform="translate(62.581 101)"><text class="t" transform="translate(0 11)"><tspan x="0" y="0">Genetic Product</tspan></text></g><g class="u" transform="translate(48.667 101.366)"><path class="d" d="M154.044,213.642,151.2,210.8a.5.5,0,1,1,.71-.71l2.844,2.844a.5.5,0,1,1-.71.71Z" transform="translate(-147.204 -204.591)"/><path class="e" d="M214.764,272.941l-1.422-1.422-.71.71,1.422,1.422a.5.5,0,0,0,.71-.71Z" transform="translate(-207.214 -264.6)"/><path class="d" d="M326.9,40.785l-2.844-2.844a.5.5,0,1,1,.71-.71l2.844,2.844a.5.5,0,0,1-.71.71Z" transform="translate(-315.656 -36.139)"/><path class="e" d="M387.62,100.085,386.2,98.663l-.71.71,1.422,1.422a.5.5,0,1,0,.71-.71Z" transform="translate(-375.666 -96.149)"/><path class="f" d="M40.077,327.614l-2.844-2.844a.5.5,0,1,1,.71-.71l2.844,2.844a.5.5,0,0,1-.71.71Z" transform="translate(-36.141 -315.66)"/><path class="g" d="M100.795,386.91l-1.422-1.422-.71.71,1.422,1.422a.5.5,0,1,0,.71-.71Z" transform="translate(-96.149 -375.665)"/><path class="f" d="M212.931,154.754l-2.844-2.844a.5.5,0,1,1,.71-.71l2.844,2.844a.5.5,0,0,1-.71.71Z" transform="translate(-204.59 -147.204)"/><path class="g" d="M273.652,214.054l-1.422-1.422-.71.71,1.422,1.422a.5.5,0,0,0,.71-.71Z" transform="translate(-264.602 -207.214)"/><path class="a" d="M9.338,4.932A4.435,4.435,0,0,0,12.9,4.09a.5.5,0,1,0-.71-.71c-.687.687-2.079.669-3.039.512-.135-.806-.211-2.31.515-3.036a.5.5,0,0,0-.71-.71,4.435,4.435,0,0,0-.842,3.563c-3.2-.378-4.791,1.136-4.4,4.4a4.435,4.435,0,0,0-3.563.842.5.5,0,0,0,.71.71c.686-.686,2.074-.67,3.036-.512.157.962.174,2.35-.512,3.036a.5.5,0,0,0,.71.71,4.435,4.435,0,0,0,.842-3.563C8.133,9.715,9.725,8.2,9.338,4.932ZM8.3,4.749c.452,2.765-.589,3.645-2.5,3.638A6.785,6.785,0,0,1,4.751,8.3a6.783,6.783,0,0,1-.09-1.048C4.654,5.384,5.485,4.288,8.3,4.749Z" transform="translate(-0.002 0)"/></g></g></g><path class="v" d="M375,120H325" transform="translate(886 2558)"/><path class="w" d="M429,120H370c-6.667,0-10-1.923-10-8.589V26" transform="translate(809.5 2694.5)"/><path class="x" d="M14.5,0A14.5,14.5,0,1,1,0,14.5,14.5,14.5,0,0,1,14.5,0Z" transform="translate(1240 2800)"/><text class="y" transform="translate(1290 2708)"><tspan x="-40.415" y="0">Genetic sequencing</tspan></text></g></g></svg>