<?xml version="1.0" encoding="utf-8"?>
<!-- Generator: Adobe Illustrator 21.0.1, SVG Export Plug-In . SVG Version: 6.00 Build 0)  -->
<svg version="1.1" id="Слой_1" xmlns="http://www.w3.org/2000/svg" xmlns:xlink="http://www.w3.org/1999/xlink" x="0px" y="0px"
	 viewBox="0 0 420 247" style="enable-background:new 0 0 420 247;" xml:space="preserve">
<style type="text/css">
	.st0{clip-path:url(#SVGID_2_);}
	.st1{fill:#FFFFFF;}
	.st2{opacity:0.94;}
	.st3{fill:#B5B5B5;}
	.st4{fill:#88C5FC;}
	.st5{fill:#C78BC5;}
	.st6{fill:#F9A18A;}
	.st7{fill:#F7E88B;}
	.st8{fill:#686868;}
	.st9{font-family:'TrebuchetMS';}
	.st10{font-size:12px;}
	.st11{opacity:0.89;fill:#C17DBE;enable-background:new    ;}
	.st12{fill:#353639;}
	.st13{fill:#34FFD6;}
	.st14{fill:#DBDBDB;}
	.st15{fill:#34AEFF;}
	.st16{font-family:'ArialMT';}
	.st17{font-size:13px;}
	.st18{opacity:0.91;}
	.st19{fill:#FFDB77;}
	.st20{fill:#FF905E;}
	.st21{fill:#28D2E4;}
	.st22{fill:#28C3E4;}
	.st23{fill:#F7AC16;}
	.st24{fill:#F2961D;}
	.st25{fill:#2571A0;}
	.st26{fill:#176287;}
</style>
<g>
	<defs>
		<rect id="SVGID_1_" y="-28" width="420" height="300"/>
	</defs>
	<clipPath id="SVGID_2_">
		<use xlink:href="#SVGID_1_"  style="overflow:visible;"/>
	</clipPath>
	<g id="ixAnypoint-security_1" class="st0">
		<g id="Group_746" transform="translate(-1591 4794.997)">
			<g id="Group_468" transform="translate(602.26 3824.538)">
				<g transform="matrix(1, 0, 0, 1, 988.74, -8619.53)">
					<path id="Rectangle_149-2" class="st1" d="M243.3,145.5h144.9c2.2,0,4,1.8,4,4v90.6c0,2.2-1.8,4-4,4H243.3c-2.2,0-4-1.8-4-4
						v-90.6C239.3,147.3,241.1,145.5,243.3,145.5z"/>
				</g>
				<g id="Group_353" transform="translate(10.563 69.641)" class="st2">
					<path id="Rectangle_19" class="st3" d="M1231.5-8473.9h12.5c1.9,0,3.5,1.6,3.5,3.5l0,0c0,1.9-1.6,3.5-3.5,3.5h-12.5
						c-1.9,0-3.5-1.6-3.5-3.5l0,0C1228-8472.4,1229.6-8473.9,1231.5-8473.9z"/>
					<path id="Rectangle_20" class="st4" d="M1257.3-8474h36c1.9,0,3.5,1.6,3.5,3.5l0,0c0,1.9-1.6,3.5-3.5,3.5h-36
						c-1.9,0-3.5-1.6-3.5-3.5l0,0C1253.8-8472.4,1255.4-8474,1257.3-8474z"/>
					<path id="Rectangle_21" class="st5" d="M1231.5-8461.7h54c1.9,0,3.5,1.6,3.5,3.5l0,0c0,1.9-1.6,3.5-3.5,3.5h-54
						c-1.9,0-3.5-1.6-3.5-3.5l0,0C1228-8460.1,1229.6-8461.7,1231.5-8461.7z"/>
					<path id="Rectangle_95" class="st6" d="M1306.6-8474h10.8c1.9,0,3.5,1.6,3.5,3.5l0,0c0,1.9-1.6,3.5-3.5,3.5h-10.8
						c-1.9,0-3.5-1.6-3.5-3.5l0,0C1303.1-8472.4,1304.7-8474,1306.6-8474z"/>
					<path id="Rectangle_96" class="st7" d="M1330.1-8474h25.9c1.9,0,3.5,1.6,3.5,3.5l0,0c0,1.9-1.6,3.5-3.5,3.5h-25.9
						c-1.9,0-3.5-1.6-3.5-3.5l0,0C1326.6-8472.4,1328.2-8474,1330.1-8474z"/>
				</g>
				<g id="ixlayer-logo" transform="translate(34.036 22.127)">
					<text transform="matrix(1 0 0 1 1259.562 -8462.5498)" class="st8 st9 st10">ixlayer</text>
					<path id="Path_4" class="st11" d="M1228-8457.3l13.6-4.9l13.6,4.9l-13.6,4.9L1228-8457.3z"/>
					<path id="Path_3" class="st7" d="M1228-8462.7l13.6-4.9l13.6,4.9l-13.6,4.9L1228-8462.7z"/>
					<path id="Path_2" class="st6" d="M1228-8465.8l13.6-4.9l13.6,4.9l-13.6,4.9L1228-8465.8z"/>
					<path id="Path_1" class="st4" d="M1228-8469.1l13.6-4.9l13.6,4.9l-13.6,4.9L1228-8469.1z"/>
				</g>
			</g>
			<g id="Group_312" transform="translate(391 3824.534)">
				<g transform="matrix(1, 0, 0, 1, 1200, -8619.53)">
					<path id="Path_263-2" class="st12" d="M30.3,145.5h160.1c1.3,0,2.3,1.1,2.3,2.3l0,0v93.9c0,1.3-1.1,2.3-2.3,2.3l0,0H30.3
						c-1.3,0-2.3-1.1-2.3-2.3c0,0,0,0,0,0v-93.9C28,146.6,29.1,145.5,30.3,145.5z"/>
				</g>
				<g id="Group_311" transform="translate(17.605 17.605)">
					<path id="Rectangle_116" class="st13" d="M1257.3-8474h53.8c1.9,0,3.5,1.6,3.5,3.5l0,0c0,1.9-1.6,3.5-3.5,3.5h-53.8
						c-1.9,0-3.5-1.6-3.5-3.5l0,0C1253.8-8472.4,1255.4-8474,1257.3-8474z"/>
					<path id="Rectangle_117" class="st13" d="M1231.5-8459.9h123c1.9,0,3.5,1.6,3.5,3.5l0,0c0,1.9-1.6,3.5-3.5,3.5h-123
						c-1.9,0-3.5-1.6-3.5-3.5l0,0C1228-8458.3,1229.6-8459.9,1231.5-8459.9z"/>
					<path id="Rectangle_118" class="st13" d="M1231.5-8445.8h123c1.9,0,3.5,1.6,3.5,3.5l0,0c0,1.9-1.6,3.5-3.5,3.5h-123
						c-1.9,0-3.5-1.6-3.5-3.5l0,0C1228-8444.3,1229.6-8445.8,1231.5-8445.8z"/>
					<path id="Rectangle_119" class="st13" d="M1231.5-8431.7h123c1.9,0,3.5,1.6,3.5,3.5l0,0c0,1.9-1.6,3.5-3.5,3.5h-123
						c-1.9,0-3.5-1.6-3.5-3.5l0,0C1228-8430.2,1229.6-8431.7,1231.5-8431.7z"/>
					<path id="Rectangle_120" class="st13" d="M1231.5-8417.7h25.6c1.9,0,3.5,1.6,3.5,3.5l0,0c0,1.9-1.6,3.5-3.5,3.5h-25.6
						c-1.9,0-3.5-1.6-3.5-3.5l0,0C1228-8416.1,1229.6-8417.7,1231.5-8417.7z"/>
					<path id="Rectangle_121" class="st3" d="M1231.5-8474h13.9c1.9,0,3.5,1.6,3.5,3.5l0,0c0,1.9-1.6,3.5-3.5,3.5h-13.9
						c-1.9,0-3.5-1.6-3.5-3.5l0,0C1228-8472.4,1229.6-8474,1231.5-8474z"/>
				</g>
			</g>
			<g id="Group_365" transform="translate(496.63 3679.003)">
				<g id="Group_302" transform="translate(0 0)">
					<g transform="matrix(1, 0, 0, 1, 1094.37, -8474)">
						<path id="Rectangle_84-2" class="st1" d="M135.6,0h160.8c1.1,0,2,0.9,2,2v94.6c0,1.1-0.9,2-2,2H135.6c-1.1,0-2-0.9-2-2V2
							C133.6,0.9,134.5,0,135.6,0z"/>
					</g>
					<g id="Group_223" transform="translate(92.72 82.153)">
						<path id="Rectangle_85" class="st14" d="M1233.9-8474h18.8c3.2,0,5.9,2.6,5.9,5.9v0c0,3.2-2.6,5.9-5.9,5.9h-18.8
							c-3.2,0-5.9-2.6-5.9-5.9v0C1228-8471.4,1230.6-8474,1233.9-8474z"/>
						<path id="Rectangle_86" class="st14" d="M1270.3-8474h18.8c3.2,0,5.9,2.6,5.9,5.9v0c0,3.2-2.6,5.9-5.9,5.9h-18.8
							c-3.2,0-5.9-2.6-5.9-5.9v0C1264.4-8471.4,1267-8474,1270.3-8474z"/>
					</g>
					<path id="Rectangle_154" class="st15" d="M1230-8474h160.8c1.1,0,2,0.9,2,2v29.7l0,0H1228l0,0v-29.7
						C1228-8473.1,1228.9-8474,1230-8474z"/>
				</g>
				<g id="Group_364" transform="translate(29.026 8.645)">
					<g id="Group_62" transform="translate(16.329 1.918)">
						<text transform="matrix(1 0 0 1 1228 -8464)" class="st1 st16 st17">Genetic Product</text>
					</g>
					<g id="dna" transform="translate(0 0)" class="st18">
						<path id="Path_89" class="st19" d="M1236-8463.4l-3.3-3.3c-0.2-0.2-0.2-0.6,0-0.8c0.2-0.2,0.6-0.2,0.8,0l3.3,3.3
							c0.2,0.2,0.2,0.6,0,0.8C1236.6-8463.1,1236.3-8463.1,1236-8463.4L1236-8463.4z"/>
						<path id="Path_90" class="st20" d="M1236.9-8464.2l-1.7-1.7l-0.8,0.8l1.7,1.7c0.2,0.2,0.6,0.2,0.8,0
							C1237.1-8463.6,1237.1-8464,1236.9-8464.2z"/>
						<path id="Path_91" class="st19" d="M1241.2-8468.5l-3.3-3.3c-0.2-0.2-0.2-0.6,0-0.8c0.2-0.2,0.6-0.2,0.8,0l3.3,3.3
							c0.2,0.2,0.2,0.6,0,0.8C1241.8-8468.3,1241.4-8468.3,1241.2-8468.5z"/>
						<path id="Path_92" class="st20" d="M1242-8469.4l-1.7-1.7l-0.8,0.8l1.7,1.7c0.2,0.2,0.6,0.2,0.8,0
							C1242.3-8468.8,1242.3-8469.2,1242-8469.4L1242-8469.4z"/>
						<path id="Path_93" class="st21" d="M1232.6-8460l-3.3-3.3c-0.2-0.2-0.2-0.6,0-0.8c0.2-0.2,0.6-0.2,0.8,0l3.3,3.3
							c0.2,0.2,0.2,0.6,0,0.8C1233.2-8459.7,1232.9-8459.7,1232.6-8460L1232.6-8460z"/>
						<path id="Path_94" class="st22" d="M1233.5-8460.8l-1.7-1.7l-0.8,0.8l1.7,1.7c0.2,0.2,0.6,0.2,0.8,0
							C1233.7-8460.2,1233.7-8460.6,1233.5-8460.8L1233.5-8460.8L1233.5-8460.8z"/>
						<path id="Path_95" class="st21" d="M1237.8-8465.1l-3.3-3.3c-0.2-0.2-0.2-0.6,0-0.8c0.2-0.2,0.6-0.2,0.8,0l3.3,3.3
							c0.2,0.2,0.2,0.6,0,0.8C1238.4-8464.9,1238-8464.9,1237.8-8465.1z"/>
						<path id="Path_96" class="st22" d="M1238.6-8466l-1.7-1.7l-0.8,0.8l1.7,1.7c0.2,0.2,0.6,0.2,0.8,0
							C1238.9-8465.4,1238.9-8465.7,1238.6-8466z"/>
						<path id="Path_97" class="st1" d="M1239-8468.2c1.1,0.1,3,0.2,4.2-1c0.2-0.2,0.2-0.6,0-0.8c-0.2-0.2-0.6-0.2-0.8,0
							c-0.8,0.8-2.4,0.8-3.6,0.6c-0.2-0.9-0.2-2.7,0.6-3.6c0.2-0.2,0.2-0.6,0-0.8c-0.2-0.2-0.6-0.2-0.8,0l0,0
							c-1.1,1.1-1.1,3.1-1,4.2c-3.8-0.4-5.6,1.3-5.2,5.2c-1.1-0.1-3-0.2-4.2,1c-0.2,0.2-0.2,0.6,0,0.8c0.2,0.2,0.6,0.2,0.8,0l0,0
							c0.8-0.8,2.4-0.8,3.6-0.6c0.2,1.1,0.2,2.8-0.6,3.6c-0.2,0.2-0.2,0.6,0,0.8c0.2,0.2,0.6,0.2,0.8,0c1.1-1.1,1.1-3.1,1-4.2
							C1237.5-8462.6,1239.4-8464.4,1239-8468.2z M1237.7-8468.4c0.5,3.2-0.7,4.3-2.9,4.3c-0.4,0-0.8,0-1.2-0.1
							c-0.1-0.4-0.1-0.8-0.1-1.2C1233.5-8467.7,1234.4-8469,1237.7-8468.4z"/>
					</g>
				</g>
			</g>
			<g id="Shield_-_01" transform="translate(534.277 3766.182)">
				<g transform="matrix(1, 0, 0, 1, 1056.72, -8561.18)">
					<path id="Path_697-2" class="st23" d="M259.5,94.9c-45.7-8.3-42.7-7.8-43.4-7.7l-42.5,7.7c-1.3,0.2-2.3,1.4-2.3,2.7v39.2
						c0,18,7.6,33.8,22.5,46.8c6.5,5.7,13.8,10.4,21.6,13.9c0.7,0.3,1.5,0.3,2.2,0c7.8-3.6,15.1-8.3,21.6-13.9
						c14.9-13.1,22.5-28.8,22.5-46.8V97.7C261.7,96.3,260.8,95.2,259.5,94.9z"/>
				</g>
				<path id="Path_698" class="st24" d="M1237.6-8423.7c0-45.4-0.3-42.9,0.6-44l-7.9,1.4c-1.3,0.2-2.3,1.4-2.3,2.7v39.2
					c0,18,7.6,33.8,22.5,46.8c6.5,5.7,13.8,10.4,21.6,13.9c0.1,0.1,0.2,0.1,0.4,0.1C1251.2-8377.3,1237.6-8397.9,1237.6-8423.7z"/>
				<path id="Path_699" class="st25" d="M1273.2-8474c-0.4,0,2.1-0.4-43,7.8c-1.3,0.2-2.3,1.4-2.3,2.7v37.5h45.2V-8474z"/>
				<path id="Path_700" class="st26" d="M1238.2-8467.7l-7.9,1.4c-1.3,0.2-2.3,1.4-2.3,2.7v37.5h9.6
					C1237.6-8469.2,1237.3-8466.5,1238.2-8467.7z"/>
				<path id="Path_701" class="st25" d="M1273.2-8363.4c1.7,0,9.5-4.6,11.3-5.7c21.4-13.4,33.9-32.1,33.9-57h-45.2V-8363.4z"/>
			</g>
		</g>
	</g>
</g>
</svg>
