<?xml version="1.0" encoding="utf-8"?>
<!-- Generator: Adobe Illustrator 21.0.1, SVG Export Plug-In . SVG Version: 6.00 Build 0)  -->
<svg version="1.1" id="Слой_1" xmlns="http://www.w3.org/2000/svg" xmlns:xlink="http://www.w3.org/1999/xlink" x="0px" y="0px"
	 viewBox="0 0 420 279.3" style="enable-background:new 0 0 420 279.3;" xml:space="preserve">
<style type="text/css">
	.st0{clip-path:url(#SVGID_2_);}
	.st1{opacity:0.2;}
	.st2{fill:#FFFFFF;}
	.st3{fill:#DBDBDB;}
	.st4{fill:#34AEFF;}
	.st5{font-family:'ArialMT';}
	.st6{font-size:12px;}
	.st7{opacity:0.91;}
	.st8{fill:#FFDB77;}
	.st9{fill:#FF905E;}
	.st10{fill:#28D2E4;}
	.st11{fill:#28C3E4;}
	.st12{fill:none;stroke:#B5B5B5;stroke-width:3;stroke-miterlimit:10;}
	.st13{fill:#B5B5B5;}
	.st14{fill:#555555;}
	.st15{font-family:'Arial-BoldMT';}
	.st16{opacity:0.6;}
	.st17{fill:none;stroke:#34FFD6;stroke-width:3;stroke-miterlimit:10;}
	.st18{fill:#34FFD6;}
</style>
<g>
	<defs>
		<rect id="SVGID_1_" y="-9" width="420" height="300"/>
	</defs>
	<clipPath id="SVGID_2_">
		<use xlink:href="#SVGID_1_"  style="overflow:visible;"/>
	</clipPath>
	<g id="ixAnypoint-updates_1" class="st0">
		<g id="Group_747" transform="translate(-2114 5355)">
			<g id="Group_559" transform="translate(1511.355 3103)" class="st1">
				<g id="Group_550" transform="translate(109.439 72.601)">
					<g id="Group_302" transform="translate(0 0)">
						<g transform="matrix(1, 0, 0, 1, 493.21, -8530.6)">
							<path id="Rectangle_84-4" class="st2" d="M244.8,75.6h148.2c1.1,0,2,0.9,2,2v87c0,1.1-0.9,2-2,2H244.8c-1.1,0-2-0.9-2-2v-87
								C242.8,76.5,243.7,75.6,244.8,75.6z"/>
						</g>
						<g id="Group_223" transform="translate(85.601 75.845)">
							<path id="Rectangle_85" class="st3" d="M741.4-8455h17.3c3,0,5.4,2.4,5.4,5.4l0,0c0,3-2.4,5.4-5.4,5.4h-17.3
								c-3,0-5.4-2.4-5.4-5.4l0,0C736-8452.6,738.4-8455,741.4-8455z"/>
							<path id="Rectangle_86" class="st3" d="M775-8455h17.3c3,0,5.4,2.4,5.4,5.4l0,0c0,3-2.4,5.4-5.4,5.4H775
								c-3,0-5.4-2.4-5.4-5.4l0,0C769.6-8452.6,772-8455,775-8455z"/>
						</g>
						<path id="Rectangle_154" class="st4" d="M738-8455h148.2c1.1,0,2,0.9,2,2v27.3l0,0H736l0,0v-27.3
							C736-8454.1,736.9-8455,738-8455z"/>
					</g>
					<g id="Group_364" transform="translate(26.798 7.982)">
						<g id="Group_62" transform="translate(15.076 1.77)">
							<text transform="matrix(1 0 0 1 736 -8446.0098)" class="st2 st5 st6">Genetic Product</text>
						</g>
						<g id="dna" transform="translate(0 0)" class="st7">
							<path id="Path_89" class="st8" d="M743.4-8445.2l-3.1-3.1c-0.2-0.2-0.2-0.6,0-0.8c0.2-0.2,0.5-0.2,0.7,0l3.1,3.1
								c0.2,0.2,0.2,0.5,0,0.8C744-8445,743.7-8445,743.4-8445.2C743.4-8445.2,743.4-8445.2,743.4-8445.2z"/>
							<path id="Path_90" class="st9" d="M744.2-8446l-1.5-1.5l-0.8,0.8l1.5,1.5c0.2,0.2,0.6,0.2,0.8,0
								C744.4-8445.4,744.4-8445.7,744.2-8446C744.2-8446,744.2-8446,744.2-8446z"/>
							<path id="Path_91" class="st8" d="M748.2-8450l-3.1-3.1c-0.2-0.2-0.2-0.6,0-0.8c0.2-0.2,0.6-0.2,0.8,0c0,0,0,0,0,0l3.1,3.1
								c0.2,0.2,0.2,0.6,0,0.8C748.7-8449.8,748.4-8449.8,748.2-8450z"/>
							<path id="Path_92" class="st9" d="M749-8450.7l-1.5-1.5l-0.8,0.8l1.5,1.5c0.2,0.2,0.6,0.2,0.8,0
								C749.2-8450.2,749.2-8450.5,749-8450.7z"/>
							<path id="Path_93" class="st10" d="M740.3-8442.1l-3.1-3.1c-0.2-0.2-0.2-0.6,0-0.8c0.2-0.2,0.6-0.2,0.8,0c0,0,0,0,0,0
								l3.1,3.1c0.2,0.2,0.2,0.6,0,0.8C740.8-8441.9,740.5-8441.9,740.3-8442.1z"/>
							<path id="Path_94" class="st11" d="M741-8442.8l-1.5-1.5l-0.8,0.8l1.5,1.5c0.2,0.2,0.6,0.2,0.8,0
								C741.2-8442.3,741.2-8442.6,741-8442.8L741-8442.8z"/>
							<path id="Path_95" class="st10" d="M745-8446.8l-3.1-3.1c-0.2-0.2-0.2-0.5,0-0.8c0.2-0.2,0.6-0.2,0.8,0c0,0,0,0,0,0l3.1,3.1
								c0.2,0.2,0.2,0.6,0,0.8C745.6-8446.6,745.2-8446.6,745-8446.8z"/>
							<path id="Path_96" class="st11" d="M745.8-8447.6l-1.5-1.5l-0.8,0.8l1.5,1.5c0.2,0.2,0.6,0.2,0.8,0
								C746-8447.1,746-8447.4,745.8-8447.6z"/>
							<path id="Path_97" class="st2" d="M746.1-8449.7c1,0.1,2.8,0.1,3.9-0.9c0.2-0.2,0.2-0.6,0-0.8c-0.2-0.2-0.5-0.2-0.7,0
								c-0.7,0.7-2.3,0.7-3.3,0.6c-0.1-0.9-0.2-2.5,0.6-3.3c0.2-0.2,0.2-0.6,0-0.8c-0.2-0.2-0.5-0.2-0.7,0c-1.1,1.1-1,2.8-0.9,3.9
								c-3.5-0.4-5.2,1.2-4.8,4.8c-1-0.1-2.8-0.1-3.9,0.9c-0.2,0.2-0.2,0.6,0,0.8c0.2,0.2,0.5,0.2,0.7,0c0.7-0.7,2.2-0.7,3.3-0.6
								c0.2,1,0.2,2.5-0.6,3.3c-0.2,0.2-0.2,0.6,0,0.8c0.2,0.2,0.5,0.2,0.7,0c1.1-1.1,1-2.8,0.9-3.9
								C744.8-8444.5,746.5-8446.1,746.1-8449.7z M745-8449.9c0.5,3-0.6,4-2.7,3.9c-0.4,0-0.8,0-1.1-0.1c-0.1-0.4-0.1-0.8-0.1-1.1
								C741-8449.2,741.9-8450.4,745-8449.9L745-8449.9z"/>
						</g>
					</g>
				</g>
				<g id="Group_555">
					<g id="Group_554" transform="translate(20.046 51.469)">
						<path id="Path_787" class="st12" d="M822.7-8390h-75.8c-7.2,0-10.8-3.6-10.8-10.8v-54.2"/>
						<path id="Path_788" class="st13" d="M819.4-8390.5c0-3.3,2.7-6,6-6s6,2.7,6,6c0,3.3-2.7,6-6,6S819.4-8387.2,819.4-8390.5
							C819.4-8390.5,819.4-8390.5,819.4-8390.5z"/>
					</g>
					<g id="Group_553">
						<path id="Path_789" class="st13" d="M756.6-8455c11.4,0,20.6,9.2,20.6,20.6s-9.2,20.6-20.6,20.6c-11.4,0-20.6-9.2-20.6-20.6
							S745.2-8455,756.6-8455C756.6-8455,756.6-8455,756.6-8455z"/>
						<text transform="matrix(1 0 0 1 743.907 -8429.7568)" class="st14 st15 st6">v0.9</text>
					</g>
				</g>
			</g>
			<g id="Group_560" transform="translate(1457.178 3159.345)" class="st16">
				<g id="Group_550-2" transform="translate(109.439 72.601)">
					<g id="Group_302-2" transform="translate(0 0)">
						<g transform="matrix(1, 0, 0, 1, 547.38, -8586.95)">
							<path id="Rectangle_84-5" class="st2" d="M190.6,131.9h148.2c1.1,0,2,0.9,2,2v87c0,1.1-0.9,2-2,2H190.6c-1.1,0-2-0.9-2-2v-87
								C188.6,132.8,189.5,131.9,190.6,131.9z"/>
						</g>
						<g id="Group_223-2" transform="translate(85.601 75.845)">
							<path id="Rectangle_85-2" class="st3" d="M741.4-8455h17.3c3,0,5.4,2.4,5.4,5.4l0,0c0,3-2.4,5.4-5.4,5.4h-17.3
								c-3,0-5.4-2.4-5.4-5.4l0,0C736-8452.6,738.4-8455,741.4-8455z"/>
							<path id="Rectangle_86-2" class="st3" d="M775-8455h17.3c3,0,5.4,2.4,5.4,5.4l0,0c0,3-2.4,5.4-5.4,5.4H775
								c-3,0-5.4-2.4-5.4-5.4l0,0C769.6-8452.6,772-8455,775-8455z"/>
						</g>
						<path id="Rectangle_154-2" class="st4" d="M738-8455h148.2c1.1,0,2,0.9,2,2v27.3l0,0H736l0,0v-27.3
							C736-8454.1,736.9-8455,738-8455z"/>
					</g>
					<g id="Group_364-2" transform="translate(26.798 7.982)">
						<g id="Group_62-2" transform="translate(15.076 1.77)">
							<text transform="matrix(1 0 0 1 736 -8446.0098)" class="st2 st5 st6">Genetic Product</text>
						</g>
						<g id="dna-2" transform="translate(0 0)" class="st7">
							<path id="Path_89-2" class="st8" d="M743.4-8445.2l-3.1-3.1c-0.2-0.2-0.2-0.6,0-0.8c0.2-0.2,0.5-0.2,0.7,0l3.1,3.1
								c0.2,0.2,0.2,0.5,0,0.8C744-8445,743.7-8445,743.4-8445.2C743.4-8445.2,743.4-8445.2,743.4-8445.2z"/>
							<path id="Path_90-2" class="st9" d="M744.2-8446l-1.5-1.5l-0.8,0.8l1.5,1.5c0.2,0.2,0.6,0.2,0.8,0
								C744.4-8445.4,744.4-8445.7,744.2-8446C744.2-8446,744.2-8446,744.2-8446z"/>
							<path id="Path_91-2" class="st8" d="M748.2-8450l-3.1-3.1c-0.2-0.2-0.2-0.6,0-0.8c0.2-0.2,0.6-0.2,0.8,0c0,0,0,0,0,0l3.1,3.1
								c0.2,0.2,0.2,0.6,0,0.8C748.7-8449.8,748.4-8449.8,748.2-8450z"/>
							<path id="Path_92-2" class="st9" d="M749-8450.7l-1.5-1.5l-0.8,0.8l1.5,1.5c0.2,0.2,0.6,0.2,0.8,0
								C749.2-8450.2,749.2-8450.5,749-8450.7z"/>
							<path id="Path_93-2" class="st10" d="M740.3-8442.1l-3.1-3.1c-0.2-0.2-0.2-0.6,0-0.8c0.2-0.2,0.6-0.2,0.8,0c0,0,0,0,0,0
								l3.1,3.1c0.2,0.2,0.2,0.6,0,0.8C740.8-8441.9,740.5-8441.9,740.3-8442.1z"/>
							<path id="Path_94-2" class="st11" d="M741-8442.8l-1.5-1.5l-0.8,0.8l1.5,1.5c0.2,0.2,0.6,0.2,0.8,0
								C741.2-8442.3,741.2-8442.6,741-8442.8L741-8442.8z"/>
							<path id="Path_95-2" class="st10" d="M745-8446.8l-3.1-3.1c-0.2-0.2-0.2-0.5,0-0.8c0.2-0.2,0.6-0.2,0.8,0c0,0,0,0,0,0
								l3.1,3.1c0.2,0.2,0.2,0.6,0,0.8C745.6-8446.6,745.2-8446.6,745-8446.8z"/>
							<path id="Path_96-2" class="st11" d="M745.8-8447.6l-1.5-1.5l-0.8,0.8l1.5,1.5c0.2,0.2,0.6,0.2,0.8,0
								C746-8447.1,746-8447.4,745.8-8447.6z"/>
							<path id="Path_97-2" class="st2" d="M746.1-8449.7c1,0.1,2.8,0.1,3.9-0.9c0.2-0.2,0.2-0.6,0-0.8c-0.2-0.2-0.5-0.2-0.7,0
								c-0.7,0.7-2.3,0.7-3.3,0.6c-0.1-0.9-0.2-2.5,0.6-3.3c0.2-0.2,0.2-0.6,0-0.8c-0.2-0.2-0.5-0.2-0.7,0c-1.1,1.1-1,2.8-0.9,3.9
								c-3.5-0.4-5.2,1.2-4.8,4.8c-1-0.1-2.8-0.1-3.9,0.9c-0.2,0.2-0.2,0.6,0,0.8c0.2,0.2,0.5,0.2,0.7,0c0.7-0.7,2.2-0.7,3.3-0.6
								c0.2,1,0.2,2.5-0.6,3.3c-0.2,0.2-0.2,0.6,0,0.8c0.2,0.2,0.5,0.2,0.7,0c1.1-1.1,1-2.8,0.9-3.9
								C744.8-8444.5,746.5-8446.1,746.1-8449.7z M745-8449.9c0.5,3-0.6,4-2.7,3.9c-0.4,0-0.8,0-1.1-0.1c-0.1-0.4-0.1-0.8-0.1-1.1
								C741-8449.2,741.9-8450.4,745-8449.9L745-8449.9z"/>
						</g>
					</g>
				</g>
				<g id="Group_555-2" transform="translate(0 0)">
					<g id="Group_554-2" transform="translate(20.046 51.469)">
						<path id="Path_787-2" class="st12" d="M822.7-8390h-75.8c-7.2,0-10.8-3.6-10.8-10.8v-54.2"/>
						<path id="Path_788-2" class="st13" d="M819.4-8390.5c0-3.3,2.7-6,6-6s6,2.7,6,6c0,3.3-2.7,6-6,6S819.4-8387.2,819.4-8390.5
							C819.4-8390.5,819.4-8390.5,819.4-8390.5z"/>
					</g>
					<g id="Group_553-2">
						<path id="Path_789-2" class="st13" d="M756.6-8455c11.4,0,20.6,9.2,20.6,20.6s-9.2,20.6-20.6,20.6c-11.4,0-20.6-9.2-20.6-20.6
							S745.2-8455,756.6-8455C756.6-8455,756.6-8455,756.6-8455z"/>
						<text transform="matrix(1 0 0 1 743.907 -8429.7568)" class="st14 st15 st6">v1.0</text>
					</g>
				</g>
			</g>
			<g id="Group_561" transform="translate(1403 3215.689)">
				<g id="Group_550-3" transform="translate(109.439 72.601)">
					<g id="Group_302-3" transform="translate(0 0)">
						<g transform="matrix(1, 0, 0, 1, 601.56, -8643.29)">
							<path id="Rectangle_84-6" class="st2" d="M136.4,188.3h148.2c1.1,0,2,0.9,2,2v87c0,1.1-0.9,2-2,2H136.4c-1.1,0-2-0.9-2-2v-87
								C134.4,189.2,135.3,188.3,136.4,188.3z"/>
						</g>
						<g id="Group_223-3" transform="translate(85.601 75.845)">
							<path id="Rectangle_85-3" class="st3" d="M741.4-8455h17.3c3,0,5.4,2.4,5.4,5.4l0,0c0,3-2.4,5.4-5.4,5.4h-17.3
								c-3,0-5.4-2.4-5.4-5.4l0,0C736-8452.6,738.4-8455,741.4-8455z"/>
							<path id="Rectangle_86-3" class="st3" d="M775-8455h17.3c3,0,5.4,2.4,5.4,5.4l0,0c0,3-2.4,5.4-5.4,5.4H775
								c-3,0-5.4-2.4-5.4-5.4l0,0C769.6-8452.6,772-8455,775-8455z"/>
						</g>
						<path id="Rectangle_154-3" class="st4" d="M738-8455h148.2c1.1,0,2,0.9,2,2v27.3l0,0H736l0,0v-27.3
							C736-8454.1,736.9-8455,738-8455z"/>
					</g>
					<g id="Group_364-3" transform="translate(26.798 7.982)">
						<g id="Group_62-3" transform="translate(15.076 1.77)">
							<text transform="matrix(1 0 0 1 736 -8446.0098)" class="st2 st5 st6">Genetic Product</text>
						</g>
						<g id="dna-3" transform="translate(0 0)" class="st7">
							<path id="Path_89-3" class="st8" d="M743.4-8445.2l-3.1-3.1c-0.2-0.2-0.2-0.6,0-0.8c0.2-0.2,0.5-0.2,0.7,0l3.1,3.1
								c0.2,0.2,0.2,0.5,0,0.8C744-8445,743.7-8445,743.4-8445.2C743.4-8445.2,743.4-8445.2,743.4-8445.2z"/>
							<path id="Path_90-3" class="st9" d="M744.2-8446l-1.5-1.5l-0.8,0.8l1.5,1.5c0.2,0.2,0.6,0.2,0.8,0
								C744.4-8445.4,744.4-8445.7,744.2-8446C744.2-8446,744.2-8446,744.2-8446z"/>
							<path id="Path_91-3" class="st8" d="M748.2-8450l-3.1-3.1c-0.2-0.2-0.2-0.6,0-0.8c0.2-0.2,0.6-0.2,0.8,0c0,0,0,0,0,0l3.1,3.1
								c0.2,0.2,0.2,0.6,0,0.8C748.7-8449.8,748.4-8449.8,748.2-8450z"/>
							<path id="Path_92-3" class="st9" d="M749-8450.7l-1.5-1.5l-0.8,0.8l1.5,1.5c0.2,0.2,0.6,0.2,0.8,0
								C749.2-8450.2,749.2-8450.5,749-8450.7z"/>
							<path id="Path_93-3" class="st10" d="M740.3-8442.1l-3.1-3.1c-0.2-0.2-0.2-0.6,0-0.8c0.2-0.2,0.6-0.2,0.8,0c0,0,0,0,0,0
								l3.1,3.1c0.2,0.2,0.2,0.6,0,0.8C740.8-8441.9,740.5-8441.9,740.3-8442.1z"/>
							<path id="Path_94-3" class="st11" d="M741-8442.8l-1.5-1.5l-0.8,0.8l1.5,1.5c0.2,0.2,0.6,0.2,0.8,0
								C741.2-8442.3,741.2-8442.6,741-8442.8L741-8442.8z"/>
							<path id="Path_95-3" class="st10" d="M745-8446.8l-3.1-3.1c-0.2-0.2-0.2-0.5,0-0.8c0.2-0.2,0.6-0.2,0.8,0c0,0,0,0,0,0
								l3.1,3.1c0.2,0.2,0.2,0.6,0,0.8C745.6-8446.6,745.2-8446.6,745-8446.8z"/>
							<path id="Path_96-3" class="st11" d="M745.8-8447.6l-1.5-1.5l-0.8,0.8l1.5,1.5c0.2,0.2,0.6,0.2,0.8,0
								C746-8447.1,746-8447.4,745.8-8447.6z"/>
							<path id="Path_97-3" class="st2" d="M746.1-8449.7c1,0.1,2.8,0.1,3.9-0.9c0.2-0.2,0.2-0.6,0-0.8c-0.2-0.2-0.5-0.2-0.7,0
								c-0.7,0.7-2.3,0.7-3.3,0.6c-0.1-0.9-0.2-2.5,0.6-3.3c0.2-0.2,0.2-0.6,0-0.8c-0.2-0.2-0.5-0.2-0.7,0c-1.1,1.1-1,2.8-0.9,3.9
								c-3.5-0.4-5.2,1.2-4.8,4.8c-1-0.1-2.8-0.1-3.9,0.9c-0.2,0.2-0.2,0.6,0,0.8c0.2,0.2,0.5,0.2,0.7,0c0.7-0.7,2.2-0.7,3.3-0.6
								c0.2,1,0.2,2.5-0.6,3.3c-0.2,0.2-0.2,0.6,0,0.8c0.2,0.2,0.5,0.2,0.7,0c1.1-1.1,1-2.8,0.9-3.9
								C744.8-8444.5,746.5-8446.1,746.1-8449.7z M745-8449.9c0.5,3-0.6,4-2.7,3.9c-0.4,0-0.8,0-1.1-0.1c-0.1-0.4-0.1-0.8-0.1-1.1
								C741-8449.2,741.9-8450.4,745-8449.9L745-8449.9z"/>
						</g>
					</g>
				</g>
				<g id="Group_555-3" transform="translate(0)">
					<g id="Group_554-3" transform="translate(20.046 51.469)">
						<path id="Path_787-3" class="st17" d="M822.7-8390h-75.8c-7.2,0-10.8-3.6-10.8-10.8v-54.2"/>
						<path id="Path_788-3" class="st18" d="M819.4-8390.5c0-3.3,2.7-6,6-6s6,2.7,6,6c0,3.3-2.7,6-6,6S819.4-8387.2,819.4-8390.5
							C819.4-8390.5,819.4-8390.5,819.4-8390.5z"/>
					</g>
					<g id="Group_553-3">
						<path id="Path_789-3" class="st18" d="M756.6-8455c11.4,0,20.6,9.2,20.6,20.6s-9.2,20.6-20.6,20.6c-11.4,0-20.6-9.2-20.6-20.6
							S745.2-8455,756.6-8455C756.6-8455,756.6-8455,756.6-8455z"/>
						<text transform="matrix(1 0 0 1 743.907 -8429.7568)" class="st14 st15 st6">v1.1</text>
					</g>
				</g>
			</g>
		</g>
	</g>
</g>
</svg>
