<svg xmlns="http://www.w3.org/2000/svg" xmlns:xlink="http://www.w3.org/1999/xlink" viewBox="-248 8051 420 300">
  <defs>
    <style>
      .cls-1 {
        clip-path: url(#clip-ixAnypoint-end-to-end_1);
      }

      .cls-15, .cls-2 {
        fill: #fff;
      }

      .cls-3 {
        opacity: 0.94;
      }

      .cls-4 {
        fill: #b5b5b5;
      }

      .cls-5 {
        fill: #88c5fc;
      }

      .cls-6 {
        fill: #c78bc5;
      }

      .cls-7 {
        fill: #f9a18a;
      }

      .cls-8 {
        fill: #f7e88b;
      }

      .cls-9 {
        fill: #686868;
        font-size: 11px;
        font-family: TrebuchetMS, Trebuchet MS;
      }

      .cls-10 {
        fill: #c17dbe;
        opacity: 0.89;
      }

      .cls-11 {
        fill: #353639;
      }

      .cls-12, .cls-24 {
        fill: #34ffd6;
      }

      .cls-13 {
        fill: #dbdbdb;
      }

      .cls-14, .cls-23 {
        fill: #34aeff;
      }

      .cls-15 {
        font-size: 12px;
        font-family: Helvetica;
        letter-spacing: 0.045em;
      }

      .cls-16 {
        opacity: 0.91;
      }

      .cls-17 {
        fill: #ffdb77;
      }

      .cls-18 {
        fill: #ff905e;
      }

      .cls-19 {
        fill: #28d2e4;
      }

      .cls-20 {
        fill: #28c3e4;
      }

      .cls-21, .cls-22 {
        fill: none;
        stroke-miterlimit: 10;
        stroke-width: 3px;
      }

      .cls-21 {
        stroke: #34aeff;
      }

      .cls-22 {
        stroke: #34ffd6;
      }

      .cls-23, .cls-24 {
        opacity: 0.45;
      }

      .cls-25 {
        filter: url(#Rectangle_84);
      }

      .cls-26 {
        filter: url(#Path_263);
      }

      .cls-27 {
        filter: url(#Rectangle_149);
      }
    </style>
    <filter id="Rectangle_149" x="6.839" y="8197.68" width="186.13" height="139.183" filterUnits="userSpaceOnUse">
      <feOffset dy="6" input="SourceAlpha"/>
      <feGaussianBlur stdDeviation="9" result="blur"/>
      <feFlood flood-opacity="0.161"/>
      <feComposite operator="in" in2="blur"/>
      <feComposite in="SourceGraphic"/>
    </filter>
    <filter id="Path_263" x="-251" y="8212.677" width="160.407" height="103.201" filterUnits="userSpaceOnUse">
      <feOffset dy="3" input="SourceAlpha"/>
      <feGaussianBlur stdDeviation="3" result="blur-2"/>
      <feFlood flood-opacity="0.161"/>
      <feComposite operator="in" in2="blur-2"/>
      <feComposite in="SourceGraphic"/>
    </filter>
    <filter id="Rectangle_84" x="-108.01" y="8092" width="160.407" height="103.201" filterUnits="userSpaceOnUse">
      <feOffset dy="3" input="SourceAlpha"/>
      <feGaussianBlur stdDeviation="3" result="blur-3"/>
      <feFlood flood-opacity="0.161"/>
      <feComposite operator="in" in2="blur-3"/>
      <feComposite in="SourceGraphic"/>
    </filter>
    <clipPath id="clip-ixAnypoint-end-to-end_1">
      <rect x="-248" y="8051" width="420" height="300"/>
    </clipPath>
  </defs>
  <g id="ixAnypoint-end-to-end_1" data-name="ixAnypoint-end-to-end – 1" class="cls-1">
    <g id="Group_742" data-name="Group 742" transform="translate(-644 6236.997)">
      <g id="Group_400" data-name="Group 400" transform="translate(677.839 1981.683)">
        <g class="cls-27" transform="matrix(1, 0, 0, 1, -33.84, -8218.68)">
          <rect id="Rectangle_149-2" data-name="Rectangle 149" class="cls-2" width="132.13" height="85.183" rx="4" transform="translate(33.84 8218.68)"/>
        </g>
        <g id="Group_353" data-name="Group 353" class="cls-3" transform="translate(9.127 60.173)">
          <rect id="Rectangle_19" data-name="Rectangle 19" class="cls-4" width="16.928" height="6.085" rx="3.042" transform="translate(0 0.052)"/>
          <rect id="Rectangle_20" data-name="Rectangle 20" class="cls-5" width="37.184" height="6.085" rx="3.042" transform="translate(22.311 0)"/>
          <rect id="Rectangle_21" data-name="Rectangle 21" class="cls-6" width="52.755" height="6.085" rx="3.042" transform="translate(0 10.648)"/>
          <rect id="Rectangle_95" data-name="Rectangle 95" class="cls-7" width="15.404" height="6.085" rx="3.042" transform="translate(64.903 0)"/>
          <rect id="Rectangle_96" data-name="Rectangle 96" class="cls-8" width="28.472" height="6.085" rx="3.042" transform="translate(85.185 0)"/>
        </g>
        <g id="ixlayer-logo" transform="translate(29.409 19.119)">
          <text id="ix_layer" data-name="ix layer" class="cls-9" transform="translate(27.272 10.418)"><tspan x="0" y="0">ixlayer</tspan></text>
          <path id="Path_4" data-name="Path 4" class="cls-10" d="M259,1086.917l11.78-4.532,11.747,4.532-11.747,4.569Z" transform="translate(-259 -1071.418)"/>
          <path id="Path_3" data-name="Path 3" class="cls-8" d="M259,1086.917l11.78-4.532,11.747,4.532-11.747,4.569Z" transform="translate(-259 -1076.379)"/>
          <path id="Path_2" data-name="Path 2" class="cls-7" d="M259,1086.917l11.78-4.532,11.747,4.532-11.747,4.569Z" transform="translate(-259 -1079.251)"/>
          <path id="Path_1" data-name="Path 1" class="cls-5" d="M259,1086.917l11.78-4.532,11.747,4.532-11.747,4.569Z" transform="translate(-259 -1082.385)"/>
        </g>
      </g>
      <g id="Group_401" data-name="Group 401" transform="translate(402 1981.68)">
        <g id="Group_312" data-name="Group 312" transform="translate(0 0)">
          <g class="cls-26" transform="matrix(1, 0, 0, 1, 242, -8218.68)">
            <path id="Path_263-2" data-name="Path 263" class="cls-11" d="M2.028,0H140.379a2.028,2.028,0,0,1,2.028,2.028V83.173a2.028,2.028,0,0,1-2.028,2.028H2.028A2.028,2.028,0,0,1,0,83.173V2.028A2.028,2.028,0,0,1,2.028,0Z" transform="translate(-242 8218.68)"/>
          </g>
          <g id="Group_311" data-name="Group 311" transform="translate(15.212 15.212)">
            <rect id="Rectangle_116" data-name="Rectangle 116" class="cls-12" width="52.558" height="6.085" rx="3.042" transform="translate(22.311 0)"/>
            <rect id="Rectangle_117" data-name="Rectangle 117" class="cls-12" width="112.391" height="6.085" rx="3.042" transform="translate(0 12.169)"/>
            <rect id="Rectangle_118" data-name="Rectangle 118" class="cls-12" width="112.391" height="6.085" rx="3.042" transform="translate(0 24.339)"/>
            <rect id="Rectangle_119" data-name="Rectangle 119" class="cls-12" width="112.391" height="6.085" rx="3.042" transform="translate(0 36.508)"/>
            <rect id="Rectangle_120" data-name="Rectangle 120" class="cls-12" width="28.22" height="6.085" rx="3.042" transform="translate(0 48.678)"/>
            <rect id="Rectangle_121" data-name="Rectangle 121" class="cls-4" width="18.079" height="6.085" rx="3.042" transform="translate(0 0)"/>
          </g>
        </g>
      </g>
      <g id="Group_402" data-name="Group 402" transform="translate(544.99 1861.003)">
        <g id="Group_365" data-name="Group 365" transform="translate(0 0)">
          <g id="Group_302" data-name="Group 302">
            <g class="cls-25" transform="matrix(1, 0, 0, 1, 99.01, -8098)">
              <rect id="Rectangle_84-2" data-name="Rectangle 84" class="cls-2" width="142.407" height="85.201" rx="2" transform="translate(-99.01 8098)"/>
            </g>
            <g id="Group_223" data-name="Group 223" transform="translate(80.115 70.985)">
              <rect id="Rectangle_85" data-name="Rectangle 85" class="cls-13" width="26.367" height="10.141" rx="5.071"/>
              <rect id="Rectangle_86" data-name="Rectangle 86" class="cls-13" width="26.367" height="10.141" rx="5.071" transform="translate(31.438)"/>
            </g>
            <path id="Rectangle_154" data-name="Rectangle 154" class="cls-14" d="M2,0H140.407a2,2,0,0,1,2,2V27.4a0,0,0,0,1,0,0H0a0,0,0,0,1,0,0V2A2,2,0,0,1,2,0Z"/>
          </g>
          <g id="Group_364" data-name="Group 364" transform="translate(25.081 7.47)">
            <g id="Group_62" data-name="Group 62" transform="translate(14.11 1.657)">
              <text id="Genetic_Product" data-name="Genetic Product" class="cls-15" transform="translate(0 9)"><tspan x="0" y="0">Genetic Product</tspan></text>
            </g>
            <g id="dna" class="cls-16" transform="translate(0 0)">
              <path id="Path_89" data-name="Path 89" class="cls-17" d="M154.086,213.694l-2.884-2.884a.509.509,0,1,1,.72-.72l2.884,2.884a.509.509,0,0,1-.72.72Z" transform="translate(-147.15 -204.516)"/>
              <path id="Path_90" data-name="Path 90" class="cls-18" d="M214.794,272.961l-1.442-1.442-.72.72,1.442,1.442a.509.509,0,0,0,.72-.72Z" transform="translate(-207.138 -264.503)"/>
              <path id="Path_91" data-name="Path 91" class="cls-17" d="M326.943,40.837l-2.884-2.884a.509.509,0,0,1,.72-.72l2.884,2.884a.509.509,0,1,1-.72.72Z" transform="translate(-315.54 -36.125)"/>
              <path id="Path_92" data-name="Path 92" class="cls-18" d="M387.65,100.105l-1.442-1.442-.72.72,1.442,1.442a.509.509,0,1,0,.72-.72Z" transform="translate(-375.527 -96.113)"/>
              <path id="Path_93" data-name="Path 93" class="cls-19" d="M40.119,327.666l-2.884-2.884a.509.509,0,0,1,.72-.72l2.884,2.884a.509.509,0,0,1-.72.72Z" transform="translate(-36.127 -315.543)"/>
              <path id="Path_94" data-name="Path 94" class="cls-20" d="M100.825,386.93l-1.442-1.442-.72.72,1.442,1.442a.509.509,0,0,0,.72-.72Z" transform="translate(-96.114 -375.527)"/>
              <path id="Path_95" data-name="Path 95" class="cls-19" d="M212.973,154.806l-2.884-2.884a.509.509,0,0,1,.72-.72l2.884,2.884a.509.509,0,1,1-.72.72Z" transform="translate(-204.515 -147.15)"/>
              <path id="Path_96" data-name="Path 96" class="cls-20" d="M273.682,214.074l-1.442-1.442-.72.72,1.442,1.442a.509.509,0,0,0,.72-.72Z" transform="translate(-264.504 -207.137)"/>
              <path id="Path_97" data-name="Path 97" class="cls-2" d="M9.47,5a4.5,4.5,0,0,0,3.613-.854.509.509,0,0,0-.72-.72c-.7.7-2.108.679-3.082.519C9.144,3.129,9.068,1.6,9.8.868a.509.509,0,0,0-.72-.72A4.5,4.5,0,0,0,8.23,3.762C4.986,3.378,3.372,4.914,3.764,8.228a4.5,4.5,0,0,0-3.613.854.509.509,0,0,0,.72.72c.7-.7,2.1-.679,3.079-.519.16.975.177,2.383-.519,3.079a.509.509,0,0,0,.72.72A4.5,4.5,0,0,0,5,9.468C8.248,9.852,9.862,8.316,9.47,5ZM8.416,4.816c.459,2.8-.6,3.7-2.535,3.689a6.881,6.881,0,0,1-1.063-.091,6.879,6.879,0,0,1-.091-1.063C4.72,5.46,5.562,4.349,8.416,4.816Z" transform="translate(-0.002 0)"/>
            </g>
          </g>
        </g>
      </g>
      <path id="Path_572" data-name="Path 572" class="cls-21" d="M395.917,121.327H340.141Q330,121.327,330,111.186V26" transform="translate(281.415 1904.467)"/>
      <path id="Path_573" data-name="Path 573" class="cls-14" d="M5.578,0A5.578,5.578,0,1,1,0,5.578,5.578,5.578,0,0,1,5.578,0Z" transform="translate(683.417 2019.709) rotate(90)"/>
      <path id="Path_574" data-name="Path 574" class="cls-22" d="M95.327,30.423H10.141Q0,30.423,0,20.282V0" transform="translate(545.497 2025.794) rotate(-90)"/>
      <path id="Path_575" data-name="Path 575" class="cls-12" d="M5.578,0A5.578,5.578,0,1,1,0,5.578,5.578,5.578,0,0,1,5.578,0Z" transform="translate(539.412 2030.864) rotate(-90)"/>
      <path id="Path_576" data-name="Path 576" class="cls-23" d="M14.7,0A14.7,14.7,0,1,1,0,14.7,14.7,14.7,0,0,1,14.7,0Z" transform="translate(596.71 1899.536)"/>
      <circle id="Ellipse_289" data-name="Ellipse 289" class="cls-24" cx="14.705" cy="14.705" r="14.705" transform="translate(561.216 1899.536)"/>
    </g>
  </g>
</svg>
